<?xml version="1.0" encoding="utf-8"?>
<svg version="1.1" xmlns:xlink="http://www.w3.org/1999/xlink" width="50px" height="28px" xmlns="http://www.w3.org/2000/svg">
  <g transform="matrix(1 0 0 1 -150 -120 )">
    <path d="M 49.498997995992 24.9275362318841  C 49.8329993319973 25.1207729468599  50 25.3429951690821  50 25.5942028985507  C 50 25.8454106280193  49.8329993319973 26.0676328502415  49.498997995992 26.2608695652174  L 46.9939879759519 27.7101449275362  C 46.6599866399466 27.9033816425121  46.2758851035404 28  45.8416833667335 28  C 45.4074816299265 28  45.0233800935204 27.9033816425121  44.689378757515 27.7101449275362  L 25 16.3188405797101  L 5.31062124248497 27.7101449275362  C 4.97661990647963 27.9033816425121  4.59251837007348 28  4.15831663326653 28  C 3.72411489645959 28  3.34001336005344 27.9033816425121  3.0060120240481 27.7101449275362  L 0.501002004008016 26.2608695652174  C 0.167000668002672 26.0676328502415  0 25.8454106280193  0 25.5942028985507  C 0 25.3429951690821  0.167000668002672 25.1207729468599  0.501002004008016 24.9275362318841  L 23.8476953907816 11.4202898550725  C 24.1816967267869 11.2270531400966  24.5657982631931 11.1304347826087  25 11.1304347826087  C 25.4342017368069 11.1304347826087  25.8183032732131 11.2270531400966  26.1523046092184 11.4202898550725  L 49.498997995992 24.9275362318841  Z M 49.498997995992 13.7971014492754  C 49.8329993319973 13.9903381642512  50 14.2125603864734  50 14.463768115942  C 50 14.7149758454106  49.8329993319973 14.9371980676328  49.498997995992 15.1304347826087  L 46.9939879759519 16.5797101449275  C 46.6599866399466 16.7729468599034  46.2758851035404 16.8695652173913  45.8416833667335 16.8695652173913  C 45.4074816299265 16.8695652173913  45.0233800935204 16.7729468599034  44.689378757515 16.5797101449275  L 25 5.18840579710145  L 5.31062124248497 16.5797101449275  C 4.97661990647963 16.7729468599034  4.59251837007348 16.8695652173913  4.15831663326653 16.8695652173913  C 3.72411489645959 16.8695652173913  3.34001336005344 16.7729468599034  3.0060120240481 16.5797101449275  L 0.501002004008016 15.1304347826087  C 0.167000668002672 14.9371980676328  0 14.7149758454106  0 14.463768115942  C 0 14.2125603864734  0.167000668002672 13.9903381642512  0.501002004008016 13.7971014492754  L 23.8476953907816 0.289855072463768  C 24.1816967267869 0.0966183574879205  24.5657982631931 0  25 0  C 25.4342017368069 0  25.8183032732131 0.0966183574879205  26.1523046092184 0.289855072463768  L 49.498997995992 13.7971014492754  Z " fill-rule="nonzero" fill="#facd91" stroke="none" fill-opacity="0.690196078431373" transform="matrix(1 0 0 1 150 120 )" />
  </g>
</svg>