<?xml version="1.0" encoding="utf-8"?>
<svg version="1.1" xmlns:xlink="http://www.w3.org/1999/xlink" width="77px" height="43px" xmlns="http://www.w3.org/2000/svg">
  <g transform="matrix(1 0 0 1 -137 0 )">
    <path d="M 76.2284569138277 38.2815734989648  C 76.7428189712759 38.5783298826777  77 38.9195997239475  77 39.3053830227743  C 77 39.6911663216011  76.7428189712759 40.0324361628709  76.2284569138277 40.3291925465838  L 72.3707414829659 42.5548654244306  C 71.8563794255177 42.8516218081435  71.2648630594523 43  70.5961923847695 43  C 69.9275217100869 43  69.3360053440214 42.8516218081435  68.8216432865731 42.5548654244306  L 38.5 25.0610766045549  L 8.17835671342685 42.5548654244306  C 7.66399465597862 42.8516218081435  7.07247828991316 43  6.40380761523046 43  C 5.73513694054776 43  5.1436205744823 42.8516218081435  4.62925851703407 42.5548654244306  L 0.771543086172345 40.3291925465838  C 0.257181028724116 40.0324361628709  0 39.6911663216011  0 39.3053830227743  C 0 38.9195997239475  0.257181028724116 38.5783298826777  0.771543086172345 38.2815734989648  L 36.7254509018036 17.5383022774327  C 37.2398129592518 17.2415458937198  37.8313293253173 17.0931677018634  38.5 17.0931677018634  C 39.1686706746827 17.0931677018634  39.7601870407482 17.2415458937198  40.2745490981964 17.5383022774327  L 76.2284569138277 38.2815734989648  Z M 76.2284569138277 21.1884057971014  C 76.7428189712759 21.4851621808144  77 21.8264320220842  77 22.212215320911  C 77 22.5979986197378  76.7428189712759 22.9392684610076  76.2284569138277 23.2360248447205  L 72.3707414829659 25.4616977225673  C 71.8563794255177 25.7584541062802  71.2648630594523 25.9068322981366  70.5961923847695 25.9068322981366  C 69.9275217100869 25.9068322981366  69.3360053440214 25.7584541062802  68.8216432865731 25.4616977225673  L 38.5 7.96790890269151  L 8.17835671342685 25.4616977225673  C 7.66399465597862 25.7584541062802  7.07247828991316 25.9068322981366  6.40380761523046 25.9068322981366  C 5.73513694054776 25.9068322981366  5.1436205744823 25.7584541062802  4.62925851703407 25.4616977225673  L 0.771543086172345 23.2360248447205  C 0.257181028724116 22.9392684610076  0 22.5979986197378  0 22.212215320911  C 0 21.8264320220842  0.257181028724116 21.4851621808144  0.771543086172345 21.1884057971014  L 36.7254509018036 0.445134575569357  C 37.2398129592518 0.148378191856449  37.8313293253173 0  38.5 0  C 39.1686706746827 0  39.7601870407482 0.148378191856449  40.2745490981964 0.445134575569357  L 76.2284569138277 21.1884057971014  Z " fill-rule="nonzero" fill="#facd91" stroke="none" fill-opacity="0.690196078431373" transform="matrix(1 0 0 1 137 0 )" />
  </g>
</svg>