<?xml version="1.0" encoding="utf-8"?>
<svg version="1.1" xmlns:xlink="http://www.w3.org/1999/xlink" width="63px" height="35px" xmlns="http://www.w3.org/2000/svg">
  <g transform="matrix(1 0 0 1 -144 -62 )">
    <path d="M 62.3687374749499 31.1594202898551  C 62.7895791583166 31.4009661835749  63 31.6787439613527  63 31.9927536231884  C 63 32.3067632850242  62.7895791583166 32.5845410628019  62.3687374749499 32.8260869565217  L 59.2124248496994 34.6376811594203  C 58.7915831663327 34.8792270531401  58.3076152304609 35  57.7605210420842 35  C 57.2134268537074 35  56.7294589178357 34.8792270531401  56.3086172344689 34.6376811594203  L 31.5 20.3985507246377  L 6.69138276553106 34.6376811594203  C 6.27054108216433 34.8792270531401  5.78657314629259 35  5.23947895791583 35  C 4.69238476953908 35  4.20841683366734 34.8792270531401  3.7875751503006 34.6376811594203  L 0.6312625250501 32.8260869565217  C 0.210420841683367 32.5845410628019  0 32.3067632850242  0 31.9927536231884  C 0 31.6787439613527  0.210420841683367 31.4009661835749  0.6312625250501 31.1594202898551  L 30.0480961923848 14.2753623188406  C 30.4689378757515 14.0338164251208  30.9529058116233 13.9130434782609  31.5 13.9130434782609  C 32.0470941883768 13.9130434782609  32.5310621242485 14.0338164251208  32.9519038076152 14.2753623188406  L 62.3687374749499 31.1594202898551  Z M 62.3687374749499 17.2463768115942  C 62.7895791583166 17.487922705314  63 17.7657004830918  63 18.0797101449275  C 63 18.3937198067633  62.7895791583166 18.6714975845411  62.3687374749499 18.9130434782609  L 59.2124248496994 20.7246376811594  C 58.7915831663327 20.9661835748792  58.3076152304609 21.0869565217391  57.7605210420842 21.0869565217391  C 57.2134268537074 21.0869565217391  56.7294589178357 20.9661835748792  56.3086172344689 20.7246376811594  L 31.5 6.48550724637681  L 6.69138276553106 20.7246376811594  C 6.27054108216433 20.9661835748792  5.78657314629259 21.0869565217391  5.23947895791583 21.0869565217391  C 4.69238476953908 21.0869565217391  4.20841683366734 20.9661835748792  3.7875751503006 20.7246376811594  L 0.6312625250501 18.9130434782609  C 0.210420841683367 18.6714975845411  0 18.3937198067633  0 18.0797101449275  C 0 17.7657004830918  0.210420841683367 17.487922705314  0.6312625250501 17.2463768115942  L 30.0480961923848 0.36231884057971  C 30.4689378757515 0.120772946859901  30.9529058116233 0  31.5 0  C 32.0470941883768 0  32.5310621242485 0.120772946859901  32.9519038076152 0.36231884057971  L 62.3687374749499 17.2463768115942  Z " fill-rule="nonzero" fill="#facd91" stroke="none" fill-opacity="0.690196078431373" transform="matrix(1 0 0 1 144 62 )" />
  </g>
</svg>