<?xml version="1.0" encoding="utf-8"?>
<svg version="1.1" xmlns:xlink="http://www.w3.org/1999/xlink" width="30px" height="10px" xmlns="http://www.w3.org/2000/svg">
  <g transform="matrix(1 0 0 1 -935 -799 )">
    <path d="M 29.6993987975952 1.03092783505155  C 29.8997995991984 1.14547537227949  30 1.27720504009164  30 1.42611683848797  C 30 1.57502863688431  29.8997995991984 1.70675830469645  29.6993987975952 1.8213058419244  L 15.6913827655311 9.82817869415807  C 15.4909819639279 9.94272623138602  15.2605210420842 10  15 10  C 14.7394789579158 10  14.5090180360721 9.94272623138602  14.3086172344689 9.82817869415807  L 0.30060120240481 1.8213058419244  C 0.100200400801604 1.70675830469645  0 1.57502863688431  0 1.42611683848797  C 0 1.27720504009164  0.100200400801604 1.14547537227949  0.30060120240481 1.03092783505155  L 1.80360721442886 0.171821305841925  C 2.00400801603206 0.0572737686139735  2.23446893787575 0  2.49498997995992 0  C 2.75551102204409 0  2.98597194388778 0.0572737686139735  3.18637274549098 0.171821305841925  L 15 6.92439862542955  L 26.813627254509 0.171821305841925  C 27.0140280561122 0.0572737686139735  27.2444889779559 0  27.5050100200401 0  C 27.7655310621243 0  27.9959919839679 0.0572737686139735  28.1963927855711 0.171821305841925  L 29.6993987975952 1.03092783505155  Z " fill-rule="nonzero" fill="#a30014" stroke="none" transform="matrix(1 0 0 1 935 799 )" />
  </g>
</svg>