<?xml version="1.0" encoding="utf-8"?>
<svg version="1.1" xmlns:xlink="http://www.w3.org/1999/xlink" width="164px" height="158px" xmlns="http://www.w3.org/2000/svg">
  <defs>
    <mask fill="white" id="clip124">
      <path d="M 41.3246753246753 64.5649350649351  L 30.6103896103896 26.2532467532469  L 69.4090909090909 35.8311688311687  L 85.4805194805194 0.603896103896204  L 100.902597402597 35.8311688311687  L 137.428571428571 26.2532467532469  L 128.824675324675 61.9675324675322  L 163.402597402597 80.4740259740261  L 128.824675324675 97.0324675324673  L 137.428571428571 134.207792207792  L 104.636363636364 122.844155844156  L 85.4805194805194 157.909090909091  L 64.2142857142857 121.87012987013  L 29.6363636363636 134.207792207792  L 41.3246753246753 97.0324675324673  L 0.57792207792204 80.4740259740261  L 41.3246753246753 64.5649350649351  Z " fill-rule="evenodd" />
    </mask>
  </defs>
  <g>
    <path d="M 41.3246753246753 64.5649350649351  L 30.6103896103896 26.2532467532469  L 69.4090909090909 35.8311688311687  L 85.4805194805194 0.603896103896204  L 100.902597402597 35.8311688311687  L 137.428571428571 26.2532467532469  L 128.824675324675 61.9675324675322  L 163.402597402597 80.4740259740261  L 128.824675324675 97.0324675324673  L 137.428571428571 134.207792207792  L 104.636363636364 122.844155844156  L 85.4805194805194 157.909090909091  L 64.2142857142857 121.87012987013  L 29.6363636363636 134.207792207792  L 41.3246753246753 97.0324675324673  L 0.57792207792204 80.4740259740261  L 41.3246753246753 64.5649350649351  Z " fill-rule="nonzero" fill="#f2ab7f" stroke="none" />
    <path d="M 41.3246753246753 64.5649350649351  L 30.6103896103896 26.2532467532469  L 69.4090909090909 35.8311688311687  L 85.4805194805194 0.603896103896204  L 100.902597402597 35.8311688311687  L 137.428571428571 26.2532467532469  L 128.824675324675 61.9675324675322  L 163.402597402597 80.4740259740261  L 128.824675324675 97.0324675324673  L 137.428571428571 134.207792207792  L 104.636363636364 122.844155844156  L 85.4805194805194 157.909090909091  L 64.2142857142857 121.87012987013  L 29.6363636363636 134.207792207792  L 41.3246753246753 97.0324675324673  L 0.57792207792204 80.4740259740261  L 41.3246753246753 64.5649350649351  Z " stroke-width="4" stroke="#ffe7d0" fill="none" mask="url(#clip124)" />
  </g>
</svg>