<?xml version="1.0" encoding="utf-8"?>
<svg version="1.1" xmlns:xlink="http://www.w3.org/1999/xlink" width="66px" height="64px" xmlns="http://www.w3.org/2000/svg">
  <defs>
    <mask fill="white" id="clip15">
      <path d="M 16.6306620209059 26.152885089594  L 12.3188153310104 10.6342265329608  L 27.9329268292683 14.513891172119  L 34.4006968641115 0.244616143350361  L 40.6071428571429 14.513891172119  L 55.3066202090592 10.6342265329608  L 51.8440766550523 25.1007726450764  L 65.7595818815331 32.5970738122637  L 51.8440766550523 39.3042906460627  L 55.3066202090592 54.3626500082195  L 42.109756097561 49.7596580634556  L 34.4006968641115 63.9631760644419  L 25.8423344947735 49.3651158967615  L 11.9268292682927 54.3626500082195  L 16.6306620209059 39.3042906460627  L 0.232578397212528 32.5970738122637  L 16.6306620209059 26.152885089594  Z " fill-rule="evenodd" />
    </mask>
  </defs>
  <g>
    <path d="M 16.6306620209059 26.152885089594  L 12.3188153310104 10.6342265329608  L 27.9329268292683 14.513891172119  L 34.4006968641115 0.244616143350361  L 40.6071428571429 14.513891172119  L 55.3066202090592 10.6342265329608  L 51.8440766550523 25.1007726450764  L 65.7595818815331 32.5970738122637  L 51.8440766550523 39.3042906460627  L 55.3066202090592 54.3626500082195  L 42.109756097561 49.7596580634556  L 34.4006968641115 63.9631760644419  L 25.8423344947735 49.3651158967615  L 11.9268292682927 54.3626500082195  L 16.6306620209059 39.3042906460627  L 0.232578397212528 32.5970738122637  L 16.6306620209059 26.152885089594  Z " fill-rule="nonzero" fill="#f2ab7f" stroke="none" />
    <path d="M 16.6306620209059 26.152885089594  L 12.3188153310104 10.6342265329608  L 27.9329268292683 14.513891172119  L 34.4006968641115 0.244616143350361  L 40.6071428571429 14.513891172119  L 55.3066202090592 10.6342265329608  L 51.8440766550523 25.1007726450764  L 65.7595818815331 32.5970738122637  L 51.8440766550523 39.3042906460627  L 55.3066202090592 54.3626500082195  L 42.109756097561 49.7596580634556  L 34.4006968641115 63.9631760644419  L 25.8423344947735 49.3651158967615  L 11.9268292682927 54.3626500082195  L 16.6306620209059 39.3042906460627  L 0.232578397212528 32.5970738122637  L 16.6306620209059 26.152885089594  Z " stroke-width="4" stroke="#ffe7d0" fill="none" mask="url(#clip15)" />
  </g>
</svg>