<?xml version="1.0" encoding="utf-8"?>
<svg version="1.1" xmlns:xlink="http://www.w3.org/1999/xlink" width="34px" height="33px" xmlns="http://www.w3.org/2000/svg">
  <g transform="matrix(1 0 0 1 -32 0 )">
    <path d="M 33.6593186372746 15.167701863354  C 33.8864395457582 15.3954451345756  34 15.6573498964803  34 15.9534161490683  C 34 16.2494824016563  33.8864395457582 16.5113871635611  33.6593186372746 16.7391304347826  L 17.7835671342685 32.6583850931677  C 17.5564462257849 32.8861283643892  17.2952571810287 33  17 33  C 16.7047428189713 33  16.4435537742151 32.8861283643892  16.2164328657315 32.6583850931677  L 0.340681362725451 16.7391304347826  C 0.113560454241817 16.5113871635611  0 16.2494824016563  0 15.9534161490683  C 0 15.6573498964803  0.113560454241817 15.3954451345756  0.340681362725451 15.167701863354  L 2.04408817635271 13.4596273291925  C 2.27120908483634 13.231884057971  2.53239812959252 13.1180124223602  2.82765531062124 13.1180124223602  C 3.12291249164997 13.1180124223602  3.38410153640615 13.231884057971  3.61122244488978 13.4596273291925  L 17 26.8850931677019  L 30.3887775551102 13.4596273291925  C 30.6158984635939 13.231884057971  30.87708750835 13.1180124223602  31.1723446893788 13.1180124223602  C 31.4676018704075 13.1180124223602  31.7287909151637 13.231884057971  31.9559118236473 13.4596273291925  L 33.6593186372746 15.167701863354  Z M 33.6593186372746 2.04968944099379  C 33.8864395457582 2.27743271221532  34 2.53933747412008  34 2.83540372670808  C 34 3.13146997929606  33.8864395457582 3.39337474120082  33.6593186372746 3.62111801242236  L 17.7835671342685 19.5403726708075  C 17.5564462257849 19.768115942029  17.2952571810287 19.8819875776398  17 19.8819875776398  C 16.7047428189713 19.8819875776398  16.4435537742151 19.768115942029  16.2164328657315 19.5403726708075  L 0.340681362725451 3.62111801242236  C 0.113560454241817 3.39337474120082  0 3.13146997929606  0 2.83540372670808  C 0 2.53933747412008  0.113560454241817 2.27743271221532  0.340681362725451 2.04968944099379  L 2.04408817635271 0.341614906832298  C 2.27120908483634 0.113871635610763  2.53239812959252 0  2.82765531062124 0  C 3.12291249164997 0  3.38410153640615 0.113871635610763  3.61122244488978 0.341614906832298  L 17 13.7670807453416  L 30.3887775551102 0.341614906832298  C 30.6158984635939 0.113871635610763  30.87708750835 0  31.1723446893788 0  C 31.4676018704075 0  31.7287909151637 0.113871635610763  31.9559118236473 0.341614906832298  L 33.6593186372746 2.04968944099379  Z " fill-rule="nonzero" fill="#ffff00" stroke="none" transform="matrix(1 0 0 1 32 0 )" />
  </g>
</svg>