<?xml version="1.0" encoding="utf-8"?>
<svg version="1.1" xmlns:xlink="http://www.w3.org/1999/xlink" width="157px" height="110px" xmlns="http://www.w3.org/2000/svg">
  <defs>
    <mask fill="white" id="clip162">
      <path d="M 156.614147192734 32.0504084499988  L 78.7329660512797 109.640708835767  L 0.385531562261256 31.5859533353216  C 20.1623768231126 11.9758615557859  47.5755240690498 0  78.2670623145401 0  C 109.200165917516 0  136.803068651402 12.1651214167633  156.614147192734 32.0504084499988  Z " fill-rule="evenodd" />
    </mask>
  </defs>
  <g transform="matrix(1 0 0 1 -1026 -12896 )">
    <path d="M 156.614147192734 32.0504084499988  L 78.7329660512797 109.640708835767  L 0.385531562261256 31.5859533353216  C 20.1623768231126 11.9758615557859  47.5755240690498 0  78.2670623145401 0  C 109.200165917516 0  136.803068651402 12.1651214167633  156.614147192734 32.0504084499988  Z " fill-rule="nonzero" fill="#f59a23" stroke="none" transform="matrix(1 0 0 1 1026 12896 )" />
    <path d="M 156.614147192734 32.0504084499988  L 78.7329660512797 109.640708835767  L 0.385531562261256 31.5859533353216  C 20.1623768231126 11.9758615557859  47.5755240690498 0  78.2670623145401 0  C 109.200165917516 0  136.803068651402 12.1651214167633  156.614147192734 32.0504084499988  Z " stroke-width="8" stroke="#b8741a" fill="none" transform="matrix(1 0 0 1 1026 12896 )" mask="url(#clip162)" />
  </g>
</svg>