<?xml version="1.0" encoding="utf-8"?>
<svg version="1.1" xmlns:xlink="http://www.w3.org/1999/xlink" width="33px" height="34px" xmlns="http://www.w3.org/2000/svg">
  <g transform="matrix(1 0 0 1 -65 -32 )">
    <path d="M 19.5403726708075 30.3887775551102  C 19.768115942029 30.6158984635939  19.8819875776398 30.87708750835  19.8819875776398 31.1723446893788  C 19.8819875776398 31.4676018704075  19.768115942029 31.7287909151637  19.5403726708075 31.9559118236473  L 17.832298136646 33.6593186372746  C 17.6045548654244 33.8864395457582  17.3426501035197 34  17.0465838509317 34  C 16.7505175983437 34  16.4886128364389 33.8864395457582  16.2608695652174 33.6593186372746  L 0.341614906832298 17.7835671342685  C 0.113871635610766 17.5564462257849  0 17.2952571810287  0 17  C 0 16.7047428189713  0.113871635610766 16.4435537742151  0.341614906832298 16.2164328657315  L 16.2608695652174 0.340681362725451  C 16.4886128364389 0.113560454241816  16.7505175983437 0  17.0465838509317 0  C 17.3426501035197 0  17.6045548654244 0.113560454241816  17.832298136646 0.340681362725451  L 19.5403726708075 2.0440881763527  C 19.768115942029 2.27120908483634  19.8819875776398 2.53239812959251  19.8819875776398 2.82765531062124  C 19.8819875776398 3.12291249164997  19.768115942029 3.38410153640614  19.5403726708075 3.61122244488978  L 6.11490683229814 17  L 19.5403726708075 30.3887775551102  Z M 32.6583850931677 30.3887775551102  C 32.8861283643892 30.6158984635939  33 30.87708750835  33 31.1723446893788  C 33 31.4676018704075  32.8861283643892 31.7287909151637  32.6583850931677 31.9559118236473  L 30.9503105590062 33.6593186372746  C 30.7225672877847 33.8864395457582  30.4606625258799 34  30.1645962732919 34  C 29.8685300207039 34  29.6066252587992 33.8864395457582  29.3788819875776 33.6593186372746  L 13.4596273291925 17.7835671342685  C 13.231884057971 17.5564462257849  13.1180124223603 17.2952571810287  13.1180124223602 17  C 13.1180124223603 16.7047428189713  13.231884057971 16.4435537742151  13.4596273291925 16.2164328657315  L 29.3788819875776 0.340681362725451  C 29.6066252587992 0.113560454241816  29.8685300207039 0  30.1645962732919 0  C 30.4606625258799 0  30.7225672877847 0.113560454241816  30.9503105590062 0.340681362725451  L 32.6583850931677 2.0440881763527  C 32.8861283643892 2.27120908483634  33 2.53239812959251  33 2.82765531062124  C 33 3.12291249164997  32.8861283643892 3.38410153640614  32.6583850931677 3.61122244488978  L 19.2329192546584 17  L 32.6583850931677 30.3887775551102  Z " fill-rule="nonzero" fill="#ffff00" stroke="none" transform="matrix(1 0 0 1 65 32 )" />
  </g>
</svg>