<?xml version="1.0" encoding="utf-8"?>
<svg version="1.1" xmlns:xlink="http://www.w3.org/1999/xlink" width="33px" height="34px" xmlns="http://www.w3.org/2000/svg">
  <g transform="matrix(1 0 0 1 0 -32 )">
    <path d="M 19.5403726708075 16.2164328657315  C 19.768115942029 16.4435537742151  19.8819875776398 16.7047428189713  19.8819875776398 17  C 19.8819875776398 17.2952571810287  19.768115942029 17.5564462257849  19.5403726708075 17.7835671342685  L 3.62111801242236 33.6593186372746  C 3.39337474120083 33.8864395457582  3.13146997929607 34  2.83540372670807 34  C 2.53933747412008 34  2.27743271221532 33.8864395457582  2.04968944099379 33.6593186372746  L 0.341614906832298 31.9559118236473  C 0.113871635610766 31.7287909151637  0 31.4676018704075  0 31.1723446893788  C 0 30.87708750835  0.113871635610766 30.6158984635939  0.341614906832298 30.3887775551102  L 13.7670807453416 17  L 0.341614906832298 3.61122244488978  C 0.113871635610766 3.38410153640614  0 3.12291249164997  0 2.82765531062124  C 0 2.53239812959251  0.113871635610766 2.27120908483634  0.341614906832298 2.0440881763527  L 2.04968944099379 0.340681362725451  C 2.27743271221532 0.113560454241816  2.53933747412008 0  2.83540372670807 0  C 3.13146997929607 0  3.39337474120083 0.113560454241816  3.62111801242236 0.340681362725451  L 19.5403726708075 16.2164328657315  Z M 32.6583850931677 16.2164328657315  C 32.8861283643892 16.4435537742151  33 16.7047428189713  33 17  C 33 17.2952571810287  32.8861283643892 17.5564462257849  32.6583850931677 17.7835671342685  L 16.7391304347826 33.6593186372746  C 16.5113871635611 33.8864395457582  16.2494824016563 34  15.9534161490683 34  C 15.6573498964803 34  15.3954451345756 33.8864395457582  15.167701863354 33.6593186372746  L 13.4596273291925 31.9559118236473  C 13.231884057971 31.7287909151637  13.1180124223602 31.4676018704075  13.1180124223602 31.1723446893788  C 13.1180124223602 30.87708750835  13.231884057971 30.6158984635939  13.4596273291925 30.3887775551102  L 26.8850931677019 17  L 13.4596273291925 3.61122244488978  C 13.231884057971 3.38410153640614  13.1180124223602 3.12291249164997  13.1180124223602 2.82765531062124  C 13.1180124223602 2.53239812959251  13.231884057971 2.27120908483634  13.4596273291925 2.0440881763527  L 15.167701863354 0.340681362725451  C 15.3954451345756 0.113560454241816  15.6573498964803 0  15.9534161490683 0  C 16.2494824016563 0  16.5113871635611 0.113560454241816  16.7391304347826 0.340681362725451  L 32.6583850931677 16.2164328657315  Z " fill-rule="nonzero" fill="#ffff00" stroke="none" transform="matrix(1 0 0 1 0 32 )" />
  </g>
</svg>