<?xml version="1.0" encoding="utf-8"?>
<svg version="1.1" xmlns:xlink="http://www.w3.org/1999/xlink" width="34px" height="33px" xmlns="http://www.w3.org/2000/svg">
  <g transform="matrix(1 0 0 1 -32 -65 )">
    <path d="M 33.6593186372746 29.3788819875776  C 33.8864395457582 29.6066252587992  34 29.8685300207039  34 30.1645962732919  C 34 30.4606625258799  33.8864395457582 30.7225672877847  33.6593186372746 30.9503105590062  L 31.9559118236473 32.6583850931677  C 31.7287909151637 32.8861283643892  31.4676018704075 33  31.1723446893788 33  C 30.87708750835 33  30.6158984635939 32.8861283643892  30.3887775551102 32.6583850931677  L 17 19.2329192546584  L 3.61122244488978 32.6583850931677  C 3.38410153640615 32.8861283643892  3.12291249164997 33  2.82765531062124 33  C 2.53239812959252 33  2.27120908483634 32.8861283643892  2.04408817635271 32.6583850931677  L 0.340681362725451 30.9503105590062  C 0.113560454241817 30.7225672877847  0 30.4606625258799  0 30.1645962732919  C 0 29.8685300207039  0.113560454241817 29.6066252587992  0.340681362725451 29.3788819875776  L 16.2164328657315 13.4596273291925  C 16.4435537742151 13.231884057971  16.7047428189713 13.1180124223602  17 13.1180124223602  C 17.2952571810287 13.1180124223602  17.5564462257849 13.231884057971  17.7835671342685 13.4596273291925  L 33.6593186372746 29.3788819875776  Z M 33.6593186372746 16.2608695652174  C 33.8864395457582 16.4886128364389  34 16.7505175983437  34 17.0465838509317  C 34 17.3426501035197  33.8864395457582 17.6045548654244  33.6593186372746 17.832298136646  L 31.9559118236473 19.5403726708075  C 31.7287909151637 19.768115942029  31.4676018704075 19.8819875776398  31.1723446893788 19.8819875776398  C 30.87708750835 19.8819875776398  30.6158984635939 19.768115942029  30.3887775551102 19.5403726708075  L 17 6.11490683229814  L 3.61122244488978 19.5403726708075  C 3.38410153640615 19.768115942029  3.12291249164997 19.8819875776398  2.82765531062124 19.8819875776398  C 2.53239812959252 19.8819875776398  2.27120908483634 19.768115942029  2.04408817635271 19.5403726708075  L 0.340681362725451 17.832298136646  C 0.113560454241817 17.6045548654244  0 17.3426501035197  0 17.0465838509317  C 0 16.7505175983437  0.113560454241817 16.4886128364389  0.340681362725451 16.2608695652174  L 16.2164328657315 0.341614906832298  C 16.4435537742151 0.113871635610763  16.7047428189713 0  17 0  C 17.2952571810287 0  17.5564462257849 0.113871635610763  17.7835671342685 0.341614906832298  L 33.6593186372746 16.2608695652174  Z " fill-rule="nonzero" fill="#ffff00" stroke="none" transform="matrix(1 0 0 1 32 65 )" />
  </g>
</svg>