<?xml version="1.0" encoding="utf-8"?>
<svg version="1.1" xmlns:xlink="http://www.w3.org/1999/xlink" width="125px" height="147px" xmlns="http://www.w3.org/2000/svg">
  <defs>
    <mask fill="white" id="clip184">
      <path d="M 105.811577755975 0.288423825994007  L 124.887997076579 126.247096326108  L 1.38945146573348 146.702919357064  C 0.630702950678769 140.804305802688  0.239287046035597 134.769120761839  0.239287046036096 128.622503833243  C 0.23928704603568 62.6220980070118  45.368668916369 9.46954060757414  105.811577755975 0.288423825994007  Z " fill-rule="evenodd" />
    </mask>
  </defs>
  <g transform="matrix(1 0 0 1 -284 -9481 )">
    <path d="M 105.811577755975 0.288423825994007  L 124.887997076579 126.247096326108  L 1.38945146573348 146.702919357064  C 0.630702950678769 140.804305802688  0.239287046035597 134.769120761839  0.239287046036096 128.622503833243  C 0.23928704603568 62.6220980070118  45.368668916369 9.46954060757414  105.811577755975 0.288423825994007  Z " fill-rule="nonzero" fill="#f37c51" stroke="none" transform="matrix(1 0 0 1 284 9481 )" />
    <path d="M 105.811577755975 0.288423825994007  L 124.887997076579 126.247096326108  L 1.38945146573348 146.702919357064  C 0.630702950678769 140.804305802688  0.239287046035597 134.769120761839  0.239287046036096 128.622503833243  C 0.23928704603568 62.6220980070118  45.368668916369 9.46954060757414  105.811577755975 0.288423825994007  Z " stroke-width="4" stroke="#ffffff" fill="none" transform="matrix(1 0 0 1 284 9481 )" mask="url(#clip184)" />
  </g>
</svg>