<?xml version="1.0" encoding="utf-8"?>
<svg version="1.1" xmlns:xlink="http://www.w3.org/1999/xlink" width="157px" height="156px" xmlns="http://www.w3.org/2000/svg">
  <defs>
    <mask fill="white" id="clip185">
      <path d="M 156.692448203669 0.61147560887577  C 155.358223481098 0.799817226655787  156.952402691839 155.394376208726  156.952402691839 155.394376208726  L 0.0923211655033279 155.197236587881  C 0.0913741077163245 154.969206215993  0.0909001223541048 154.741045372452  0.0909001223538695 154.51275497222  C 0.0909001223539849 68.3124723026192  67.6691609919189 0.58367877650174  153.677856644093 0.583678776502336  C 154.685275424667 0.583678776502266  155.69016565875 0.592970765825904  156.692448203669 0.61147560887577  Z " fill-rule="evenodd" />
    </mask>
  </defs>
  <g transform="matrix(1 0 0 1 -1035 -8565 )">
    <path d="M 156.692448203669 0.61147560887577  C 155.358223481098 0.799817226655787  156.952402691839 155.394376208726  156.952402691839 155.394376208726  L 0.0923211655033279 155.197236587881  C 0.0913741077163245 154.969206215993  0.0909001223541048 154.741045372452  0.0909001223538695 154.51275497222  C 0.0909001223539849 68.3124723026192  67.6691609919189 0.58367877650174  153.677856644093 0.583678776502336  C 154.685275424667 0.583678776502266  155.69016565875 0.592970765825904  156.692448203669 0.61147560887577  Z " fill-rule="nonzero" fill="#f59a23" stroke="none" transform="matrix(1 0 0 1 1035 8565 )" />
    <path d="M 156.692448203669 0.61147560887577  C 155.358223481098 0.799817226655787  156.952402691839 155.394376208726  156.952402691839 155.394376208726  L 0.0923211655033279 155.197236587881  C 0.0913741077163245 154.969206215993  0.0909001223541048 154.741045372452  0.0909001223538695 154.51275497222  C 0.0909001223539849 68.3124723026192  67.6691609919189 0.58367877650174  153.677856644093 0.583678776502336  C 154.685275424667 0.583678776502266  155.69016565875 0.592970765825904  156.692448203669 0.61147560887577  Z " stroke-width="8" stroke="#b8741a" fill="none" transform="matrix(1 0 0 1 1035 8565 )" mask="url(#clip185)" />
  </g>
</svg>