<?xml version="1.0" encoding="utf-8"?>
<svg version="1.1" xmlns:xlink="http://www.w3.org/1999/xlink" width="96px" height="96px" xmlns="http://www.w3.org/2000/svg">
  <g transform="matrix(1 0 0 1 -223 -7386 )">
    <path d="M 271 7386  C 297.88 7386  319 7407.12  319 7434  C 319 7460.88  297.88 7482  271 7482  C 244.12 7482  223 7460.88  223 7434  C 223 7407.12  244.12 7386  271 7386  Z " fill-rule="nonzero" fill="#ec808d" stroke="none" />
    <path d="M 271 7386.5  C 297.6 7386.5  318.5 7407.4  318.5 7434  C 318.5 7460.6  297.6 7481.5  271 7481.5  C 244.4 7481.5  223.5 7460.6  223.5 7434  C 223.5 7407.4  244.4 7386.5  271 7386.5  Z " stroke-width="1" stroke="#facd91" fill="none" />
  </g>
</svg>