<?xml version="1.0" encoding="utf-8"?>
<svg version="1.1" xmlns:xlink="http://www.w3.org/1999/xlink" width="275px" height="323px" xmlns="http://www.w3.org/2000/svg">
  <defs>
    <mask fill="white" id="clip195">
      <path d="M 232.785471063146 0.633747590449417  L 274.753593568475 277.400082403625  L 3.05679322461365 322.347230968242  C 1.38754649149329 309.386331797744  0.526431501278313 296.125346980096  0.526431501279412 282.619515225426  C 0.526431501278496 137.59821534874  99.8110716160118 20.8072218792275  232.785471063146 0.633747590449417  Z " fill-rule="evenodd" />
    </mask>
  </defs>
  <g transform="matrix(1 0 0 1 -856 -7771 )">
    <path d="M 232.785471063146 0.633747590449417  L 274.753593568475 277.400082403625  L 3.05679322461365 322.347230968242  C 1.38754649149329 309.386331797744  0.526431501278313 296.125346980096  0.526431501279412 282.619515225426  C 0.526431501278496 137.59821534874  99.8110716160118 20.8072218792275  232.785471063146 0.633747590449417  Z " fill-rule="nonzero" fill="#f37c51" stroke="none" transform="matrix(1 0 0 1 856 7771 )" />
    <path d="M 232.785471063146 0.633747590449417  L 274.753593568475 277.400082403625  L 3.05679322461365 322.347230968242  C 1.38754649149329 309.386331797744  0.526431501278313 296.125346980096  0.526431501279412 282.619515225426  C 0.526431501278496 137.59821534874  99.8110716160118 20.8072218792275  232.785471063146 0.633747590449417  Z " stroke-width="6" stroke="#ffffff" fill="none" transform="matrix(1 0 0 1 856 7771 )" mask="url(#clip195)" />
  </g>
</svg>