<?xml version="1.0" encoding="utf-8"?>
<svg version="1.1" xmlns:xlink="http://www.w3.org/1999/xlink" width="153px" height="108px" xmlns="http://www.w3.org/2000/svg">
  <defs>
    <mask fill="white" id="clip190">
      <path d="M 152.623977837505 31.4676737509079  L 76.7270306104828 107.64724140239  L 0.375709102076256 31.0116632746794  C 19.6486856938613 11.758118618408  46.3634088061441 0  76.2729970326409 0  C 106.417996085223 0  133.317640150729 11.9439373910039  152.623977837505 31.4676737509079  Z " fill-rule="evenodd" />
    </mask>
  </defs>
  <g transform="matrix(1 0 0 1 -348 -7380 )">
    <path d="M 152.623977837505 31.4676737509079  L 76.7270306104828 107.64724140239  L 0.375709102076256 31.0116632746794  C 19.6486856938613 11.758118618408  46.3634088061441 0  76.2729970326409 0  C 106.417996085223 0  133.317640150729 11.9439373910039  152.623977837505 31.4676737509079  Z " fill-rule="nonzero" fill="#f59a23" stroke="none" transform="matrix(1 0 0 1 348 7380 )" />
    <path d="M 152.623977837505 31.4676737509079  L 76.7270306104828 107.64724140239  L 0.375709102076256 31.0116632746794  C 19.6486856938613 11.758118618408  46.3634088061441 0  76.2729970326409 0  C 106.417996085223 0  133.317640150729 11.9439373910039  152.623977837505 31.4676737509079  Z " stroke-width="4" stroke="#b8741a" fill="none" transform="matrix(1 0 0 1 348 7380 )" mask="url(#clip190)" />
  </g>
</svg>