<?xml version="1.0" encoding="utf-8"?>
<svg version="1.1" xmlns:xlink="http://www.w3.org/1999/xlink" width="337px" height="237px" xmlns="http://www.w3.org/2000/svg">
  <defs>
    <mask fill="white" id="clip207">
      <path d="M 336.171768178034 69.0540618422701  L 169.000060887142 236.225890855244  L 0.827542270586264 68.053372186102  C 43.2784776394201 25.8025380792842  102.120710899808 0  168 0  C 234.39780837072 0  293.647351181672 26.2103070524809  336.171768178034 69.0540618422701  Z " fill-rule="evenodd" />
    </mask>
  </defs>
  <g transform="matrix(1 0 0 1 -905 -5795 )">
    <path d="M 336.171768178034 69.0540618422701  L 169.000060887142 236.225890855244  L 0.827542270586264 68.053372186102  C 43.2784776394201 25.8025380792842  102.120710899808 0  168 0  C 234.39780837072 0  293.647351181672 26.2103070524809  336.171768178034 69.0540618422701  Z " fill-rule="nonzero" fill="#f59a23" stroke="none" transform="matrix(1 0 0 1 905 5795 )" />
    <path d="M 336.171768178034 69.0540618422701  L 169.000060887142 236.225890855244  L 0.827542270586264 68.053372186102  C 43.2784776394201 25.8025380792842  102.120710899808 0  168 0  C 234.39780837072 0  293.647351181672 26.2103070524809  336.171768178034 69.0540618422701  Z " stroke-width="8" stroke="#b8741a" fill="none" transform="matrix(1 0 0 1 905 5795 )" mask="url(#clip207)" />
  </g>
</svg>