<?xml version="1.0" encoding="utf-8"?>
<svg version="1.1" xmlns:xlink="http://www.w3.org/1999/xlink" width="106px" height="75px" xmlns="http://www.w3.org/2000/svg">
  <defs>
    <mask fill="white" id="clip192">
      <path d="M 105.739487913565 21.8525512159083  L 53.1572891811188 74.7550287516595  L 0.260295194902504 21.5358772740829  C 13.6128149251588 8.16536015167222  32.1210544670018 0  52.8427299703264 0  C 73.7275005557754 0  92.3638552678256 8.29440096597495  105.739487913565 21.8525512159083  Z " fill-rule="evenodd" />
    </mask>
  </defs>
  <g transform="matrix(1 0 0 1 -354 -9580 )">
    <path d="M 105.739487913565 21.8525512159083  L 53.1572891811188 74.7550287516595  L 0.260295194902504 21.5358772740829  C 13.6128149251588 8.16536015167222  32.1210544670018 0  52.8427299703264 0  C 73.7275005557754 0  92.3638552678256 8.29440096597495  105.739487913565 21.8525512159083  Z " fill-rule="nonzero" fill="#f59a23" stroke="none" transform="matrix(1 0 0 1 354 9580 )" />
    <path d="M 105.739487913565 21.8525512159083  L 53.1572891811188 74.7550287516595  L 0.260295194902504 21.5358772740829  C 13.6128149251588 8.16536015167222  32.1210544670018 0  52.8427299703264 0  C 73.7275005557754 0  92.3638552678256 8.29440096597495  105.739487913565 21.8525512159083  Z " stroke-width="4" stroke="#b8741a" fill="none" transform="matrix(1 0 0 1 354 9580 )" mask="url(#clip192)" />
  </g>
</svg>