<?xml version="1.0" encoding="utf-8"?>
<svg version="1.1" xmlns:xlink="http://www.w3.org/1999/xlink" width="300px" height="295px" xmlns="http://www.w3.org/2000/svg">
  <defs>
    <mask fill="white" id="clip71">
      <path d="M 286.502940077603 120.587590910432  C 309.892199008631 181.518693582944  300.143135929141 245.783659310758  265.678428858504 294.464842645888  C 159.297557017315 299.379262482045  59.0924801563958 236.931828417536  18.3746841116465 130.858343202929  C 6.61131774273463 100.21372611129  0.97407835195213 68.9527933112679  0.89063636513697 38.3610174643457  C 14.413153305039 28.3630440153413  29.5735053283192 19.9805916361697  46.2005421336976 13.5980701973772  C 143.442279357647 -23.7295354272605  249.175334452966 23.3458536864809  286.502940077603 120.587590910432  Z " fill-rule="evenodd" />
    </mask>
  </defs>
  <g transform="matrix(1 0 0 1 -895 -5910 )">
    <path d="M 286.502940077603 120.587590910432  C 309.892199008631 181.518693582944  300.143135929141 245.783659310758  265.678428858504 294.464842645888  C 159.297557017315 299.379262482045  59.0924801563958 236.931828417536  18.3746841116465 130.858343202929  C 6.61131774273463 100.21372611129  0.97407835195213 68.9527933112679  0.89063636513697 38.3610174643457  C 14.413153305039 28.3630440153413  29.5735053283192 19.9805916361697  46.2005421336976 13.5980701973772  C 143.442279357647 -23.7295354272605  249.175334452966 23.3458536864809  286.502940077603 120.587590910432  Z " fill-rule="nonzero" fill="#ff9933" stroke="none" transform="matrix(1 0 0 1 895 5910 )" />
    <path d="M 286.502940077603 120.587590910432  C 309.892199008631 181.518693582944  300.143135929141 245.783659310758  265.678428858504 294.464842645888  C 159.297557017315 299.379262482045  59.0924801563958 236.931828417536  18.3746841116465 130.858343202929  C 6.61131774273463 100.21372611129  0.97407835195213 68.9527933112679  0.89063636513697 38.3610174643457  C 14.413153305039 28.3630440153413  29.5735053283192 19.9805916361697  46.2005421336976 13.5980701973772  C 143.442279357647 -23.7295354272605  249.175334452966 23.3458536864809  286.502940077603 120.587590910432  Z " stroke-width="4" stroke="#ff0000" fill="none" transform="matrix(1 0 0 1 895 5910 )" mask="url(#clip71)" />
  </g>
</svg>