<?xml version="1.0" encoding="utf-8"?>
<svg version="1.1" xmlns:xlink="http://www.w3.org/1999/xlink" width="255px" height="342px" xmlns="http://www.w3.org/2000/svg">
  <defs>
    <mask fill="white" id="clip54">
      <path d="M 0.804986772217423 99.8840937470612  C 0.804986772217168 67.0592655674285  6.74508680592115 35.8544646697131  17.6302989834924 7.26467859351614  C 33.8376093600913 2.77680294533061  50.9950195391173 0.384093747059009  68.8049867722151 0.384093747061527  C 172.964986772216 0.384093747062619  254.804986772217 82.2240937470606  254.804986772214 186.384093747062  C 254.804986772214 251.650139331508  222.672948309042 308.152901698723  173.051596529684 341.249655194539  C 71.9753262651551 307.714166448596  0.804986772217097 213.50417639232  0.804986772217423 99.8840937470612  Z " fill-rule="evenodd" />
    </mask>
  </defs>
  <g transform="matrix(1 0 0 1 -799 -7626 )">
    <path d="M 0.804986772217423 99.8840937470612  C 0.804986772217168 67.0592655674285  6.74508680592115 35.8544646697131  17.6302989834924 7.26467859351614  C 33.8376093600913 2.77680294533061  50.9950195391173 0.384093747059009  68.8049867722151 0.384093747061527  C 172.964986772216 0.384093747062619  254.804986772217 82.2240937470606  254.804986772214 186.384093747062  C 254.804986772214 251.650139331508  222.672948309042 308.152901698723  173.051596529684 341.249655194539  C 71.9753262651551 307.714166448596  0.804986772217097 213.50417639232  0.804986772217423 99.8840937470612  Z " fill-rule="nonzero" fill="#ff9933" stroke="none" transform="matrix(1 0 0 1 799 7626 )" />
    <path d="M 0.804986772217423 99.8840937470612  C 0.804986772217168 67.0592655674285  6.74508680592115 35.8544646697131  17.6302989834924 7.26467859351614  C 33.8376093600913 2.77680294533061  50.9950195391173 0.384093747059009  68.8049867722151 0.384093747061527  C 172.964986772216 0.384093747062619  254.804986772217 82.2240937470606  254.804986772214 186.384093747062  C 254.804986772214 251.650139331508  222.672948309042 308.152901698723  173.051596529684 341.249655194539  C 71.9753262651551 307.714166448596  0.804986772217097 213.50417639232  0.804986772217423 99.8840937470612  Z " stroke-width="4" stroke="#ff0000" fill="none" transform="matrix(1 0 0 1 799 7626 )" mask="url(#clip54)" />
  </g>
</svg>