<?xml version="1.0" encoding="utf-8"?>
<svg version="1.1" xmlns:xlink="http://www.w3.org/1999/xlink" width="14px" height="18px" xmlns="http://www.w3.org/2000/svg">
  <g transform="matrix(1 0 0 1 -900 -14390 )">
    <path d="M 907 14407.0601686115  C 904.4 14402.9216422225  900.5 14400.438526389  900.5 14396.3  C 900.5 14394.1457142857  901.8 14390.5  907 14390.5  C 912.2 14390.5  913.5 14394.1457142857  913.5 14396.3  C 913.5 14400.438526389  909.6 14402.9216422225  907 14407.0601686115  Z " fill-rule="nonzero" fill="#cc0000" stroke="none" />
    <path d="M 907 14408  C 904.2 14403.5  900 14400.8  900 14396.3  C 900 14393.96  901.4 14390  907 14390  C 912.6 14390  914 14393.96  914 14396.3  C 914 14400.8  909.8 14403.5  907 14408  Z M 907 14406.120337223  C 909.4 14402.3432844449  913 14400.0770527781  913 14396.3  C 913 14394.3314285714  911.8 14391  907 14391  C 902.2 14391  901 14394.3314285714  901 14396.3  C 901 14400.0770527781  904.6 14402.3432844449  907 14406.120337223  Z " fill-rule="nonzero" fill="#ffffff" stroke="none" />
  </g>
</svg>