<?xml version="1.0" encoding="utf-8"?>
<svg version="1.1" xmlns:xlink="http://www.w3.org/1999/xlink" width="255px" height="342px" xmlns="http://www.w3.org/2000/svg">
  <defs>
    <mask fill="white" id="clip120">
      <path d="M 0.732962913142321 100.562422224449  C 0.732962913142339 67.737594044815  6.67306294684608 36.5327931471  17.5582751244202 7.94300707090213  C 33.7655855010174 3.45513142271617  50.9229956800435 1.06242222444656  68.7329629131429 1.06242222444791  C 172.892962913143 1.06242222444791  254.732962913144 82.9024222244473  254.732962913143 187.062422224448  C 254.732962913143 252.328467808894  222.600924449968 308.83123017611  172.979572670612 341.927983671925  C 71.9033024060813 308.392494925983  0.732962913143029 214.182504869707  0.732962913142321 100.562422224449  Z " fill-rule="evenodd" />
    </mask>
  </defs>
  <g transform="matrix(1 0 0 1 -875 -3246 )">
    <path d="M 0.732962913142321 100.562422224449  C 0.732962913142339 67.737594044815  6.67306294684608 36.5327931471  17.5582751244202 7.94300707090213  C 33.7655855010174 3.45513142271617  50.9229956800435 1.06242222444656  68.7329629131429 1.06242222444791  C 172.892962913143 1.06242222444791  254.732962913144 82.9024222244473  254.732962913143 187.062422224448  C 254.732962913143 252.328467808894  222.600924449968 308.83123017611  172.979572670612 341.927983671925  C 71.9033024060813 308.392494925983  0.732962913143029 214.182504869707  0.732962913142321 100.562422224449  Z " fill-rule="nonzero" fill="#ff9933" stroke="none" transform="matrix(1 0 0 1 875 3246 )" />
    <path d="M 0.732962913142321 100.562422224449  C 0.732962913142339 67.737594044815  6.67306294684608 36.5327931471  17.5582751244202 7.94300707090213  C 33.7655855010174 3.45513142271617  50.9229956800435 1.06242222444656  68.7329629131429 1.06242222444791  C 172.892962913143 1.06242222444791  254.732962913144 82.9024222244473  254.732962913143 187.062422224448  C 254.732962913143 252.328467808894  222.600924449968 308.83123017611  172.979572670612 341.927983671925  C 71.9033024060813 308.392494925983  0.732962913143029 214.182504869707  0.732962913142321 100.562422224449  Z " stroke-width="4" stroke="#ff0000" fill="none" transform="matrix(1 0 0 1 875 3246 )" mask="url(#clip120)" />
  </g>
</svg>