<?xml version="1.0" encoding="utf-8"?>
<svg version="1.1" xmlns:xlink="http://www.w3.org/1999/xlink" width="1140px" height="47px" xmlns="http://www.w3.org/2000/svg">
  <defs>
    <mask fill="white" id="clip44">
      <path d="M 0 42  L 0 5  C 0 2.2  2.2 0  5 0  L 1135 0  C 1137.8 0  1140 2.2  1140 5  L 1140 42  C 1140 44.8  1137.8 47  1135 47  L 246 47  L 5 47  C 2.2 47  0 44.8  0 42  Z " fill-rule="evenodd" />
    </mask>
  </defs>
  <g transform="matrix(1 0 0 1 -30 -95 )">
    <path d="M 0 42  L 0 5  C 0 2.2  2.2 0  5 0  L 1135 0  C 1137.8 0  1140 2.2  1140 5  L 1140 42  C 1140 44.8  1137.8 47  1135 47  L 246 47  L 5 47  C 2.2 47  0 44.8  0 42  Z " fill-rule="nonzero" fill="#cc0000" stroke="none" transform="matrix(1 0 0 1 30 95 )" />
    <path d="M 0 42  L 0 5  C 0 2.2  2.2 0  5 0  L 1135 0  C 1137.8 0  1140 2.2  1140 5  L 1140 42  C 1140 44.8  1137.8 47  1135 47  L 246 47  L 5 47  C 2.2 47  0 44.8  0 42  Z " stroke-width="2" stroke="#d7d7d7" fill="none" transform="matrix(1 0 0 1 30 95 )" mask="url(#clip44)" />
  </g>
</svg>