<?xml version="1.0" encoding="utf-8"?>
<svg version="1.1" xmlns:xlink="http://www.w3.org/1999/xlink" width="193px" height="193px" xmlns="http://www.w3.org/2000/svg">
  <g transform="matrix(1 0 0 1 -892 -6472 )">
    <path d="M 988.5 6473  C 1041.98 6473  1084 6515.02  1084 6568.5  C 1084 6621.98  1041.98 6664  988.5 6664  C 935.02 6664  893 6621.98  893 6568.5  C 893 6515.02  935.02 6473  988.5 6473  Z " fill-rule="nonzero" fill="#ff6633" stroke="none" />
    <path d="M 988.5 6473  C 1041.98 6473  1084 6515.02  1084 6568.5  C 1084 6621.98  1041.98 6664  988.5 6664  C 935.02 6664  893 6621.98  893 6568.5  C 893 6515.02  935.02 6473  988.5 6473  Z " stroke-width="2" stroke="#ff0000" fill="none" />
  </g>
</svg>