<?xml version="1.0" encoding="utf-8"?>
<svg version="1.1" xmlns:xlink="http://www.w3.org/1999/xlink" width="226px" height="226px" xmlns="http://www.w3.org/2000/svg">
  <g transform="matrix(1 0 0 1 -714 -785 )">
    <path d="M 827 786  C 889.72 786  939 835.28  939 898  C 939 960.72  889.72 1010  827 1010  C 764.28 1010  715 960.72  715 898  C 715 835.28  764.28 786  827 786  Z " fill-rule="nonzero" fill="#ff6633" stroke="none" />
    <path d="M 827 786  C 889.72 786  939 835.28  939 898  C 939 960.72  889.72 1010  827 1010  C 764.28 1010  715 960.72  715 898  C 715 835.28  764.28 786  827 786  Z " stroke-width="2" stroke="#ff0000" fill="none" />
  </g>
</svg>