<?xml version="1.0" encoding="utf-8"?>
<svg version="1.1" xmlns:xlink="http://www.w3.org/1999/xlink" width="266px" height="249px" xmlns="http://www.w3.org/2000/svg">
  <defs>
    <mask fill="white" id="clip107">
      <path d="M 131.5 248.5  C 83.2234523222241 248.5  38.5721924986119 235.207277868068  0.934100389779814 212.009637580351  L 133.5 0.5  L 264.938720659602 210.211216951635  C 226.70841226027 234.518946971444  181.010713361302 248.5  131.5 248.5  Z " fill-rule="evenodd" />
    </mask>
  </defs>
  <g transform="matrix(1 0 0 1 -758 -12340 )">
    <path d="M 131.5 248.5  C 83.2234523222241 248.5  38.5721924986119 235.207277868068  0.934100389779814 212.009637580351  L 133.5 0.5  L 264.938720659602 210.211216951635  C 226.70841226027 234.518946971444  181.010713361302 248.5  131.5 248.5  Z " fill-rule="nonzero" fill="#f9bca6" stroke="none" transform="matrix(1 0 0 1 758 12340 )" />
    <path d="M 131.5 248.5  C 83.2234523222241 248.5  38.5721924986119 235.207277868068  0.934100389779814 212.009637580351  L 133.5 0.5  L 264.938720659602 210.211216951635  C 226.70841226027 234.518946971444  181.010713361302 248.5  131.5 248.5  Z " stroke-width="4" stroke="#fafefd" fill="none" transform="matrix(1 0 0 1 758 12340 )" mask="url(#clip107)" />
  </g>
</svg>