<?xml version="1.0" encoding="utf-8"?>
<svg version="1.1" xmlns:xlink="http://www.w3.org/1999/xlink" width="351px" height="306px" xmlns="http://www.w3.org/2000/svg">
  <defs>
    <mask fill="white" id="clip302">
      <path d="M 0 130.500001870126  C 0 78.2245884256562  21.8471335537879 31.9074840687288  57.0900893743187 0  L 293.909910629351 0  C 329.152866446212 31.9074840687292  351 78.2245884256567  351 130.500001870126  C 351 228.780000822855  273.78 306  175.5 306  C 77.22 306  0 228.780000822855  0 130.500001870126  Z " fill-rule="evenodd" />
    </mask>
  </defs>
  <g transform="matrix(1 0 0 1 -751 -3437 )">
    <path d="M 0 130.500001870126  C 0 78.2245884256562  21.8471335537879 31.9074840687288  57.0900893743187 0  L 293.909910629351 0  C 329.152866446212 31.9074840687292  351 78.2245884256567  351 130.500001870126  C 351 228.780000822855  273.78 306  175.5 306  C 77.22 306  0 228.780000822855  0 130.500001870126  Z " fill-rule="nonzero" fill="#f8e881" stroke="none" transform="matrix(1 0 0 1 751 3437 )" />
    <path d="M 0 130.500001870126  C 0 78.2245884256562  21.8471335537879 31.9074840687288  57.0900893743187 0  L 293.909910629351 0  C 329.152866446212 31.9074840687292  351 78.2245884256567  351 130.500001870126  C 351 228.780000822855  273.78 306  175.5 306  C 77.22 306  0 228.780000822855  0 130.500001870126  Z " stroke-width="4" stroke="#fafefd" fill="none" transform="matrix(1 0 0 1 751 3437 )" mask="url(#clip302)" />
  </g>
</svg>