<?xml version="1.0" encoding="utf-8"?>
<svg version="1.1" xmlns:xlink="http://www.w3.org/1999/xlink" width="13px" height="13px" xmlns="http://www.w3.org/2000/svg">
  <g transform="matrix(1 0 0 1 -58 -10 )">
    <path d="M 64.5 10  C 68.14 10  71 12.86  71 16.5  C 71 20.14  68.14 23  64.5 23  C 60.86 23  58 20.14  58 16.5  C 58 12.86  60.86 10  64.5 10  Z " fill-rule="nonzero" fill="#7f7f7f" stroke="none" />
    <path d="M 64.5 10.5  C 67.86 10.5  70.5 13.14  70.5 16.5  C 70.5 19.86  67.86 22.5  64.5 22.5  C 61.14 22.5  58.5 19.86  58.5 16.5  C 58.5 13.14  61.14 10.5  64.5 10.5  Z " stroke-width="1" stroke="#d7d7d7" fill="none" />
  </g>
</svg>