<?xml version="1.0" encoding="utf-8"?>
<svg version="1.1" xmlns:xlink="http://www.w3.org/1999/xlink" width="33px" height="13px" xmlns="http://www.w3.org/2000/svg">
  <defs>
    <mask fill="white" id="clip146">
      <path d="M 32.3852570497398 4.71213481037375  L 28.200953308737 12.4440001831945  C 24.9422994113178 10.0864610463759  20.9090762119829 8.70833333333303  16.5 8.70833333333303  C 11.8964222941888 8.70833333333303  7.70258969952909 10.2107320742216  4.37234815351218 12.7616856816621  L 0.243214527446071 4.96221102454547  C 4.82822799726853 1.82250450978609  10.4155906563907 0  16.5 0  C 22.4210221730806 0  27.8713340403863 1.72593778784085  32.3852570497398 4.71213481037375  Z " fill-rule="evenodd" />
    </mask>
  </defs>
  <g transform="matrix(1 0 0 1 -20 -9 )">
    <path d="M 32.3852570497398 4.71213481037375  L 28.200953308737 12.4440001831945  C 24.9422994113178 10.0864610463759  20.9090762119829 8.70833333333303  16.5 8.70833333333303  C 11.8964222941888 8.70833333333303  7.70258969952909 10.2107320742216  4.37234815351218 12.7616856816621  L 0.243214527446071 4.96221102454547  C 4.82822799726853 1.82250450978609  10.4155906563907 0  16.5 0  C 22.4210221730806 0  27.8713340403863 1.72593778784085  32.3852570497398 4.71213481037375  Z " fill-rule="nonzero" fill="#7f7f7f" stroke="none" transform="matrix(1 0 0 1 20 9 )" />
    <path d="M 32.3852570497398 4.71213481037375  L 28.200953308737 12.4440001831945  C 24.9422994113178 10.0864610463759  20.9090762119829 8.70833333333303  16.5 8.70833333333303  C 11.8964222941888 8.70833333333303  7.70258969952909 10.2107320742216  4.37234815351218 12.7616856816621  L 0.243214527446071 4.96221102454547  C 4.82822799726853 1.82250450978609  10.4155906563907 0  16.5 0  C 22.4210221730806 0  27.8713340403863 1.72593778784085  32.3852570497398 4.71213481037375  Z " stroke-width="2" stroke="#d7d7d7" fill="none" transform="matrix(1 0 0 1 20 9 )" mask="url(#clip146)" />
  </g>
</svg>