<?xml version="1.0" encoding="utf-8"?>
<svg version="1.1" xmlns:xlink="http://www.w3.org/1999/xlink" width="159px" height="159px" xmlns="http://www.w3.org/2000/svg">
  <g transform="matrix(1 0 0 1 -792 -2844 )">
    <path d="M 871.5 2845  C 915.46 2845  950 2879.54  950 2923.5  C 950 2967.46  915.46 3002  871.5 3002  C 827.54 3002  793 2967.46  793 2923.5  C 793 2879.54  827.54 2845  871.5 2845  Z " fill-rule="nonzero" fill="#f8e881" stroke="none" />
    <path d="M 871.5 2845  C 915.46 2845  950 2879.54  950 2923.5  C 950 2967.46  915.46 3002  871.5 3002  C 827.54 3002  793 2967.46  793 2923.5  C 793 2879.54  827.54 2845  871.5 2845  Z " stroke-width="2" stroke="#fafefd" fill="none" />
  </g>
</svg>