<?xml version="1.0" encoding="utf-8"?>
<svg version="1.1" xmlns:xlink="http://www.w3.org/1999/xlink" width="201px" height="201px" xmlns="http://www.w3.org/2000/svg">
  <defs>
    <mask fill="white" id="clip147">
      <path d="M 201 100.5  C 201 156.78  156.78 201  100.5 201  C 44.22 201  0 156.78  0 100.5  C 0 44.22  44.22 0  100.5 0  C 156.78 0  201 44.22  201 100.5  Z M 79.3061224489796 100.5  C 79.3061224489796 112.879047619048  89.0325170068027 122.605442176871  101.41156462585 122.605442176871  C 113.790612244898 122.605442176871  123.517006802721 112.879047619048  123.517006802721 100.5  C 123.517006802721 88.1209523809524  113.790612244898 78.3945578231293  101.41156462585 78.3945578231293  C 89.0325170068027 78.3945578231293  79.3061224489796 88.1209523809524  79.3061224489796 100.5  Z " fill-rule="evenodd" />
    </mask>
  </defs>
  <g transform="matrix(1 0 0 1 -296 -2885 )">
    <path d="M 201 100.5  C 201 156.78  156.78 201  100.5 201  C 44.22 201  0 156.78  0 100.5  C 0 44.22  44.22 0  100.5 0  C 156.78 0  201 44.22  201 100.5  Z M 79.3061224489796 100.5  C 79.3061224489796 112.879047619048  89.0325170068027 122.605442176871  101.41156462585 122.605442176871  C 113.790612244898 122.605442176871  123.517006802721 112.879047619048  123.517006802721 100.5  C 123.517006802721 88.1209523809524  113.790612244898 78.3945578231293  101.41156462585 78.3945578231293  C 89.0325170068027 78.3945578231293  79.3061224489796 88.1209523809524  79.3061224489796 100.5  Z " fill-rule="nonzero" fill="#f8e881" stroke="none" transform="matrix(1 0 0 1 296 2885 )" />
    <path d="M 201 100.5  C 201 156.78  156.78 201  100.5 201  C 44.22 201  0 156.78  0 100.5  C 0 44.22  44.22 0  100.5 0  C 156.78 0  201 44.22  201 100.5  Z " stroke-width="4" stroke="#fafefd" fill="none" transform="matrix(1 0 0 1 296 2885 )" mask="url(#clip147)" />
    <path d="M 79.3061224489796 100.5  C 79.3061224489796 112.879047619048  89.0325170068027 122.605442176871  101.41156462585 122.605442176871  C 113.790612244898 122.605442176871  123.517006802721 112.879047619048  123.517006802721 100.5  C 123.517006802721 88.1209523809524  113.790612244898 78.3945578231293  101.41156462585 78.3945578231293  C 89.0325170068027 78.3945578231293  79.3061224489796 88.1209523809524  79.3061224489796 100.5  Z " stroke-width="4" stroke="#fafefd" fill="none" transform="matrix(1 0 0 1 296 2885 )" mask="url(#clip147)" />
  </g>
</svg>