<?xml version="1.0" encoding="utf-8"?>
<svg version="1.1" xmlns:xlink="http://www.w3.org/1999/xlink" width="17px" height="17px" xmlns="http://www.w3.org/2000/svg">
  <g transform="matrix(1 0 0 1 -594 -1016 )">
    <path d="M 0 8.5  C 0 3.7399999999973  3.74000000000002 0  8.5 0  C 13.26 0  17 3.7399999999973  17 8.5  C 17 13.2600000000027  13.26 17  8.5 17  C 3.74000000000002 17  0 13.2600000000027  0 8.5  Z M 13.4583333333333 8.5  C 13.4583333333333 5.72333333332988  11.2766666666667 3.54166666666854  8.5 3.54166666666854  C 5.72333333333331 3.54166666666854  3.5416666666667 5.72333333332988  3.5416666666667 8.5  C 3.5416666666667 11.2766666666701  5.72333333333331 13.4583333333315  8.5 13.4583333333315  C 11.2766666666667 13.4583333333315  13.4583333333333 11.2766666666701  13.4583333333333 8.5  Z " fill-rule="nonzero" fill="#7f7f7f" stroke="none" transform="matrix(1 0 0 1 594 1016 )" />
  </g>
</svg>