<?xml version="1.0" encoding="utf-8"?>
<svg version="1.1" xmlns:xlink="http://www.w3.org/1999/xlink" width="93px" height="92px" xmlns="http://www.w3.org/2000/svg">
  <g transform="matrix(1 0 0 1 -831 -858 )">
    <path d="M 877.5 860  C 902.42 860  922 879.36  922 904  C 922 928.64  902.42 948  877.5 948  C 852.58 948  833 928.64  833 904  C 833 879.36  852.58 860  877.5 860  Z " fill-rule="nonzero" fill="#ffffff" stroke="none" fill-opacity="0" />
    <path d="M 877.5 859.5  C 902.7 859.5  922.5 879.08  922.5 904  C 922.5 928.92  902.7 948.5  877.5 948.5  C 852.3 948.5  832.5 928.92  832.5 904  C 832.5 879.08  852.3 859.5  877.5 859.5  Z " stroke-width="3" stroke="#ec808d" fill="none" />
  </g>
</svg>