<?xml version="1.0" encoding="utf-8"?>
<svg version="1.1" xmlns:xlink="http://www.w3.org/1999/xlink" width="17px" height="17px" xmlns="http://www.w3.org/2000/svg">
  <g transform="matrix(1 0 0 1 -870 -895 )">
    <path d="M 13.4583333333333 8.5  C 13.4583333333333 6.64674652542817  12.4864580241832 5.0585499533554  11.0144650317008 4.20716790330698  L 12.9465280754739 1.22125229020821  C 15.3936250969861 2.6989640908505  17 5.38043092228691  17 8.5  C 17 13.260000000002  13.26 17  8.5 17  C 3.74000000000001 17  0 13.260000000002  0 8.5  C 0 3.73999999999796  3.74000000000001 0  8.49834983498351 0  L 8.5 3.54166666666788  C 5.72333333333336 3.54166666666788  3.54166666666674 5.72333333333154  3.54166666666674 8.5  C 3.54166666666674 11.2766666666685  5.72333333333336 13.4583333333321  8.5 13.4583333333321  C 11.2766666666666 13.4583333333321  13.4583333333333 11.2766666666685  13.4583333333333 8.5  Z " fill-rule="nonzero" fill="#7f7f7f" stroke="none" transform="matrix(1 0 0 1 870 895 )" />
  </g>
</svg>