<?xml version="1.0" encoding="utf-8"?>
<svg version="1.1" xmlns:xlink="http://www.w3.org/1999/xlink" width="441px" height="351px" xmlns="http://www.w3.org/2000/svg">
  <defs>
    <mask fill="white" id="clip104">
      <path d="M 41.7180789481099 0  L 399.28192118738 0.00258645618941955  C 425.607692438428 36.3312596604833  441 81.3166787991181  441 130.5  C 441 253.98  343.98 351  220.5 351  C 97.02 351  0 253.98  0 130.5  C 0 81.3166787991181  15.3923075615716 36.3312596604833  41.7180789481099 0  Z M 271 130.5  C 271 103.34  249.66 82  222.5 82  C 195.34 82  174 103.34  174 130.5  C 174 157.66  195.34 179  222.5 179  C 249.66 179  271 157.66  271 130.5  Z " fill-rule="evenodd" />
    </mask>
  </defs>
  <g transform="matrix(1 0 0 1 -182 -3437 )">
    <path d="M 41.7180789481099 0  L 399.28192118738 0.00258645618941955  C 425.607692438428 36.3312596604833  441 81.3166787991181  441 130.5  C 441 253.98  343.98 351  220.5 351  C 97.02 351  0 253.98  0 130.5  C 0 81.3166787991181  15.3923075615716 36.3312596604833  41.7180789481099 0  Z M 271 130.5  C 271 103.34  249.66 82  222.5 82  C 195.34 82  174 103.34  174 130.5  C 174 157.66  195.34 179  222.5 179  C 249.66 179  271 157.66  271 130.5  Z " fill-rule="nonzero" fill="#f8e881" stroke="none" transform="matrix(1 0 0 1 182 3437 )" />
    <path d="M 41.7180789481099 0  L 399.28192118738 0.00258645618941955  C 425.607692438428 36.3312596604833  441 81.3166787991181  441 130.5  C 441 253.98  343.98 351  220.5 351  C 97.02 351  0 253.98  0 130.5  C 0 81.3166787991181  15.3923075615716 36.3312596604833  41.7180789481099 0  Z " stroke-width="4" stroke="#fafefd" fill="none" transform="matrix(1 0 0 1 182 3437 )" mask="url(#clip104)" />
    <path d="M 271 130.5  C 271 103.34  249.66 82  222.5 82  C 195.34 82  174 103.34  174 130.5  C 174 157.66  195.34 179  222.5 179  C 249.66 179  271 157.66  271 130.5  Z " stroke-width="4" stroke="#fafefd" fill="none" transform="matrix(1 0 0 1 182 3437 )" mask="url(#clip104)" />
  </g>
</svg>