<?xml version="1.0" encoding="utf-8"?>
<svg version="1.1" xmlns:xlink="http://www.w3.org/1999/xlink" width="38px" height="38px" xmlns="http://www.w3.org/2000/svg">
  <g transform="matrix(1 0 0 1 -1023 -1319 )">
    <path d="M 37.1043771043771 28.4040404040404  C 37.7014590347924 29.0011223344557  38 29.7261503928171  38 30.5791245791246  C 38 31.4320987654321  37.7014590347924 32.1571268237935  37.1043771043771 32.7542087542088  L 32.7542087542088 37.1043771043771  C 32.1571268237935 37.7014590347924  31.4320987654321 38  30.5791245791246 38  C 29.7261503928171 38  29.0011223344557 37.7014590347924  28.4040404040404 37.1043771043771  L 19 27.7003367003367  L 9.5959595959596 37.1043771043771  C 8.99887766554433 37.7014590347924  8.27384960718294 38  7.42087542087542 38  C 6.5679012345679 38  5.84287317620651 37.7014590347924  5.24579124579125 37.1043771043771  L 0.895622895622896 32.7542087542088  C 0.298540965207632 32.1571268237935  0 31.4320987654321  0 30.5791245791246  C 0 29.7261503928171  0.298540965207632 29.0011223344557  0.895622895622896 28.4040404040404  L 10.2996632996633 19  L 0.895622895622896 9.5959595959596  C 0.298540965207632 8.99887766554433  0 8.27384960718294  0 7.42087542087542  C 0 6.5679012345679  0.298540965207632 5.8428731762065  0.895622895622896 5.24579124579125  L 5.24579124579125 0.895622895622896  C 5.84287317620651 0.298540965207631  6.5679012345679 0  7.42087542087542 0  C 8.27384960718294 0  8.99887766554433 0.298540965207631  9.5959595959596 0.895622895622896  L 19 10.2996632996633  L 28.4040404040404 0.895622895622896  C 29.0011223344557 0.298540965207631  29.7261503928171 0  30.5791245791246 0  C 31.4320987654321 0  32.1571268237935 0.298540965207631  32.7542087542088 0.895622895622896  L 37.1043771043771 5.24579124579125  C 37.7014590347924 5.8428731762065  38 6.5679012345679  38 7.42087542087542  C 38 8.27384960718294  37.7014590347924 8.99887766554433  37.1043771043771 9.5959595959596  L 27.7003367003367 19  L 37.1043771043771 28.4040404040404  Z " fill-rule="nonzero" fill="#ec808d" stroke="none" transform="matrix(1 0 0 1 1023 1319 )" />
  </g>
</svg>