<?xml version="1.0" encoding="utf-8"?>
<svg version="1.1" xmlns:xlink="http://www.w3.org/1999/xlink" width="217px" height="217px" xmlns="http://www.w3.org/2000/svg">
  <defs>
    <mask fill="white" id="clip140">
      <path d="M 0 108.5  C 0 47.74  47.74 0  108.5 0  C 169.26 0  217 47.74  217 108.5  C 217 169.26  169.26 217  108.5 217  C 47.74 217  0 169.26  0 108.5  Z M 197.711111111111 108.5  C 197.711111111111 58.5417777777778  158.458222222222 19.2888888888889  108.5 19.2888888888889  C 58.5417777777778 19.2888888888889  19.2888888888889 58.5417777777778  19.2888888888889 108.5  C 19.2888888888889 158.458222222222  58.5417777777778 197.711111111111  108.5 197.711111111111  C 158.458222222222 197.711111111111  197.711111111111 158.458222222222  197.711111111111 108.5  Z " fill-rule="evenodd" />
    </mask>
  </defs>
  <g>
    <path d="M 0 108.5  C 0 47.74  47.74 0  108.5 0  C 169.26 0  217 47.74  217 108.5  C 217 169.26  169.26 217  108.5 217  C 47.74 217  0 169.26  0 108.5  Z M 197.711111111111 108.5  C 197.711111111111 58.5417777777778  158.458222222222 19.2888888888889  108.5 19.2888888888889  C 58.5417777777778 19.2888888888889  19.2888888888889 58.5417777777778  19.2888888888889 108.5  C 19.2888888888889 158.458222222222  58.5417777777778 197.711111111111  108.5 197.711111111111  C 158.458222222222 197.711111111111  197.711111111111 158.458222222222  197.711111111111 108.5  Z " fill-rule="nonzero" fill="#fff15f" stroke="none" />
    <path d="M 0 108.5  C 0 47.74  47.74 0  108.5 0  C 169.26 0  217 47.74  217 108.5  C 217 169.26  169.26 217  108.5 217  C 47.74 217  0 169.26  0 108.5  Z " stroke-width="2" stroke="#ff6633" fill="none" mask="url(#clip140)" />
    <path d="M 197.711111111111 108.5  C 197.711111111111 58.5417777777778  158.458222222222 19.2888888888889  108.5 19.2888888888889  C 58.5417777777778 19.2888888888889  19.2888888888889 58.5417777777778  19.2888888888889 108.5  C 19.2888888888889 158.458222222222  58.5417777777778 197.711111111111  108.5 197.711111111111  C 158.458222222222 197.711111111111  197.711111111111 158.458222222222  197.711111111111 108.5  Z " stroke-width="2" stroke="#ff6633" fill="none" mask="url(#clip140)" />
  </g>
</svg>