<?xml version="1.0" encoding="utf-8"?>
<svg version="1.1" xmlns:xlink="http://www.w3.org/1999/xlink" width="136px" height="136px" xmlns="http://www.w3.org/2000/svg">
  <g transform="matrix(1 0 0 1 -973 -8645 )">
    <path d="M 1041 8646  C 1078.52 8646  1108 8675.48  1108 8713  C 1108 8750.52  1078.52 8780  1041 8780  C 1003.48 8780  974 8750.52  974 8713  C 974 8675.48  1003.48 8646  1041 8646  Z " fill-rule="nonzero" fill="#ff6600" stroke="none" />
    <path d="M 1041 8646  C 1078.52 8646  1108 8675.48  1108 8713  C 1108 8750.52  1078.52 8780  1041 8780  C 1003.48 8780  974 8750.52  974 8713  C 974 8675.48  1003.48 8646  1041 8646  Z " stroke-width="2" stroke="#ffffff" fill="none" />
  </g>
</svg>