<?xml version="1.0" encoding="utf-8"?>
<svg version="1.1" xmlns:xlink="http://www.w3.org/1999/xlink" width="136px" height="136px" xmlns="http://www.w3.org/2000/svg">
  <g transform="matrix(1 0 0 1 -973 -9156 )">
    <path d="M 1041 9157  C 1078.52 9157  1108 9186.48  1108 9224  C 1108 9261.52  1078.52 9291  1041 9291  C 1003.48 9291  974 9261.52  974 9224  C 974 9186.48  1003.48 9157  1041 9157  Z " fill-rule="nonzero" fill="#663333" stroke="none" />
    <path d="M 1041 9157  C 1078.52 9157  1108 9186.48  1108 9224  C 1108 9261.52  1078.52 9291  1041 9291  C 1003.48 9291  974 9261.52  974 9224  C 974 9186.48  1003.48 9157  1041 9157  Z " stroke-width="2" stroke="#ff6633" fill="none" />
  </g>
</svg>