<?xml version="1.0" encoding="utf-8"?>
<svg version="1.1" xmlns:xlink="http://www.w3.org/1999/xlink" width="64px" height="64px" xmlns="http://www.w3.org/2000/svg">
  <g transform="matrix(1 0 0 1 -620 -7457 )">
    <path d="M 652 7458  C 669.36 7458  683 7471.64  683 7489  C 683 7506.36  669.36 7520  652 7520  C 634.64 7520  621 7506.36  621 7489  C 621 7471.64  634.64 7458  652 7458  Z " fill-rule="nonzero" fill="#ff6600" stroke="none" />
    <path d="M 652 7458  C 669.36 7458  683 7471.64  683 7489  C 683 7506.36  669.36 7520  652 7520  C 634.64 7520  621 7506.36  621 7489  C 621 7471.64  634.64 7458  652 7458  Z " stroke-width="2" stroke="#ffffff" fill="none" />
  </g>
</svg>