<?xml version="1.0" encoding="utf-8"?>
<svg version="1.1" xmlns:xlink="http://www.w3.org/1999/xlink" width="123px" height="123px" xmlns="http://www.w3.org/2000/svg">
  <g transform="matrix(1 0 0 1 -1031 -7777 )">
    <path d="M 1092.5 7778  C 1126.38 7778  1153 7804.62  1153 7838.5  C 1153 7872.38  1126.38 7899  1092.5 7899  C 1058.62 7899  1032 7872.38  1032 7838.5  C 1032 7804.62  1058.62 7778  1092.5 7778  Z " fill-rule="nonzero" fill="#ff6600" stroke="none" />
    <path d="M 1092.5 7778  C 1126.38 7778  1153 7804.62  1153 7838.5  C 1153 7872.38  1126.38 7899  1092.5 7899  C 1058.62 7899  1032 7872.38  1032 7838.5  C 1032 7804.62  1058.62 7778  1092.5 7778  Z " stroke-width="2" stroke="#ffffff" fill="none" />
  </g>
</svg>