<?xml version="1.0" encoding="utf-8"?>
<svg version="1.1" xmlns:xlink="http://www.w3.org/1999/xlink" width="107px" height="107px" xmlns="http://www.w3.org/2000/svg">
  <g transform="matrix(1 0 0 1 -893 -1616 )">
    <path d="M 946.5 1617  C 975.9 1617  999 1640.1  999 1669.5  C 999 1698.9  975.9 1722  946.5 1722  C 917.1 1722  894 1698.9  894 1669.5  C 894 1640.1  917.1 1617  946.5 1617  Z " fill-rule="nonzero" fill="#b78669" stroke="none" />
    <path d="M 946.5 1617  C 975.9 1617  999 1640.1  999 1669.5  C 999 1698.9  975.9 1722  946.5 1722  C 917.1 1722  894 1698.9  894 1669.5  C 894 1640.1  917.1 1617  946.5 1617  Z " stroke-width="2" stroke="#6d3c28" fill="none" />
  </g>
</svg>