<?xml version="1.0" encoding="utf-8"?>
<svg version="1.1" xmlns:xlink="http://www.w3.org/1999/xlink" width="43px" height="43px" xmlns="http://www.w3.org/2000/svg">
  <g transform="matrix(1 0 0 1 -1080 -7473 )">
    <path d="M 1101.5 7474  C 1112.98 7474  1122 7483.02  1122 7494.5  C 1122 7505.98  1112.98 7515  1101.5 7515  C 1090.02 7515  1081 7505.98  1081 7494.5  C 1081 7483.02  1090.02 7474  1101.5 7474  Z " fill-rule="nonzero" fill="#ffffff" stroke="none" fill-opacity="0" />
    <path d="M 1101.5 7474  C 1112.98 7474  1122 7483.02  1122 7494.5  C 1122 7505.98  1112.98 7515  1101.5 7515  C 1090.02 7515  1081 7505.98  1081 7494.5  C 1081 7483.02  1090.02 7474  1101.5 7474  Z " stroke-width="2" stroke="#ff3366" fill="none" />
  </g>
</svg>