<?xml version="1.0" encoding="utf-8"?>
<svg version="1.1" xmlns:xlink="http://www.w3.org/1999/xlink" width="252px" height="441px" xmlns="http://www.w3.org/2000/svg">
  <defs>
    <mask fill="white" id="clip307">
      <path d="M 33.5 172  C 20.3983188970725 172  8.65094597626262 176.965796667766  0 185.155223899437  L 0.000157622140136482 2.14537477988415  C 10.2701477167977 0.730491175869247  20.7854614253257 0  31.5 0  C 154.98 0  252 97.0200000000004  252 220.5  C 252 343.98  154.98 441  31.5 441  C 20.7854614253257 441  10.2701477167977 440.269508824131  0 438.854626708548  L 2.30065741106955E-05 255.844751765711  C 8.65094597627251 264.034203332241  20.398318897078 269  33.5 269  C 60.66 269  82 247.66  82 220.5  C 82 193.34  60.66 172  33.5 172  Z " fill-rule="evenodd" />
    </mask>
  </defs>
  <g transform="matrix(1 0 0 1 -678 -4768 )">
    <path d="M 33.5 172  C 20.3983188970725 172  8.65094597626262 176.965796667766  0 185.155223899437  L 0.000157622140136482 2.14537477988415  C 10.2701477167977 0.730491175869247  20.7854614253257 0  31.5 0  C 154.98 0  252 97.0200000000004  252 220.5  C 252 343.98  154.98 441  31.5 441  C 20.7854614253257 441  10.2701477167977 440.269508824131  0 438.854626708548  L 2.30065741106955E-05 255.844751765711  C 8.65094597627251 264.034203332241  20.398318897078 269  33.5 269  C 60.66 269  82 247.66  82 220.5  C 82 193.34  60.66 172  33.5 172  Z " fill-rule="nonzero" fill="#f8e881" stroke="none" transform="matrix(1 0 0 1 678 4768 )" />
    <path d="M 33.5 172  C 20.3983188970725 172  8.65094597626262 176.965796667766  0 185.155223899437  L 0.000157622140136482 2.14537477988415  C 10.2701477167977 0.730491175869247  20.7854614253257 0  31.5 0  C 154.98 0  252 97.0200000000004  252 220.5  C 252 343.98  154.98 441  31.5 441  C 20.7854614253257 441  10.2701477167977 440.269508824131  0 438.854626708548  L 2.30065741106955E-05 255.844751765711  C 8.65094597627251 264.034203332241  20.398318897078 269  33.5 269  C 60.66 269  82 247.66  82 220.5  C 82 193.34  60.66 172  33.5 172  Z " stroke-width="4" stroke="#fafefd" fill="none" transform="matrix(1 0 0 1 678 4768 )" mask="url(#clip307)" />
  </g>
</svg>