<?xml version="1.0" encoding="utf-8"?>
<svg version="1.1" xmlns:xlink="http://www.w3.org/1999/xlink" width="441px" height="249px" xmlns="http://www.w3.org/2000/svg">
  <defs>
    <mask fill="white" id="clip114">
      <path d="M 1.63049133263405 1  L 182.331969864591 0.999963588339597  C 177.057946554789 8.77141043500887  174 18.2187125054879  174 28.5  C 174 55.6599999999999  195.34 77  222.5 77  C 249.66 77  271 55.6599999999999  271 28.5  C 271 18.2186629803582  267.942023984783 8.77131941941116  262.667734787153 1  L 439.369501073337 1.00000202553929  C 440.44636160068 9.99539821210419  441 19.1722029606899  441 28.5  C 441 151.98  343.98 249  220.5 249  C 97.02 249  0 151.98  0 28.5  C 0 19.1722029606899  0.553638399319766 9.99539821210419  1.63049133263405 1  Z " fill-rule="evenodd" />
    </mask>
  </defs>
  <g transform="matrix(1 0 0 1 -705 -4812 )">
    <path d="M 1.63049133263405 1  L 182.331969864591 0.999963588339597  C 177.057946554789 8.77141043500887  174 18.2187125054879  174 28.5  C 174 55.6599999999999  195.34 77  222.5 77  C 249.66 77  271 55.6599999999999  271 28.5  C 271 18.2186629803582  267.942023984783 8.77131941941116  262.667734787153 1  L 439.369501073337 1.00000202553929  C 440.44636160068 9.99539821210419  441 19.1722029606899  441 28.5  C 441 151.98  343.98 249  220.5 249  C 97.02 249  0 151.98  0 28.5  C 0 19.1722029606899  0.553638399319766 9.99539821210419  1.63049133263405 1  Z " fill-rule="nonzero" fill="#f8e881" stroke="none" transform="matrix(1 0 0 1 705 4812 )" />
    <path d="M 1.63049133263405 1  L 182.331969864591 0.999963588339597  C 177.057946554789 8.77141043500887  174 18.2187125054879  174 28.5  C 174 55.6599999999999  195.34 77  222.5 77  C 249.66 77  271 55.6599999999999  271 28.5  C 271 18.2186629803582  267.942023984783 8.77131941941116  262.667734787153 1  L 439.369501073337 1.00000202553929  C 440.44636160068 9.99539821210419  441 19.1722029606899  441 28.5  C 441 151.98  343.98 249  220.5 249  C 97.02 249  0 151.98  0 28.5  C 0 19.1722029606899  0.553638399319766 9.99539821210419  1.63049133263405 1  Z " stroke-width="4" stroke="#fafefd" fill="none" transform="matrix(1 0 0 1 705 4812 )" mask="url(#clip114)" />
  </g>
</svg>