<?xml version="1.0" encoding="utf-8"?>
<svg version="1.1" xmlns:xlink="http://www.w3.org/1999/xlink" width="441px" height="247px" xmlns="http://www.w3.org/2000/svg">
  <defs>
    <mask fill="white" id="clip108">
      <path d="M 174 220.5  C 174 229.914852713842  176.564259330572 238.63036197389  181.046424115538 246  L 1.39996956658865 245.999382749604  C 0.47470628121539 237.645153367197  0 229.13730935831  0 220.5  C 0 97.0200000000004  97.02 0  220.5 0  C 343.98 0  441 97.0200000000004  441 220.5  C 441 229.13730935831  440.525293718785 237.645153367197  439.600029484479 246  L 263.953600562238 246.00020299642  C 268.435708836778 238.630470167642  271 229.914911151533  271 220.5  C 271 193.34  249.66 172  222.5 172  C 195.34 172  174 193.34  174 220.5  Z " fill-rule="evenodd" />
    </mask>
  </defs>
  <g transform="matrix(1 0 0 1 -705 -4989 )">
    <path d="M 174 220.5  C 174 229.914852713842  176.564259330572 238.63036197389  181.046424115538 246  L 1.39996956658865 245.999382749604  C 0.47470628121539 237.645153367197  0 229.13730935831  0 220.5  C 0 97.0200000000004  97.02 0  220.5 0  C 343.98 0  441 97.0200000000004  441 220.5  C 441 229.13730935831  440.525293718785 237.645153367197  439.600029484479 246  L 263.953600562238 246.00020299642  C 268.435708836778 238.630470167642  271 229.914911151533  271 220.5  C 271 193.34  249.66 172  222.5 172  C 195.34 172  174 193.34  174 220.5  Z " fill-rule="nonzero" fill="#f8e881" stroke="none" transform="matrix(1 0 0 1 705 4989 )" />
    <path d="M 174 220.5  C 174 229.914852713842  176.564259330572 238.63036197389  181.046424115538 246  L 1.39996956658865 245.999382749604  C 0.47470628121539 237.645153367197  0 229.13730935831  0 220.5  C 0 97.0200000000004  97.02 0  220.5 0  C 343.98 0  441 97.0200000000004  441 220.5  C 441 229.13730935831  440.525293718785 237.645153367197  439.600029484479 246  L 263.953600562238 246.00020299642  C 268.435708836778 238.630470167642  271 229.914911151533  271 220.5  C 271 193.34  249.66 172  222.5 172  C 195.34 172  174 193.34  174 220.5  Z " stroke-width="4" stroke="#fafefd" fill="none" transform="matrix(1 0 0 1 705 4989 )" mask="url(#clip108)" />
  </g>
</svg>