<?xml version="1.0" encoding="utf-8"?>
<svg version="1.1" xmlns:xlink="http://www.w3.org/1999/xlink" width="72px" height="54px" xmlns="http://www.w3.org/2000/svg">
  <g transform="matrix(1 0 0 1 -2 -3 )">
    <path d="M 38 4  C 57.6 4  73 15.44  73 30  C 73 44.56  57.6 56  38 56  C 18.4 56  3 44.56  3 30  C 3 15.44  18.4 4  38 4  Z " fill-rule="nonzero" fill="#d7d7d7" stroke="none" fill-opacity="0" />
    <path d="M 38 4  C 57.6 4  73 15.44  73 30  C 73 44.56  57.6 56  38 56  C 18.4 56  3 44.56  3 30  C 3 15.44  18.4 4  38 4  Z " stroke-width="2" stroke="#eeebe2" fill="none" />
  </g>
</svg>