<?xml version="1.0" encoding="utf-8"?>
<svg version="1.1" xmlns:xlink="http://www.w3.org/1999/xlink" width="13px" height="13px" xmlns="http://www.w3.org/2000/svg">
  <g transform="matrix(1 0 0 1 -38 -16 )">
    <path d="M 44.5 16  C 48.14 16  51 18.86  51 22.5  C 51 26.14  48.14 29  44.5 29  C 40.86 29  38 26.14  38 22.5  C 38 18.86  40.86 16  44.5 16  Z " fill-rule="nonzero" fill="#a7907a" stroke="none" />
    <path d="M 44.5 16.5  C 47.86 16.5  50.5 19.14  50.5 22.5  C 50.5 25.86  47.86 28.5  44.5 28.5  C 41.14 28.5  38.5 25.86  38.5 22.5  C 38.5 19.14  41.14 16.5  44.5 16.5  Z " stroke-width="1" stroke="#d7d7d7" fill="none" />
  </g>
</svg>