<?xml version="1.0" encoding="utf-8"?>
<svg version="1.1" xmlns:xlink="http://www.w3.org/1999/xlink" width="244px" height="441px" xmlns="http://www.w3.org/2000/svg">
  <defs>
    <mask fill="white" id="clip149">
      <path d="M 222.5 269  C 229.864405676715 269  236.800914727842 267.431045706177  243 264.602247544502  L 242.99981964269 439.912202232565  C 235.611262524991 440.631904239079  228.105826138985 441  220.5 441  C 97.02 441  0 343.98  0 220.5  C 0 97.0200000000004  97.02 0  220.5 0  C 228.105826138985 0  235.611262524991 0.368095760921278  243 1.08780081408258  L 243.00013055714 176.397466284921  C 236.800914728268 173.568954293922  229.864405676941 172  222.5 172  C 195.34 172  174 193.34  174 220.5  C 174 247.66  195.34 269  222.5 269  Z " fill-rule="evenodd" />
    </mask>
  </defs>
  <g transform="matrix(1 0 0 1 -929 -4840 )">
    <path d="M 222.5 269  C 229.864405676715 269  236.800914727842 267.431045706177  243 264.602247544502  L 242.99981964269 439.912202232565  C 235.611262524991 440.631904239079  228.105826138985 441  220.5 441  C 97.02 441  0 343.98  0 220.5  C 0 97.0200000000004  97.02 0  220.5 0  C 228.105826138985 0  235.611262524991 0.368095760921278  243 1.08780081408258  L 243.00013055714 176.397466284921  C 236.800914728268 173.568954293922  229.864405676941 172  222.5 172  C 195.34 172  174 193.34  174 220.5  C 174 247.66  195.34 269  222.5 269  Z " fill-rule="nonzero" fill="#f8e881" stroke="none" transform="matrix(1 0 0 1 929 4840 )" />
    <path d="M 222.5 269  C 229.864405676715 269  236.800914727842 267.431045706177  243 264.602247544502  L 242.99981964269 439.912202232565  C 235.611262524991 440.631904239079  228.105826138985 441  220.5 441  C 97.02 441  0 343.98  0 220.5  C 0 97.0200000000004  97.02 0  220.5 0  C 228.105826138985 0  235.611262524991 0.368095760921278  243 1.08780081408258  L 243.00013055714 176.397466284921  C 236.800914728268 173.568954293922  229.864405676941 172  222.5 172  C 195.34 172  174 193.34  174 220.5  C 174 247.66  195.34 269  222.5 269  Z " stroke-width="4" stroke="#fafefd" fill="none" transform="matrix(1 0 0 1 929 4840 )" mask="url(#clip149)" />
  </g>
</svg>