<?xml version="1.0" encoding="utf-8"?>
<svg version="1.1" xmlns:xlink="http://www.w3.org/1999/xlink" width="28px" height="33px" xmlns="http://www.w3.org/2000/svg">
  <g transform="matrix(1 0 0 1 -35 0 )">
    <path d="M 27.7194388777555 15.167701863354  C 27.9064796259185 15.3954451345756  28 15.6573498964803  28 15.9534161490683  C 28 16.2494824016563  27.9064796259185 16.5113871635611  27.7194388777555 16.7391304347826  L 14.6452905811623 32.6583850931677  C 14.4582498329993 32.8861283643892  14.2431529726119 33  14 33  C 13.7568470273881 33  13.5417501670007 32.8861283643892  13.3547094188377 32.6583850931677  L 0.280561122244489 16.7391304347826  C 0.0935203740814966 16.5113871635611  0 16.2494824016563  0 15.9534161490683  C 0 15.6573498964803  0.0935203740814966 15.3954451345756  0.280561122244489 15.167701863354  L 1.68336673346693 13.4596273291925  C 1.87040748162993 13.231884057971  2.08550434201737 13.1180124223602  2.32865731462926 13.1180124223602  C 2.57181028724115 13.1180124223602  2.78690714762859 13.231884057971  2.97394789579158 13.4596273291925  L 14 26.8850931677019  L 25.0260521042084 13.4596273291925  C 25.2130928523714 13.231884057971  25.4281897127589 13.1180124223602  25.6713426853707 13.1180124223602  C 25.9144956579826 13.1180124223602  26.1295925183701 13.231884057971  26.3166332665331 13.4596273291925  L 27.7194388777555 15.167701863354  Z M 27.7194388777555 2.04968944099379  C 27.9064796259185 2.27743271221532  28 2.53933747412008  28 2.83540372670808  C 28 3.13146997929606  27.9064796259185 3.39337474120082  27.7194388777555 3.62111801242236  L 14.6452905811623 19.5403726708075  C 14.4582498329993 19.768115942029  14.2431529726119 19.8819875776398  14 19.8819875776398  C 13.7568470273881 19.8819875776398  13.5417501670007 19.768115942029  13.3547094188377 19.5403726708075  L 0.280561122244489 3.62111801242236  C 0.0935203740814966 3.39337474120082  0 3.13146997929606  0 2.83540372670808  C 0 2.53933747412008  0.0935203740814966 2.27743271221532  0.280561122244489 2.04968944099379  L 1.68336673346693 0.341614906832298  C 1.87040748162993 0.113871635610763  2.08550434201737 0  2.32865731462926 0  C 2.57181028724115 0  2.78690714762859 0.113871635610763  2.97394789579158 0.341614906832298  L 14 13.7670807453416  L 25.0260521042084 0.341614906832298  C 25.2130928523714 0.113871635610763  25.4281897127589 0  25.6713426853707 0  C 25.9144956579826 0  26.1295925183701 0.113871635610763  26.3166332665331 0.341614906832298  L 27.7194388777555 2.04968944099379  Z " fill-rule="nonzero" fill="#ffff00" stroke="none" transform="matrix(1 0 0 1 35 0 )" />
  </g>
</svg>