<?xml version="1.0" encoding="utf-8"?>
<svg version="1.1" xmlns:xlink="http://www.w3.org/1999/xlink" width="188px" height="351px" xmlns="http://www.w3.org/2000/svg">
  <defs>
    <mask fill="white" id="clip111">
      <path d="M 175.5 0  C 179.367122328516 0  183.201638178958 0.119557086269197  187 0.355249919510243  L 187.000126218009 350.644750074509  C 183.201638178958 350.880442913731  179.367122328516 351  175.5 351  C 77.22 351  0 273.779999999999  0 175.5  C 0 77.2200000000012  77.22 0  175.5 0  Z " fill-rule="evenodd" />
    </mask>
  </defs>
  <g transform="matrix(1 0 0 1 -460 -4885 )">
    <path d="M 175.5 0  C 179.367122328516 0  183.201638178958 0.119557086269197  187 0.355249919510243  L 187.000126218009 350.644750074509  C 183.201638178958 350.880442913731  179.367122328516 351  175.5 351  C 77.22 351  0 273.779999999999  0 175.5  C 0 77.2200000000012  77.22 0  175.5 0  Z " fill-rule="nonzero" fill="#f8e881" stroke="none" transform="matrix(1 0 0 1 460 4885 )" />
    <path d="M 175.5 0  C 179.367122328516 0  183.201638178958 0.119557086269197  187 0.355249919510243  L 187.000126218009 350.644750074509  C 183.201638178958 350.880442913731  179.367122328516 351  175.5 351  C 77.22 351  0 273.779999999999  0 175.5  C 0 77.2200000000012  77.22 0  175.5 0  Z " stroke-width="4" stroke="#fafefd" fill="none" transform="matrix(1 0 0 1 460 4885 )" mask="url(#clip111)" />
  </g>
</svg>