<?xml version="1.0" encoding="utf-8"?>
<svg version="1.1" xmlns:xlink="http://www.w3.org/1999/xlink" width="351px" height="189px" xmlns="http://www.w3.org/2000/svg">
  <defs>
    <mask fill="white" id="clip117">
      <path d="M 350.579968635498 188  L 0.420031277252946 188.000054703061  C 0.141478495870871 183.874890986608  0 179.706738015469  0 175.5  C 0 77.2200000000012  77.22 0  175.5 0  C 273.78 0  351 77.2200000000012  351 175.5  C 351 179.706738015469  350.858521504129 183.874890986608  350.579968635498 188  Z " fill-rule="evenodd" />
    </mask>
  </defs>
  <g transform="matrix(1 0 0 1 -226 -5118 )">
    <path d="M 350.579968635498 188  L 0.420031277252946 188.000054703061  C 0.141478495870871 183.874890986608  0 179.706738015469  0 175.5  C 0 77.2200000000012  77.22 0  175.5 0  C 273.78 0  351 77.2200000000012  351 175.5  C 351 179.706738015469  350.858521504129 183.874890986608  350.579968635498 188  Z " fill-rule="nonzero" fill="#f8e881" stroke="none" transform="matrix(1 0 0 1 226 5118 )" />
    <path d="M 350.579968635498 188  L 0.420031277252946 188.000054703061  C 0.141478495870871 183.874890986608  0 179.706738015469  0 175.5  C 0 77.2200000000012  77.22 0  175.5 0  C 273.78 0  351 77.2200000000012  351 175.5  C 351 179.706738015469  350.858521504129 183.874890986608  350.579968635498 188  Z " stroke-width="4" stroke="#fafefd" fill="none" transform="matrix(1 0 0 1 226 5118 )" mask="url(#clip117)" />
  </g>
</svg>