<?xml version="1.0" encoding="utf-8"?>
<svg version="1.1" xmlns:xlink="http://www.w3.org/1999/xlink" width="33px" height="28px" xmlns="http://www.w3.org/2000/svg">
  <g transform="matrix(1 0 0 1 0 -35 )">
    <path d="M 19.5403726708075 13.3547094188377  C 19.768115942029 13.5417501670007  19.8819875776398 13.7568470273881  19.8819875776398 14  C 19.8819875776398 14.2431529726119  19.768115942029 14.4582498329993  19.5403726708075 14.6452905811623  L 3.62111801242236 27.7194388777555  C 3.39337474120083 27.9064796259185  3.13146997929607 28  2.83540372670807 28  C 2.53933747412008 28  2.27743271221532 27.9064796259185  2.04968944099379 27.7194388777555  L 0.341614906832298 26.3166332665331  C 0.113871635610766 26.1295925183701  0 25.9144956579826  0 25.6713426853707  C 0 25.4281897127589  0.113871635610766 25.2130928523714  0.341614906832298 25.0260521042084  L 13.7670807453416 14  L 0.341614906832298 2.97394789579158  C 0.113871635610766 2.78690714762859  0 2.57181028724115  0 2.32865731462926  C 0 2.08550434201736  0.113871635610766 1.87040748162992  0.341614906832298 1.68336673346693  L 2.04968944099379 0.280561122244489  C 2.27743271221532 0.0935203740814954  2.53933747412008 0  2.83540372670807 0  C 3.13146997929607 0  3.39337474120083 0.0935203740814954  3.62111801242236 0.280561122244489  L 19.5403726708075 13.3547094188377  Z M 32.6583850931677 13.3547094188377  C 32.8861283643892 13.5417501670007  33 13.7568470273881  33 14  C 33 14.2431529726119  32.8861283643892 14.4582498329993  32.6583850931677 14.6452905811623  L 16.7391304347826 27.7194388777555  C 16.5113871635611 27.9064796259185  16.2494824016563 28  15.9534161490683 28  C 15.6573498964803 28  15.3954451345756 27.9064796259185  15.167701863354 27.7194388777555  L 13.4596273291925 26.3166332665331  C 13.231884057971 26.1295925183701  13.1180124223602 25.9144956579826  13.1180124223602 25.6713426853707  C 13.1180124223602 25.4281897127589  13.231884057971 25.2130928523714  13.4596273291925 25.0260521042084  L 26.8850931677019 14  L 13.4596273291925 2.97394789579158  C 13.231884057971 2.78690714762859  13.1180124223602 2.57181028724115  13.1180124223602 2.32865731462926  C 13.1180124223602 2.08550434201736  13.231884057971 1.87040748162992  13.4596273291925 1.68336673346693  L 15.167701863354 0.280561122244489  C 15.3954451345756 0.0935203740814954  15.6573498964803 0  15.9534161490683 0  C 16.2494824016563 0  16.5113871635611 0.0935203740814954  16.7391304347826 0.280561122244489  L 32.6583850931677 13.3547094188377  Z " fill-rule="nonzero" fill="#ffff00" stroke="none" transform="matrix(1 0 0 1 0 35 )" />
  </g>
</svg>