<?xml version="1.0" encoding="utf-8"?>
<svg version="1.1" xmlns:xlink="http://www.w3.org/1999/xlink" width="33px" height="28px" xmlns="http://www.w3.org/2000/svg">
  <g transform="matrix(1 0 0 1 -65 -35 )">
    <path d="M 19.5403726708075 25.0260521042084  C 19.768115942029 25.2130928523714  19.8819875776398 25.4281897127589  19.8819875776398 25.6713426853707  C 19.8819875776398 25.9144956579826  19.768115942029 26.1295925183701  19.5403726708075 26.3166332665331  L 17.832298136646 27.7194388777555  C 17.6045548654244 27.9064796259185  17.3426501035197 28  17.0465838509317 28  C 16.7505175983437 28  16.4886128364389 27.9064796259185  16.2608695652174 27.7194388777555  L 0.341614906832298 14.6452905811623  C 0.113871635610766 14.4582498329993  0 14.2431529726119  0 14  C 0 13.7568470273881  0.113871635610766 13.5417501670007  0.341614906832298 13.3547094188377  L 16.2608695652174 0.280561122244489  C 16.4886128364389 0.0935203740814954  16.7505175983437 0  17.0465838509317 0  C 17.3426501035197 0  17.6045548654244 0.0935203740814954  17.832298136646 0.280561122244489  L 19.5403726708075 1.68336673346693  C 19.768115942029 1.87040748162992  19.8819875776398 2.08550434201736  19.8819875776398 2.32865731462926  C 19.8819875776398 2.57181028724115  19.768115942029 2.78690714762859  19.5403726708075 2.97394789579158  L 6.11490683229814 14  L 19.5403726708075 25.0260521042084  Z M 32.6583850931677 25.0260521042084  C 32.8861283643892 25.2130928523714  33 25.4281897127589  33 25.6713426853707  C 33 25.9144956579826  32.8861283643892 26.1295925183701  32.6583850931677 26.3166332665331  L 30.9503105590062 27.7194388777555  C 30.7225672877847 27.9064796259185  30.4606625258799 28  30.1645962732919 28  C 29.8685300207039 28  29.6066252587992 27.9064796259185  29.3788819875776 27.7194388777555  L 13.4596273291925 14.6452905811623  C 13.231884057971 14.4582498329993  13.1180124223603 14.2431529726119  13.1180124223602 14  C 13.1180124223603 13.7568470273881  13.231884057971 13.5417501670007  13.4596273291925 13.3547094188377  L 29.3788819875776 0.280561122244489  C 29.6066252587992 0.0935203740814954  29.8685300207039 0  30.1645962732919 0  C 30.4606625258799 0  30.7225672877847 0.0935203740814954  30.9503105590062 0.280561122244489  L 32.6583850931677 1.68336673346693  C 32.8861283643892 1.87040748162992  33 2.08550434201736  33 2.32865731462926  C 33 2.57181028724115  32.8861283643892 2.78690714762859  32.6583850931677 2.97394789579158  L 19.2329192546584 14  L 32.6583850931677 25.0260521042084  Z " fill-rule="nonzero" fill="#ffff00" stroke="none" transform="matrix(1 0 0 1 65 35 )" />
  </g>
</svg>