<?xml version="1.0" encoding="utf-8"?>
<svg version="1.1" xmlns:xlink="http://www.w3.org/1999/xlink" width="351px" height="193px" xmlns="http://www.w3.org/2000/svg">
  <defs>
    <mask fill="white" id="clip152">
      <path d="M 0 17.5  C 0 11.5863750303906  0.2795806174002 5.74899932006883  0.826507311849326 0  L 350.173492838443 0.000107559684693115  C 350.7204193826 5.74899932006883  351 11.5863750303906  351 17.5  C 351 115.779999999999  273.78 193  175.5 193  C 77.22 193  0 115.779999999999  0 17.5  Z " fill-rule="evenodd" />
    </mask>
  </defs>
  <g transform="matrix(1 0 0 1 -226 -4813 )">
    <path d="M 0 17.5  C 0 11.5863750303906  0.2795806174002 5.74899932006883  0.826507311849326 0  L 350.173492838443 0.000107559684693115  C 350.7204193826 5.74899932006883  351 11.5863750303906  351 17.5  C 351 115.779999999999  273.78 193  175.5 193  C 77.22 193  0 115.779999999999  0 17.5  Z " fill-rule="nonzero" fill="#f8e881" stroke="none" transform="matrix(1 0 0 1 226 4813 )" />
    <path d="M 0 17.5  C 0 11.5863750303906  0.2795806174002 5.74899932006883  0.826507311849326 0  L 350.173492838443 0.000107559684693115  C 350.7204193826 5.74899932006883  351 11.5863750303906  351 17.5  C 351 115.779999999999  273.78 193  175.5 193  C 77.22 193  0 115.779999999999  0 17.5  Z " stroke-width="4" stroke="#fafefd" fill="none" transform="matrix(1 0 0 1 226 4813 )" mask="url(#clip152)" />
  </g>
</svg>