<?xml version="1.0" encoding="utf-8"?>
<svg version="1.1" xmlns:xlink="http://www.w3.org/1999/xlink" width="441px" height="441px" xmlns="http://www.w3.org/2000/svg">
  <defs>
    <mask fill="white" id="clip120">
      <path d="M 441 220.5  C 441 343.98  343.98 441  220.5 441  C 97.02 441  0 343.98  0 220.5  C 0 97.02  97.02 0  220.5 0  C 343.98 0  441 97.02  441 220.5  Z M 174 220.5  C 174 247.66  195.34 269  222.5 269  C 249.66 269  271 247.66  271 220.5  C 271 193.34  249.66 172  222.5 172  C 195.34 172  174 193.34  174 220.5  Z " fill-rule="evenodd" />
    </mask>
  </defs>
  <g transform="matrix(1 0 0 1 -706 -2362 )">
    <path d="M 441 220.5  C 441 343.98  343.98 441  220.5 441  C 97.02 441  0 343.98  0 220.5  C 0 97.02  97.02 0  220.5 0  C 343.98 0  441 97.02  441 220.5  Z M 174 220.5  C 174 247.66  195.34 269  222.5 269  C 249.66 269  271 247.66  271 220.5  C 271 193.34  249.66 172  222.5 172  C 195.34 172  174 193.34  174 220.5  Z " fill-rule="nonzero" fill="#f8e881" stroke="none" transform="matrix(1 0 0 1 706 2362 )" />
    <path d="M 441 220.5  C 441 343.98  343.98 441  220.5 441  C 97.02 441  0 343.98  0 220.5  C 0 97.02  97.02 0  220.5 0  C 343.98 0  441 97.02  441 220.5  Z " stroke-width="4" stroke="#fafefd" fill="none" transform="matrix(1 0 0 1 706 2362 )" mask="url(#clip120)" />
    <path d="M 174 220.5  C 174 247.66  195.34 269  222.5 269  C 249.66 269  271 247.66  271 220.5  C 271 193.34  249.66 172  222.5 172  C 195.34 172  174 193.34  174 220.5  Z " stroke-width="4" stroke="#fafefd" fill="none" transform="matrix(1 0 0 1 706 2362 )" mask="url(#clip120)" />
  </g>
</svg>