<?xml version="1.0" encoding="utf-8"?>
<svg version="1.1" xmlns:xlink="http://www.w3.org/1999/xlink" width="28px" height="33px" xmlns="http://www.w3.org/2000/svg">
  <g transform="matrix(1 0 0 1 -35 -65 )">
    <path d="M 27.7194388777555 29.3788819875776  C 27.9064796259185 29.6066252587992  28 29.8685300207039  28 30.1645962732919  C 28 30.4606625258799  27.9064796259185 30.7225672877847  27.7194388777555 30.9503105590062  L 26.3166332665331 32.6583850931677  C 26.1295925183701 32.8861283643892  25.9144956579826 33  25.6713426853707 33  C 25.4281897127589 33  25.2130928523714 32.8861283643892  25.0260521042084 32.6583850931677  L 14 19.2329192546584  L 2.97394789579158 32.6583850931677  C 2.78690714762859 32.8861283643892  2.57181028724115 33  2.32865731462926 33  C 2.08550434201737 33  1.87040748162993 32.8861283643892  1.68336673346693 32.6583850931677  L 0.280561122244489 30.9503105590062  C 0.0935203740814966 30.7225672877847  0 30.4606625258799  0 30.1645962732919  C 0 29.8685300207039  0.0935203740814966 29.6066252587992  0.280561122244489 29.3788819875776  L 13.3547094188377 13.4596273291925  C 13.5417501670007 13.231884057971  13.7568470273881 13.1180124223602  14 13.1180124223602  C 14.2431529726119 13.1180124223602  14.4582498329993 13.231884057971  14.6452905811623 13.4596273291925  L 27.7194388777555 29.3788819875776  Z M 27.7194388777555 16.2608695652174  C 27.9064796259185 16.4886128364389  28 16.7505175983437  28 17.0465838509317  C 28 17.3426501035197  27.9064796259185 17.6045548654244  27.7194388777555 17.832298136646  L 26.3166332665331 19.5403726708075  C 26.1295925183701 19.768115942029  25.9144956579826 19.8819875776398  25.6713426853707 19.8819875776398  C 25.4281897127589 19.8819875776398  25.2130928523714 19.768115942029  25.0260521042084 19.5403726708075  L 14 6.11490683229814  L 2.97394789579158 19.5403726708075  C 2.78690714762859 19.768115942029  2.57181028724115 19.8819875776398  2.32865731462926 19.8819875776398  C 2.08550434201737 19.8819875776398  1.87040748162993 19.768115942029  1.68336673346693 19.5403726708075  L 0.280561122244489 17.832298136646  C 0.0935203740814966 17.6045548654244  0 17.3426501035197  0 17.0465838509317  C 0 16.7505175983437  0.0935203740814966 16.4886128364389  0.280561122244489 16.2608695652174  L 13.3547094188377 0.341614906832298  C 13.5417501670007 0.113871635610763  13.7568470273881 0  14 0  C 14.2431529726119 0  14.4582498329993 0.113871635610763  14.6452905811623 0.341614906832298  L 27.7194388777555 16.2608695652174  Z " fill-rule="nonzero" fill="#ffff00" stroke="none" transform="matrix(1 0 0 1 35 65 )" />
  </g>
</svg>