<?xml version="1.0" encoding="utf-8"?>
<svg version="1.1" xmlns:xlink="http://www.w3.org/1999/xlink" width="189px" height="351px" xmlns="http://www.w3.org/2000/svg">
  <defs>
    <mask fill="white" id="clip155">
      <path d="M 13.5 351  C 9.29326198453208 351  5.12510901339257 350.858521504128  1 350.579968694317  L 0.999945296941007 0.420031277255475  C 5.12510901339249 0.141478495872434  9.29326198453205 0  13.5 0  C 111.78 0  189 77.2200000000012  189 175.5  C 189 273.779999999999  111.78 351  13.5 351  Z " fill-rule="evenodd" />
    </mask>
  </defs>
  <g transform="matrix(1 0 0 1 -156 -4885 )">
    <path d="M 13.5 351  C 9.29326198453208 351  5.12510901339257 350.858521504128  1 350.579968694317  L 0.999945296941007 0.420031277255475  C 5.12510901339249 0.141478495872434  9.29326198453205 0  13.5 0  C 111.78 0  189 77.2200000000012  189 175.5  C 189 273.779999999999  111.78 351  13.5 351  Z " fill-rule="nonzero" fill="#f8e881" stroke="none" transform="matrix(1 0 0 1 156 4885 )" />
    <path d="M 13.5 351  C 9.29326198453208 351  5.12510901339257 350.858521504128  1 350.579968694317  L 0.999945296941007 0.420031277255475  C 5.12510901339249 0.141478495872434  9.29326198453205 0  13.5 0  C 111.78 0  189 77.2200000000012  189 175.5  C 189 273.779999999999  111.78 351  13.5 351  Z " stroke-width="4" stroke="#fafefd" fill="none" transform="matrix(1 0 0 1 156 4885 )" mask="url(#clip155)" />
  </g>
</svg>