<?xml version="1.0" encoding="utf-8"?>
<svg version="1.1" xmlns:xlink="http://www.w3.org/1999/xlink" width="351px" height="351px" xmlns="http://www.w3.org/2000/svg">
  <g transform="matrix(1 0 0 1 -226 -2407 )">
    <path d="M 401.5 2408  C 499.22 2408  576 2484.78  576 2582.5  C 576 2680.22  499.22 2757  401.5 2757  C 303.78 2757  227 2680.22  227 2582.5  C 227 2484.78  303.78 2408  401.5 2408  Z " fill-rule="nonzero" fill="#f8e881" stroke="none" />
    <path d="M 401.5 2408  C 499.22 2408  576 2484.78  576 2582.5  C 576 2680.22  499.22 2757  401.5 2757  C 303.78 2757  227 2680.22  227 2582.5  C 227 2484.78  303.78 2408  401.5 2408  Z " stroke-width="2" stroke="#fafefd" fill="none" />
  </g>
</svg>