<?xml version="1.0" encoding="utf-8"?>
<svg version="1.1" xmlns:xlink="http://www.w3.org/1999/xlink" width="13px" height="13px" xmlns="http://www.w3.org/2000/svg">
  <g transform="matrix(1 0 0 1 -8 0 )">
    <path d="M 14.5 0  C 18.14 0  21 2.86  21 6.5  C 21 10.14  18.14 13  14.5 13  C 10.86 13  8 10.14  8 6.5  C 8 2.86  10.86 0  14.5 0  Z " fill-rule="nonzero" fill="#000080" stroke="none" />
    <path d="M 14.5 0.5  C 17.86 0.5  20.5 3.14  20.5 6.5  C 20.5 9.86  17.86 12.5  14.5 12.5  C 11.14 12.5  8.5 9.86  8.5 6.5  C 8.5 3.14  11.14 0.5  14.5 0.5  Z " stroke-width="1" stroke="#aaaaaa" fill="none" />
  </g>
</svg>