<?xml version="1.0" encoding="utf-8"?>
<svg version="1.1" xmlns:xlink="http://www.w3.org/1999/xlink" width="64px" height="64px" xmlns="http://www.w3.org/2000/svg">
  <g transform="matrix(1 0 0 1 -230 -7922 )">
    <path d="M 262 7923  C 279.36 7923  293 7936.64  293 7954  C 293 7971.36  279.36 7985  262 7985  C 244.64 7985  231 7971.36  231 7954  C 231 7936.64  244.64 7923  262 7923  Z " fill-rule="nonzero" fill="#ff6600" stroke="none" />
    <path d="M 262 7923  C 279.36 7923  293 7936.64  293 7954  C 293 7971.36  279.36 7985  262 7985  C 244.64 7985  231 7971.36  231 7954  C 231 7936.64  244.64 7923  262 7923  Z " stroke-width="2" stroke="#ffffff" fill="none" />
  </g>
</svg>