<?xml version="1.0" encoding="utf-8"?>
<svg version="1.1" xmlns:xlink="http://www.w3.org/1999/xlink" width="136px" height="136px" xmlns="http://www.w3.org/2000/svg">
  <g transform="matrix(1 0 0 1 -583 -9825 )">
    <path d="M 651 9826  C 688.52 9826  718 9855.48  718 9893  C 718 9930.52  688.52 9960  651 9960  C 613.48 9960  584 9930.52  584 9893  C 584 9855.48  613.48 9826  651 9826  Z " fill-rule="nonzero" fill="#663333" stroke="none" />
    <path d="M 651 9826  C 688.52 9826  718 9855.48  718 9893  C 718 9930.52  688.52 9960  651 9960  C 613.48 9960  584 9930.52  584 9893  C 584 9855.48  613.48 9826  651 9826  Z " stroke-width="2" stroke="#ff6633" fill="none" />
  </g>
</svg>