<?xml version="1.0" encoding="utf-8"?>
<svg version="1.1" xmlns:xlink="http://www.w3.org/1999/xlink" width="107px" height="107px" xmlns="http://www.w3.org/2000/svg">
  <g transform="matrix(1 0 0 1 -339 -9920 )">
    <path d="M 392.5 9921  C 421.9 9921  445 9944.1  445 9973.5  C 445 10002.9  421.9 10026  392.5 10026  C 363.1 10026  340 10002.9  340 9973.5  C 340 9944.1  363.1 9921  392.5 9921  Z " fill-rule="nonzero" fill="#b78669" stroke="none" />
    <path d="M 392.5 9921  C 421.9 9921  445 9944.1  445 9973.5  C 445 10002.9  421.9 10026  392.5 10026  C 363.1 10026  340 10002.9  340 9973.5  C 340 9944.1  363.1 9921  392.5 9921  Z " stroke-width="2" stroke="#6d3c28" fill="none" />
  </g>
</svg>