<?xml version="1.0" encoding="utf-8"?>
<svg version="1.1" xmlns:xlink="http://www.w3.org/1999/xlink" width="136px" height="136px" xmlns="http://www.w3.org/2000/svg">
  <g transform="matrix(1 0 0 1 -583 -8831 )">
    <path d="M 651 8832  C 688.52 8832  718 8861.48  718 8899  C 718 8936.52  688.52 8966  651 8966  C 613.48 8966  584 8936.52  584 8899  C 584 8861.48  613.48 8832  651 8832  Z " fill-rule="nonzero" fill="#ff6600" stroke="none" />
    <path d="M 651 8832  C 688.52 8832  718 8861.48  718 8899  C 718 8936.52  688.52 8966  651 8966  C 613.48 8966  584 8936.52  584 8899  C 584 8861.48  613.48 8832  651 8832  Z " stroke-width="2" stroke="#ffffff" fill="none" />
  </g>
</svg>