<?xml version="1.0" encoding="utf-8"?>
<svg version="1.1" xmlns:xlink="http://www.w3.org/1999/xlink" width="123px" height="123px" xmlns="http://www.w3.org/2000/svg">
  <g transform="matrix(1 0 0 1 -641 -8229 )">
    <path d="M 702.5 8230  C 736.38 8230  763 8256.62  763 8290.5  C 763 8324.38  736.38 8351  702.5 8351  C 668.62 8351  642 8324.38  642 8290.5  C 642 8256.62  668.62 8230  702.5 8230  Z " fill-rule="nonzero" fill="#ff6600" stroke="none" />
    <path d="M 702.5 8230  C 736.38 8230  763 8256.62  763 8290.5  C 763 8324.38  736.38 8351  702.5 8351  C 668.62 8351  642 8324.38  642 8290.5  C 642 8256.62  668.62 8230  702.5 8230  Z " stroke-width="2" stroke="#ffffff" fill="none" />
  </g>
</svg>