<?xml version="1.0" encoding="utf-8"?>
<svg version="1.1" xmlns:xlink="http://www.w3.org/1999/xlink" width="43px" height="43px" xmlns="http://www.w3.org/2000/svg">
  <g transform="matrix(1 0 0 1 -690 -7938 )">
    <path d="M 711.5 7939  C 722.98 7939  732 7948.02  732 7959.5  C 732 7970.98  722.98 7980  711.5 7980  C 700.02 7980  691 7970.98  691 7959.5  C 691 7948.02  700.02 7939  711.5 7939  Z " fill-rule="nonzero" fill="#ffffff" stroke="none" fill-opacity="0" />
    <path d="M 711.5 7939  C 722.98 7939  732 7948.02  732 7959.5  C 732 7970.98  722.98 7980  711.5 7980  C 700.02 7980  691 7970.98  691 7959.5  C 691 7948.02  700.02 7939  711.5 7939  Z " stroke-width="2" stroke="#ff3366" fill="none" />
  </g>
</svg>