<?xml version="1.0" encoding="utf-8"?>
<svg version="1.1" xmlns:xlink="http://www.w3.org/1999/xlink" width="64px" height="64px" xmlns="http://www.w3.org/2000/svg">
  <g transform="matrix(1 0 0 1 -197 -10037 )">
    <path d="M 229 10038  C 246.36 10038  260 10051.64  260 10069  C 260 10086.36  246.36 10100  229 10100  C 211.64 10100  198 10086.36  198 10069  C 198 10051.64  211.64 10038  229 10038  Z " fill-rule="nonzero" fill="#663333" stroke="none" />
    <path d="M 229 10038  C 246.36 10038  260 10051.64  260 10069  C 260 10086.36  246.36 10100  229 10100  C 211.64 10100  198 10086.36  198 10069  C 198 10051.64  211.64 10038  229 10038  Z " stroke-width="2" stroke="#ff6633" fill="none" />
  </g>
</svg>