<?xml version="1.0" encoding="utf-8"?>
<svg version="1.1" xmlns:xlink="http://www.w3.org/1999/xlink" width="311px" height="402px" xmlns="http://www.w3.org/2000/svg">
  <defs>
    <mask fill="white" id="clip18">
      <path d="M 230.750000000007 398.49999999998  C 229.865030020818 398.567607223264  228.074990992637 401.409104714026  227.344440120725 401.412468089786  C 169.704863324298 401.677834352095  111.97845340014 379.356699780677  67.1497115745462 334.527957955107  C -21.9457428549537 245.432503525601  -21.9457428549488 105.425360850666  67.1497115745556 16.3299064211612  C 72.1346675370726 11.3449504586447  77.2790017504294 6.63890643509626  82.5648795547777 2.21177435051709  C 84.0969631522837 0.928593637333506  84.5 2.24999999999932  89 0.999999999997726  C 113 0  246.333333333333 14.9999999999995  294.5 142.5  C 350.500000000002 278.5  245.283141504347 397.389741612376  230.750000000007 398.49999999998  Z " fill-rule="evenodd" />
    </mask>
  </defs>
  <g transform="matrix(1 0 0 1 -858 -4852 )">
    <path d="M 230.750000000007 398.49999999998  C 229.865030020818 398.567607223264  228.074990992637 401.409104714026  227.344440120725 401.412468089786  C 169.704863324298 401.677834352095  111.97845340014 379.356699780677  67.1497115745462 334.527957955107  C -21.9457428549537 245.432503525601  -21.9457428549488 105.425360850666  67.1497115745556 16.3299064211612  C 72.1346675370726 11.3449504586447  77.2790017504294 6.63890643509626  82.5648795547777 2.21177435051709  C 84.0969631522837 0.928593637333506  84.5 2.24999999999932  89 0.999999999997726  C 113 0  246.333333333333 14.9999999999995  294.5 142.5  C 350.500000000002 278.5  245.283141504347 397.389741612376  230.750000000007 398.49999999998  Z " fill-rule="nonzero" fill="#ff0000" stroke="none" transform="matrix(1 0 0 1 858 4852 )" />
    <path d="M 230.750000000007 398.49999999998  C 229.865030020818 398.567607223264  228.074990992637 401.409104714026  227.344440120725 401.412468089786  C 169.704863324298 401.677834352095  111.97845340014 379.356699780677  67.1497115745462 334.527957955107  C -21.9457428549537 245.432503525601  -21.9457428549488 105.425360850666  67.1497115745556 16.3299064211612  C 72.1346675370726 11.3449504586447  77.2790017504294 6.63890643509626  82.5648795547777 2.21177435051709  C 84.0969631522837 0.928593637333506  84.5 2.24999999999932  89 0.999999999997726  C 113 0  246.333333333333 14.9999999999995  294.5 142.5  C 350.500000000002 278.5  245.283141504347 397.389741612376  230.750000000007 398.49999999998  Z " stroke-width="2" stroke="#ff0000" fill="none" transform="matrix(1 0 0 1 858 4852 )" mask="url(#clip18)" />
  </g>
</svg>