<?xml version="1.0" encoding="utf-8"?>
<svg version="1.1" xmlns:xlink="http://www.w3.org/1999/xlink" width="357px" height="270px" xmlns="http://www.w3.org/2000/svg">
  <defs>
    <mask fill="white" id="clip533">
      <path d="M 123 270  C 80.7989788772707 270  41.3794959424854 259.801026644205  7.02306222622087 241.68459105838  C 2.44235549628047 225.158493834198  0 207.662295393864  0 189.5  C 0 83.3799999999992  83.38 0  189.5 0  C 262.816159546208 0  325.278179740863 39.7985109556939  356.888927469076 99.3984361697221  C 326.026070526392 199.232822302436  234.163104949227 270  123 270  Z " fill-rule="evenodd" />
    </mask>
  </defs>
  <g transform="matrix(1 0 0 1 -822 -10136 )">
    <path d="M 123 270  C 80.7989788772707 270  41.3794959424854 259.801026644205  7.02306222622087 241.68459105838  C 2.44235549628047 225.158493834198  0 207.662295393864  0 189.5  C 0 83.3799999999992  83.38 0  189.5 0  C 262.816159546208 0  325.278179740863 39.7985109556939  356.888927469076 99.3984361697221  C 326.026070526392 199.232822302436  234.163104949227 270  123 270  Z " fill-rule="nonzero" fill="#ff9933" stroke="none" transform="matrix(1 0 0 1 822 10136 )" />
    <path d="M 123 270  C 80.7989788772707 270  41.3794959424854 259.801026644205  7.02306222622087 241.68459105838  C 2.44235549628047 225.158493834198  0 207.662295393864  0 189.5  C 0 83.3799999999992  83.38 0  189.5 0  C 262.816159546208 0  325.278179740863 39.7985109556939  356.888927469076 99.3984361697221  C 326.026070526392 199.232822302436  234.163104949227 270  123 270  Z " stroke-width="4" stroke="#ff0000" fill="none" transform="matrix(1 0 0 1 822 10136 )" mask="url(#clip533)" />
  </g>
</svg>