<?xml version="1.0" encoding="utf-8"?>
<svg version="1.1" xmlns:xlink="http://www.w3.org/1999/xlink" width="176px" height="176px" xmlns="http://www.w3.org/2000/svg">
  <g transform="matrix(1 0 0 1 -899 -7908 )">
    <path d="M 987 7910  C 1035.16 7910  1073 7947.84  1073 7996  C 1073 8044.16  1035.16 8082  987 8082  C 938.84 8082  901 8044.16  901 7996  C 901 7947.84  938.84 7910  987 7910  Z " fill-rule="nonzero" fill="#336600" stroke="none" />
    <path d="M 987 7909.5  C 1035.44 7909.5  1073.5 7947.56  1073.5 7996  C 1073.5 8044.44  1035.44 8082.5  987 8082.5  C 938.56 8082.5  900.5 8044.44  900.5 7996  C 900.5 7947.56  938.56 7909.5  987 7909.5  Z " stroke-width="3" stroke="#ffffff" fill="none" />
  </g>
</svg>