<?xml version="1.0" encoding="utf-8"?>
<svg version="1.1" xmlns:xlink="http://www.w3.org/1999/xlink" width="379px" height="273px" xmlns="http://www.w3.org/2000/svg">
  <defs>
    <mask fill="white" id="clip520">
      <path d="M 379 189.5  C 379 219.229190798902  372.456146248767 247.173694211104  360.70170414096 272  L 18.2981994657296 272.000041681273  C 6.54381811975486 247.173542052229  0 219.229109860627  0 189.5  C 0 83.380000000001  83.38 0  189.5 0  C 295.62 0  379 83.380000000001  379 189.5  Z " fill-rule="evenodd" />
    </mask>
  </defs>
  <g transform="matrix(1 0 0 1 -756 -9100 )">
    <path d="M 379 189.5  C 379 219.229190798902  372.456146248767 247.173694211104  360.70170414096 272  L 18.2981994657296 272.000041681273  C 6.54381811975486 247.173542052229  0 219.229109860627  0 189.5  C 0 83.380000000001  83.38 0  189.5 0  C 295.62 0  379 83.380000000001  379 189.5  Z " fill-rule="nonzero" fill="#ff9933" stroke="none" transform="matrix(1 0 0 1 756 9100 )" />
    <path d="M 379 189.5  C 379 219.229190798902  372.456146248767 247.173694211104  360.70170414096 272  L 18.2981994657296 272.000041681273  C 6.54381811975486 247.173542052229  0 219.229109860627  0 189.5  C 0 83.380000000001  83.38 0  189.5 0  C 295.62 0  379 83.380000000001  379 189.5  Z " stroke-width="4" stroke="#ff0000" fill="none" transform="matrix(1 0 0 1 756 9100 )" mask="url(#clip520)" />
  </g>
</svg>