<?xml version="1.0" encoding="utf-8"?>
<svg version="1.1" xmlns:xlink="http://www.w3.org/1999/xlink" width="255px" height="342px" xmlns="http://www.w3.org/2000/svg">
  <defs>
    <mask fill="white" id="clip535">
      <path d="M 0.293227271179707 100.63638102343  C 0.293227271179895 67.8115528437963  6.23332730488066 36.6067519460829  17.1185394824565 8.01696586988364  C 33.3258498590529 3.52909022169964  50.4832600380789 1.13638102343003  68.2932272711799 1.13638102342948  C 172.453227271179 1.1363810234299  254.293227271178 82.9763810234306  254.293227271178 187.13638102343  C 254.293227271179 252.402426607875  222.161188808004 308.905188975091  172.539837028647 342.00194247091  C 71.4635667641173 308.466453724965  0.293227271179247 214.25646366869  0.293227271179707 100.63638102343  Z " fill-rule="evenodd" />
    </mask>
  </defs>
  <g transform="matrix(1 0 0 1 -827 -4729 )">
    <path d="M 0.293227271179707 100.63638102343  C 0.293227271179895 67.8115528437963  6.23332730488066 36.6067519460829  17.1185394824565 8.01696586988364  C 33.3258498590529 3.52909022169964  50.4832600380789 1.13638102343003  68.2932272711799 1.13638102342948  C 172.453227271179 1.1363810234299  254.293227271178 82.9763810234306  254.293227271178 187.13638102343  C 254.293227271179 252.402426607875  222.161188808004 308.905188975091  172.539837028647 342.00194247091  C 71.4635667641173 308.466453724965  0.293227271179247 214.25646366869  0.293227271179707 100.63638102343  Z " fill-rule="nonzero" fill="#ff9933" stroke="none" transform="matrix(1 0 0 1 827 4729 )" />
    <path d="M 0.293227271179707 100.63638102343  C 0.293227271179895 67.8115528437963  6.23332730488066 36.6067519460829  17.1185394824565 8.01696586988364  C 33.3258498590529 3.52909022169964  50.4832600380789 1.13638102343003  68.2932272711799 1.13638102342948  C 172.453227271179 1.1363810234299  254.293227271178 82.9763810234306  254.293227271178 187.13638102343  C 254.293227271179 252.402426607875  222.161188808004 308.905188975091  172.539837028647 342.00194247091  C 71.4635667641173 308.466453724965  0.293227271179247 214.25646366869  0.293227271179707 100.63638102343  Z " stroke-width="4" stroke="#ff0000" fill="none" transform="matrix(1 0 0 1 827 4729 )" mask="url(#clip535)" />
  </g>
</svg>