<?xml version="1.0" encoding="utf-8"?>
<svg version="1.1" xmlns:xlink="http://www.w3.org/1999/xlink" width="242px" height="242px" xmlns="http://www.w3.org/2000/svg">
  <g transform="matrix(1 0 0 1 -864 -2816 )">
    <path d="M 985 2816  C 1052.76 2816  1106 2869.24  1106 2937  C 1106 3004.76  1052.76 3058  985 3058  C 917.24 3058  864 3004.76  864 2937  C 864 2869.24  917.24 2816  985 2816  Z " fill-rule="nonzero" fill="#ffffff" stroke="none" fill-opacity="0" />
    <path d="M 985 2816.5  C 1052.48 2816.5  1105.5 2869.52  1105.5 2937  C 1105.5 3004.48  1052.48 3057.5  985 3057.5  C 917.52 3057.5  864.5 3004.48  864.5 2937  C 864.5 2869.52  917.52 2816.5  985 2816.5  Z " stroke-width="1" stroke="#cccccc" fill="none" />
  </g>
</svg>