<?xml version="1.0" encoding="utf-8"?>
<svg version="1.1" xmlns:xlink="http://www.w3.org/1999/xlink" width="137px" height="137px" xmlns="http://www.w3.org/2000/svg">
  <g transform="matrix(1 0 0 1 -917 -2869 )">
    <path d="M 985.5 2869  C 1023.86 2869  1054 2899.14  1054 2937.5  C 1054 2975.86  1023.86 3006  985.5 3006  C 947.14 3006  917 2975.86  917 2937.5  C 917 2899.14  947.14 2869  985.5 2869  Z " fill-rule="nonzero" fill="#ffffff" stroke="none" fill-opacity="0" />
    <path d="M 985.5 2869.5  C 1023.58 2869.5  1053.5 2899.42  1053.5 2937.5  C 1053.5 2975.58  1023.58 3005.5  985.5 3005.5  C 947.42 3005.5  917.5 2975.58  917.5 2937.5  C 917.5 2899.42  947.42 2869.5  985.5 2869.5  Z " stroke-width="1" stroke="#cccccc" fill="none" />
  </g>
</svg>