<?xml version="1.0" encoding="utf-8"?>
<svg version="1.1" xmlns:xlink="http://www.w3.org/1999/xlink" width="242px" height="242px" xmlns="http://www.w3.org/2000/svg">
  <g transform="matrix(1 0 0 1 -864 -3092 )">
    <path d="M 985 3092  C 1052.76 3092  1106 3145.24  1106 3213  C 1106 3280.76  1052.76 3334  985 3334  C 917.24 3334  864 3280.76  864 3213  C 864 3145.24  917.24 3092  985 3092  Z " fill-rule="nonzero" fill="#ffffff" stroke="none" fill-opacity="0" />
    <path d="M 985 3092.5  C 1052.48 3092.5  1105.5 3145.52  1105.5 3213  C 1105.5 3280.48  1052.48 3333.5  985 3333.5  C 917.52 3333.5  864.5 3280.48  864.5 3213  C 864.5 3145.52  917.52 3092.5  985 3092.5  Z " stroke-width="1" stroke="#cccccc" fill="none" />
  </g>
</svg>