<?xml version="1.0" encoding="utf-8"?>
<svg version="1.1" xmlns:xlink="http://www.w3.org/1999/xlink" width="137px" height="137px" xmlns="http://www.w3.org/2000/svg">
  <g transform="matrix(1 0 0 1 -917 -3145 )">
    <path d="M 985.5 3145  C 1023.86 3145  1054 3175.14  1054 3213.5  C 1054 3251.86  1023.86 3282  985.5 3282  C 947.14 3282  917 3251.86  917 3213.5  C 917 3175.14  947.14 3145  985.5 3145  Z " fill-rule="nonzero" fill="#ffffff" stroke="none" fill-opacity="0" />
    <path d="M 985.5 3145.5  C 1023.58 3145.5  1053.5 3175.42  1053.5 3213.5  C 1053.5 3251.58  1023.58 3281.5  985.5 3281.5  C 947.42 3281.5  917.5 3251.58  917.5 3213.5  C 917.5 3175.42  947.42 3145.5  985.5 3145.5  Z " stroke-width="1" stroke="#cccccc" fill="none" />
  </g>
</svg>