<?xml version="1.0" encoding="utf-8"?>
<svg version="1.1" xmlns:xlink="http://www.w3.org/1999/xlink" width="18px" height="14px" xmlns="http://www.w3.org/2000/svg">
  <g transform="matrix(1 0 0 1 -181 -325 )">
    <path d="M 17.8196392785571 12.463768115942  C 17.939879759519 12.56038647343  18 12.6714975845411  18 12.7971014492754  C 18 12.9227053140097  17.939879759519 13.0338164251208  17.8196392785571 13.1304347826087  L 16.9178356713427 13.8550724637681  C 16.7975951903808 13.951690821256  16.6593186372746 14  16.503006012024 14  C 16.3466933867735 14  16.2084168336673 13.951690821256  16.0881763527054 13.8550724637681  L 9 8.15942028985507  L 1.91182364729459 13.8550724637681  C 1.79158316633267 13.951690821256  1.65330661322645 14  1.49699398797595 14  C 1.34068136272545 14  1.20240480961924 13.951690821256  1.08216432865731 13.8550724637681  L 0.180360721442886 13.1304347826087  C 0.0601202404809621 13.0338164251208  0 12.9227053140097  0 12.7971014492754  C 0 12.6714975845411  0.0601202404809621 12.56038647343  0.180360721442886 12.463768115942  L 8.58517034068136 5.71014492753623  C 8.70541082164329 5.61352657004831  8.8436873747495 5.56521739130435  9 5.56521739130435  C 9.1563126252505 5.56521739130435  9.29458917835671 5.61352657004831  9.41482965931864 5.71014492753623  L 17.8196392785571 12.463768115942  Z M 17.8196392785571 6.89855072463768  C 17.939879759519 6.9951690821256  18 7.10628019323672  18 7.23188405797101  C 18 7.35748792270531  17.939879759519 7.46859903381642  17.8196392785571 7.56521739130435  L 16.9178356713427 8.28985507246377  C 16.7975951903808 8.38647342995169  16.6593186372746 8.43478260869565  16.503006012024 8.43478260869565  C 16.3466933867735 8.43478260869565  16.2084168336673 8.38647342995169  16.0881763527054 8.28985507246377  L 9 2.59420289855072  L 1.91182364729459 8.28985507246377  C 1.79158316633267 8.38647342995169  1.65330661322645 8.43478260869565  1.49699398797595 8.43478260869565  C 1.34068136272545 8.43478260869565  1.20240480961924 8.38647342995169  1.08216432865731 8.28985507246377  L 0.180360721442886 7.56521739130435  C 0.0601202404809621 7.46859903381642  0 7.35748792270531  0 7.23188405797101  C 0 7.10628019323672  0.0601202404809621 6.9951690821256  0.180360721442886 6.89855072463768  L 8.58517034068136 0.144927536231884  C 8.70541082164329 0.0483091787439602  8.8436873747495 0  9 0  C 9.1563126252505 0  9.29458917835671 0.0483091787439602  9.41482965931864 0.144927536231884  L 17.8196392785571 6.89855072463768  Z " fill-rule="nonzero" fill="#f2f2f2" stroke="none" transform="matrix(1 0 0 1 181 325 )" />
  </g>
</svg>