<?xml version="1.0" encoding="utf-8"?>
<svg version="1.1" xmlns:xlink="http://www.w3.org/1999/xlink" width="539px" height="491px" xmlns="http://www.w3.org/2000/svg">
  <defs>
    <radialGradient cx="93" cy="247" r="162.943396226416" gradientTransform="matrix(-0.98818897637795 0 0 -1 184.901574803149 494 )" gradientUnits="userSpaceOnUse" id="RadialGradient785">
      <stop id="Stop786" stop-color="#ffffff" offset="0" />
      <stop id="Stop787" stop-color="#ffffff" offset="0.62" />
      <stop id="Stop788" stop-color="#027db4" offset="1" />
    </radialGradient>
    <mask fill="white" id="clip789">
      <path d="M 539 0  L 539 491  L 0 491  L 0 0  L 539 0  Z M 23 247  C 23 286.76  54.24 318  94 318  C 133.76 318  165 286.76  165 247  C 165 207.24  133.76 176  94 176  C 54.24 176  23 207.24  23 247  Z " fill-rule="evenodd" />
    </mask>
  </defs>
  <g transform="matrix(1 0 0 1 -623 -11352 )">
    <path d="M 539 0  L 539 491  L 0 491  L 0 0  L 539 0  Z M 23 247  C 23 286.76  54.24 318  94 318  C 133.76 318  165 286.76  165 247  C 165 207.24  133.76 176  94 176  C 54.24 176  23 207.24  23 247  Z " fill-rule="nonzero" fill="url(#RadialGradient785)" stroke="none" transform="matrix(1 0 0 1 623 11352 )" />
    <path d="M 539 0  L 539 491  L 0 491  L 0 0  L 539 0  Z " stroke-width="4" stroke="#f2f2f2" fill="none" transform="matrix(1 0 0 1 623 11352 )" mask="url(#clip789)" />
    <path d="M 23 247  C 23 286.76  54.24 318  94 318  C 133.76 318  165 286.76  165 247  C 165 207.24  133.76 176  94 176  C 54.24 176  23 207.24  23 247  Z " stroke-width="4" stroke="#f2f2f2" fill="none" transform="matrix(1 0 0 1 623 11352 )" mask="url(#clip789)" />
  </g>
</svg>