<?xml version="1.0" encoding="utf-8"?>
<svg version="1.1" xmlns:xlink="http://www.w3.org/1999/xlink" width="39px" height="18px" xmlns="http://www.w3.org/2000/svg">
  <defs>
    <mask fill="white" id="clip234">
      <path d="M 6.80660651357317 13.6018975332087  L 0.435059760956244 8.99601593625751  L 6.80660651357317 5.40455407969906  L 9.13011656275412 6.99848197343636  L 11.8021531193122 6.99848197343636  L 13.1962591488208 5.40000000000024  L 8.08453704062271 0.508918406074372  L 39 8.99601593625751  L 8.08453704062271 17.928273244784  L 13.1962591488208 12.9187855787495  L 11.8021531193122 11.5525616698311  L 9.13011656275412 11.5525616698311  L 6.80660651357317 13.6018975332087  Z " fill-rule="evenodd" />
    </mask>
  </defs>
  <g transform="matrix(1 0 0 1 -888 -2978 )">
    <path d="M 6.80660651357317 13.6018975332087  L 0.435059760956244 8.99601593625751  L 6.80660651357317 5.40455407969906  L 9.13011656275412 6.99848197343636  L 11.8021531193122 6.99848197343636  L 13.1962591488208 5.40000000000024  L 8.08453704062271 0.508918406074372  L 39 8.99601593625751  L 8.08453704062271 17.928273244784  L 13.1962591488208 12.9187855787495  L 11.8021531193122 11.5525616698311  L 9.13011656275412 11.5525616698311  L 6.80660651357317 13.6018975332087  Z " fill-rule="nonzero" fill="#333333" stroke="none" transform="matrix(1 0 0 1 888 2978 )" />
    <path d="M 6.80660651357317 13.6018975332087  L 0.435059760956244 8.99601593625751  L 6.80660651357317 5.40455407969906  L 9.13011656275412 6.99848197343636  L 11.8021531193122 6.99848197343636  L 13.1962591488208 5.40000000000024  L 8.08453704062271 0.508918406074372  L 39 8.99601593625751  L 8.08453704062271 17.928273244784  L 13.1962591488208 12.9187855787495  L 11.8021531193122 11.5525616698311  L 9.13011656275412 11.5525616698311  L 6.80660651357317 13.6018975332087  Z " stroke-width="2" stroke="#f2f2f2" fill="none" transform="matrix(1 0 0 1 888 2978 )" mask="url(#clip234)" />
  </g>
</svg>