<?xml version="1.0" encoding="utf-8"?>
<svg version="1.1" xmlns:xlink="http://www.w3.org/1999/xlink" width="405px" height="425px" xmlns="http://www.w3.org/2000/svg">
  <defs>
    <mask fill="white" id="clip17">
      <path d="M 0 225  C 0 99  99 0  225 0  C 254.84835471354 0  283.181532081662 5.55565026652948  309.042377588813 15.7097962840344  C 316.9236632763 18.804348070993  318.414040390952 23.0487273083891  324 27.333333333333  C 340.049345325992 39.6436840148463  353.46741886319 55.654442056285  364.666666666667 72  C 390.770866886276 110.09967640251  408.512550212109 157.080572136534  404 218  C 400.068005219026 271.081929543142  388.990979818729 289.356463072819  366.666666666667 328.666666666667  C 361.241613519572 338.219477643072  355.089309940584 345.077526321312  347.333333333333 353.333333333333  C 332.196795024284 369.445339008124  312.608581630457 385.173721244883  292 396.666666666667  C 263.475823478149 412.573962464377  232.177307163372 424.666666666667  197.333333333333 424.666666666667  C 166.466847340842 424.666666666667  152.423363714468 424.033246822286  134 420.666666666667  C 127.79057976617 419.531992713468  122.616801657195 417.246990942251  114.666666666667 415.333333333333  C 109.062336908541 413.984328782178  100.831027367252 413.821829303962  95.3333333333333 410  C 37.3124742786388 369.665667458356  0 302.396635718996  0 225  Z " fill-rule="evenodd" />
    </mask>
  </defs>
  <g transform="matrix(1 0 0 1 -765 -2990 )">
    <path d="M 0 225  C 0 99  99 0  225 0  C 254.84835471354 0  283.181532081662 5.55565026652948  309.042377588813 15.7097962840344  C 316.9236632763 18.804348070993  318.414040390952 23.0487273083891  324 27.333333333333  C 340.049345325992 39.6436840148463  353.46741886319 55.654442056285  364.666666666667 72  C 390.770866886276 110.09967640251  408.512550212109 157.080572136534  404 218  C 400.068005219026 271.081929543142  388.990979818729 289.356463072819  366.666666666667 328.666666666667  C 361.241613519572 338.219477643072  355.089309940584 345.077526321312  347.333333333333 353.333333333333  C 332.196795024284 369.445339008124  312.608581630457 385.173721244883  292 396.666666666667  C 263.475823478149 412.573962464377  232.177307163372 424.666666666667  197.333333333333 424.666666666667  C 166.466847340842 424.666666666667  152.423363714468 424.033246822286  134 420.666666666667  C 127.79057976617 419.531992713468  122.616801657195 417.246990942251  114.666666666667 415.333333333333  C 109.062336908541 413.984328782178  100.831027367252 413.821829303962  95.3333333333333 410  C 37.3124742786388 369.665667458356  0 302.396635718996  0 225  Z " fill-rule="nonzero" fill="#ff0000" stroke="none" transform="matrix(1 0 0 1 765 2990 )" />
    <path d="M 0 225  C 0 99  99 0  225 0  C 254.84835471354 0  283.181532081662 5.55565026652948  309.042377588813 15.7097962840344  C 316.9236632763 18.804348070993  318.414040390952 23.0487273083891  324 27.333333333333  C 340.049345325992 39.6436840148463  353.46741886319 55.654442056285  364.666666666667 72  C 390.770866886276 110.09967640251  408.512550212109 157.080572136534  404 218  C 400.068005219026 271.081929543142  388.990979818729 289.356463072819  366.666666666667 328.666666666667  C 361.241613519572 338.219477643072  355.089309940584 345.077526321312  347.333333333333 353.333333333333  C 332.196795024284 369.445339008124  312.608581630457 385.173721244883  292 396.666666666667  C 263.475823478149 412.573962464377  232.177307163372 424.666666666667  197.333333333333 424.666666666667  C 166.466847340842 424.666666666667  152.423363714468 424.033246822286  134 420.666666666667  C 127.79057976617 419.531992713468  122.616801657195 417.246990942251  114.666666666667 415.333333333333  C 109.062336908541 413.984328782178  100.831027367252 413.821829303962  95.3333333333333 410  C 37.3124742786388 369.665667458356  0 302.396635718996  0 225  Z " stroke-width="2" stroke="#ff0000" fill="none" transform="matrix(1 0 0 1 765 2990 )" mask="url(#clip17)" />
  </g>
</svg>