<?xml version="1.0" encoding="utf-8"?>
<svg version="1.1" xmlns:xlink="http://www.w3.org/1999/xlink" width="52px" height="52px" xmlns="http://www.w3.org/2000/svg">
  <g transform="matrix(1 0 0 1 -918 -5417 )">
    <path d="M 944 5417  C 958.56 5417  970 5428.44  970 5443  C 970 5457.56  958.56 5469  944 5469  C 929.44 5469  918 5457.56  918 5443  C 918 5428.44  929.44 5417  944 5417  Z " fill-rule="nonzero" fill="#ffffff" stroke="none" />
    <path d="M 944 5417.5  C 958.28 5417.5  969.5 5428.72  969.5 5443  C 969.5 5457.28  958.28 5468.5  944 5468.5  C 929.72 5468.5  918.5 5457.28  918.5 5443  C 918.5 5428.72  929.72 5417.5  944 5417.5  Z " stroke-width="1" stroke="#666666" fill="none" />
  </g>
</svg>