<?xml version="1.0" encoding="utf-8"?>
<svg version="1.1" xmlns:xlink="http://www.w3.org/1999/xlink" width="21px" height="21px" xmlns="http://www.w3.org/2000/svg">
  <g transform="matrix(1 0 0 1 -1030 -5375 )">
    <path d="M 1040.5 5375  C 1046.38 5375  1051 5379.62  1051 5385.5  C 1051 5391.38  1046.38 5396  1040.5 5396  C 1034.62 5396  1030 5391.38  1030 5385.5  C 1030 5379.62  1034.62 5375  1040.5 5375  Z " fill-rule="nonzero" fill="#ffffff" stroke="none" />
    <path d="M 1040.5 5375.5  C 1046.1 5375.5  1050.5 5379.9  1050.5 5385.5  C 1050.5 5391.1  1046.1 5395.5  1040.5 5395.5  C 1034.9 5395.5  1030.5 5391.1  1030.5 5385.5  C 1030.5 5379.9  1034.9 5375.5  1040.5 5375.5  Z " stroke-width="1" stroke="#666666" fill="none" />
  </g>
</svg>