<?xml version="1.0" encoding="utf-8"?>
<svg version="1.1" xmlns:xlink="http://www.w3.org/1999/xlink" width="200px" height="200px" xmlns="http://www.w3.org/2000/svg">
  <g transform="matrix(1 0 0 1 -404 -905 )">
    <path d="M 504 905  C 560 905  604 949  604 1005  C 604 1061  560 1105  504 1105  C 448 1105  404 1061  404 1005  C 404 949  448 905  504 905  Z " fill-rule="nonzero" fill="#ffffff" stroke="none" />
    <path d="M 504 905.5  C 559.72 905.5  603.5 949.28  603.5 1005  C 603.5 1060.72  559.72 1104.5  504 1104.5  C 448.28 1104.5  404.5 1060.72  404.5 1005  C 404.5 949.28  448.28 905.5  504 905.5  Z " stroke-width="1" stroke="#797979" fill="none" />
  </g>
</svg>