<?xml version="1.0" encoding="utf-8"?>
<svg version="1.1" xmlns:xlink="http://www.w3.org/1999/xlink" width="74px" height="217px" xmlns="http://www.w3.org/2000/svg">
  <defs>
    <mask fill="white" id="clip27">
      <path d="M 37.1912996969156 217  L 74 1.12144702842377  C 74 0.493436692506457  73.1756962025315 0  72.126582278481 0  L 1.87341772151899 0  C 0.824303797468459 0  0 0.493436692506457  0 1.12144702842377  L 37.1912996969156 217  Z " fill-rule="evenodd" />
    </mask>
  </defs>
  <g transform="matrix(1 0 0 1 -1020 -3404 )">
    <path d="M 37.1912996969156 217  L 74 1.12144702842377  C 74 0.493436692506457  73.1756962025315 0  72.126582278481 0  L 1.87341772151899 0  C 0.824303797468459 0  0 0.493436692506457  0 1.12144702842377  L 37.1912996969156 217  Z " fill-rule="nonzero" fill="#a3d8ff" stroke="none" fill-opacity="0.454901960784314" transform="matrix(1 0 0 1 1020 3404 )" />
    <path d="M 37.1912996969156 217  L 74 1.12144702842377  C 74 0.493436692506457  73.1756962025315 0  72.126582278481 0  L 1.87341772151899 0  C 0.824303797468459 0  0 0.493436692506457  0 1.12144702842377  L 37.1912996969156 217  Z " stroke-width="4" stroke="#e2f3ff" fill="none" transform="matrix(1 0 0 1 1020 3404 )" mask="url(#clip27)" />
  </g>
</svg>