<?xml version="1.0" encoding="utf-8"?>
<svg version="1.1" xmlns:xlink="http://www.w3.org/1999/xlink" width="74px" height="198px" xmlns="http://www.w3.org/2000/svg">
  <defs>
    <mask fill="white" id="clip33">
      <path d="M 36.8087003030844 198  L 0 1.02325581395349  C 0 0.450232558139533  0.824303797468457 0  1.87341772151899 0  L 72.126582278481 0  C 73.1756962025315 0  74 0.450232558139533  74 1.02325581395349  L 36.8087003030844 198  Z " fill-rule="evenodd" />
    </mask>
  </defs>
  <g transform="matrix(1 0 0 1 -754 -3155 )">
    <path d="M 36.8087003030844 198  L 0 1.02325581395349  C 0 0.450232558139533  0.824303797468457 0  1.87341772151899 0  L 72.126582278481 0  C 73.1756962025315 0  74 0.450232558139533  74 1.02325581395349  L 36.8087003030844 198  Z " fill-rule="nonzero" fill="#a3d8ff" stroke="none" fill-opacity="0.454901960784314" transform="matrix(1 0 0 1 754 3155 )" />
    <path d="M 36.8087003030844 198  L 0 1.02325581395349  C 0 0.450232558139533  0.824303797468457 0  1.87341772151899 0  L 72.126582278481 0  C 73.1756962025315 0  74 0.450232558139533  74 1.02325581395349  L 36.8087003030844 198  Z " stroke-width="4" stroke="#e2f3ff" fill="none" transform="matrix(1 0 0 1 754 3155 )" mask="url(#clip33)" />
  </g>
</svg>