<?xml version="1.0" encoding="utf-8"?>
<svg version="1.1" xmlns:xlink="http://www.w3.org/1999/xlink" width="11px" height="4px" xmlns="http://www.w3.org/2000/svg">
  <g transform="matrix(1 0 0 1 -1011 -2158 )">
    <path d="M 10.8897795591182 0.412371134020618  C 10.9632598530394 0.458190148911797  11 0.510882016036655  11 0.570446735395189  C 11 0.630011454753722  10.9632598530394 0.682703321878579  10.8897795591182 0.72852233676976  L 5.75350701402806 3.93127147766323  C 5.68002672010688 3.97709049255441  5.59552438209753 4  5.5 4  C 5.40447561790247 4  5.31997327989312 3.97709049255441  5.24649298597194 3.93127147766323  L 0.110220440881764 0.72852233676976  C 0.036740146960588 0.682703321878579  0 0.630011454753722  0 0.570446735395189  C 0 0.510882016036655  0.036740146960588 0.458190148911797  0.110220440881764 0.412371134020618  L 0.661322645290581 0.06872852233677  C 0.734802939211757 0.0229095074455894  0.819305277221109 0  0.914829659318637 0  C 1.01035404141617 0  1.09485637942552 0.0229095074455894  1.16833667334669 0.06872852233677  L 5.5 2.76975945017182  L 9.83166332665331 0.06872852233677  C 9.90514362057448 0.0229095074455894  9.98964595858383 0  10.0851703406814 0  C 10.1806947227789 0  10.2651970607882 0.0229095074455894  10.3386773547094 0.06872852233677  L 10.8897795591182 0.412371134020618  Z " fill-rule="nonzero" fill="#f92e47" stroke="none" transform="matrix(1 0 0 1 1011 2158 )" />
  </g>
</svg>