<?xml version="1.0" encoding="utf-8"?>
<svg version="1.1" xmlns:xlink="http://www.w3.org/1999/xlink" width="21px" height="21px" xmlns="http://www.w3.org/2000/svg">
  <g transform="matrix(1 0 0 1 -90 -90 )">
    <path d="M 100.5 90  C 106.38 90  111 94.62  111 100.5  C 111 106.38  106.38 111  100.5 111  C 94.62 111  90 106.38  90 100.5  C 90 94.62  94.62 90  100.5 90  Z " fill-rule="nonzero" fill="#242424" stroke="none" />
    <path d="M 100.5 90.5  C 106.1 90.5  110.5 94.9  110.5 100.5  C 110.5 106.1  106.1 110.5  100.5 110.5  C 94.9 110.5  90.5 106.1  90.5 100.5  C 90.5 94.9  94.9 90.5  100.5 90.5  Z " stroke-width="1" stroke="#555555" fill="none" />
  </g>
</svg>