<?xml version="1.0" encoding="utf-8"?>
<svg version="1.1" xmlns:xlink="http://www.w3.org/1999/xlink" width="131px" height="131px" xmlns="http://www.w3.org/2000/svg">
  <g transform="matrix(1 0 0 1 -35 -35 )">
    <path d="M 100.5 35  C 137.18 35  166 63.82  166 100.5  C 166 137.18  137.18 166  100.5 166  C 63.82 166  35 137.18  35 100.5  C 35 63.82  63.82 35  100.5 35  Z " fill-rule="nonzero" fill="#ffffff" stroke="none" fill-opacity="0" />
    <path d="M 100.5 35.5  C 136.9 35.5  165.5 64.1  165.5 100.5  C 165.5 136.9  136.9 165.5  100.5 165.5  C 64.1 165.5  35.5 136.9  35.5 100.5  C 35.5 64.1  64.1 35.5  100.5 35.5  Z " stroke-width="1" stroke="#555555" fill="none" />
  </g>
</svg>