<?xml version="1.0" encoding="utf-8"?>
<svg version="1.1" xmlns:xlink="http://www.w3.org/1999/xlink" width="7px" height="7px" xmlns="http://www.w3.org/2000/svg">
  <g transform="matrix(1 0 0 1 -97 -67 )">
    <path d="M 100.5 67  C 102.46 67  104 68.54  104 70.5  C 104 72.46  102.46 74  100.5 74  C 98.54 74  97 72.46  97 70.5  C 97 68.54  98.54 67  100.5 67  Z " fill-rule="nonzero" fill="#242424" stroke="none" />
    <path d="M 100.5 67.5  C 102.18 67.5  103.5 68.82  103.5 70.5  C 103.5 72.18  102.18 73.5  100.5 73.5  C 98.82 73.5  97.5 72.18  97.5 70.5  C 97.5 68.82  98.82 67.5  100.5 67.5  Z " stroke-width="1" stroke="#555555" fill="none" />
  </g>
</svg>