<?xml version="1.0" encoding="utf-8"?>
<svg version="1.1" xmlns:xlink="http://www.w3.org/1999/xlink" width="165px" height="165px" xmlns="http://www.w3.org/2000/svg">
  <g transform="matrix(1 0 0 1 -18 -18 )">
    <path d="M 100.5 18  C 146.7 18  183 54.3  183 100.5  C 183 146.7  146.7 183  100.5 183  C 54.3 183  18 146.7  18 100.5  C 18 54.3  54.3 18  100.5 18  Z " fill-rule="nonzero" fill="#ffffff" stroke="none" fill-opacity="0" />
    <path d="M 100.5 18.5  C 146.42 18.5  182.5 54.58  182.5 100.5  C 182.5 146.42  146.42 182.5  100.5 182.5  C 54.58 182.5  18.5 146.42  18.5 100.5  C 18.5 54.58  54.58 18.5  100.5 18.5  Z " stroke-width="1" stroke="#555555" fill="none" />
  </g>
</svg>