<?xml version="1.0" encoding="utf-8"?>
<svg version="1.1" xmlns:xlink="http://www.w3.org/1999/xlink" width="363px" height="363px" xmlns="http://www.w3.org/2000/svg">
  <g transform="matrix(1 0 0 1 -39 -39 )">
    <path d="M 220.5 39  C 322.14 39  402 118.86  402 220.5  C 402 322.14  322.14 402  220.5 402  C 118.86 402  39 322.14  39 220.5  C 39 118.86  118.86 39  220.5 39  Z " fill-rule="nonzero" fill="#ffffff" stroke="none" fill-opacity="0" />
    <path d="M 220.5 39.5  C 321.86 39.5  401.5 119.14  401.5 220.5  C 401.5 321.86  321.86 401.5  220.5 401.5  C 119.14 401.5  39.5 321.86  39.5 220.5  C 39.5 119.14  119.14 39.5  220.5 39.5  Z " stroke-width="1" stroke="#555555" fill="none" />
  </g>
</svg>