<?xml version="1.0" encoding="utf-8"?>
<svg version="1.1" xmlns:xlink="http://www.w3.org/1999/xlink" width="45px" height="45px" xmlns="http://www.w3.org/2000/svg">
  <g transform="matrix(1 0 0 1 -198 -198 )">
    <path d="M 220.5 198  C 233.1 198  243 207.9  243 220.5  C 243 233.1  233.1 243  220.5 243  C 207.9 243  198 233.1  198 220.5  C 198 207.9  207.9 198  220.5 198  Z " fill-rule="nonzero" fill="#242424" stroke="none" />
    <path d="M 220.5 198.5  C 232.82 198.5  242.5 208.18  242.5 220.5  C 242.5 232.82  232.82 242.5  220.5 242.5  C 208.18 242.5  198.5 232.82  198.5 220.5  C 198.5 208.18  208.18 198.5  220.5 198.5  Z " stroke-width="1" stroke="#555555" fill="none" />
  </g>
</svg>