<?xml version="1.0" encoding="utf-8"?>
<svg version="1.1" xmlns:xlink="http://www.w3.org/1999/xlink" width="287px" height="287px" xmlns="http://www.w3.org/2000/svg">
  <g transform="matrix(1 0 0 1 -77 -77 )">
    <path d="M 220.5 77  C 300.86 77  364 140.14  364 220.5  C 364 300.86  300.86 364  220.5 364  C 140.14 364  77 300.86  77 220.5  C 77 140.14  140.14 77  220.5 77  Z " fill-rule="nonzero" fill="#ffffff" stroke="none" fill-opacity="0" />
    <path d="M 220.5 77.5  C 300.58 77.5  363.5 140.42  363.5 220.5  C 363.5 300.58  300.58 363.5  220.5 363.5  C 140.42 363.5  77.5 300.58  77.5 220.5  C 77.5 140.42  140.42 77.5  220.5 77.5  Z " stroke-width="1" stroke="#555555" fill="none" />
  </g>
</svg>