<?xml version="1.0" encoding="utf-8"?>
<svg version="1.1" xmlns:xlink="http://www.w3.org/1999/xlink" width="15px" height="15px" xmlns="http://www.w3.org/2000/svg">
  <g transform="matrix(1 0 0 1 -212 -148 )">
    <path d="M 219.5 148  C 223.7 148  227 151.3  227 155.5  C 227 159.7  223.7 163  219.5 163  C 215.3 163  212 159.7  212 155.5  C 212 151.3  215.3 148  219.5 148  Z " fill-rule="nonzero" fill="#242424" stroke="none" />
    <path d="M 219.5 148.5  C 223.42 148.5  226.5 151.58  226.5 155.5  C 226.5 159.42  223.42 162.5  219.5 162.5  C 215.58 162.5  212.5 159.42  212.5 155.5  C 212.5 151.58  215.58 148.5  219.5 148.5  Z " stroke-width="1" stroke="#555555" fill="none" />
  </g>
</svg>