<?xml version="1.0" encoding="utf-8"?>
<svg version="1.1" xmlns:xlink="http://www.w3.org/1999/xlink" width="84px" height="235px" xmlns="http://www.w3.org/2000/svg">
  <defs>
    <mask fill="white" id="clip14">
      <path d="M 41.7828489926904 235  L 0 1.21447028423773  C 0 0.534366925064597  0.935696202531762 0  2.12658227848101 0  L 81.873417721519 0  C 83.0643037974682 0  84 0.534366925064597  84 1.21447028423773  L 41.7828489926904 235  Z " fill-rule="evenodd" />
    </mask>
  </defs>
  <g transform="matrix(1 0 0 1 -918 -9933 )">
    <path d="M 41.7828489926904 235  L 0 1.21447028423773  C 0 0.534366925064597  0.935696202531762 0  2.12658227848101 0  L 81.873417721519 0  C 83.0643037974682 0  84 0.534366925064597  84 1.21447028423773  L 41.7828489926904 235  Z " fill-rule="nonzero" fill="#a3d8ff" stroke="none" fill-opacity="0.454901960784314" transform="matrix(1 0 0 1 918 9933 )" />
    <path d="M 41.7828489926904 235  L 0 1.21447028423773  C 0 0.534366925064597  0.935696202531762 0  2.12658227848101 0  L 81.873417721519 0  C 83.0643037974682 0  84 0.534366925064597  84 1.21447028423773  L 41.7828489926904 235  Z " stroke-width="4" stroke="#e2f3ff" fill="none" transform="matrix(1 0 0 1 918 9933 )" mask="url(#clip14)" />
  </g>
</svg>