<?xml version="1.0" encoding="utf-8"?>
<svg version="1.1" xmlns:xlink="http://www.w3.org/1999/xlink" width="19px" height="19px" xmlns="http://www.w3.org/2000/svg">
  <g transform="matrix(1 0 0 1 -961 -351 )">
    <path d="M 970.5 351  C 975.82 351  980 355.18  980 360.5  C 980 365.82  975.82 370  970.5 370  C 965.18 370  961 365.82  961 360.5  C 961 355.18  965.18 351  970.5 351  Z " fill-rule="nonzero" fill="#ffffff" stroke="none" />
    <path d="M 970.5 351.5  C 975.54 351.5  979.5 355.46  979.5 360.5  C 979.5 365.54  975.54 369.5  970.5 369.5  C 965.46 369.5  961.5 365.54  961.5 360.5  C 961.5 355.46  965.46 351.5  970.5 351.5  Z " stroke-width="1" stroke="#797979" fill="none" />
  </g>
</svg>