<?xml version="1.0" encoding="utf-8"?>
<svg version="1.1" xmlns:xlink="http://www.w3.org/1999/xlink" width="400px" height="400px" xmlns="http://www.w3.org/2000/svg">
  <g transform="matrix(1 0 0 1 -770 -6826 )">
    <path d="M 970 6826  C 1082 6826  1170 6914  1170 7026  C 1170 7138  1082 7226  970 7226  C 858 7226  770 7138  770 7026  C 770 6914  858 6826  970 6826  Z " fill-rule="nonzero" fill="#ffffff" stroke="none" />
    <path d="M 970 6826.5  C 1081.72 6826.5  1169.5 6914.28  1169.5 7026  C 1169.5 7137.72  1081.72 7225.5  970 7225.5  C 858.28 7225.5  770.5 7137.72  770.5 7026  C 770.5 6914.28  858.28 6826.5  970 6826.5  Z " stroke-width="1" stroke="#797979" fill="none" />
  </g>
</svg>