<?xml version="1.0" encoding="utf-8"?>
<svg version="1.1" xmlns:xlink="http://www.w3.org/1999/xlink" width="30px" height="30px" xmlns="http://www.w3.org/2000/svg">
  <g transform="matrix(1 0 0 1 -894 -1455 )">
    <path d="M 909 1458  C 915.72 1458  921 1463.28  921 1470  C 921 1476.72  915.72 1482  909 1482  C 902.28 1482  897 1476.72  897 1470  C 897 1463.28  902.28 1458  909 1458  Z " fill-rule="nonzero" fill="#ffffff" stroke="none" fill-opacity="0" />
    <path d="M 909 1457  C 916.28 1457  922 1462.72  922 1470  C 922 1477.28  916.28 1483  909 1483  C 901.72 1483  896 1477.28  896 1470  C 896 1462.72  901.72 1457  909 1457  Z " stroke-width="4" stroke="#cc6600" fill="none" />
  </g>
</svg>