<?xml version="1.0" encoding="utf-8"?>
<svg version="1.1" xmlns:xlink="http://www.w3.org/1999/xlink" width="19px" height="19px" xmlns="http://www.w3.org/2000/svg">
  <g transform="matrix(1 0 0 1 -961 -1209 )">
    <path d="M 970.5 1209  C 975.82 1209  980 1213.18  980 1218.5  C 980 1223.82  975.82 1228  970.5 1228  C 965.18 1228  961 1223.82  961 1218.5  C 961 1213.18  965.18 1209  970.5 1209  Z " fill-rule="nonzero" fill="#ffffff" stroke="none" />
    <path d="M 970.5 1209.5  C 975.54 1209.5  979.5 1213.46  979.5 1218.5  C 979.5 1223.54  975.54 1227.5  970.5 1227.5  C 965.46 1227.5  961.5 1223.54  961.5 1218.5  C 961.5 1213.46  965.46 1209.5  970.5 1209.5  Z " stroke-width="1" stroke="#797979" fill="none" />
  </g>
</svg>