<?xml version="1.0" encoding="utf-8"?>
<svg version="1.1" xmlns:xlink="http://www.w3.org/1999/xlink" width="72px" height="72px" xmlns="http://www.w3.org/2000/svg">
  <g transform="matrix(1 0 0 1 -937 -2517 )">
    <path d="M 973 2518  C 992.6 2518  1008 2533.4  1008 2553  C 1008 2572.6  992.6 2588  973 2588  C 953.4 2588  938 2572.6  938 2553  C 938 2533.4  953.4 2518  973 2518  Z " fill-rule="nonzero" fill="#ffffff" stroke="none" fill-opacity="0" />
    <path d="M 973 2518  C 992.6 2518  1008 2533.4  1008 2553  C 1008 2572.6  992.6 2588  973 2588  C 953.4 2588  938 2572.6  938 2553  C 938 2533.4  953.4 2518  973 2518  Z " stroke-width="2" stroke="#ff6600" fill="none" />
  </g>
</svg>