<?xml version="1.0" encoding="utf-8"?>
<svg version="1.1" xmlns:xlink="http://www.w3.org/1999/xlink" width="30px" height="30px" xmlns="http://www.w3.org/2000/svg">
  <g transform="matrix(1 0 0 1 -894 -2610 )">
    <path d="M 909 2613  C 915.72 2613  921 2618.28  921 2625  C 921 2631.72  915.72 2637  909 2637  C 902.28 2637  897 2631.72  897 2625  C 897 2618.28  902.28 2613  909 2613  Z " fill-rule="nonzero" fill="#ffffff" stroke="none" fill-opacity="0" />
    <path d="M 909 2612  C 916.28 2612  922 2617.72  922 2625  C 922 2632.28  916.28 2638  909 2638  C 901.72 2638  896 2632.28  896 2625  C 896 2617.72  901.72 2612  909 2612  Z " stroke-width="4" stroke="#cc6600" fill="none" />
  </g>
</svg>