<?xml version="1.0" encoding="utf-8"?>
<svg version="1.1" xmlns:xlink="http://www.w3.org/1999/xlink" width="72px" height="72px" xmlns="http://www.w3.org/2000/svg">
  <g transform="matrix(1 0 0 1 -937 -3666 )">
    <path d="M 973 3667  C 992.6 3667  1008 3682.4  1008 3702  C 1008 3721.6  992.6 3737  973 3737  C 953.4 3737  938 3721.6  938 3702  C 938 3682.4  953.4 3667  973 3667  Z " fill-rule="nonzero" fill="#ffffff" stroke="none" fill-opacity="0" />
    <path d="M 973 3667  C 992.6 3667  1008 3682.4  1008 3702  C 1008 3721.6  992.6 3737  973 3737  C 953.4 3737  938 3721.6  938 3702  C 938 3682.4  953.4 3667  973 3667  Z " stroke-width="2" stroke="#ff6600" fill="none" />
  </g>
</svg>