<?xml version="1.0" encoding="utf-8"?>
<svg version="1.1" xmlns:xlink="http://www.w3.org/1999/xlink" width="15px" height="15px" xmlns="http://www.w3.org/2000/svg">
  <g transform="matrix(1 0 0 1 -964 -4447 )">
    <path d="M 971.5 4447  C 975.7 4447  979 4450.3  979 4454.5  C 979 4458.7  975.7 4462  971.5 4462  C 967.3 4462  964 4458.7  964 4454.5  C 964 4450.3  967.3 4447  971.5 4447  Z " fill-rule="nonzero" fill="#00ffff" stroke="none" />
    <path d="M 971.5 4447.5  C 975.42 4447.5  978.5 4450.58  978.5 4454.5  C 978.5 4458.42  975.42 4461.5  971.5 4461.5  C 967.58 4461.5  964.5 4458.42  964.5 4454.5  C 964.5 4450.58  967.58 4447.5  971.5 4447.5  Z " stroke-width="1" stroke="#ffffff" fill="none" />
  </g>
</svg>