<?xml version="1.0" encoding="utf-8"?>
<svg version="1.1" xmlns:xlink="http://www.w3.org/1999/xlink" width="11px" height="11px" xmlns="http://www.w3.org/2000/svg">
  <g transform="matrix(1 0 0 1 -931 -4457 )">
    <path d="M 936.5 4457  C 939.58 4457  942 4459.42  942 4462.5  C 942 4465.58  939.58 4468  936.5 4468  C 933.42 4468  931 4465.58  931 4462.5  C 931 4459.42  933.42 4457  936.5 4457  Z " fill-rule="nonzero" fill="#00ffff" stroke="none" />
    <path d="M 936.5 4457.5  C 939.3 4457.5  941.5 4459.7  941.5 4462.5  C 941.5 4465.3  939.3 4467.5  936.5 4467.5  C 933.7 4467.5  931.5 4465.3  931.5 4462.5  C 931.5 4459.7  933.7 4457.5  936.5 4457.5  Z " stroke-width="1" stroke="#ffffff" fill="none" />
  </g>
</svg>