<?xml version="1.0" encoding="utf-8"?>
<svg version="1.1" xmlns:xlink="http://www.w3.org/1999/xlink" width="100px" height="100px" xmlns="http://www.w3.org/2000/svg">
  <g transform="matrix(1 0 0 1 -920 -4873 )">
    <path d="M 970 4875  C 996.88 4875  1018 4896.12  1018 4923  C 1018 4949.88  996.88 4971  970 4971  C 943.12 4971  922 4949.88  922 4923  C 922 4896.12  943.12 4875  970 4875  Z " fill-rule="nonzero" fill="#ffffff" stroke="none" />
    <path d="M 970 4874.5  C 997.16 4874.5  1018.5 4895.84  1018.5 4923  C 1018.5 4950.16  997.16 4971.5  970 4971.5  C 942.84 4971.5  921.5 4950.16  921.5 4923  C 921.5 4895.84  942.84 4874.5  970 4874.5  Z " stroke-width="3" stroke="#666666" fill="none" />
  </g>
</svg>