<?xml version="1.0" encoding="utf-8"?>
<svg version="1.1" xmlns:xlink="http://www.w3.org/1999/xlink" width="15px" height="15px" xmlns="http://www.w3.org/2000/svg">
  <g transform="matrix(1 0 0 1 -964 -5719 )">
    <path d="M 971.5 5719  C 975.7 5719  979 5722.3  979 5726.5  C 979 5730.7  975.7 5734  971.5 5734  C 967.3 5734  964 5730.7  964 5726.5  C 964 5722.3  967.3 5719  971.5 5719  Z " fill-rule="nonzero" fill="#00ffff" stroke="none" />
    <path d="M 971.5 5719.5  C 975.42 5719.5  978.5 5722.58  978.5 5726.5  C 978.5 5730.42  975.42 5733.5  971.5 5733.5  C 967.58 5733.5  964.5 5730.42  964.5 5726.5  C 964.5 5722.58  967.58 5719.5  971.5 5719.5  Z " stroke-width="1" stroke="#ffffff" fill="none" />
  </g>
</svg>