<?xml version="1.0" encoding="utf-8"?>
<svg version="1.1" xmlns:xlink="http://www.w3.org/1999/xlink" width="11px" height="11px" xmlns="http://www.w3.org/2000/svg">
  <g transform="matrix(1 0 0 1 -931 -5729 )">
    <path d="M 936.5 5729  C 939.58 5729  942 5731.42  942 5734.5  C 942 5737.58  939.58 5740  936.5 5740  C 933.42 5740  931 5737.58  931 5734.5  C 931 5731.42  933.42 5729  936.5 5729  Z " fill-rule="nonzero" fill="#00ffff" stroke="none" />
    <path d="M 936.5 5729.5  C 939.3 5729.5  941.5 5731.7  941.5 5734.5  C 941.5 5737.3  939.3 5739.5  936.5 5739.5  C 933.7 5739.5  931.5 5737.3  931.5 5734.5  C 931.5 5731.7  933.7 5729.5  936.5 5729.5  Z " stroke-width="1" stroke="#ffffff" fill="none" />
  </g>
</svg>