<?xml version="1.0" encoding="utf-8"?>
<svg version="1.1" xmlns:xlink="http://www.w3.org/1999/xlink" width="100px" height="100px" xmlns="http://www.w3.org/2000/svg">
  <g transform="matrix(1 0 0 1 -920 -6145 )">
    <path d="M 970 6147  C 996.88 6147  1018 6168.12  1018 6195  C 1018 6221.88  996.88 6243  970 6243  C 943.12 6243  922 6221.88  922 6195  C 922 6168.12  943.12 6147  970 6147  Z " fill-rule="nonzero" fill="#ffffff" stroke="none" />
    <path d="M 970 6146.5  C 997.16 6146.5  1018.5 6167.84  1018.5 6195  C 1018.5 6222.16  997.16 6243.5  970 6243.5  C 942.84 6243.5  921.5 6222.16  921.5 6195  C 921.5 6167.84  942.84 6146.5  970 6146.5  Z " stroke-width="3" stroke="#666666" fill="none" />
  </g>
</svg>