<?xml version="1.0" encoding="utf-8"?>
<svg version="1.1" xmlns:xlink="http://www.w3.org/1999/xlink" width="357px" height="357px" xmlns="http://www.w3.org/2000/svg">
  <g transform="matrix(1 0 0 1 -42 -42 )">
    <path d="M 220.5 42  C 320.46 42  399 120.54  399 220.5  C 399 320.46  320.46 399  220.5 399  C 120.54 399  42 320.46  42 220.5  C 42 120.54  120.54 42  220.5 42  Z " fill-rule="nonzero" fill="#ffffff" stroke="none" fill-opacity="0" />
    <path d="M 220.5 42.5  C 320.18 42.5  398.5 120.82  398.5 220.5  C 398.5 320.18  320.18 398.5  220.5 398.5  C 120.82 398.5  42.5 320.18  42.5 220.5  C 42.5 120.82  120.82 42.5  220.5 42.5  Z " stroke-width="1" stroke="#555555" fill="none" />
  </g>
</svg>