<?xml version="1.0" encoding="utf-8"?>
<svg version="1.1" xmlns:xlink="http://www.w3.org/1999/xlink" width="55px" height="55px" xmlns="http://www.w3.org/2000/svg">
  <g transform="matrix(1 0 0 1 -284 -283 )">
    <path d="M 311.5 283  C 326.9 283  339 295.1  339 310.5  C 339 325.9  326.9 338  311.5 338  C 296.1 338  284 325.9  284 310.5  C 284 295.1  296.1 283  311.5 283  Z " fill-rule="nonzero" fill="#242424" stroke="none" />
    <path d="M 311.5 283.5  C 326.62 283.5  338.5 295.38  338.5 310.5  C 338.5 325.62  326.62 337.5  311.5 337.5  C 296.38 337.5  284.5 325.62  284.5 310.5  C 284.5 295.38  296.38 283.5  311.5 283.5  Z " stroke-width="1" stroke="#555555" fill="none" />
  </g>
</svg>