<?xml version="1.0" encoding="utf-8"?>
<svg version="1.1" xmlns:xlink="http://www.w3.org/1999/xlink" width="139px" height="139px" xmlns="http://www.w3.org/2000/svg">
  <g transform="matrix(1 0 0 1 -151 -152 )">
    <path d="M 220.5 152  C 259.42 152  290 182.58  290 221.5  C 290 260.42  259.42 291  220.5 291  C 181.58 291  151 260.42  151 221.5  C 151 182.58  181.58 152  220.5 152  Z " fill-rule="nonzero" fill="#242424" stroke="none" />
    <path d="M 220.5 152.5  C 259.14 152.5  289.5 182.86  289.5 221.5  C 289.5 260.14  259.14 290.5  220.5 290.5  C 181.86 290.5  151.5 260.14  151.5 221.5  C 151.5 182.86  181.86 152.5  220.5 152.5  Z " stroke-width="1" stroke="#555555" fill="none" />
  </g>
</svg>