<?xml version="1.0" encoding="utf-8"?>
<svg version="1.1" xmlns:xlink="http://www.w3.org/1999/xlink" width="89px" height="89px" xmlns="http://www.w3.org/2000/svg">
  <g transform="matrix(1 0 0 1 -177 -350 )">
    <path d="M 221.5 350  C 246.42 350  266 369.58  266 394.5  C 266 419.42  246.42 439  221.5 439  C 196.58 439  177 419.42  177 394.5  C 177 369.58  196.58 350  221.5 350  Z " fill-rule="nonzero" fill="#242424" stroke="none" />
    <path d="M 221.5 350.5  C 246.14 350.5  265.5 369.86  265.5 394.5  C 265.5 419.14  246.14 438.5  221.5 438.5  C 196.86 438.5  177.5 419.14  177.5 394.5  C 177.5 369.86  196.86 350.5  221.5 350.5  Z " stroke-width="1" stroke="#555555" fill="none" />
  </g>
</svg>