<?xml version="1.0" encoding="utf-8"?>
<svg version="1.1" xmlns:xlink="http://www.w3.org/1999/xlink" width="85px" height="76px" xmlns="http://www.w3.org/2000/svg">
  <defs>
    <mask fill="white" id="clip37">
      <path d="M 3.98994974874372 13.0653266331658  L 20.572864321608 19.0954773869347  L 17.0552763819095 0  L 30.6231155778894 13.0653266331658  L 40.6733668341709 0  L 46.2010050251256 10.0502512562814  L 67.3065326633166 3.01507537688442  L 62.2814070351759 20  L 84.8944723618091 22.6130653266332  L 67.3065326633166 34.1708542713568  L 80.8743718592965 49  L 62.2814070351759 49  L 67.3065326633166 69.3467336683417  L 46.2010050251256 60.3015075376885  L 35.1457286432161 75.8793969849246  L 30.6231155778894 60  L 11.5276381909548 60  L 20.572864321608 46.7336683417085  L 0.974874371859296 34.1708542713568  L 17.0552763819095 29.1457286432161  L 3.98994974874372 13.0653266331658  Z " fill-rule="evenodd" />
    </mask>
  </defs>
  <g>
    <path d="M 3.98994974874372 13.0653266331658  L 20.572864321608 19.0954773869347  L 17.0552763819095 0  L 30.6231155778894 13.0653266331658  L 40.6733668341709 0  L 46.2010050251256 10.0502512562814  L 67.3065326633166 3.01507537688442  L 62.2814070351759 20  L 84.8944723618091 22.6130653266332  L 67.3065326633166 34.1708542713568  L 80.8743718592965 49  L 62.2814070351759 49  L 67.3065326633166 69.3467336683417  L 46.2010050251256 60.3015075376885  L 35.1457286432161 75.8793969849246  L 30.6231155778894 60  L 11.5276381909548 60  L 20.572864321608 46.7336683417085  L 0.974874371859296 34.1708542713568  L 17.0552763819095 29.1457286432161  L 3.98994974874372 13.0653266331658  Z " fill-rule="nonzero" fill="#ffffff" stroke="none" fill-opacity="0" />
    <path d="M 3.98994974874372 13.0653266331658  L 20.572864321608 19.0954773869347  L 17.0552763819095 0  L 30.6231155778894 13.0653266331658  L 40.6733668341709 0  L 46.2010050251256 10.0502512562814  L 67.3065326633166 3.01507537688442  L 62.2814070351759 20  L 84.8944723618091 22.6130653266332  L 67.3065326633166 34.1708542713568  L 80.8743718592965 49  L 62.2814070351759 49  L 67.3065326633166 69.3467336683417  L 46.2010050251256 60.3015075376885  L 35.1457286432161 75.8793969849246  L 30.6231155778894 60  L 11.5276381909548 60  L 20.572864321608 46.7336683417085  L 0.974874371859296 34.1708542713568  L 17.0552763819095 29.1457286432161  L 3.98994974874372 13.0653266331658  Z " stroke-width="2" stroke="#aaaaaa" fill="none" mask="url(#clip37)" />
  </g>
</svg>