<?xml version="1.0" encoding="utf-8"?>
<svg version="1.1" xmlns:xlink="http://www.w3.org/1999/xlink" width="297px" height="298px" xmlns="http://www.w3.org/2000/svg">
  <g transform="matrix(1 0 0 1 -821 -7176 )">
    <path d="M 16 97  C 16 97  -3.5231189996224 113.274656676693  1 157  C 3.82910023089471 184.349132070645  9.97893674868078 222.437414737806  55 274  C 80.5116988469289 303.218526884517  110.26488554478 296.274447858556  147 293  C 195.498066812863 288.677041071613  215.760543069773 268.136749144439  252 230  C 283.665392309653 196.676787530273  290.150510354666 165.215904734036  294 125  C 297.610507334538 87.2807612475789  300.126112545277 41.3911729393857  255.84261561185 3.19911014665249  " stroke-width="1" stroke-dasharray="9,4" stroke="#ffff80" fill="none" transform="matrix(1 0 0 1 821 7176 )" />
    <path d="M 260.623631422478 -1.1502091502188  L 252 0  L 252.728426632416 8.6694518074205  L 260.623631422478 -1.1502091502188  Z " fill-rule="nonzero" fill="#ffff80" stroke="none" transform="matrix(1 0 0 1 821 7176 )" />
  </g>
</svg>