<?xml version="1.0" encoding="utf-8"?>
<svg version="1.1" xmlns:xlink="http://www.w3.org/1999/xlink" width="102px" height="201px" xmlns="http://www.w3.org/2000/svg">
  <defs>
    <mask fill="white" id="clip335">
      <path d="M 100.5 0  C 100.666847145548 0  100.833588298216 0.000388640559322084  101 0.00116552770214184  L 101.000222620069 200.998834916256  C 100.833588298216 200.999611359441  100.666847145548 201  100.5 201  C 44.22 201  0 156.78  0 100.5  C 0 44.2200000000003  44.22 0  100.5 0  Z " fill-rule="evenodd" />
    </mask>
  </defs>
  <g transform="matrix(1 0 0 1 -50 49 )">
    <path d="M 100.5 0  C 100.666847145548 0  100.833588298216 0.000388640559322084  101 0.00116552770214184  L 101.000222620069 200.998834916256  C 100.833588298216 200.999611359441  100.666847145548 201  100.5 201  C 44.22 201  0 156.78  0 100.5  C 0 44.2200000000003  44.22 0  100.5 0  Z " fill-rule="nonzero" fill="#7bb6c3" stroke="none" transform="matrix(1 0 0 1 50 -49 )" />
    <path d="M 100.5 0  C 100.666847145548 0  100.833588298216 0.000388640559322084  101 0.00116552770214184  L 101.000222620069 200.998834916256  C 100.833588298216 200.999611359441  100.666847145548 201  100.5 201  C 44.22 201  0 156.78  0 100.5  C 0 44.2200000000003  44.22 0  100.5 0  Z " stroke-width="4" stroke="#e9f9ff" fill="none" transform="matrix(1 0 0 1 50 -49 )" mask="url(#clip335)" />
  </g>
</svg>