<?xml version="1.0" encoding="utf-8"?>
<svg version="1.1" xmlns:xlink="http://www.w3.org/1999/xlink" width="68px" height="42px" xmlns="http://www.w3.org/2000/svg">
  <defs>
    <mask fill="white" id="clip339">
      <path d="M 23.721204106052 26.4999505782349  L 0.0610239939542887 34.8028071562719  L 30.1447824170288 15.7062370267868  L 27.4682914541218 12.2467134526047  C 27.4682914541218 12.2467134526047  30.4659613325777 14.460808540081  32.6071541029032 13.3537609963429  C 34.7483468732288 12.2467134526047  34.8554065117451 11.416427794801  34.8554065117451 11.416427794801  L 34.3201083191637 9.06395176435731  L 30.1447824170288 7.54176139171708  L 37.5318974746521 5.74280913314244  L 34.3201083191637 2.14490461599315  L 40.4225077145916 0.207571414451056  C 40.4225077145916 0.207571414451056  54.5543799987405 4.2206187605022  57.5520498771963 4.2206187605022  C 60.5497197556521 4.2206187605022  56.0532149379684 9.06395176435731  56.0532149379684 9.06395176435731  C 56.0532149379684 9.06395176435731  54.4473203602242 12.6618562815066  54.4473203602242 15.7062370267868  C 54.4473203602242 18.750617772067  57.5520498771963 22.9020460610854  57.5520498771963 22.9020460610854  C 57.5520498771963 22.9020460610854  63.3332703570754 23.3171888899872  66.4379998740475 20.1344272017398  C 69.5427293910196 16.9516655134924  66.4936708860759 26.4999505782349  66.4936708860759 26.4999505782349  L 60.6567793941684 29.959474152417  L 54.4473203602242 29.959474152417  C 54.4473203602242 29.959474152417  46.310787832987 24.9777602055949  44.1695950626614 26.4999505782349  C 42.0284022923358 28.0221409508749  34.8554065117451 33.8341405555009  34.8554065117451 33.8341405555009  L 25.9694565148939 41.8602352476032  L 28.4318282007683 37.5704260156174  L 19.7599974809497 40.6148067608976  L 30.1447824170288 28.9908075516458  L 12.9081806159078 37.5704260156174  L 23.721204106052 26.4999505782349  Z " fill-rule="evenodd" />
    </mask>
  </defs>
  <g>
    <path d="M 23.721204106052 26.4999505782349  L 0.0610239939542887 34.8028071562719  L 30.1447824170288 15.7062370267868  L 27.4682914541218 12.2467134526047  C 27.4682914541218 12.2467134526047  30.4659613325777 14.460808540081  32.6071541029032 13.3537609963429  C 34.7483468732288 12.2467134526047  34.8554065117451 11.416427794801  34.8554065117451 11.416427794801  L 34.3201083191637 9.06395176435731  L 30.1447824170288 7.54176139171708  L 37.5318974746521 5.74280913314244  L 34.3201083191637 2.14490461599315  L 40.4225077145916 0.207571414451056  C 40.4225077145916 0.207571414451056  54.5543799987405 4.2206187605022  57.5520498771963 4.2206187605022  C 60.5497197556521 4.2206187605022  56.0532149379684 9.06395176435731  56.0532149379684 9.06395176435731  C 56.0532149379684 9.06395176435731  54.4473203602242 12.6618562815066  54.4473203602242 15.7062370267868  C 54.4473203602242 18.750617772067  57.5520498771963 22.9020460610854  57.5520498771963 22.9020460610854  C 57.5520498771963 22.9020460610854  63.3332703570754 23.3171888899872  66.4379998740475 20.1344272017398  C 69.5427293910196 16.9516655134924  66.4936708860759 26.4999505782349  66.4936708860759 26.4999505782349  L 60.6567793941684 29.959474152417  L 54.4473203602242 29.959474152417  C 54.4473203602242 29.959474152417  46.310787832987 24.9777602055949  44.1695950626614 26.4999505782349  C 42.0284022923358 28.0221409508749  34.8554065117451 33.8341405555009  34.8554065117451 33.8341405555009  L 25.9694565148939 41.8602352476032  L 28.4318282007683 37.5704260156174  L 19.7599974809497 40.6148067608976  L 30.1447824170288 28.9908075516458  L 12.9081806159078 37.5704260156174  L 23.721204106052 26.4999505782349  Z " fill-rule="nonzero" fill="#7f7f7f" stroke="none" />
    <path d="M 23.721204106052 26.4999505782349  L 0.0610239939542887 34.8028071562719  L 30.1447824170288 15.7062370267868  L 27.4682914541218 12.2467134526047  C 27.4682914541218 12.2467134526047  30.4659613325777 14.460808540081  32.6071541029032 13.3537609963429  C 34.7483468732288 12.2467134526047  34.8554065117451 11.416427794801  34.8554065117451 11.416427794801  L 34.3201083191637 9.06395176435731  L 30.1447824170288 7.54176139171708  L 37.5318974746521 5.74280913314244  L 34.3201083191637 2.14490461599315  L 40.4225077145916 0.207571414451056  C 40.4225077145916 0.207571414451056  54.5543799987405 4.2206187605022  57.5520498771963 4.2206187605022  C 60.5497197556521 4.2206187605022  56.0532149379684 9.06395176435731  56.0532149379684 9.06395176435731  C 56.0532149379684 9.06395176435731  54.4473203602242 12.6618562815066  54.4473203602242 15.7062370267868  C 54.4473203602242 18.750617772067  57.5520498771963 22.9020460610854  57.5520498771963 22.9020460610854  C 57.5520498771963 22.9020460610854  63.3332703570754 23.3171888899872  66.4379998740475 20.1344272017398  C 69.5427293910196 16.9516655134924  66.4936708860759 26.4999505782349  66.4936708860759 26.4999505782349  L 60.6567793941684 29.959474152417  L 54.4473203602242 29.959474152417  C 54.4473203602242 29.959474152417  46.310787832987 24.9777602055949  44.1695950626614 26.4999505782349  C 42.0284022923358 28.0221409508749  34.8554065117451 33.8341405555009  34.8554065117451 33.8341405555009  L 25.9694565148939 41.8602352476032  L 28.4318282007683 37.5704260156174  L 19.7599974809497 40.6148067608976  L 30.1447824170288 28.9908075516458  L 12.9081806159078 37.5704260156174  L 23.721204106052 26.4999505782349  Z " stroke-width="2" stroke="#f2f2f2" fill="none" mask="url(#clip339)" />
  </g>
</svg>