<?xml version="1.0" encoding="utf-8"?>
<svg version="1.1" xmlns:xlink="http://www.w3.org/1999/xlink" width="68px" height="42px" xmlns="http://www.w3.org/2000/svg">
  <defs>
    <mask fill="white" id="clip342">
      <path d="M 44.278795893948 26.4999505782349  L 67.9389760060457 34.8028071562719  L 37.8552175829712 15.7062370267868  L 40.5317085458782 12.2467134526047  C 40.5317085458782 12.2467134526047  37.5340386674223 14.460808540081  35.3928458970968 13.3537609963429  C 33.2516531267712 12.2467134526047  33.1445934882549 11.416427794801  33.1445934882549 11.416427794801  L 33.6798916808363 9.06395176435731  L 37.8552175829712 7.54176139171708  L 30.4681025253479 5.74280913314244  L 33.6798916808363 2.14490461599315  L 27.5774922854084 0.207571414451056  C 27.5774922854084 0.207571414451056  13.4456200012595 4.2206187605022  10.4479501228037 4.2206187605022  C 7.45028024434788 4.2206187605022  11.9467850620316 9.06395176435731  11.9467850620316 9.06395176435731  C 11.9467850620316 9.06395176435731  13.5526796397758 12.6618562815066  13.5526796397758 15.7062370267868  C 13.5526796397758 18.750617772067  10.4479501228037 22.9020460610854  10.4479501228037 22.9020460610854  C 10.4479501228037 22.9020460610854  4.66672964292459 23.3171888899872  1.56200012595249 20.1344272017398  C -1.54272939101961 16.9516655134924  1.50632911392405 26.4999505782349  1.50632911392405 26.4999505782349  L 7.34322060583158 29.959474152417  L 13.5526796397758 29.959474152417  C 13.5526796397758 29.959474152417  21.689212167013 24.9777602055949  23.8304049373386 26.4999505782349  C 25.9715977076642 28.0221409508749  33.1445934882549 33.8341405555009  33.1445934882549 33.8341405555009  L 42.0305434851061 41.8602352476032  L 39.5681717992317 37.5704260156174  L 48.2400025190503 40.6148067608976  L 37.8552175829712 28.9908075516458  L 55.0918193840922 37.5704260156174  L 44.278795893948 26.4999505782349  Z " fill-rule="evenodd" />
    </mask>
  </defs>
  <g transform="matrix(1 0 0 1 -978 -5268 )">
    <path d="M 44.278795893948 26.4999505782349  L 67.9389760060457 34.8028071562719  L 37.8552175829712 15.7062370267868  L 40.5317085458782 12.2467134526047  C 40.5317085458782 12.2467134526047  37.5340386674223 14.460808540081  35.3928458970968 13.3537609963429  C 33.2516531267712 12.2467134526047  33.1445934882549 11.416427794801  33.1445934882549 11.416427794801  L 33.6798916808363 9.06395176435731  L 37.8552175829712 7.54176139171708  L 30.4681025253479 5.74280913314244  L 33.6798916808363 2.14490461599315  L 27.5774922854084 0.207571414451056  C 27.5774922854084 0.207571414451056  13.4456200012595 4.2206187605022  10.4479501228037 4.2206187605022  C 7.45028024434788 4.2206187605022  11.9467850620316 9.06395176435731  11.9467850620316 9.06395176435731  C 11.9467850620316 9.06395176435731  13.5526796397758 12.6618562815066  13.5526796397758 15.7062370267868  C 13.5526796397758 18.750617772067  10.4479501228037 22.9020460610854  10.4479501228037 22.9020460610854  C 10.4479501228037 22.9020460610854  4.66672964292459 23.3171888899872  1.56200012595249 20.1344272017398  C -1.54272939101961 16.9516655134924  1.50632911392405 26.4999505782349  1.50632911392405 26.4999505782349  L 7.34322060583158 29.959474152417  L 13.5526796397758 29.959474152417  C 13.5526796397758 29.959474152417  21.689212167013 24.9777602055949  23.8304049373386 26.4999505782349  C 25.9715977076642 28.0221409508749  33.1445934882549 33.8341405555009  33.1445934882549 33.8341405555009  L 42.0305434851061 41.8602352476032  L 39.5681717992317 37.5704260156174  L 48.2400025190503 40.6148067608976  L 37.8552175829712 28.9908075516458  L 55.0918193840922 37.5704260156174  L 44.278795893948 26.4999505782349  Z " fill-rule="nonzero" fill="#45a5d1" stroke="none" transform="matrix(1 0 0 1 978 5268 )" />
    <path d="M 44.278795893948 26.4999505782349  L 67.9389760060457 34.8028071562719  L 37.8552175829712 15.7062370267868  L 40.5317085458782 12.2467134526047  C 40.5317085458782 12.2467134526047  37.5340386674223 14.460808540081  35.3928458970968 13.3537609963429  C 33.2516531267712 12.2467134526047  33.1445934882549 11.416427794801  33.1445934882549 11.416427794801  L 33.6798916808363 9.06395176435731  L 37.8552175829712 7.54176139171708  L 30.4681025253479 5.74280913314244  L 33.6798916808363 2.14490461599315  L 27.5774922854084 0.207571414451056  C 27.5774922854084 0.207571414451056  13.4456200012595 4.2206187605022  10.4479501228037 4.2206187605022  C 7.45028024434788 4.2206187605022  11.9467850620316 9.06395176435731  11.9467850620316 9.06395176435731  C 11.9467850620316 9.06395176435731  13.5526796397758 12.6618562815066  13.5526796397758 15.7062370267868  C 13.5526796397758 18.750617772067  10.4479501228037 22.9020460610854  10.4479501228037 22.9020460610854  C 10.4479501228037 22.9020460610854  4.66672964292459 23.3171888899872  1.56200012595249 20.1344272017398  C -1.54272939101961 16.9516655134924  1.50632911392405 26.4999505782349  1.50632911392405 26.4999505782349  L 7.34322060583158 29.959474152417  L 13.5526796397758 29.959474152417  C 13.5526796397758 29.959474152417  21.689212167013 24.9777602055949  23.8304049373386 26.4999505782349  C 25.9715977076642 28.0221409508749  33.1445934882549 33.8341405555009  33.1445934882549 33.8341405555009  L 42.0305434851061 41.8602352476032  L 39.5681717992317 37.5704260156174  L 48.2400025190503 40.6148067608976  L 37.8552175829712 28.9908075516458  L 55.0918193840922 37.5704260156174  L 44.278795893948 26.4999505782349  Z " stroke-width="2" stroke="#f2f2f2" fill="none" transform="matrix(1 0 0 1 978 5268 )" mask="url(#clip342)" />
  </g>
</svg>