<?xml version="1.0" encoding="utf-8"?>
<svg version="1.1" xmlns:xlink="http://www.w3.org/1999/xlink" width="441px" height="441px" xmlns="http://www.w3.org/2000/svg">
  <g transform="matrix(1 0 0 1 -729 -10010 )">
    <path d="M 949.5 10011  C 1072.42 10011  1169 10107.58  1169 10230.5  C 1169 10353.42  1072.42 10450  949.5 10450  C 826.58 10450  730 10353.42  730 10230.5  C 730 10107.58  826.58 10011  949.5 10011  Z " fill-rule="nonzero" fill="#7bb6c3" stroke="none" />
    <path d="M 949.5 10011  C 1072.42 10011  1169 10107.58  1169 10230.5  C 1169 10353.42  1072.42 10450  949.5 10450  C 826.58 10450  730 10353.42  730 10230.5  C 730 10107.58  826.58 10011  949.5 10011  Z " stroke-width="2" stroke="#e9f9ff" fill="none" />
  </g>
</svg>