<?xml version="1.0" encoding="utf-8"?>
<svg version="1.1" xmlns:xlink="http://www.w3.org/1999/xlink" width="239px" height="244px" xmlns="http://www.w3.org/2000/svg">
  <defs>
    <mask fill="white" id="clip141">
      <path d="M 0.40143414297503 243.999677997665  C 0.267651493207096 243.999892639862  0.133840086922003 244  0.40143414297503 243.999677997665  Z M 0 243.999677997337  L 0 0  L 239 0  C 239 136.503359911872  134.050214975777 243.785250581475  0 243.999677997337  Z " fill-rule="evenodd" />
    </mask>
  </defs>
  <g transform="matrix(1 0 0 1 -807 -12567 )">
    <path d="M 0.40143414297503 243.999677997665  C 0.267651493207096 243.999892639862  0.133840086922003 244  0.40143414297503 243.999677997665  Z M 0 243.999677997337  L 0 0  L 239 0  C 239 136.503359911872  134.050214975777 243.785250581475  0 243.999677997337  Z " fill-rule="nonzero" fill="#81d3f8" stroke="none" transform="matrix(1 0 0 1 807 12567 )" />
    <path d="M 0.40143414297503 243.999677997665  C 0.267651493207096 243.999892639862  0.133840086922003 244  0.40143414297503 243.999677997665  Z " stroke-width="4" stroke="#fafefd" fill="none" transform="matrix(1 0 0 1 807 12567 )" mask="url(#clip141)" />
    <path d="M 0 243.999677997337  L 0 0  L 239 0  C 239 136.503359911872  134.050214975777 243.785250581475  0 243.999677997337  Z " stroke-width="4" stroke="#fafefd" fill="none" transform="matrix(1 0 0 1 807 12567 )" mask="url(#clip141)" />
  </g>
</svg>