<?xml version="1.0" encoding="utf-8"?>
<svg version="1.1" xmlns:xlink="http://www.w3.org/1999/xlink" width="484px" height="415px" xmlns="http://www.w3.org/2000/svg">
  <defs>
    <mask fill="white" id="clip344">
      <path d="M 239.997830931273 244.79783765782  L 70.9063642705277 413.438810722224  C 26.9161088342663 369.942655403166  0 309.309559128886  0 241.355263157895  C 0 106.196315789474  106.48 0  242 0  C 377.52 0  484 106.196315789474  484 241.355263157895  C 484 308.74328128046  457.530617558996 368.931609585585  414.189809947469 412.347853786505  L 246.192214317595 244.79783765782  C 244.457786969425 243.068031174159  241.732258279444 243.068031174159  239.997830931273 244.79783765782  Z " fill-rule="evenodd" />
    </mask>
  </defs>
  <g transform="matrix(1 0 0 1 -160 -12279 )">
    <path d="M 239.997830931273 244.79783765782  L 70.9063642705277 413.438810722224  C 26.9161088342663 369.942655403166  0 309.309559128886  0 241.355263157895  C 0 106.196315789474  106.48 0  242 0  C 377.52 0  484 106.196315789474  484 241.355263157895  C 484 308.74328128046  457.530617558996 368.931609585585  414.189809947469 412.347853786505  L 246.192214317595 244.79783765782  C 244.457786969425 243.068031174159  241.732258279444 243.068031174159  239.997830931273 244.79783765782  Z " fill-rule="nonzero" fill="#81d3f8" stroke="none" transform="matrix(1 0 0 1 160 12279 )" />
    <path d="M 239.997830931273 244.79783765782  L 70.9063642705277 413.438810722224  C 26.9161088342663 369.942655403166  0 309.309559128886  0 241.355263157895  C 0 106.196315789474  106.48 0  242 0  C 377.52 0  484 106.196315789474  484 241.355263157895  C 484 308.74328128046  457.530617558996 368.931609585585  414.189809947469 412.347853786505  L 246.192214317595 244.79783765782  C 244.457786969425 243.068031174159  241.732258279444 243.068031174159  239.997830931273 244.79783765782  Z " stroke-width="4" stroke="#fafefd" fill="none" transform="matrix(1 0 0 1 160 12279 )" mask="url(#clip344)" />
  </g>
</svg>