<?xml version="1.0" encoding="utf-8"?>
<svg version="1.1" xmlns:xlink="http://www.w3.org/1999/xlink" width="224px" height="441px" xmlns="http://www.w3.org/2000/svg">
  <defs>
    <mask fill="white" id="clip345">
      <path d="M 220.705882352941 0  C 221.072291770615 0  221.438468419611 0.000852688988363379  221 0.00255720257037091  L 221 440.997443771487  C 221.438468419611 440.999147311012  221.072291770615 441  220.705882352941 441  C 97.1105882352942 441  0 343.979999999999  0 220.5  C 0 97.0200000000006  97.1105882352942 0  220.705882352941 0  Z " fill-rule="evenodd" />
    </mask>
  </defs>
  <g transform="matrix(1 0 0 1 -923 -8231 )">
    <path d="M 220.705882352941 0  C 221.072291770615 0  221.438468419611 0.000852688988363379  221 0.00255720257037091  L 221 440.997443771487  C 221.438468419611 440.999147311012  221.072291770615 441  220.705882352941 441  C 97.1105882352942 441  0 343.979999999999  0 220.5  C 0 97.0200000000006  97.1105882352942 0  220.705882352941 0  Z " fill-rule="nonzero" fill="#7bb6c3" stroke="none" transform="matrix(1 0 0 1 923 8231 )" />
    <path d="M 220.705882352941 0  C 221.072291770615 0  221.438468419611 0.000852688988363379  221 0.00255720257037091  L 221 440.997443771487  C 221.438468419611 440.999147311012  221.072291770615 441  220.705882352941 441  C 97.1105882352942 441  0 343.979999999999  0 220.5  C 0 97.0200000000006  97.1105882352942 0  220.705882352941 0  Z " stroke-width="4" stroke="#e9f9ff" fill="none" transform="matrix(1 0 0 1 923 8231 )" mask="url(#clip345)" />
  </g>
</svg>