<?xml version="1.0" encoding="utf-8"?>
<svg version="1.1" xmlns:xlink="http://www.w3.org/1999/xlink" width="130px" height="80px" xmlns="http://www.w3.org/2000/svg">
  <defs>
    <mask fill="white" id="clip346">
      <path d="M 45.3493607909818 50.4760963394951  L 0.116663517853787 66.2910612500416  L 57.6297310913786 29.9166419557844  L 52.5129101328799 23.3270732430566  C 52.5129101328799 23.3270732430566  58.2437496063985 27.5443972192019  62.3372063731974 25.4357352311293  C 66.4306631399962 23.3270732430566  66.6353359783362 21.7455767520019  66.6353359783362 21.7455767520019  L 65.6119717866364 17.2646700273473  L 57.6297310913786 14.3652597937468  L 71.7521569368349 10.9386840631284  L 65.6119717866364 4.08553260189172  L 77.2783235720134 0.395374122763917  C 77.2783235720134 0.395374122763917  104.295138232886 8.039273829528  110.025977706405 8.039273829528  C 115.756817179923 8.039273829528  107.160557969645 17.2646700273473  107.160557969645 17.2646700273473  C 107.160557969645 17.2646700273473  104.090465394546 24.117821488584  104.090465394546 29.9166419557844  C 104.090465394546 35.7154624229848  110.025977706405 43.6229448782579  110.025977706405 43.6229448782579  C 110.025977706405 43.6229448782579  121.078310976762 44.4136931237852  127.01382328862 38.3512899080758  C 132.949335600479 32.2888866923665  127.120253164557 50.4760963394951  127.120253164557 50.4760963394951  L 115.961490018263 57  L 104.090465394546 57  C 104.090465394546 57  88.5353296807104 47.5766861058951  84.4418729139115 50.4760963394951  C 80.3484161471126 53.375506573095  66.6353359783362 64.445982010478  66.6353359783362 64.445982010478  L 49.6474903961207 79.7337814240061  L 54.3549656779394 71.5627162202236  L 37.7764657724038 77.3615366874241  L 57.6297310913786 55.2205858126587  L 24.6774041186473 71.5627162202236  L 45.3493607909818 50.4760963394951  Z " fill-rule="evenodd" />
    </mask>
  </defs>
  <g transform="matrix(1 0 0 1 -272 -2637 )">
    <path d="M 45.3493607909818 50.4760963394951  L 0.116663517853787 66.2910612500416  L 57.6297310913786 29.9166419557844  L 52.5129101328799 23.3270732430566  C 52.5129101328799 23.3270732430566  58.2437496063985 27.5443972192019  62.3372063731974 25.4357352311293  C 66.4306631399962 23.3270732430566  66.6353359783362 21.7455767520019  66.6353359783362 21.7455767520019  L 65.6119717866364 17.2646700273473  L 57.6297310913786 14.3652597937468  L 71.7521569368349 10.9386840631284  L 65.6119717866364 4.08553260189172  L 77.2783235720134 0.395374122763917  C 77.2783235720134 0.395374122763917  104.295138232886 8.039273829528  110.025977706405 8.039273829528  C 115.756817179923 8.039273829528  107.160557969645 17.2646700273473  107.160557969645 17.2646700273473  C 107.160557969645 17.2646700273473  104.090465394546 24.117821488584  104.090465394546 29.9166419557844  C 104.090465394546 35.7154624229848  110.025977706405 43.6229448782579  110.025977706405 43.6229448782579  C 110.025977706405 43.6229448782579  121.078310976762 44.4136931237852  127.01382328862 38.3512899080758  C 132.949335600479 32.2888866923665  127.120253164557 50.4760963394951  127.120253164557 50.4760963394951  L 115.961490018263 57  L 104.090465394546 57  C 104.090465394546 57  88.5353296807104 47.5766861058951  84.4418729139115 50.4760963394951  C 80.3484161471126 53.375506573095  66.6353359783362 64.445982010478  66.6353359783362 64.445982010478  L 49.6474903961207 79.7337814240061  L 54.3549656779394 71.5627162202236  L 37.7764657724038 77.3615366874241  L 57.6297310913786 55.2205858126587  L 24.6774041186473 71.5627162202236  L 45.3493607909818 50.4760963394951  Z " fill-rule="nonzero" fill="#7f7f7f" stroke="none" transform="matrix(1 0 0 1 272 2637 )" />
    <path d="M 45.3493607909818 50.4760963394951  L 0.116663517853787 66.2910612500416  L 57.6297310913786 29.9166419557844  L 52.5129101328799 23.3270732430566  C 52.5129101328799 23.3270732430566  58.2437496063985 27.5443972192019  62.3372063731974 25.4357352311293  C 66.4306631399962 23.3270732430566  66.6353359783362 21.7455767520019  66.6353359783362 21.7455767520019  L 65.6119717866364 17.2646700273473  L 57.6297310913786 14.3652597937468  L 71.7521569368349 10.9386840631284  L 65.6119717866364 4.08553260189172  L 77.2783235720134 0.395374122763917  C 77.2783235720134 0.395374122763917  104.295138232886 8.039273829528  110.025977706405 8.039273829528  C 115.756817179923 8.039273829528  107.160557969645 17.2646700273473  107.160557969645 17.2646700273473  C 107.160557969645 17.2646700273473  104.090465394546 24.117821488584  104.090465394546 29.9166419557844  C 104.090465394546 35.7154624229848  110.025977706405 43.6229448782579  110.025977706405 43.6229448782579  C 110.025977706405 43.6229448782579  121.078310976762 44.4136931237852  127.01382328862 38.3512899080758  C 132.949335600479 32.2888866923665  127.120253164557 50.4760963394951  127.120253164557 50.4760963394951  L 115.961490018263 57  L 104.090465394546 57  C 104.090465394546 57  88.5353296807104 47.5766861058951  84.4418729139115 50.4760963394951  C 80.3484161471126 53.375506573095  66.6353359783362 64.445982010478  66.6353359783362 64.445982010478  L 49.6474903961207 79.7337814240061  L 54.3549656779394 71.5627162202236  L 37.7764657724038 77.3615366874241  L 57.6297310913786 55.2205858126587  L 24.6774041186473 71.5627162202236  L 45.3493607909818 50.4760963394951  Z " stroke-width="2" stroke="#f2f2f2" fill="none" transform="matrix(1 0 0 1 272 2637 )" mask="url(#clip346)" />
  </g>
</svg>