<?xml version="1.0" encoding="utf-8"?>
<svg version="1.1" xmlns:xlink="http://www.w3.org/1999/xlink" width="130px" height="80px" xmlns="http://www.w3.org/2000/svg">
  <defs>
    <mask fill="white" id="clip189">
      <path d="M 84.6506392090182 50.4760963394951  L 129.883336482146 66.2910612500416  L 72.3702689086214 29.9166419557844  L 77.4870898671201 23.3270732430566  C 77.4870898671201 23.3270732430566  71.7562503936015 27.5443972192019  67.6627936268026 25.4357352311293  C 63.5693368600038 23.3270732430566  63.3646640216638 21.7455767520019  63.3646640216638 21.7455767520019  L 64.3880282133636 17.2646700273473  L 72.3702689086214 14.3652597937468  L 58.2478430631651 10.9386840631284  L 64.3880282133636 4.08553260189172  L 52.7216764279866 0.395374122763917  C 52.7216764279866 0.395374122763917  25.7048617671138 8.039273829528  19.9740222935953 8.039273829528  C 14.2431828200768 8.039273829528  22.8394420303545 17.2646700273473  22.8394420303545 17.2646700273473  C 22.8394420303545 17.2646700273473  25.9095346054537 24.117821488584  25.9095346054537 29.9166419557844  C 25.9095346054537 35.7154624229848  19.9740222935953 43.6229448782579  19.9740222935953 43.6229448782579  C 19.9740222935953 43.6229448782579  8.92168902323819 44.4136931237852  2.98617671137977 38.3512899080758  C -2.94933560047867 32.2888866923665  2.87974683544304 50.4760963394951  2.87974683544304 50.4760963394951  L 14.0385099817369 57  L 25.9095346054537 57  C 25.9095346054537 57  41.4646703192896 47.5766861058951  45.5581270860885 50.4760963394951  C 49.6515838528874 53.375506573095  63.3646640216638 64.445982010478  63.3646640216638 64.445982010478  L 80.3525096038793 79.7337814240061  L 75.6450343220606 71.5627162202236  L 92.2235342275962 77.3615366874241  L 72.3702689086214 55.2205858126587  L 105.322595881353 71.5627162202236  L 84.6506392090182 50.4760963394951  Z " fill-rule="evenodd" />
    </mask>
  </defs>
  <g transform="matrix(1 0 0 1 -928 -2637 )">
    <path d="M 84.6506392090182 50.4760963394951  L 129.883336482146 66.2910612500416  L 72.3702689086214 29.9166419557844  L 77.4870898671201 23.3270732430566  C 77.4870898671201 23.3270732430566  71.7562503936015 27.5443972192019  67.6627936268026 25.4357352311293  C 63.5693368600038 23.3270732430566  63.3646640216638 21.7455767520019  63.3646640216638 21.7455767520019  L 64.3880282133636 17.2646700273473  L 72.3702689086214 14.3652597937468  L 58.2478430631651 10.9386840631284  L 64.3880282133636 4.08553260189172  L 52.7216764279866 0.395374122763917  C 52.7216764279866 0.395374122763917  25.7048617671138 8.039273829528  19.9740222935953 8.039273829528  C 14.2431828200768 8.039273829528  22.8394420303545 17.2646700273473  22.8394420303545 17.2646700273473  C 22.8394420303545 17.2646700273473  25.9095346054537 24.117821488584  25.9095346054537 29.9166419557844  C 25.9095346054537 35.7154624229848  19.9740222935953 43.6229448782579  19.9740222935953 43.6229448782579  C 19.9740222935953 43.6229448782579  8.92168902323819 44.4136931237852  2.98617671137977 38.3512899080758  C -2.94933560047867 32.2888866923665  2.87974683544304 50.4760963394951  2.87974683544304 50.4760963394951  L 14.0385099817369 57  L 25.9095346054537 57  C 25.9095346054537 57  41.4646703192896 47.5766861058951  45.5581270860885 50.4760963394951  C 49.6515838528874 53.375506573095  63.3646640216638 64.445982010478  63.3646640216638 64.445982010478  L 80.3525096038793 79.7337814240061  L 75.6450343220606 71.5627162202236  L 92.2235342275962 77.3615366874241  L 72.3702689086214 55.2205858126587  L 105.322595881353 71.5627162202236  L 84.6506392090182 50.4760963394951  Z " fill-rule="nonzero" fill="#7f7f7f" stroke="none" transform="matrix(1 0 0 1 928 2637 )" />
    <path d="M 84.6506392090182 50.4760963394951  L 129.883336482146 66.2910612500416  L 72.3702689086214 29.9166419557844  L 77.4870898671201 23.3270732430566  C 77.4870898671201 23.3270732430566  71.7562503936015 27.5443972192019  67.6627936268026 25.4357352311293  C 63.5693368600038 23.3270732430566  63.3646640216638 21.7455767520019  63.3646640216638 21.7455767520019  L 64.3880282133636 17.2646700273473  L 72.3702689086214 14.3652597937468  L 58.2478430631651 10.9386840631284  L 64.3880282133636 4.08553260189172  L 52.7216764279866 0.395374122763917  C 52.7216764279866 0.395374122763917  25.7048617671138 8.039273829528  19.9740222935953 8.039273829528  C 14.2431828200768 8.039273829528  22.8394420303545 17.2646700273473  22.8394420303545 17.2646700273473  C 22.8394420303545 17.2646700273473  25.9095346054537 24.117821488584  25.9095346054537 29.9166419557844  C 25.9095346054537 35.7154624229848  19.9740222935953 43.6229448782579  19.9740222935953 43.6229448782579  C 19.9740222935953 43.6229448782579  8.92168902323819 44.4136931237852  2.98617671137977 38.3512899080758  C -2.94933560047867 32.2888866923665  2.87974683544304 50.4760963394951  2.87974683544304 50.4760963394951  L 14.0385099817369 57  L 25.9095346054537 57  C 25.9095346054537 57  41.4646703192896 47.5766861058951  45.5581270860885 50.4760963394951  C 49.6515838528874 53.375506573095  63.3646640216638 64.445982010478  63.3646640216638 64.445982010478  L 80.3525096038793 79.7337814240061  L 75.6450343220606 71.5627162202236  L 92.2235342275962 77.3615366874241  L 72.3702689086214 55.2205858126587  L 105.322595881353 71.5627162202236  L 84.6506392090182 50.4760963394951  Z " stroke-width="2" stroke="#f2f2f2" fill="none" transform="matrix(1 0 0 1 928 2637 )" mask="url(#clip189)" />
  </g>
</svg>