<?xml version="1.0" encoding="utf-8"?>
<svg version="1.1" xmlns:xlink="http://www.w3.org/1999/xlink" width="180px" height="180px" xmlns="http://www.w3.org/2000/svg">
  <g transform="matrix(1 0 0 1 -919 -3368 )">
    <path d="M 1009 3372  C 1057.16 3372  1095 3409.84  1095 3458  C 1095 3506.16  1057.16 3544  1009 3544  C 960.84 3544  923 3506.16  923 3458  C 923 3409.84  960.84 3372  1009 3372  Z " fill-rule="nonzero" fill="#ccff00" stroke="none" />
    <path d="M 1009 3370.5  C 1058 3370.5  1096.5 3409  1096.5 3458  C 1096.5 3507  1058 3545.5  1009 3545.5  C 960 3545.5  921.5 3507  921.5 3458  C 921.5 3409  960 3370.5  1009 3370.5  Z " stroke-width="5" stroke="#99ff00" fill="none" />
  </g>
</svg>