<?xml version="1.0" encoding="utf-8"?>
<svg version="1.1" xmlns:xlink="http://www.w3.org/1999/xlink" width="180px" height="180px" xmlns="http://www.w3.org/2000/svg">
  <g transform="matrix(1 0 0 1 -919 -3345 )">
    <path d="M 1009 3349  C 1057.16 3349  1095 3386.84  1095 3435  C 1095 3483.16  1057.16 3521  1009 3521  C 960.84 3521  923 3483.16  923 3435  C 923 3386.84  960.84 3349  1009 3349  Z " fill-rule="nonzero" fill="#ccff00" stroke="none" />
    <path d="M 1009 3347.5  C 1058 3347.5  1096.5 3386  1096.5 3435  C 1096.5 3484  1058 3522.5  1009 3522.5  C 960 3522.5  921.5 3484  921.5 3435  C 921.5 3386  960 3347.5  1009 3347.5  Z " stroke-width="5" stroke="#99ff00" fill="none" />
  </g>
</svg>