<?xml version="1.0" encoding="utf-8"?>
<svg version="1.1" xmlns:xlink="http://www.w3.org/1999/xlink" width="357px" height="357px" xmlns="http://www.w3.org/2000/svg">
  <g transform="matrix(1 0 0 1 -376 -1936 )">
    <path d="M 554.5 1940  C 652.22 1940  729 2016.78  729 2114.5  C 729 2212.22  652.22 2289  554.5 2289  C 456.78 2289  380 2212.22  380 2114.5  C 380 2016.78  456.78 1940  554.5 1940  Z " fill-rule="nonzero" fill="#99ffff" stroke="none" />
    <path d="M 554.5 1938.5  C 653.06 1938.5  730.5 2015.94  730.5 2114.5  C 730.5 2213.06  653.06 2290.5  554.5 2290.5  C 455.94 2290.5  378.5 2213.06  378.5 2114.5  C 378.5 2015.94  455.94 1938.5  554.5 1938.5  Z " stroke-width="5" stroke="#0099ff" fill="none" />
  </g>
</svg>