<?xml version="1.0" encoding="utf-8"?>
<svg version="1.1" xmlns:xlink="http://www.w3.org/1999/xlink" width="36px" height="36px" xmlns="http://www.w3.org/2000/svg">
  <g transform="matrix(1 0 0 1 -537 -1310 )">
    <path d="M 555 1311.5  C 564.24 1311.5  571.5 1318.76  571.5 1328  C 571.5 1337.24  564.24 1344.5  555 1344.5  C 545.76 1344.5  538.5 1337.24  538.5 1328  C 538.5 1318.76  545.76 1311.5  555 1311.5  Z " fill-rule="nonzero" fill="#ff9900" stroke="none" />
    <path d="M 555 1311  C 564.52 1311  572 1318.48  572 1328  C 572 1337.52  564.52 1345  555 1345  C 545.48 1345  538 1337.52  538 1328  C 538 1318.48  545.48 1311  555 1311  Z " stroke-width="2" stroke-dasharray="18,8" stroke="#ff3300" fill="none" />
  </g>
</svg>