<?xml version="1.0" encoding="utf-8"?>
<svg version="1.1" xmlns:xlink="http://www.w3.org/1999/xlink" width="19px" height="25px" xmlns="http://www.w3.org/2000/svg">
  <g transform="matrix(1 0 0 1 -1033 -1597 )">
    <path d="M 1042.5 1621.04549062635  C 1038.9 1615.16260961622  1033.5 1611.63288101014  1033.5 1605.75  C 1033.5 1602.68571428571  1035.3 1597.5  1042.5 1597.5  C 1049.7 1597.5  1051.5 1602.68571428571  1051.5 1605.75  C 1051.5 1611.63288101014  1046.1 1615.16260961622  1042.5 1621.04549062635  Z " fill-rule="nonzero" fill="#cc9900" stroke="none" />
    <path d="M 1042.5 1622  C 1038.7 1615.75  1033 1612  1033 1605.75  C 1033 1602.5  1034.9 1597  1042.5 1597  C 1050.1 1597  1052 1602.5  1052 1605.75  C 1052 1612  1046.3 1615.75  1042.5 1622  Z M 1042.5 1620.0909812527  C 1045.9 1614.57521923243  1051 1611.26576202027  1051 1605.75  C 1051 1602.87142857143  1049.3 1598  1042.5 1598  C 1035.7 1598  1034 1602.87142857143  1034 1605.75  C 1034 1611.26576202027  1039.1 1614.57521923243  1042.5 1620.0909812527  Z " fill-rule="nonzero" fill="#ffffff" stroke="none" />
  </g>
</svg>