<?xml version="1.0" encoding="utf-8"?>
<svg version="1.1" xmlns:xlink="http://www.w3.org/1999/xlink" width="355px" height="387px" xmlns="http://www.w3.org/2000/svg">
  <g transform="matrix(1 0 0 1 -793 -693 )">
    <path d="M 0 86  C 0 86  35 17  104 4  C 173 -9  264 12  292 57  C 320 102  381 150  340 253  C 299 356  182 390  155 385  C 128.731781666867 380.135515123494  32.4204525170165 354.447402706883  2.35547385899273 302.410414318738  " stroke-width="1" stroke-dasharray="9,4" stroke="#ffff80" fill="none" transform="matrix(1 0 0 1 793 693 )" />
    <path d="M 8.29934509037564 300.609764562342  L 0 298  L -3.01126680270267 306.162246764399  L 8.29934509037564 300.609764562342  Z " fill-rule="nonzero" fill="#ffff80" stroke="none" transform="matrix(1 0 0 1 793 693 )" />
  </g>
</svg>