<?xml version="1.0" encoding="utf-8"?>
<svg version="1.1" xmlns:xlink="http://www.w3.org/1999/xlink" width="73px" height="24px" xmlns="http://www.w3.org/2000/svg">
  <g transform="matrix(1 0 0 1 -266 -293 )">
    <path d="M 302.5 294  C 322.38 294  338 298.84  338 305  C 338 311.16  322.38 316  302.5 316  C 282.62 316  267 311.16  267 305  C 267 298.84  282.62 294  302.5 294  Z " fill-rule="nonzero" fill="#242424" stroke="none" fill-opacity="0" />
    <path d="M 302.5 294  C 322.38 294  338 298.84  338 305  C 338 311.16  322.38 316  302.5 316  C 282.62 316  267 311.16  267 305  C 267 298.84  282.62 294  302.5 294  Z " stroke-width="2" stroke="#ddb3ff" fill="none" />
  </g>
</svg>