<?xml version="1.0" encoding="utf-8"?>
<svg version="1.1" xmlns:xlink="http://www.w3.org/1999/xlink" width="40px" height="18px" xmlns="http://www.w3.org/2000/svg">
  <defs>
    <mask fill="white" id="clip231">
      <path d="M 6.98113488571607 13.6018975332087  L 0.446215139442302 8.99601593625751  L 6.98113488571607 5.40455407969906  L 9.36422211564525 6.99848197343636  L 12.1047724300638 6.99848197343636  L 13.5346247680214 5.40000000000024  L 8.29183286217714 0.508918406074372  L 40 8.99601593625751  L 8.29183286217714 17.928273244784  L 13.5346247680214 12.9187855787495  L 12.1047724300638 11.5525616698311  L 9.36422211564525 11.5525616698311  L 6.98113488571607 13.6018975332087  Z " fill-rule="evenodd" />
    </mask>
  </defs>
  <g transform="matrix(1 0 0 1 -336 -569 )">
    <path d="M 6.98113488571607 13.6018975332087  L 0.446215139442302 8.99601593625751  L 6.98113488571607 5.40455407969906  L 9.36422211564525 6.99848197343636  L 12.1047724300638 6.99848197343636  L 13.5346247680214 5.40000000000024  L 8.29183286217714 0.508918406074372  L 40 8.99601593625751  L 8.29183286217714 17.928273244784  L 13.5346247680214 12.9187855787495  L 12.1047724300638 11.5525616698311  L 9.36422211564525 11.5525616698311  L 6.98113488571607 13.6018975332087  Z " fill-rule="nonzero" fill="#333333" stroke="none" transform="matrix(1 0 0 1 336 569 )" />
    <path d="M 6.98113488571607 13.6018975332087  L 0.446215139442302 8.99601593625751  L 6.98113488571607 5.40455407969906  L 9.36422211564525 6.99848197343636  L 12.1047724300638 6.99848197343636  L 13.5346247680214 5.40000000000024  L 8.29183286217714 0.508918406074372  L 40 8.99601593625751  L 8.29183286217714 17.928273244784  L 13.5346247680214 12.9187855787495  L 12.1047724300638 11.5525616698311  L 9.36422211564525 11.5525616698311  L 6.98113488571607 13.6018975332087  Z " stroke-width="2" stroke="#f2f2f2" fill="none" transform="matrix(1 0 0 1 336 569 )" mask="url(#clip231)" />
  </g>
</svg>