<?xml version="1.0" encoding="utf-8"?>
<svg version="1.1" xmlns:xlink="http://www.w3.org/1999/xlink" width="73px" height="33px" xmlns="http://www.w3.org/2000/svg">
  <g transform="matrix(1 0 0 1 -266 -287 )">
    <path d="M 302.5 288  C 322.38 288  338 294.82  338 303.5  C 338 312.18  322.38 319  302.5 319  C 282.62 319  267 312.18  267 303.5  C 267 294.82  282.62 288  302.5 288  Z " fill-rule="nonzero" fill="#242424" stroke="none" fill-opacity="0" />
    <path d="M 302.5 288  C 322.38 288  338 294.82  338 303.5  C 338 312.18  322.38 319  302.5 319  C 282.62 319  267 312.18  267 303.5  C 267 294.82  282.62 288  302.5 288  Z " stroke-width="2" stroke="#ddb3ff" fill="none" />
  </g>
</svg>