<?xml version="1.0" encoding="utf-8"?>
<svg version="1.1" xmlns:xlink="http://www.w3.org/1999/xlink" width="72px" height="9px" xmlns="http://www.w3.org/2000/svg">
  <g transform="matrix(1 0 0 1 -264 -295 )">
    <path d="M 300 296  C 319.6 296  335 297.54  335 299.5  C 335 301.46  319.6 303  300 303  C 280.4 303  265 301.46  265 299.5  C 265 297.54  280.4 296  300 296  Z " fill-rule="nonzero" fill="#242424" stroke="none" fill-opacity="0" />
    <path d="M 300 296  C 319.6 296  335 297.54  335 299.5  C 335 301.46  319.6 303  300 303  C 280.4 303  265 301.46  265 299.5  C 265 297.54  280.4 296  300 296  Z " stroke-width="2" stroke="#ddb3ff" fill="none" />
  </g>
</svg>