<?xml version="1.0" encoding="utf-8"?>
<svg version="1.1" xmlns:xlink="http://www.w3.org/1999/xlink" width="142px" height="142px" xmlns="http://www.w3.org/2000/svg">
  <defs>
    <mask fill="white" id="clip229">
      <path d="M 142 71  C 142 110.76  110.76 142  71 142  C 31.24 142  0 110.76  0 71  C 0 31.24  31.24 0  71 0  C 110.76 0  142 31.24  142 71  Z M 14 71  C 14 102.92  39.08 128  71 128  C 102.92 128  128 102.92  128 71  C 128 39.08  102.92 14  71 14  C 39.08 14  14 39.08  14 71  Z " fill-rule="evenodd" />
    </mask>
  </defs>
  <g>
    <path d="M 142 71  C 142 110.76  110.76 142  71 142  C 31.24 142  0 110.76  0 71  C 0 31.24  31.24 0  71 0  C 110.76 0  142 31.24  142 71  Z M 14 71  C 14 102.92  39.08 128  71 128  C 102.92 128  128 102.92  128 71  C 128 39.08  102.92 14  71 14  C 39.08 14  14 39.08  14 71  Z " fill-rule="nonzero" fill="#ffe351" stroke="none" />
    <path d="M 142 71  C 142 110.76  110.76 142  71 142  C 31.24 142  0 110.76  0 71  C 0 31.24  31.24 0  71 0  C 110.76 0  142 31.24  142 71  Z " stroke-width="4" stroke="#d7d7d7" fill="none" mask="url(#clip229)" />
    <path d="M 14 71  C 14 102.92  39.08 128  71 128  C 102.92 128  128 102.92  128 71  C 128 39.08  102.92 14  71 14  C 39.08 14  14 39.08  14 71  Z " stroke-width="4" stroke="#d7d7d7" fill="none" mask="url(#clip229)" />
  </g>
</svg>