<?xml version="1.0" encoding="utf-8"?>
<svg version="1.1" xmlns:xlink="http://www.w3.org/1999/xlink" width="46px" height="46px" xmlns="http://www.w3.org/2000/svg">
  <g transform="matrix(1 0 0 1 -36 -34 )">
    <path d="M 59 34  C 71.88 34  82 44.12  82 57  C 82 69.88  71.88 80  59 80  C 46.12 80  36 69.88  36 57  C 36 44.12  46.12 34  59 34  Z " fill-rule="nonzero" fill="#ffffff" stroke="none" fill-opacity="0" />
    <path d="M 59 34.5  C 71.6 34.5  81.5 44.4  81.5 57  C 81.5 69.6  71.6 79.5  59 79.5  C 46.4 79.5  36.5 69.6  36.5 57  C 36.5 44.4  46.4 34.5  59 34.5  Z " stroke-width="1" stroke="#555555" fill="none" />
  </g>
</svg>