<?xml version="1.0" encoding="utf-8"?>
<svg version="1.1" xmlns:xlink="http://www.w3.org/1999/xlink" width="37px" height="37px" xmlns="http://www.w3.org/2000/svg">
  <g transform="matrix(1 0 0 1 -82 -81 )">
    <path d="M 100.5 81  C 110.86 81  119 89.14  119 99.5  C 119 109.86  110.86 118  100.5 118  C 90.14 118  82 109.86  82 99.5  C 82 89.14  90.14 81  100.5 81  Z " fill-rule="nonzero" fill="#ffffff" stroke="none" fill-opacity="0" />
    <path d="M 100.5 81.5  C 110.58 81.5  118.5 89.42  118.5 99.5  C 118.5 109.58  110.58 117.5  100.5 117.5  C 90.42 117.5  82.5 109.58  82.5 99.5  C 82.5 89.42  90.42 81.5  100.5 81.5  Z " stroke-width="1" stroke="#555555" fill="none" />
  </g>
</svg>