<?xml version="1.0" encoding="utf-8"?>
<svg version="1.1" xmlns:xlink="http://www.w3.org/1999/xlink" width="93px" height="93px" xmlns="http://www.w3.org/2000/svg">
  <g transform="matrix(1 0 0 1 -800 -2806 )">
    <path d="M 846.5 2806  C 872.54 2806  893 2826.46  893 2852.5  C 893 2878.54  872.54 2899  846.5 2899  C 820.46 2899  800 2878.54  800 2852.5  C 800 2826.46  820.46 2806  846.5 2806  Z " fill-rule="nonzero" fill="#ff6600" stroke="none" />
    <path d="M 846.5 2806.5  C 872.26 2806.5  892.5 2826.74  892.5 2852.5  C 892.5 2878.26  872.26 2898.5  846.5 2898.5  C 820.74 2898.5  800.5 2878.26  800.5 2852.5  C 800.5 2826.74  820.74 2806.5  846.5 2806.5  Z " stroke-width="1" stroke="#797979" fill="none" />
  </g>
</svg>