<?xml version="1.0" encoding="utf-8"?>
<svg version="1.1" xmlns:xlink="http://www.w3.org/1999/xlink" width="93px" height="93px" xmlns="http://www.w3.org/2000/svg">
  <g transform="matrix(1 0 0 1 -985 -1896 )">
    <path d="M 1031.5 1896  C 1057.54 1896  1078 1916.46  1078 1942.5  C 1078 1968.54  1057.54 1989  1031.5 1989  C 1005.46 1989  985 1968.54  985 1942.5  C 985 1916.46  1005.46 1896  1031.5 1896  Z " fill-rule="nonzero" fill="#3399ff" stroke="none" />
    <path d="M 1031.5 1896.5  C 1057.26 1896.5  1077.5 1916.74  1077.5 1942.5  C 1077.5 1968.26  1057.26 1988.5  1031.5 1988.5  C 1005.74 1988.5  985.5 1968.26  985.5 1942.5  C 985.5 1916.74  1005.74 1896.5  1031.5 1896.5  Z " stroke-width="1" stroke="#797979" fill="none" />
  </g>
</svg>