<?xml version="1.0" encoding="utf-8"?>
<svg version="1.1" xmlns:xlink="http://www.w3.org/1999/xlink" width="60px" height="60px" xmlns="http://www.w3.org/2000/svg">
  <g transform="matrix(1 0 0 1 -1010 -3844 )">
    <path d="M 1040 3848  C 1054.56 3848  1066 3859.44  1066 3874  C 1066 3888.56  1054.56 3900  1040 3900  C 1025.44 3900  1014 3888.56  1014 3874  C 1014 3859.44  1025.44 3848  1040 3848  Z " fill-rule="nonzero" fill="#ffffff" stroke="none" />
    <path d="M 1040 3846.5  C 1055.4 3846.5  1067.5 3858.6  1067.5 3874  C 1067.5 3889.4  1055.4 3901.5  1040 3901.5  C 1024.6 3901.5  1012.5 3889.4  1012.5 3874  C 1012.5 3858.6  1024.6 3846.5  1040 3846.5  Z " stroke-width="5" stroke="#ffcc00" fill="none" />
  </g>
</svg>