<?xml version="1.0" encoding="utf-8"?>
<svg version="1.1" xmlns:xlink="http://www.w3.org/1999/xlink" width="17px" height="17px" xmlns="http://www.w3.org/2000/svg">
  <g transform="matrix(1 0 0 1 -957 -4276 )">
    <path d="M 965.5 4276  C 970.26 4276  974 4279.74  974 4284.5  C 974 4289.26  970.26 4293  965.5 4293  C 960.74 4293  957 4289.26  957 4284.5  C 957 4279.74  960.74 4276  965.5 4276  Z " fill-rule="nonzero" fill="#003300" stroke="none" />
    <path d="M 965.5 4276.5  C 969.98 4276.5  973.5 4280.02  973.5 4284.5  C 973.5 4288.98  969.98 4292.5  965.5 4292.5  C 961.02 4292.5  957.5 4288.98  957.5 4284.5  C 957.5 4280.02  961.02 4276.5  965.5 4276.5  Z " stroke-width="1" stroke="#ffffff" fill="none" />
  </g>
</svg>