<?xml version="1.0" encoding="utf-8"?>
<svg version="1.1" xmlns:xlink="http://www.w3.org/1999/xlink" width="941px" height="941px" xmlns="http://www.w3.org/2000/svg">
  <defs>
    <mask fill="white" id="clip94">
      <path d="M 941 941  L 0 941  L 0 0  L 941 0  L 941 941  Z M 940 640  L 444.668146303223 519.49493799739  L 436 534.409356725147  L 436 545.965625449457  L 940 740  L 940 640  Z M 535.381903155363 482.514142644875  L 533 494.058479532164  L 533 512.013689300155  L 940 572  L 940 502  L 535.381903155363 482.514142644875  Z M 940 346.020765818099  L 940 303.999999995711  L 940 264  L 495 393.420439434037  L 495 408.287153077641  L 405 429.376698541776  L 405 442.596491228071  L 408.377069959156 455.965979137823  L 940 416  L 940 346.020765818099  Z " fill-rule="evenodd" />
    </mask>
  </defs>
  <g transform="matrix(1 0 0 1 -194 -5696 )">
    <path d="M 941 941  L 0 941  L 0 0  L 941 0  L 941 941  Z M 940 640  L 444.668146303223 519.49493799739  L 436 534.409356725147  L 436 545.965625449457  L 940 740  L 940 640  Z M 535.381903155363 482.514142644875  L 533 494.058479532164  L 533 512.013689300155  L 940 572  L 940 502  L 535.381903155363 482.514142644875  Z M 940 346.020765818099  L 940 303.999999995711  L 940 264  L 495 393.420439434037  L 495 408.287153077641  L 405 429.376698541776  L 405 442.596491228071  L 408.377069959156 455.965979137823  L 940 416  L 940 346.020765818099  Z " fill-rule="nonzero" fill="#ff8262" stroke="none" transform="matrix(1 0 0 1 194 5696 )" />
    <path d="M 941 941  L 0 941  L 0 0  L 941 0  L 941 941  Z " stroke-width="2" stroke="#f2f2f2" fill="none" transform="matrix(1 0 0 1 194 5696 )" mask="url(#clip94)" />
    <path d="M 940 640  L 444.668146303223 519.49493799739  L 436 534.409356725147  L 436 545.965625449457  L 940 740  L 940 640  Z " stroke-width="2" stroke="#f2f2f2" fill="none" transform="matrix(1 0 0 1 194 5696 )" mask="url(#clip94)" />
    <path d="M 535.381903155363 482.514142644875  L 533 494.058479532164  L 533 512.013689300155  L 940 572  L 940 502  L 535.381903155363 482.514142644875  Z " stroke-width="2" stroke="#f2f2f2" fill="none" transform="matrix(1 0 0 1 194 5696 )" mask="url(#clip94)" />
    <path d="M 940 346.020765818099  L 940 303.999999995711  L 940 264  L 495 393.420439434037  L 495 408.287153077641  L 405 429.376698541776  L 405 442.596491228071  L 408.377069959156 455.965979137823  L 940 416  L 940 346.020765818099  Z " stroke-width="2" stroke="#f2f2f2" fill="none" transform="matrix(1 0 0 1 194 5696 )" mask="url(#clip94)" />
  </g>
</svg>