<?xml version="1.0" encoding="utf-8"?>
<svg version="1.1" xmlns:xlink="http://www.w3.org/1999/xlink" width="167px" height="167px" xmlns="http://www.w3.org/2000/svg">
  <g transform="matrix(1 0 0 1 -581 -6083 )">
    <path d="M 664.5 6083  C 711.26 6083  748 6119.74  748 6166.5  C 748 6213.26  711.26 6250  664.5 6250  C 617.74 6250  581 6213.26  581 6166.5  C 581 6119.74  617.74 6083  664.5 6083  Z " fill-rule="nonzero" fill="#666600" stroke="none" />
    <path d="M 664.5 6083.5  C 710.98 6083.5  747.5 6120.02  747.5 6166.5  C 747.5 6212.98  710.98 6249.5  664.5 6249.5  C 618.02 6249.5  581.5 6212.98  581.5 6166.5  C 581.5 6120.02  618.02 6083.5  664.5 6083.5  Z " stroke-width="1" stroke="#f2f2f2" fill="none" />
  </g>
</svg>