<?xml version="1.0" encoding="utf-8"?>
<svg version="1.1" xmlns:xlink="http://www.w3.org/1999/xlink" width="93px" height="93px" xmlns="http://www.w3.org/2000/svg">
  <g transform="matrix(1 0 0 1 -800 -3730 )">
    <path d="M 846.5 3730  C 872.54 3730  893 3750.46  893 3776.5  C 893 3802.54  872.54 3823  846.5 3823  C 820.46 3823  800 3802.54  800 3776.5  C 800 3750.46  820.46 3730  846.5 3730  Z " fill-rule="nonzero" fill="#ff6600" stroke="none" />
    <path d="M 846.5 3730.5  C 872.26 3730.5  892.5 3750.74  892.5 3776.5  C 892.5 3802.26  872.26 3822.5  846.5 3822.5  C 820.74 3822.5  800.5 3802.26  800.5 3776.5  C 800.5 3750.74  820.74 3730.5  846.5 3730.5  Z " stroke-width="1" stroke="#797979" fill="none" />
  </g>
</svg>