<?xml version="1.0" encoding="utf-8"?>
<svg version="1.1" xmlns:xlink="http://www.w3.org/1999/xlink" width="93px" height="93px" xmlns="http://www.w3.org/2000/svg">
  <g transform="matrix(1 0 0 1 -985 -2637 )">
    <path d="M 1031.5 2637  C 1057.54 2637  1078 2657.46  1078 2683.5  C 1078 2709.54  1057.54 2730  1031.5 2730  C 1005.46 2730  985 2709.54  985 2683.5  C 985 2657.46  1005.46 2637  1031.5 2637  Z " fill-rule="nonzero" fill="#3399ff" stroke="none" />
    <path d="M 1031.5 2637.5  C 1057.26 2637.5  1077.5 2657.74  1077.5 2683.5  C 1077.5 2709.26  1057.26 2729.5  1031.5 2729.5  C 1005.74 2729.5  985.5 2709.26  985.5 2683.5  C 985.5 2657.74  1005.74 2637.5  1031.5 2637.5  Z " stroke-width="1" stroke="#797979" fill="none" />
  </g>
</svg>