<?xml version="1.0" encoding="utf-8"?>
<svg version="1.1" xmlns:xlink="http://www.w3.org/1999/xlink" width="60px" height="60px" xmlns="http://www.w3.org/2000/svg">
  <g transform="matrix(1 0 0 1 -1010 -4769 )">
    <path d="M 1040 4773  C 1054.56 4773  1066 4784.44  1066 4799  C 1066 4813.56  1054.56 4825  1040 4825  C 1025.44 4825  1014 4813.56  1014 4799  C 1014 4784.44  1025.44 4773  1040 4773  Z " fill-rule="nonzero" fill="#ffffff" stroke="none" />
    <path d="M 1040 4771.5  C 1055.4 4771.5  1067.5 4783.6  1067.5 4799  C 1067.5 4814.4  1055.4 4826.5  1040 4826.5  C 1024.6 4826.5  1012.5 4814.4  1012.5 4799  C 1012.5 4783.6  1024.6 4771.5  1040 4771.5  Z " stroke-width="5" stroke="#ffcc00" fill="none" />
  </g>
</svg>