<?xml version="1.0" encoding="utf-8"?>
<svg version="1.1" xmlns:xlink="http://www.w3.org/1999/xlink" width="17px" height="17px" xmlns="http://www.w3.org/2000/svg">
  <g transform="matrix(1 0 0 1 -957 -5380 )">
    <path d="M 965.5 5380  C 970.26 5380  974 5383.74  974 5388.5  C 974 5393.26  970.26 5397  965.5 5397  C 960.74 5397  957 5393.26  957 5388.5  C 957 5383.74  960.74 5380  965.5 5380  Z " fill-rule="nonzero" fill="#003300" stroke="none" />
    <path d="M 965.5 5380.5  C 969.98 5380.5  973.5 5384.02  973.5 5388.5  C 973.5 5392.98  969.98 5396.5  965.5 5396.5  C 961.02 5396.5  957.5 5392.98  957.5 5388.5  C 957.5 5384.02  961.02 5380.5  965.5 5380.5  Z " stroke-width="1" stroke="#ffffff" fill="none" />
  </g>
</svg>