<?xml version="1.0" encoding="utf-8"?>
<svg version="1.1" xmlns:xlink="http://www.w3.org/1999/xlink" width="85px" height="85px" xmlns="http://www.w3.org/2000/svg">
  <g transform="matrix(1 0 0 1 -385 -6124 )">
    <path d="M 427.5 6124  C 451.3 6124  470 6142.7  470 6166.5  C 470 6190.3  451.3 6209  427.5 6209  C 403.7 6209  385 6190.3  385 6166.5  C 385 6142.7  403.7 6124  427.5 6124  Z " fill-rule="nonzero" fill="#990066" stroke="none" />
    <path d="M 427.5 6124.5  C 451.02 6124.5  469.5 6142.98  469.5 6166.5  C 469.5 6190.02  451.02 6208.5  427.5 6208.5  C 403.98 6208.5  385.5 6190.02  385.5 6166.5  C 385.5 6142.98  403.98 6124.5  427.5 6124.5  Z " stroke-width="1" stroke="#f2f2f2" fill="none" />
  </g>
</svg>