<?xml version="1.0" encoding="utf-8"?>
<svg version="1.1" xmlns:xlink="http://www.w3.org/1999/xlink" width="29px" height="29px" xmlns="http://www.w3.org/2000/svg">
  <g transform="matrix(1 0 0 1 -677 -6089 )">
    <path d="M 691.5 6089  C 699.62 6089  706 6095.38  706 6103.5  C 706 6111.62  699.62 6118  691.5 6118  C 683.38 6118  677 6111.62  677 6103.5  C 677 6095.38  683.38 6089  691.5 6089  Z " fill-rule="nonzero" fill="#003300" stroke="none" />
    <path d="M 691.5 6089.5  C 699.34 6089.5  705.5 6095.66  705.5 6103.5  C 705.5 6111.34  699.34 6117.5  691.5 6117.5  C 683.66 6117.5  677.5 6111.34  677.5 6103.5  C 677.5 6095.66  683.66 6089.5  691.5 6089.5  Z " stroke-width="1" stroke="#ffffff" fill="none" />
  </g>
</svg>