<?xml version="1.0" encoding="utf-8"?>
<svg version="1.1" xmlns:xlink="http://www.w3.org/1999/xlink" width="30px" height="30px" xmlns="http://www.w3.org/2000/svg">
  <g transform="matrix(1 0 0 1 -916 -6024 )">
    <path d="M 931 6025  C 938.84 6025  945 6031.16  945 6039  C 945 6046.84  938.84 6053  931 6053  C 923.16 6053  917 6046.84  917 6039  C 917 6031.16  923.16 6025  931 6025  Z " fill-rule="nonzero" fill="#3a283c" stroke="none" fill-opacity="0" />
    <path d="M 931 6025  C 938.84 6025  945 6031.16  945 6039  C 945 6046.84  938.84 6053  931 6053  C 923.16 6053  917 6046.84  917 6039  C 917 6031.16  923.16 6025  931 6025  Z " stroke-width="2" stroke="#ffe56e" fill="none" />
  </g>
</svg>