<?xml version="1.0" encoding="utf-8"?>
<svg version="1.1" xmlns:xlink="http://www.w3.org/1999/xlink" width="108px" height="108px" xmlns="http://www.w3.org/2000/svg">
  <g transform="matrix(1 0 0 1 -877 -5985 )">
    <path d="M 931 5986  C 960.68 5986  984 6009.32  984 6039  C 984 6068.68  960.68 6092  931 6092  C 901.32 6092  878 6068.68  878 6039  C 878 6009.32  901.32 5986  931 5986  Z " fill-rule="nonzero" fill="#3a283c" stroke="none" fill-opacity="0" />
    <path d="M 931 5986  C 960.68 5986  984 6009.32  984 6039  C 984 6068.68  960.68 6092  931 6092  C 901.32 6092  878 6068.68  878 6039  C 878 6009.32  901.32 5986  931 5986  Z " stroke-width="2" stroke="#ffe56e" fill="none" />
  </g>
</svg>