<?xml version="1.0" encoding="utf-8"?>
<svg version="1.1" xmlns:xlink="http://www.w3.org/1999/xlink" width="97px" height="97px" xmlns="http://www.w3.org/2000/svg">
  <g transform="matrix(1 0 0 1 -486 -7077 )">
    <path d="M 534.5 7081  C 559.42 7081  579 7100.58  579 7125.5  C 579 7150.42  559.42 7170  534.5 7170  C 509.58 7170  490 7150.42  490 7125.5  C 490 7100.58  509.58 7081  534.5 7081  Z " fill-rule="nonzero" fill="#f2f2f2" stroke="none" fill-opacity="0" />
    <path d="M 534.5 7079.5  C 560.26 7079.5  580.5 7099.74  580.5 7125.5  C 580.5 7151.26  560.26 7171.5  534.5 7171.5  C 508.74 7171.5  488.5 7151.26  488.5 7125.5  C 488.5 7099.74  508.74 7079.5  534.5 7079.5  Z " stroke-width="5" stroke="#d9001b" fill="none" />
  </g>
</svg>