<?xml version="1.0" encoding="utf-8"?>
<svg version="1.1" xmlns:xlink="http://www.w3.org/1999/xlink" width="96px" height="96px" xmlns="http://www.w3.org/2000/svg">
  <g transform="matrix(1 0 0 1 -883 -5991 )">
    <path d="M 931 5994  C 956.2 5994  976 6013.8  976 6039  C 976 6064.2  956.2 6084  931 6084  C 905.8 6084  886 6064.2  886 6039  C 886 6013.8  905.8 5994  931 5994  Z " fill-rule="nonzero" fill="#3a283c" stroke="none" fill-opacity="0" />
    <path d="M 931 5993  C 956.76 5993  977 6013.24  977 6039  C 977 6064.76  956.76 6085  931 6085  C 905.24 6085  885 6064.76  885 6039  C 885 6013.24  905.24 5993  931 5993  Z " stroke-width="4" stroke="#ffe56e" fill="none" />
  </g>
</svg>