<?xml version="1.0" encoding="utf-8"?>
<svg version="1.1" xmlns:xlink="http://www.w3.org/1999/xlink" width="13px" height="20px" xmlns="http://www.w3.org/2000/svg">
  <defs>
    <mask fill="white" id="clip321">
      <path d="M 1.22790294627383 0.212053571428572  L 12.763431542461 11.640625  C 12.9962449451184 11.8638392857143  13.0488157134604 12.1205357142857  12.921143847487 12.4107142857143  C 12.7934719815136 12.7083333333333  12.5719237435009 12.8571428571429  12.2564991334489 12.8571428571429  L 7.95320623916811 12.8571428571429  L 10.2175043327556 18.1696428571429  C 10.2926054303871 18.3556547619048  10.2926054303871 18.5379464285714  10.2175043327556 18.7165178571429  C 10.1424032351242 18.8950892857143  10.0147313691508 19.0252976190476  9.83448873483535 19.1071428571429  L 7.84055459272097 19.9441964285714  C 7.6528018486424 20.0186011904762  7.46880415944541 20.0186011904762  7.28856152512998 19.9441964285714  C 7.10831889081456 19.8697916666667  6.97689196995956 19.7433035714286  6.89428076256499 19.5647321428571  L 4.74263431542461 14.5200892857143  L 1.22790294627383 18.0022321428571  C 1.08521086077412 18.1436011904762  0.916233391103409 18.2142857142857  0.720970537261698 18.2142857142857  C 0.630849220103986 18.2142857142857  0.540727902946274 18.1956845238095  0.450606585788562 18.1584821428571  C 0.150202195262854 18.031994047619  0 17.8125  0 17.5  L 0 0.714285714285714  C 0 0.401785714285714  0.150202195262854 0.182291666666665  0.450606585788562 0.0558035714285721  C 0.540727902946274 0.0186011904761907  0.630849220103986 0  0.720970537261698 0  C 0.923743500866551 0  1.09272097053726 0.0706845238095255  1.22790294627383 0.212053571428572  Z " fill-rule="evenodd" />
    </mask>
  </defs>
  <g transform="matrix(1 0 0 1 -1181 -47 )">
    <path d="M 1.22790294627383 0.212053571428572  L 12.763431542461 11.640625  C 12.9962449451184 11.8638392857143  13.0488157134604 12.1205357142857  12.921143847487 12.4107142857143  C 12.7934719815136 12.7083333333333  12.5719237435009 12.8571428571429  12.2564991334489 12.8571428571429  L 7.95320623916811 12.8571428571429  L 10.2175043327556 18.1696428571429  C 10.2926054303871 18.3556547619048  10.2926054303871 18.5379464285714  10.2175043327556 18.7165178571429  C 10.1424032351242 18.8950892857143  10.0147313691508 19.0252976190476  9.83448873483535 19.1071428571429  L 7.84055459272097 19.9441964285714  C 7.6528018486424 20.0186011904762  7.46880415944541 20.0186011904762  7.28856152512998 19.9441964285714  C 7.10831889081456 19.8697916666667  6.97689196995956 19.7433035714286  6.89428076256499 19.5647321428571  L 4.74263431542461 14.5200892857143  L 1.22790294627383 18.0022321428571  C 1.08521086077412 18.1436011904762  0.916233391103409 18.2142857142857  0.720970537261698 18.2142857142857  C 0.630849220103986 18.2142857142857  0.540727902946274 18.1956845238095  0.450606585788562 18.1584821428571  C 0.150202195262854 18.031994047619  0 17.8125  0 17.5  L 0 0.714285714285714  C 0 0.401785714285714  0.150202195262854 0.182291666666665  0.450606585788562 0.0558035714285721  C 0.540727902946274 0.0186011904761907  0.630849220103986 0  0.720970537261698 0  C 0.923743500866551 0  1.09272097053726 0.0706845238095255  1.22790294627383 0.212053571428572  Z " fill-rule="nonzero" fill="#f2f2f2" stroke="none" transform="matrix(1 0 0 1 1181 47 )" />
    <path d="M 1.22790294627383 0.212053571428572  L 12.763431542461 11.640625  C 12.9962449451184 11.8638392857143  13.0488157134604 12.1205357142857  12.921143847487 12.4107142857143  C 12.7934719815136 12.7083333333333  12.5719237435009 12.8571428571429  12.2564991334489 12.8571428571429  L 7.95320623916811 12.8571428571429  L 10.2175043327556 18.1696428571429  C 10.2926054303871 18.3556547619048  10.2926054303871 18.5379464285714  10.2175043327556 18.7165178571429  C 10.1424032351242 18.8950892857143  10.0147313691508 19.0252976190476  9.83448873483535 19.1071428571429  L 7.84055459272097 19.9441964285714  C 7.6528018486424 20.0186011904762  7.46880415944541 20.0186011904762  7.28856152512998 19.9441964285714  C 7.10831889081456 19.8697916666667  6.97689196995956 19.7433035714286  6.89428076256499 19.5647321428571  L 4.74263431542461 14.5200892857143  L 1.22790294627383 18.0022321428571  C 1.08521086077412 18.1436011904762  0.916233391103409 18.2142857142857  0.720970537261698 18.2142857142857  C 0.630849220103986 18.2142857142857  0.540727902946274 18.1956845238095  0.450606585788562 18.1584821428571  C 0.150202195262854 18.031994047619  0 17.8125  0 17.5  L 0 0.714285714285714  C 0 0.401785714285714  0.150202195262854 0.182291666666665  0.450606585788562 0.0558035714285721  C 0.540727902946274 0.0186011904761907  0.630849220103986 0  0.720970537261698 0  C 0.923743500866551 0  1.09272097053726 0.0706845238095255  1.22790294627383 0.212053571428572  Z " stroke-width="2" stroke="#aaaaaa" fill="none" transform="matrix(1 0 0 1 1181 47 )" mask="url(#clip321)" />
  </g>
</svg>