<?xml version="1.0" encoding="utf-8"?>
<svg version="1.1" xmlns:xlink="http://www.w3.org/1999/xlink" width="26px" height="22px" xmlns="http://www.w3.org/2000/svg">
  <g transform="matrix(1 0 0 1 -130 -50 )">
    <path d="M 3.43861607142857 18.0611979166667  C 3.62239583333333 17.8797743055556  3.71428571428571 17.6649305555556  3.71428571428571 17.4166666666667  C 3.71428571428571 17.1684027777778  3.62239583333333 16.9535590277778  3.43861607142857 16.7721354166667  C 3.25483630952381 16.5907118055556  3.03720238095238 16.5  2.78571428571429 16.5  C 2.53422619047619 16.5  2.31659226190476 16.5907118055556  2.1328125 16.7721354166667  C 1.94903273809524 16.9535590277778  1.85714285714286 17.1684027777778  1.85714285714286 17.4166666666667  C 1.85714285714286 17.6649305555556  1.94903273809524 17.8797743055556  2.1328125 18.0611979166667  C 2.31659226190476 18.2426215277778  2.53422619047619 18.3333333333333  2.78571428571429 18.3333333333333  C 3.03720238095238 18.3333333333333  3.25483630952381 18.2426215277778  3.43861607142857 18.0611979166667  Z M 23.5915178571429 10.4557291666667  C 23.9590773809524 10.0928819444444  24.1428571428571 9.66319444444444  24.1428571428571 9.16666666666667  C 24.1428571428571 8.6796875  23.9542410714286 8.25238715277778  23.5770089285714 7.884765625  C 23.1997767857143 7.51714409722222  22.7693452380952 7.33333333333333  22.2857142857143 7.33333333333333  L 13.9285714285714 7.33333333333333  C 13.9285714285714 7.14236111111111  14.0011160714286 6.91080729166667  14.1462053571429 6.638671875  C 14.2912946428571 6.36653645833333  14.4508928571429 6.10394965277778  14.625 5.85091145833333  C 14.7991071428571 5.59787326388889  14.9587053571429 5.27322048611111  15.1037946428571 4.876953125  C 15.2488839285714 4.48068576388889  15.3214285714286 4.07725694444444  15.3214285714286 3.66666666666667  C 15.3214285714286 3.02690972222222  15.106212797619 2.56141493055555  14.67578125 2.27018229166667  C 14.245349702381 1.97894965277777  13.686755952381 1.83333333333333  13 1.83333333333333  C 12.7678571428571 1.83333333333333  12.3325892857143 2.49696180555555  11.6941964285714 3.82421875  C 11.4620535714286 4.24435763888889  11.2831101190476 4.5546875  11.1573660714286 4.75520833333333  C 10.7704613095238 5.36631944444444  10.2287946428571 6.05859375  9.53236607142857 6.83203125  C 8.84561011904762 7.60546875  8.35714285714286 8.11154513888889  8.06696428571429 8.35026041666667  C 7.39955357142857 8.89453125  6.72247023809524 9.16666666666667  6.03571428571429 9.16666666666667  L 5.57142857142857 9.16666666666667  L 5.57142857142857 18.3333333333333  L 6.03571428571429 18.3333333333333  C 6.73214285714286 18.3333333333333  7.53980654761905 18.4861111111111  8.45870535714286 18.7916666666667  C 9.37760416666667 19.0972222222222  10.3134300595238 19.4027777777778  11.2661830357143 19.7083333333333  C 12.2189360119048 20.0138888888889  13.0870535714286 20.1666666666667  13.8705357142857 20.1666666666667  C 15.6986607142857 20.1666666666667  16.6127232142857 19.3693576388889  16.6127232142857 17.7747395833333  C 16.6127232142857 17.5264756944444  16.5885416666667 17.2591145833333  16.5401785714286 16.97265625  C 16.8303571428571 16.8198784722222  17.0600818452381 16.5692274305556  17.2293526785714 16.220703125  C 17.3986235119048 15.8721788194444  17.4832589285714 15.5212673611111  17.4832589285714 15.16796875  C 17.4832589285714 14.8146701388889  17.3962053571429 14.4852430555556  17.2220982142857 14.1796875  C 17.7347470238095 13.7022569444444  17.9910714285714 13.1341145833333  17.9910714285714 12.4752604166667  C 17.9910714285714 12.2365451388889  17.9427083333333 11.9715711805556  17.8459821428571 11.6803385416667  C 17.749255952381 11.3891059027778  17.6283482142857 11.1623263888889  17.4832589285714 11  L 22.2857142857143 11  C 22.7886904761905 11  23.2239583333333 10.8185763888889  23.5915178571429 10.4557291666667  Z M 24.8973214285714 6.58854166666667  C 25.6324404761905 7.31423611111111  26 8.16883680555555  26 9.15234375  C 26 10.1549479166667  25.6348586309524 11.0190972222222  24.9045758928571 11.7447916666667  C 24.1742931547619 12.4704861111111  23.3013392857143 12.8333333333333  22.2857142857143 12.8333333333333  L 19.8337053571429 12.8333333333333  C 19.7950148809524 13.4253472222222  19.6160714285714 13.9934895833333  19.296875 14.5377604166667  C 19.3258928571429 14.73828125  19.3404017857143 14.9435763888889  19.3404017857143 15.1536458333333  C 19.3404017857143 16.1180555555556  19.0502232142857 16.9678819444444  18.4698660714286 17.703125  C 18.4795386904762 19.0303819444444  18.0684523809524 20.0783420138889  17.2366071428571 20.8470052083333  C 16.4047619047619 21.6156684027778  15.3069196428571 22  13.9430803571429 22  C 12.6566220238095 22  11.0993303571429 21.6705729166667  9.27120535714286 21.01171875  C 7.68489583333333 20.4483506944444  6.60639880952381 20.1666666666667  6.03571428571429 20.1666666666667  L 1.85714285714286 20.1666666666667  C 1.34449404761905 20.1666666666667  0.906808035714286 19.9876302083333  0.544084821428571 19.6295572916667  C 0.181361607142857 19.271484375  0 18.8394097222222  0 18.3333333333333  L 0 9.16666666666667  C 0 8.66059027777778  0.181361607142857 8.228515625  0.544084821428571 7.87044270833333  C 0.906808035714286 7.51236979166667  1.34449404761905 7.33333333333333  1.85714285714286 7.33333333333333  L 6.03571428571429 7.33333333333333  C 6.13244047619048 7.33333333333333  6.23642113095238 7.31184895833333  6.34765625 7.26888020833333  C 6.45889136904762 7.22591145833333  6.57254464285714 7.15907118055555  6.68861607142857 7.068359375  C 6.8046875 6.97764756944444  6.91350446428571 6.89171006944444  7.01506696428571 6.810546875  C 7.11662946428571 6.72938368055555  7.23270089285714 6.62196180555555  7.36328125 6.48828125  C 7.49386160714286 6.35460069444444  7.59300595238095 6.251953125  7.66071428571429 6.18033854166667  C 7.72842261904762 6.10872395833333  7.8203125 6.00607638888889  7.93638392857143 5.87239583333333  C 8.05245535714286 5.73871527777778  8.12016369047619 5.65755208333333  8.13950892857143 5.62890625  C 8.76822916666667 4.92230902777778  9.25186011904762 4.30642361111111  9.59040178571429 3.78125  C 9.71614583333333 3.58072916666667  9.87574404761905 3.28472222222222  10.0691964285714 2.89322916666667  C 10.2626488095238 2.50173611111111  10.4415922619048 2.15798611111111  10.6060267857143 1.86197916666667  C 10.7704613095238 1.56597222222222  10.9663318452381 1.26519097222222  11.1936383928571 0.959635416666666  C 11.4209449404762 0.654079861111109  11.6869419642857 0.417751736111109  11.9916294642857 0.250651041666666  C 12.2963169642857 0.0835503472222203  12.6324404761905 0  13 0  C 14.2090773809524 0  15.207775297619 0.31987847222222  15.99609375 0.959635416666666  C 16.784412202381 1.59939236111111  17.1785714285714 2.50173611111111  17.1785714285714 3.66666666666667  C 17.1785714285714 4.31597222222222  17.0721726190476 4.92708333333333  16.859375 5.5  L 22.2857142857143 5.5  C 23.2916666666667 5.5  24.1622023809524 5.86284722222222  24.8973214285714 6.58854166666667  Z " fill-rule="nonzero" fill="#f2f2f2" stroke="none" fill-opacity="0.996078431372549" transform="matrix(1 0 0 1 130 50 )" />
  </g>
</svg>