<?xml version="1.0" encoding="utf-8"?>
<svg version="1.1" xmlns:xlink="http://www.w3.org/1999/xlink" width="58px" height="58px" xmlns="http://www.w3.org/2000/svg">
  <g transform="matrix(1 0 0 1 -56 -56 )">
    <path d="M 85 59.5  C 99.28 59.5  110.5 70.72  110.5 85  C 110.5 99.28  99.28 110.5  85 110.5  C 70.72 110.5  59.5 99.28  59.5 85  C 59.5 70.72  70.72 59.5  85 59.5  Z " fill-rule="nonzero" fill="#facd91" stroke="none" />
    <path d="M 85 58  C 100.12 58  112 69.88  112 85  C 112 100.12  100.12 112  85 112  C 69.88 112  58 100.12  58 85  C 58 69.88  69.88 58  85 58  Z " stroke-width="4" stroke-dasharray="36,16" stroke="#f59a23" fill="none" />
  </g>
</svg>