<?xml version="1.0" encoding="utf-8"?>
<svg version="1.1" xmlns:xlink="http://www.w3.org/1999/xlink" width="14px" height="18px" xmlns="http://www.w3.org/2000/svg">
  <g transform="matrix(1 0 0 1 -818 -249 )">
    <path d="M 825 266.060168611492  C 822.4 261.921642222456  818.5 259.438526389035  818.5 255.3  C 818.5 253.145714285714  819.8 249.5  825 249.5  C 830.2 249.5  831.5 253.145714285714  831.5 255.3  C 831.5 259.438526389035  827.6 261.921642222456  825 266.060168611492  Z " fill-rule="nonzero" fill="#7b4d12" stroke="none" />
    <path d="M 825 267  C 822.2 262.5  818 259.8  818 255.3  C 818 252.96  819.4 249  825 249  C 830.6 249  832 252.96  832 255.3  C 832 259.8  827.8 262.5  825 267  Z M 825 265.120337222984  C 827.4 261.343284444913  831 259.077052778071  831 255.3  C 831 253.331428571429  829.8 250  825 250  C 820.2 250  819 253.331428571429  819 255.3  C 819 259.077052778071  822.6 261.343284444913  825 265.120337222984  Z " fill-rule="nonzero" fill="#f2f2f2" stroke="none" />
  </g>
</svg>