<?xml version="1.0" encoding="utf-8"?>
<svg version="1.1" xmlns:xlink="http://www.w3.org/1999/xlink" width="19px" height="19px" xmlns="http://www.w3.org/2000/svg">
  <g transform="matrix(1 0 0 1 -20 -21 )">
    <path d="M 29.5 22.5  C 33.98 22.5  37.5 26.02  37.5 30.5  C 37.5 34.98  33.98 38.5  29.5 38.5  C 25.02 38.5  21.5 34.98  21.5 30.5  C 21.5 26.02  25.02 22.5  29.5 22.5  Z " fill-rule="nonzero" fill="#facd91" stroke="none" />
    <path d="M 29.5 22  C 34.26 22  38 25.74  38 30.5  C 38 35.26  34.26 39  29.5 39  C 24.74 39  21 35.26  21 30.5  C 21 25.74  24.74 22  29.5 22  Z " stroke-width="2" stroke-dasharray="18,8" stroke="#f59a23" fill="none" />
  </g>
</svg>