<?xml version="1.0" encoding="utf-8"?>
<svg version="1.1" xmlns:xlink="http://www.w3.org/1999/xlink" width="351px" height="287px" xmlns="http://www.w3.org/2000/svg">
  <defs>
    <mask fill="white" id="clip200">
      <path d="M 0 111.500001870126  C 0 69.3024285371966  14.2355569833306 30.9872797947146  38.2614423573707 1  L 312.738559018538 0.999785904740747  C 336.764443559354 30.9872812553549  351 69.3024293415192  351 111.500001870126  C 351 209.780000822855  273.78 287  175.5 287  C 77.22 287  0 209.780000822855  0 111.500001870126  Z " fill-rule="evenodd" />
    </mask>
  </defs>
  <g transform="matrix(1 0 0 1 -751 -7959 )">
    <path d="M 0 111.500001870126  C 0 69.3024285371966  14.2355569833306 30.9872797947146  38.2614423573707 1  L 312.738559018538 0.999785904740747  C 336.764443559354 30.9872812553549  351 69.3024293415192  351 111.500001870126  C 351 209.780000822855  273.78 287  175.5 287  C 77.22 287  0 209.780000822855  0 111.500001870126  Z " fill-rule="nonzero" fill="#f8e881" stroke="none" transform="matrix(1 0 0 1 751 7959 )" />
    <path d="M 0 111.500001870126  C 0 69.3024285371966  14.2355569833306 30.9872797947146  38.2614423573707 1  L 312.738559018538 0.999785904740747  C 336.764443559354 30.9872812553549  351 69.3024293415192  351 111.500001870126  C 351 209.780000822855  273.78 287  175.5 287  C 77.22 287  0 209.780000822855  0 111.500001870126  Z " stroke-width="4" stroke="#fafefd" fill="none" transform="matrix(1 0 0 1 751 7959 )" mask="url(#clip200)" />
  </g>
</svg>