<?xml version="1.0" encoding="utf-8"?>
<svg version="1.1" xmlns:xlink="http://www.w3.org/1999/xlink" width="441px" height="331px" xmlns="http://www.w3.org/2000/svg">
  <defs>
    <mask fill="white" id="clip201">
      <path d="M 0 110.500000612153  C 0 69.9884748582821  10.4429988709619 32.3250396976763  28.8372463983986 0  L 412.161931124234 0  C 430.556689811599 32.3239169176852  441 69.9878710159085  441 110.500000612153  C 441 233.980000269347  343.98 331  220.5 331  C 97.02 331  0 233.980000269347  0 110.500000612153  Z M 174 110.500000612153  C 174 137.660000536751  195.34 159.000000477507  222.5 159.000000477507  C 249.66 159.000000477507  271 137.660000536751  271 110.500000612153  C 271 83.3400006875548  249.66 62.0000007467988  222.5 62.0000007467988  C 195.34 62.0000007467988  174 83.3400006875548  174 110.500000612153  Z " fill-rule="evenodd" />
    </mask>
  </defs>
  <g transform="matrix(1 0 0 1 -182 -7960 )">
    <path d="M 0 110.500000612153  C 0 69.9884748582821  10.4429988709619 32.3250396976763  28.8372463983986 0  L 412.161931124234 0  C 430.556689811599 32.3239169176852  441 69.9878710159085  441 110.500000612153  C 441 233.980000269347  343.98 331  220.5 331  C 97.02 331  0 233.980000269347  0 110.500000612153  Z M 174 110.500000612153  C 174 137.660000536751  195.34 159.000000477507  222.5 159.000000477507  C 249.66 159.000000477507  271 137.660000536751  271 110.500000612153  C 271 83.3400006875548  249.66 62.0000007467988  222.5 62.0000007467988  C 195.34 62.0000007467988  174 83.3400006875548  174 110.500000612153  Z " fill-rule="nonzero" fill="#f8e881" stroke="none" transform="matrix(1 0 0 1 182 7960 )" />
    <path d="M 0 110.500000612153  C 0 69.9884748582821  10.4429988709619 32.3250396976763  28.8372463983986 0  L 412.161931124234 0  C 430.556689811599 32.3239169176852  441 69.9878710159085  441 110.500000612153  C 441 233.980000269347  343.98 331  220.5 331  C 97.02 331  0 233.980000269347  0 110.500000612153  Z " stroke-width="4" stroke="#fafefd" fill="none" transform="matrix(1 0 0 1 182 7960 )" mask="url(#clip201)" />
    <path d="M 174 110.500000612153  C 174 137.660000536751  195.34 159.000000477507  222.5 159.000000477507  C 249.66 159.000000477507  271 137.660000536751  271 110.500000612153  C 271 83.3400006875548  249.66 62.0000007467988  222.5 62.0000007467988  C 195.34 62.0000007467988  174 83.3400006875548  174 110.500000612153  Z " stroke-width="4" stroke="#fafefd" fill="none" transform="matrix(1 0 0 1 182 7960 )" mask="url(#clip201)" />
  </g>
</svg>