<?xml version="1.0" encoding="utf-8"?>
<svg version="1.1" xmlns:xlink="http://www.w3.org/1999/xlink" width="35px" height="35px" xmlns="http://www.w3.org/2000/svg">
  <g transform="matrix(1 0 0 1 -62 -62 )">
    <path d="M 79.5 63.5  C 88.46 63.5  95.5 70.54  95.5 79.5  C 95.5 88.46  88.46 95.5  79.5 95.5  C 70.54 95.5  63.5 88.46  63.5 79.5  C 63.5 70.54  70.54 63.5  79.5 63.5  Z " fill-rule="nonzero" fill="#f9dfc1" stroke="none" fill-opacity="0" />
    <path d="M 79.5 63  C 88.74 63  96 70.26  96 79.5  C 96 88.74  88.74 96  79.5 96  C 70.26 96  63 88.74  63 79.5  C 63 70.26  70.26 63  79.5 63  Z " stroke-width="2" stroke-dasharray="18,8" stroke="#f97052" fill="none" />
  </g>
</svg>