<?xml version="1.0" encoding="utf-8"?>
<svg version="1.1" xmlns:xlink="http://www.w3.org/1999/xlink" width="91px" height="91px" xmlns="http://www.w3.org/2000/svg">
  <g transform="matrix(1 0 0 1 -420 -7009 )">
    <path d="M 465.5 7010  C 490.42 7010  510 7029.58  510 7054.5  C 510 7079.42  490.42 7099  465.5 7099  C 440.58 7099  421 7079.42  421 7054.5  C 421 7029.58  440.58 7010  465.5 7010  Z " fill-rule="nonzero" fill="#009900" stroke="none" />
    <path d="M 465.5 7010  C 490.42 7010  510 7029.58  510 7054.5  C 510 7079.42  490.42 7099  465.5 7099  C 440.58 7099  421 7079.42  421 7054.5  C 421 7029.58  440.58 7010  465.5 7010  Z " stroke-width="2" stroke="#ffffff" fill="none" />
  </g>
</svg>