<?xml version="1.0" encoding="utf-8"?>
<svg version="1.1" xmlns:xlink="http://www.w3.org/1999/xlink" width="450px" height="450px" xmlns="http://www.w3.org/2000/svg">
  <defs>
    <mask fill="white" id="clip435">
      <path d="M 450 225  C 450 351  351 450  225 450  C 99 450  0 351  0 225  C 0 99  99 0  225 0  C 351 0  450 99  450 225  Z M 287 225  C 287 190.280000000001  259.72 163  225 163  C 190.28 163  163 190.280000000001  163 225  C 163 259.719999999999  190.28 287  225 287  C 259.72 287  287 259.719999999999  287 225  Z " fill-rule="evenodd" />
    </mask>
  </defs>
  <g transform="matrix(1 0 0 1 -702 -4520 )">
    <path d="M 450 225  C 450 351  351 450  225 450  C 99 450  0 351  0 225  C 0 99  99 0  225 0  C 351 0  450 99  450 225  Z M 287 225  C 287 190.280000000001  259.72 163  225 163  C 190.28 163  163 190.280000000001  163 225  C 163 259.719999999999  190.28 287  225 287  C 259.72 287  287 259.719999999999  287 225  Z " fill-rule="nonzero" fill="#009900" stroke="none" transform="matrix(1 0 0 1 702 4520 )" />
    <path d="M 450 225  C 450 351  351 450  225 450  C 99 450  0 351  0 225  C 0 99  99 0  225 0  C 351 0  450 99  450 225  Z " stroke-width="2" stroke="#797979" fill="none" transform="matrix(1 0 0 1 702 4520 )" mask="url(#clip435)" />
    <path d="M 287 225  C 287 190.280000000001  259.72 163  225 163  C 190.28 163  163 190.280000000001  163 225  C 163 259.719999999999  190.28 287  225 287  C 259.72 287  287 259.719999999999  287 225  Z " stroke-width="2" stroke="#797979" fill="none" transform="matrix(1 0 0 1 702 4520 )" mask="url(#clip435)" />
  </g>
</svg>