<?xml version="1.0" encoding="utf-8"?>
<svg version="1.1" xmlns:xlink="http://www.w3.org/1999/xlink" width="46px" height="46px" xmlns="http://www.w3.org/2000/svg">
  <g transform="matrix(1 0 0 1 -859 -8114 )">
    <path d="M 882 8115  C 894.32 8115  904 8124.68  904 8137  C 904 8149.32  894.32 8159  882 8159  C 869.68 8159  860 8149.32  860 8137  C 860 8124.68  869.68 8115  882 8115  Z " fill-rule="nonzero" fill="#33ffcc" stroke="none" />
    <path d="M 882 8115  C 894.32 8115  904 8124.68  904 8137  C 904 8149.32  894.32 8159  882 8159  C 869.68 8159  860 8149.32  860 8137  C 860 8124.68  869.68 8115  882 8115  Z " stroke-width="2" stroke="#ffffff" fill="none" />
  </g>
</svg>