<?xml version="1.0" encoding="utf-8"?>
<svg version="1.1" xmlns:xlink="http://www.w3.org/1999/xlink" width="286px" height="288px" xmlns="http://www.w3.org/2000/svg">
  <defs>
    <mask fill="white" id="clip616">
      <path d="M 0.534794210587449 280.522019731802  L 59.7830232404983 59.404752531877  L 278.092017935681 0.90903381363978  C 283.253473124163 20.135904049313  286 40.4434256324971  286 61.5  C 286 188.34  186.34 288  59.5 288  C 39.0359823182012 288  19.2794521679623 285.405879050947  0.534794210587449 280.522019731802  Z " fill-rule="evenodd" />
    </mask>
  </defs>
  <g transform="matrix(1 0 0 1 -704 -3091 )">
    <path d="M 0.534794210587449 280.522019731802  L 59.7830232404983 59.404752531877  L 278.092017935681 0.90903381363978  C 283.253473124163 20.135904049313  286 40.4434256324971  286 61.5  C 286 188.34  186.34 288  59.5 288  C 39.0359823182012 288  19.2794521679623 285.405879050947  0.534794210587449 280.522019731802  Z " fill-rule="nonzero" fill="#d2ffcc" stroke="none" transform="matrix(1 0 0 1 704 3091 )" />
    <path d="M 0.534794210587449 280.522019731802  L 59.7830232404983 59.404752531877  L 278.092017935681 0.90903381363978  C 283.253473124163 20.135904049313  286 40.4434256324971  286 61.5  C 286 188.34  186.34 288  59.5 288  C 39.0359823182012 288  19.2794521679623 285.405879050947  0.534794210587449 280.522019731802  Z " stroke-width="4" stroke="#339900" fill="none" transform="matrix(1 0 0 1 704 3091 )" mask="url(#clip616)" />
  </g>
</svg>