<?xml version="1.0" encoding="utf-8"?>
<svg version="1.1" xmlns:xlink="http://www.w3.org/1999/xlink" width="46px" height="46px" xmlns="http://www.w3.org/2000/svg">
  <g transform="matrix(1 0 0 1 -470 -7593 )">
    <path d="M 493 7594  C 505.32 7594  515 7603.68  515 7616  C 515 7628.32  505.32 7638  493 7638  C 480.68 7638  471 7628.32  471 7616  C 471 7603.68  480.68 7594  493 7594  Z " fill-rule="nonzero" fill="#33ffcc" stroke="none" />
    <path d="M 493 7594  C 505.32 7594  515 7603.68  515 7616  C 515 7628.32  505.32 7638  493 7638  C 480.68 7638  471 7628.32  471 7616  C 471 7603.68  480.68 7594  493 7594  Z " stroke-width="2" stroke="#ffffff" fill="none" />
  </g>
</svg>