<?xml version="1.0" encoding="utf-8"?>
<svg version="1.1" xmlns:xlink="http://www.w3.org/1999/xlink" width="24px" height="24px" xmlns="http://www.w3.org/2000/svg">
  <g transform="matrix(1 0 0 1 -1006 -75 )">
    <path d="M 24 21.5742857142856  L 18.5373070736418 16.1115917350079  C 18.2336875482539 16.5860612507262  17.8728597705673 17.0367877105966  17.4548237405819 17.4548237405819  C 17.0367877096659 17.8728597714979  16.5860612487194 18.2336875498605  16.1115898622205 18.5373041479349  L 21.5742857142856 24  L 24 21.5742857142856  Z M 17.454823740582 6.54517625941804  C 17.8728597714979 6.96321229033398  18.2336875498604 7.41393875128046  18.5373041479348 7.88841013777942  L 23.9999999999999 2.42571428571434  L 21.5742857142857 0  L 16.111591735008 5.46269292635818  C 16.5860612507262 5.76631245174612  17.0367877105966 6.12714022943269  17.454823740582 6.54517625941804  Z M 6.54517625941807 6.54517625941807  C 6.96321229033406 6.12714022850209  7.41393875128043 5.76631245013966  7.88841013777936 5.46269585206523  L 2.42571428571434 0  L 0 2.42571428571434  L 5.46269292635818 7.8884082649921  C 5.76631245174609 7.41393874927377  6.12714022943272 6.96321228940343  6.54517625941807 6.54517625941807  Z M 6.54517625941804 17.454823740582  C 6.12714022850209 17.036787709666  5.76631245013958 16.5860612487195  5.46269585206498 16.1115898622206  L 0 21.5742857142857  L 2.42571428571414 24  L 7.88840826499197 18.5373070736417  C 7.41393874927372 18.2336875482538  6.96321228940337 17.8728597705673  6.54517625941804 17.454823740582  Z " fill-rule="nonzero" fill="#7f7f7f" stroke="none" transform="matrix(1 0 0 1 1006 75 )" />
  </g>
</svg>