<?xml version="1.0" encoding="utf-8"?>
<svg version="1.1" xmlns:xlink="http://www.w3.org/1999/xlink" width="191px" height="47px" xmlns="http://www.w3.org/2000/svg">
  <defs>
    <mask fill="white" id="clip5">
      <path d="M 0 42  L 0 5  C 0 2.2  0.368596491228071 0  0.837719298245614 0  L 190.162280701754 0  C 190.631403508772 0  191 2.2  191 5  L 191 42  C 191 44.8  190.631403508772 47  190.162280701754 47  L 41.2157894736842 47  L 0.837719298245614 47  C 0.368596491228071 47  0 44.8  0 42  Z " fill-rule="evenodd" />
    </mask>
  </defs>
  <g transform="matrix(1 0 0 1 -939 -1491 )">
    <path d="M 0 42  L 0 5  C 0 2.2  0.368596491228071 0  0.837719298245614 0  L 190.162280701754 0  C 190.631403508772 0  191 2.2  191 5  L 191 42  C 191 44.8  190.631403508772 47  190.162280701754 47  L 41.2157894736842 47  L 0.837719298245614 47  C 0.368596491228071 47  0 44.8  0 42  Z " fill-rule="nonzero" fill="#027db4" stroke="none" transform="matrix(1 0 0 1 939 1491 )" />
    <path d="M 0 42  L 0 5  C 0 2.2  0.368596491228071 0  0.837719298245614 0  L 190.162280701754 0  C 190.631403508772 0  191 2.2  191 5  L 191 42  C 191 44.8  190.631403508772 47  190.162280701754 47  L 41.2157894736842 47  L 0.837719298245614 47  C 0.368596491228071 47  0 44.8  0 42  Z " stroke-width="2" stroke="#d7d7d7" fill="none" transform="matrix(1 0 0 1 939 1491 )" mask="url(#clip5)" />
  </g>
</svg>