<?xml version="1.0" encoding="utf-8"?>
<svg version="1.1" xmlns:xlink="http://www.w3.org/1999/xlink" width="450px" height="450px" xmlns="http://www.w3.org/2000/svg">
  <defs>
    <mask fill="white" id="clip305">
      <path d="M 450 225  C 450 351  351 450  225 450  C 99 450  0 351  0 225  C 0 99  99 0  225 0  C 351 0  450 99  450 225  Z M 83 225  C 83 304.52  145.48 367  225 367  C 304.52 367  367 304.52  367 225  C 367 145.48  304.52 83  225 83  C 145.48 83  83 145.48  83 225  Z " fill-rule="evenodd" />
    </mask>
  </defs>
  <g>
    <path d="M 450 225  C 450 351  351 450  225 450  C 99 450  0 351  0 225  C 0 99  99 0  225 0  C 351 0  450 99  450 225  Z M 83 225  C 83 304.52  145.48 367  225 367  C 304.52 367  367 304.52  367 225  C 367 145.48  304.52 83  225 83  C 145.48 83  83 145.48  83 225  Z " fill-rule="nonzero" fill="#fff15f" stroke="none" />
    <path d="M 450 225  C 450 351  351 450  225 450  C 99 450  0 351  0 225  C 0 99  99 0  225 0  C 351 0  450 99  450 225  Z " stroke-width="2" stroke="#ff6633" fill="none" mask="url(#clip305)" />
    <path d="M 83 225  C 83 304.52  145.48 367  225 367  C 304.52 367  367 304.52  367 225  C 367 145.48  304.52 83  225 83  C 145.48 83  83 145.48  83 225  Z " stroke-width="2" stroke="#ff6633" fill="none" mask="url(#clip305)" />
  </g>
</svg>