<?xml version="1.0" encoding="utf-8"?>
<svg version="1.1" xmlns:xlink="http://www.w3.org/1999/xlink" width="237px" height="170px" xmlns="http://www.w3.org/2000/svg">
  <defs>
    <mask fill="white" id="clip15">
      <path d="M 116.271396253281 150.417948440347  L 96.6633723467732 170  L 0 170  L 0.000169555541049249 56.6674716208372  C 26.9694177360064 21.9821646476794  69.2331516510057 0  117.5 0  C 166.975826072275 0  210.144041946822 23.0971652172138  237 59.2976059147713  L 237 170  L 139.680468920388 169.999861640101  L 120.072495149434 150.417948440347  C 119.008187458511 149.355055299785  117.335703944204 149.355055299785  116.271396253281 150.417948440347  Z " fill-rule="evenodd" />
    </mask>
  </defs>
  <g transform="matrix(1 0 0 1 -197 -5162 )">
    <path d="M 116.271396253281 150.417948440347  L 96.6633723467732 170  L 0 170  L 0.000169555541049249 56.6674716208372  C 26.9694177360064 21.9821646476794  69.2331516510057 0  117.5 0  C 166.975826072275 0  210.144041946822 23.0971652172138  237 59.2976059147713  L 237 170  L 139.680468920388 169.999861640101  L 120.072495149434 150.417948440347  C 119.008187458511 149.355055299785  117.335703944204 149.355055299785  116.271396253281 150.417948440347  Z " fill-rule="nonzero" fill="#81d3f8" stroke="none" transform="matrix(1 0 0 1 197 5162 )" />
    <path d="M 116.271396253281 150.417948440347  L 96.6633723467732 170  L 0 170  L 0.000169555541049249 56.6674716208372  C 26.9694177360064 21.9821646476794  69.2331516510057 0  117.5 0  C 166.975826072275 0  210.144041946822 23.0971652172138  237 59.2976059147713  L 237 170  L 139.680468920388 169.999861640101  L 120.072495149434 150.417948440347  C 119.008187458511 149.355055299785  117.335703944204 149.355055299785  116.271396253281 150.417948440347  Z " stroke-width="4" stroke="#fafefd" fill="none" transform="matrix(1 0 0 1 197 5162 )" mask="url(#clip15)" />
  </g>
</svg>