<?xml version="1.0" encoding="utf-8"?>
<svg version="1.1" xmlns:xlink="http://www.w3.org/1999/xlink" width="214px" height="217px" xmlns="http://www.w3.org/2000/svg">
  <defs>
    <mask fill="white" id="clip218">
      <path d="M 213.281071942175 43.6613099501995  C 196.847726784046 131.119302945425  131.177873980882 198.825105005563  45.5732695023086 216.77889698708  L 0.267766953388695 171.470816682571  L 0.267766952965795 0.474873734151615  L 170.091801609779 0.471960562634652  L 213.281071942175 43.6613099501995  Z " fill-rule="evenodd" />
    </mask>
  </defs>
  <g transform="matrix(1 0 0 1 -378 -5138 )">
    <path d="M 213.281071942175 43.6613099501995  C 196.847726784046 131.119302945425  131.177873980882 198.825105005563  45.5732695023086 216.77889698708  L 0.267766953388695 171.470816682571  L 0.267766952965795 0.474873734151615  L 170.091801609779 0.471960562634652  L 213.281071942175 43.6613099501995  Z " fill-rule="nonzero" fill="#81d3f8" stroke="none" transform="matrix(1 0 0 1 378 5138 )" />
    <path d="M 213.281071942175 43.6613099501995  C 196.847726784046 131.119302945425  131.177873980882 198.825105005563  45.5732695023086 216.77889698708  L 0.267766953388695 171.470816682571  L 0.267766952965795 0.474873734151615  L 170.091801609779 0.471960562634652  L 213.281071942175 43.6613099501995  Z " stroke-width="4" stroke="#fafefd" fill="none" transform="matrix(1 0 0 1 378 5138 )" mask="url(#clip218)" />
  </g>
</svg>