<?xml version="1.0" encoding="utf-8"?>
<svg version="1.1" xmlns:xlink="http://www.w3.org/1999/xlink" width="160px" height="160px" xmlns="http://www.w3.org/2000/svg">
  <g transform="matrix(1 0 0 1 -21 -21 )">
    <path d="M 101 21  C 145.8 21  181 56.2  181 101  C 181 145.8  145.8 181  101 181  C 56.2 181  21 145.8  21 101  C 21 56.2  56.2 21  101 21  Z " fill-rule="nonzero" fill="#ffffff" stroke="none" fill-opacity="0" />
    <path d="M 101 21.5  C 145.52 21.5  180.5 56.48  180.5 101  C 180.5 145.52  145.52 180.5  101 180.5  C 56.48 180.5  21.5 145.52  21.5 101  C 21.5 56.48  56.48 21.5  101 21.5  Z " stroke-width="1" stroke="#555555" fill="none" />
  </g>
</svg>