<?xml version="1.0" encoding="utf-8"?>
<svg version="1.1" xmlns:xlink="http://www.w3.org/1999/xlink" width="80px" height="80px" xmlns="http://www.w3.org/2000/svg">
  <g transform="matrix(1 0 0 1 -61 -61 )">
    <path d="M 101 61  C 123.4 61  141 78.6  141 101  C 141 123.4  123.4 141  101 141  C 78.6 141  61 123.4  61 101  C 61 78.6  78.6 61  101 61  Z " fill-rule="nonzero" fill="#ffffff" stroke="none" fill-opacity="0" />
    <path d="M 101 61.5  C 123.12 61.5  140.5 78.88  140.5 101  C 140.5 123.12  123.12 140.5  101 140.5  C 78.88 140.5  61.5 123.12  61.5 101  C 61.5 78.88  78.88 61.5  101 61.5  Z " stroke-width="1" stroke="#555555" fill="none" />
  </g>
</svg>