<?xml version="1.0" encoding="utf-8"?>
<svg version="1.1" xmlns:xlink="http://www.w3.org/1999/xlink" width="297px" height="255px" xmlns="http://www.w3.org/2000/svg">
  <defs>
    <mask fill="white" id="clip11">
      <path d="M 147.271396253281 150.417948440347  L 43.510723529642 254.04071502209  C 16.5167031482998 227.314161753753  0 190.05768091052  0 148.302631578947  C 0 65.2531578947368  65.34 0  148.5 0  C 231.66 0  297 65.2531578947368  297 148.302631578947  C 297 189.709727051849  280.757424411202 226.692916733311  254.161928831402 253.370367989298  L 151.072495149434 150.417948440347  C 150.008187458511 149.355055299785  148.335703944204 149.355055299785  147.271396253281 150.417948440347  Z " fill-rule="evenodd" />
    </mask>
  </defs>
  <g transform="matrix(1 0 0 1 -202 -3999 )">
    <path d="M 147.271396253281 150.417948440347  L 43.510723529642 254.04071502209  C 16.5167031482998 227.314161753753  0 190.05768091052  0 148.302631578947  C 0 65.2531578947368  65.34 0  148.5 0  C 231.66 0  297 65.2531578947368  297 148.302631578947  C 297 189.709727051849  280.757424411202 226.692916733311  254.161928831402 253.370367989298  L 151.072495149434 150.417948440347  C 150.008187458511 149.355055299785  148.335703944204 149.355055299785  147.271396253281 150.417948440347  Z " fill-rule="nonzero" fill="#81d3f8" stroke="none" transform="matrix(1 0 0 1 202 3999 )" />
    <path d="M 147.271396253281 150.417948440347  L 43.510723529642 254.04071502209  C 16.5167031482998 227.314161753753  0 190.05768091052  0 148.302631578947  C 0 65.2531578947368  65.34 0  148.5 0  C 231.66 0  297 65.2531578947368  297 148.302631578947  C 297 189.709727051849  280.757424411202 226.692916733311  254.161928831402 253.370367989298  L 151.072495149434 150.417948440347  C 150.008187458511 149.355055299785  148.335703944204 149.355055299785  147.271396253281 150.417948440347  Z " stroke-width="4" stroke="#fafefd" fill="none" transform="matrix(1 0 0 1 202 3999 )" mask="url(#clip11)" />
  </g>
</svg>