<?xml version="1.0" encoding="utf-8"?>
<svg version="1.1" xmlns:xlink="http://www.w3.org/1999/xlink" width="221px" height="242px" xmlns="http://www.w3.org/2000/svg">
  <defs>
    <mask fill="white" id="clip17">
      <path d="M 0.143614920144501 120.585786437627  L 120.225281511102 0.500000000000909  L 181.304189264621 0.500055900445659  C 231.526199381617 73.9623256152281  232.965832907376 168.273155614264  185.129484637928 241.499999999999  L 121.056005734659 241.498177251542  L 0.143614920144501 120.585786437627  Z " fill-rule="evenodd" />
    </mask>
  </defs>
  <g transform="matrix(1 0 0 1 -948 -5125 )">
    <path d="M 0.143614920144501 120.585786437627  L 120.225281511102 0.500000000000909  L 181.304189264621 0.500055900445659  C 231.526199381617 73.9623256152281  232.965832907376 168.273155614264  185.129484637928 241.499999999999  L 121.056005734659 241.498177251542  L 0.143614920144501 120.585786437627  Z " fill-rule="nonzero" fill="#81d3f8" stroke="none" transform="matrix(1 0 0 1 948 5125 )" />
    <path d="M 0.143614920144501 120.585786437627  L 120.225281511102 0.500000000000909  L 181.304189264621 0.500055900445659  C 231.526199381617 73.9623256152281  232.965832907376 168.273155614264  185.129484637928 241.499999999999  L 121.056005734659 241.498177251542  L 0.143614920144501 120.585786437627  Z " stroke-width="4" stroke="#fafefd" fill="none" transform="matrix(1 0 0 1 948 5125 )" mask="url(#clip17)" />
  </g>
</svg>