<?xml version="1.0" encoding="utf-8"?>
<svg version="1.1" xmlns:xlink="http://www.w3.org/1999/xlink" width="233px" height="200px" xmlns="http://www.w3.org/2000/svg">
  <defs>
    <mask fill="white" id="clip214">
      <path d="M 115.536145882204 117.974861521841  L 34.1346753616383 199.247619625168  C 12.9575482611241 178.285617061767  0 149.064847772957  0 116.315789473684  C 0 51.178947368421  51.26 0  116.5 0  C 181.74 0  233 51.178947368421  233 116.315789473684  C 233 148.791942785764  220.257508039765 177.798366065342  199.39302834248 198.721857246508  L 118.51815276033 117.974861521841  C 117.683190834455 117.141219842968  116.371107808079 117.141219842968  115.536145882204 117.974861521841  Z " fill-rule="evenodd" />
    </mask>
  </defs>
  <g transform="matrix(1 0 0 1 -189 -2603 )">
    <path d="M 115.536145882204 117.974861521841  L 34.1346753616383 199.247619625168  C 12.9575482611241 178.285617061767  0 149.064847772957  0 116.315789473684  C 0 51.178947368421  51.26 0  116.5 0  C 181.74 0  233 51.178947368421  233 116.315789473684  C 233 148.791942785764  220.257508039765 177.798366065342  199.39302834248 198.721857246508  L 118.51815276033 117.974861521841  C 117.683190834455 117.141219842968  116.371107808079 117.141219842968  115.536145882204 117.974861521841  Z " fill-rule="nonzero" fill="#81d3f8" stroke="none" transform="matrix(1 0 0 1 189 2603 )" />
    <path d="M 115.536145882204 117.974861521841  L 34.1346753616383 199.247619625168  C 12.9575482611241 178.285617061767  0 149.064847772957  0 116.315789473684  C 0 51.178947368421  51.26 0  116.5 0  C 181.74 0  233 51.178947368421  233 116.315789473684  C 233 148.791942785764  220.257508039765 177.798366065342  199.39302834248 198.721857246508  L 118.51815276033 117.974861521841  C 117.683190834455 117.141219842968  116.371107808079 117.141219842968  115.536145882204 117.974861521841  Z " stroke-width="4" stroke="#fafefd" fill="none" transform="matrix(1 0 0 1 189 2603 )" mask="url(#clip214)" />
  </g>
</svg>