<?xml version="1.0" encoding="utf-8"?>
<svg version="1.1" xmlns:xlink="http://www.w3.org/1999/xlink" width="351px" height="351px" xmlns="http://www.w3.org/2000/svg">
  <g transform="matrix(1 0 0 1 -45 -45 )">
    <path d="M 220.5 45  C 318.78 45  396 122.22  396 220.5  C 396 318.78  318.78 396  220.5 396  C 122.22 396  45 318.78  45 220.5  C 45 122.22  122.22 45  220.5 45  Z " fill-rule="nonzero" fill="#ffffff" stroke="none" fill-opacity="0" />
    <path d="M 220.5 45.5  C 318.5 45.5  395.5 122.5  395.5 220.5  C 395.5 318.5  318.5 395.5  220.5 395.5  C 122.5 395.5  45.5 318.5  45.5 220.5  C 45.5 122.5  122.5 45.5  220.5 45.5  Z " stroke-width="1" stroke="#555555" fill="none" />
  </g>
</svg>