<?xml version="1.0" encoding="utf-8"?>
<svg version="1.1" xmlns:xlink="http://www.w3.org/1999/xlink" width="175px" height="175px" xmlns="http://www.w3.org/2000/svg">
  <g transform="matrix(1 0 0 1 -133 -133 )">
    <path d="M 220.5 133  C 269.5 133  308 171.5  308 220.5  C 308 269.5  269.5 308  220.5 308  C 171.5 308  133 269.5  133 220.5  C 133 171.5  171.5 133  220.5 133  Z " fill-rule="nonzero" fill="#ffffff" stroke="none" fill-opacity="0" />
    <path d="M 220.5 133.5  C 269.22 133.5  307.5 171.78  307.5 220.5  C 307.5 269.22  269.22 307.5  220.5 307.5  C 171.78 307.5  133.5 269.22  133.5 220.5  C 133.5 171.78  171.78 133.5  220.5 133.5  Z " stroke-width="1" stroke="#555555" fill="none" />
  </g>
</svg>