<?xml version="1.0" encoding="utf-8"?>
<svg version="1.1" xmlns:xlink="http://www.w3.org/1999/xlink" width="116px" height="118px" xmlns="http://www.w3.org/2000/svg">
  <defs>
    <mask fill="white" id="clip13">
      <path d="M 0.194838328807965 117.999844277559  C 0.129906164067042 117.999948079933  0.0649600421880851 118  0.194838328807965 117.999844277559  Z M 0 117.9998442774  L 0 0  L 116 0  C 116 66.0139199573806  65.0620290259003 117.896145773008  0 117.9998442774  Z " fill-rule="evenodd" />
    </mask>
  </defs>
  <g transform="matrix(1 0 0 1 -550 -2726 )">
    <path d="M 0.194838328807965 117.999844277559  C 0.129906164067042 117.999948079933  0.0649600421880851 118  0.194838328807965 117.999844277559  Z M 0 117.9998442774  L 0 0  L 116 0  C 116 66.0139199573806  65.0620290259003 117.896145773008  0 117.9998442774  Z " fill-rule="nonzero" fill="#81d3f8" stroke="none" transform="matrix(1 0 0 1 550 2726 )" />
    <path d="M 0.194838328807965 117.999844277559  C 0.129906164067042 117.999948079933  0.0649600421880851 118  0.194838328807965 117.999844277559  Z " stroke-width="4" stroke="#fafefd" fill="none" transform="matrix(1 0 0 1 550 2726 )" mask="url(#clip13)" />
    <path d="M 0 117.9998442774  L 0 0  L 116 0  C 116 66.0139199573806  65.0620290259003 117.896145773008  0 117.9998442774  Z " stroke-width="4" stroke="#fafefd" fill="none" transform="matrix(1 0 0 1 550 2726 )" mask="url(#clip13)" />
  </g>
</svg>