<?xml version="1.0" encoding="utf-8"?>
<svg version="1.1" xmlns:xlink="http://www.w3.org/1999/xlink" width="217px" height="221px" xmlns="http://www.w3.org/2000/svg">
  <defs>
    <mask fill="white" id="clip14">
      <path d="M 0.364482046132141 220.999708350344  C 0.243014117263346 220.999902759875  0.121520078920814 221  0.364482046132141 220.999708350344  Z M 0 220.999708350047  L 0 0  L 217 0  C 217 123.636239920179  121.710864643279 220.805493354533  0 220.999708350047  Z " fill-rule="evenodd" />
    </mask>
  </defs>
  <g transform="matrix(1 0 0 1 -727 -3576 )">
    <path d="M 0.364482046132141 220.999708350344  C 0.243014117263346 220.999902759875  0.121520078920814 221  0.364482046132141 220.999708350344  Z M 0 220.999708350047  L 0 0  L 217 0  C 217 123.636239920179  121.710864643279 220.805493354533  0 220.999708350047  Z " fill-rule="nonzero" fill="#81d3f8" stroke="none" transform="matrix(1 0 0 1 727 3576 )" />
    <path d="M 0.364482046132141 220.999708350344  C 0.243014117263346 220.999902759875  0.121520078920814 221  0.364482046132141 220.999708350344  Z " stroke-width="4" stroke="#fafefd" fill="none" transform="matrix(1 0 0 1 727 3576 )" mask="url(#clip14)" />
    <path d="M 0 220.999708350047  L 0 0  L 217 0  C 217 123.636239920179  121.710864643279 220.805493354533  0 220.999708350047  Z " stroke-width="4" stroke="#fafefd" fill="none" transform="matrix(1 0 0 1 727 3576 )" mask="url(#clip14)" />
  </g>
</svg>