<?xml version="1.0" encoding="utf-8"?>
<svg version="1.1" xmlns:xlink="http://www.w3.org/1999/xlink" width="201px" height="201px" xmlns="http://www.w3.org/2000/svg">
  <g transform="matrix(1 0 0 1 -680 -8620 )">
    <path d="M 780.5 8621  C 836.22 8621  880 8664.78  880 8720.5  C 880 8776.22  836.22 8820  780.5 8820  C 724.78 8820  681 8776.22  681 8720.5  C 681 8664.78  724.78 8621  780.5 8621  Z " fill-rule="nonzero" fill="#7bb6c3" stroke="none" />
    <path d="M 780.5 8621  C 836.22 8621  880 8664.78  880 8720.5  C 880 8776.22  836.22 8820  780.5 8820  C 724.78 8820  681 8776.22  681 8720.5  C 681 8664.78  724.78 8621  780.5 8621  Z " stroke-width="2" stroke="#e9f9ff" fill="none" />
  </g>
</svg>