<?xml version="1.0" encoding="utf-8"?>
<svg version="1.1" xmlns:xlink="http://www.w3.org/1999/xlink" width="201px" height="201px" xmlns="http://www.w3.org/2000/svg">
  <g transform="matrix(1 0 0 1 -680 -8745 )">
    <path d="M 780.5 8746  C 836.22 8746  880 8789.78  880 8845.5  C 880 8901.22  836.22 8945  780.5 8945  C 724.78 8945  681 8901.22  681 8845.5  C 681 8789.78  724.78 8746  780.5 8746  Z " fill-rule="nonzero" fill="#7bb6c3" stroke="none" />
    <path d="M 780.5 8746  C 836.22 8746  880 8789.78  880 8845.5  C 880 8901.22  836.22 8945  780.5 8945  C 724.78 8945  681 8901.22  681 8845.5  C 681 8789.78  724.78 8746  780.5 8746  Z " stroke-width="2" stroke="#e9f9ff" fill="none" />
  </g>
</svg>