<?xml version="1.0" encoding="utf-8"?>
<svg version="1.1" xmlns:xlink="http://www.w3.org/1999/xlink" width="201px" height="181px" xmlns="http://www.w3.org/2000/svg">
  <defs>
    <mask fill="white" id="clip153">
      <path d="M 161.38845665415 181  L 39.6115464828487 180.999058846287  C 15.4089353029128 162.791315004979  0 133.76262127217  0 100.530226700252  C 0 44.2332997481108  44.22 0  100.5 0  C 156.78 0  201 44.2332997481108  201 100.530226700252  C 201 133.76262127217  185.591064697087 162.791315004979  161.38845665415 181  Z " fill-rule="evenodd" />
    </mask>
  </defs>
  <g transform="matrix(1 0 0 1 -929 -6495 )">
    <path d="M 161.38845665415 181  L 39.6115464828487 180.999058846287  C 15.4089353029128 162.791315004979  0 133.76262127217  0 100.530226700252  C 0 44.2332997481108  44.22 0  100.5 0  C 156.78 0  201 44.2332997481108  201 100.530226700252  C 201 133.76262127217  185.591064697087 162.791315004979  161.38845665415 181  Z " fill-rule="nonzero" fill="#7bb6c3" stroke="none" transform="matrix(1 0 0 1 929 6495 )" />
    <path d="M 161.38845665415 181  L 39.6115464828487 180.999058846287  C 15.4089353029128 162.791315004979  0 133.76262127217  0 100.530226700252  C 0 44.2332997481108  44.22 0  100.5 0  C 156.78 0  201 44.2332997481108  201 100.530226700252  C 201 133.76262127217  185.591064697087 162.791315004979  161.38845665415 181  Z " stroke-width="4" stroke="#e9f9ff" fill="none" transform="matrix(1 0 0 1 929 6495 )" mask="url(#clip153)" />
  </g>
</svg>