<?xml version="1.0" encoding="utf-8"?>
<svg version="1.1" xmlns:xlink="http://www.w3.org/1999/xlink" width="441px" height="397px" xmlns="http://www.w3.org/2000/svg">
  <defs>
    <mask fill="white" id="clip197">
      <path d="M 354.091091465076 397  L 86.9089154175934 396.997935701524  C 33.8076640228086 357.061613574458  0 293.390942790339  0 220.5  C 0 97.02  97.02 0  220.5 0  C 343.98 0  441 97.02  441 220.5  C 441 293.390942790339  407.192335977191 357.061613574458  354.091091465076 397  Z " fill-rule="evenodd" />
    </mask>
  </defs>
  <g transform="matrix(1 0 0 1 -706 -2920 )">
    <path d="M 354.091091465076 397  L 86.9089154175934 396.997935701524  C 33.8076640228086 357.061613574458  0 293.390942790339  0 220.5  C 0 97.02  97.02 0  220.5 0  C 343.98 0  441 97.02  441 220.5  C 441 293.390942790339  407.192335977191 357.061613574458  354.091091465076 397  Z " fill-rule="nonzero" fill="#7bb6c3" stroke="none" transform="matrix(1 0 0 1 706 2920 )" />
    <path d="M 354.091091465076 397  L 86.9089154175934 396.997935701524  C 33.8076640228086 357.061613574458  0 293.390942790339  0 220.5  C 0 97.02  97.02 0  220.5 0  C 343.98 0  441 97.02  441 220.5  C 441 293.390942790339  407.192335977191 357.061613574458  354.091091465076 397  Z " stroke-width="4" stroke="#e9f9ff" fill="none" transform="matrix(1 0 0 1 706 2920 )" mask="url(#clip197)" />
  </g>
</svg>