<?xml version="1.0" encoding="utf-8"?>
<svg version="1.1" xmlns:xlink="http://www.w3.org/1999/xlink" width="930px" height="355px" xmlns="http://www.w3.org/2000/svg">
  <defs>
    <mask fill="white" id="clip358">
      <path d="M 930 5  L 930 350  C 930 352.8  927.8 355  925 355  L 5 355  C 2.19999999999999 355  0 352.8  0 350  L 0 5  C 0 2.19999999999982  2.19999999999999 0  5 0  L 925 0  C 927.8 0  930 2.19999999999982  930 5  Z M 29 105  C 26.2 105  24 107.2  24 110  L 24 336  C 24 338.8  26.2 341  29 341  L 494 341  C 496.8 341  499 338.8  499 336  L 499 110  C 499 107.2  496.8 105  494 105  L 29 105  Z M 692 227  C 692 229.8  694.2 232  697 232  L 910 232  C 912.8 232  915 229.8  915 227  L 915 120  C 915 117.2  912.8 115  910 115  L 697 115  C 694.2 115  692 117.2  692 120  L 692 227  Z " fill-rule="evenodd" />
    </mask>
  </defs>
  <g transform="matrix(1 0 0 1 -190 -4358 )">
    <path d="M 930 5  L 930 350  C 930 352.8  927.8 355  925 355  L 5 355  C 2.19999999999999 355  0 352.8  0 350  L 0 5  C 0 2.19999999999982  2.19999999999999 0  5 0  L 925 0  C 927.8 0  930 2.19999999999982  930 5  Z M 29 105  C 26.2 105  24 107.2  24 110  L 24 336  C 24 338.8  26.2 341  29 341  L 494 341  C 496.8 341  499 338.8  499 336  L 499 110  C 499 107.2  496.8 105  494 105  L 29 105  Z M 692 227  C 692 229.8  694.2 232  697 232  L 910 232  C 912.8 232  915 229.8  915 227  L 915 120  C 915 117.2  912.8 115  910 115  L 697 115  C 694.2 115  692 117.2  692 120  L 692 227  Z " fill-rule="nonzero" fill="#000000" stroke="none" fill-opacity="0.996078431372549" transform="matrix(1 0 0 1 190 4358 )" />
    <path d="M 930 5  L 930 350  C 930 352.8  927.8 355  925 355  L 5 355  C 2.19999999999999 355  0 352.8  0 350  L 0 5  C 0 2.19999999999982  2.19999999999999 0  5 0  L 925 0  C 927.8 0  930 2.19999999999982  930 5  Z " stroke-width="2" stroke="#f2f2f2" fill="none" transform="matrix(1 0 0 1 190 4358 )" mask="url(#clip358)" />
    <path d="M 29 105  C 26.2 105  24 107.2  24 110  L 24 336  C 24 338.8  26.2 341  29 341  L 494 341  C 496.8 341  499 338.8  499 336  L 499 110  C 499 107.2  496.8 105  494 105  L 29 105  Z " stroke-width="2" stroke="#f2f2f2" fill="none" transform="matrix(1 0 0 1 190 4358 )" mask="url(#clip358)" />
    <path d="M 692 227  C 692 229.8  694.2 232  697 232  L 910 232  C 912.8 232  915 229.8  915 227  L 915 120  C 915 117.2  912.8 115  910 115  L 697 115  C 694.2 115  692 117.2  692 120  L 692 227  Z " stroke-width="2" stroke="#f2f2f2" fill="none" transform="matrix(1 0 0 1 190 4358 )" mask="url(#clip358)" />
  </g>
</svg>