<?xml version="1.0" encoding="utf-8"?>
<svg version="1.1" xmlns:xlink="http://www.w3.org/1999/xlink" width="20px" height="27px" xmlns="http://www.w3.org/2000/svg">
  <defs>
    <mask fill="white" id="clip116">
      <path d="M 0 18.140625  C 0 13.179375  4.4 0.14021501457726  10 0.14021501457726  C 15.6 0.14021501457726  20 13.179375  20 18.140625  C 20 23.101875  15.6 27  10 27  C 4.4 27  0 23.101875  0 18.140625  Z " fill-rule="evenodd" />
    </mask>
  </defs>
  <g>
    <path d="M 0 18.140625  C 0 13.179375  4.4 0.14021501457726  10 0.14021501457726  C 15.6 0.14021501457726  20 13.179375  20 18.140625  C 20 23.101875  15.6 27  10 27  C 4.4 27  0 23.101875  0 18.140625  Z " fill-rule="nonzero" fill="#f59a23" stroke="none" />
    <path d="M 0 18.140625  C 0 13.179375  4.4 0.14021501457726  10 0.14021501457726  C 15.6 0.14021501457726  20 13.179375  20 18.140625  C 20 23.101875  15.6 27  10 27  C 4.4 27  0 23.101875  0 18.140625  Z " stroke-width="2" stroke="#d7d7d7" fill="none" mask="url(#clip116)" />
  </g>
</svg>