<?xml version="1.0" encoding="utf-8"?>
<svg version="1.1" xmlns:xlink="http://www.w3.org/1999/xlink" width="193px" height="193px" xmlns="http://www.w3.org/2000/svg">
  <g transform="matrix(1 0 0 1 -262 -10679 )">
    <path d="M 358.5 10680  C 411.98 10680  454 10722.02  454 10775.5  C 454 10828.98  411.98 10871  358.5 10871  C 305.02 10871  263 10828.98  263 10775.5  C 263 10722.02  305.02 10680  358.5 10680  Z " fill-rule="nonzero" fill="#ff6633" stroke="none" />
    <path d="M 358.5 10680  C 411.98 10680  454 10722.02  454 10775.5  C 454 10828.98  411.98 10871  358.5 10871  C 305.02 10871  263 10828.98  263 10775.5  C 263 10722.02  305.02 10680  358.5 10680  Z " stroke-width="2" stroke="#ff0000" fill="none" />
  </g>
</svg>