<?xml version="1.0" encoding="utf-8"?>
<svg version="1.1" xmlns:xlink="http://www.w3.org/1999/xlink" width="226px" height="226px" xmlns="http://www.w3.org/2000/svg">
  <g transform="matrix(1 0 0 1 -324 -1735 )">
    <path d="M 437 1736  C 499.72 1736  549 1785.28  549 1848  C 549 1910.72  499.72 1960  437 1960  C 374.28 1960  325 1910.72  325 1848  C 325 1785.28  374.28 1736  437 1736  Z " fill-rule="nonzero" fill="#ff6633" stroke="none" />
    <path d="M 437 1736  C 499.72 1736  549 1785.28  549 1848  C 549 1910.72  499.72 1960  437 1960  C 374.28 1960  325 1910.72  325 1848  C 325 1785.28  374.28 1736  437 1736  Z " stroke-width="2" stroke="#ff0000" fill="none" />
  </g>
</svg>