<?xml version="1.0" encoding="utf-8"?>
<svg version="1.1" xmlns:xlink="http://www.w3.org/1999/xlink" width="254px" height="341px" xmlns="http://www.w3.org/2000/svg">
  <defs>
    <mask fill="white" id="clip27">
      <path d="M 0 99.5  C 0 66.6751718203668  5.94010003370306 35.4703709226524  16.8253122112776 6.88058484645353  C 33.0326225878743 2.39270919826959  50.1900327669003 0  68 0  C 172.16 0  254 81.8400000000001  254 186  C 254 251.266045584445  221.867961536825 307.768807951661  172.246609757468 340.86556144748  C 71.1703394929385 307.330072701535  0 213.12008264526  0 99.5  Z " fill-rule="evenodd" />
    </mask>
  </defs>
  <g transform="matrix(1 0 0 1 -300 -5559 )">
    <path d="M 0 99.5  C 0 66.6751718203668  5.94010003370306 35.4703709226524  16.8253122112776 6.88058484645353  C 33.0326225878743 2.39270919826959  50.1900327669003 0  68 0  C 172.16 0  254 81.8400000000001  254 186  C 254 251.266045584445  221.867961536825 307.768807951661  172.246609757468 340.86556144748  C 71.1703394929385 307.330072701535  0 213.12008264526  0 99.5  Z " fill-rule="nonzero" fill="#ff9933" stroke="none" transform="matrix(1 0 0 1 300 5559 )" />
    <path d="M 0 99.5  C 0 66.6751718203668  5.94010003370306 35.4703709226524  16.8253122112776 6.88058484645353  C 33.0326225878743 2.39270919826959  50.1900327669003 0  68 0  C 172.16 0  254 81.8400000000001  254 186  C 254 251.266045584445  221.867961536825 307.768807951661  172.246609757468 340.86556144748  C 71.1703394929385 307.330072701535  0 213.12008264526  0 99.5  Z " stroke-width="4" stroke="#ff0000" fill="none" transform="matrix(1 0 0 1 300 5559 )" mask="url(#clip27)" />
  </g>
</svg>