<?xml version="1.0" encoding="utf-8"?>
<svg version="1.1" xmlns:xlink="http://www.w3.org/1999/xlink" width="110px" height="110px" xmlns="http://www.w3.org/2000/svg">
  <g transform="matrix(1 0 0 1 -721 -1797 )">
    <path d="M 776 1797  C 806.8 1797  831 1821.2  831 1852  C 831 1882.8  806.8 1907  776 1907  C 745.2 1907  721 1882.8  721 1852  C 721 1821.2  745.2 1797  776 1797  Z " fill-rule="nonzero" fill="#ffffff" stroke="none" />
    <path d="M 776 1797.5  C 806.52 1797.5  830.5 1821.48  830.5 1852  C 830.5 1882.52  806.52 1906.5  776 1906.5  C 745.48 1906.5  721.5 1882.52  721.5 1852  C 721.5 1821.48  745.48 1797.5  776 1797.5  Z " stroke-width="1" stroke="#797979" fill="none" />
  </g>
</svg>