<?xml version="1.0" encoding="utf-8"?>
<svg version="1.1" xmlns:xlink="http://www.w3.org/1999/xlink" width="24px" height="24px" xmlns="http://www.w3.org/2000/svg">
  <g transform="matrix(1 0 0 1 -806 -4452 )">
    <path d="M 818 4452  C 824.72 4452  830 4457.28  830 4464  C 830 4470.72  824.72 4476  818 4476  C 811.28 4476  806 4470.72  806 4464  C 806 4457.28  811.28 4452  818 4452  Z " fill-rule="nonzero" fill="#ffff33" stroke="none" />
    <path d="M 818 4452.5  C 824.44 4452.5  829.5 4457.56  829.5 4464  C 829.5 4470.44  824.44 4475.5  818 4475.5  C 811.56 4475.5  806.5 4470.44  806.5 4464  C 806.5 4457.56  811.56 4452.5  818 4452.5  Z " stroke-width="1" stroke="#999999" fill="none" />
  </g>
</svg>