<?xml version="1.0" encoding="utf-8"?>
<svg version="1.1" xmlns:xlink="http://www.w3.org/1999/xlink" width="229px" height="229px" xmlns="http://www.w3.org/2000/svg">
  <g transform="matrix(1 0 0 1 -831 -3096 )">
    <path d="M 945.5 3096  C 1009.62 3096  1060 3146.38  1060 3210.5  C 1060 3274.62  1009.62 3325  945.5 3325  C 881.38 3325  831 3274.62  831 3210.5  C 831 3146.38  881.38 3096  945.5 3096  Z " fill-rule="nonzero" fill="#ffffff" stroke="none" />
    <path d="M 945.5 3096.5  C 1009.34 3096.5  1059.5 3146.66  1059.5 3210.5  C 1059.5 3274.34  1009.34 3324.5  945.5 3324.5  C 881.66 3324.5  831.5 3274.34  831.5 3210.5  C 831.5 3146.66  881.66 3096.5  945.5 3096.5  Z " stroke-width="1" stroke="#797979" fill="none" />
  </g>
</svg>