<?xml version="1.0" encoding="utf-8"?>
<svg version="1.1" xmlns:xlink="http://www.w3.org/1999/xlink" width="24px" height="24px" xmlns="http://www.w3.org/2000/svg">
  <g transform="matrix(1 0 0 1 -806 -4461 )">
    <path d="M 818 4461  C 824.72 4461  830 4466.28  830 4473  C 830 4479.72  824.72 4485  818 4485  C 811.28 4485  806 4479.72  806 4473  C 806 4466.28  811.28 4461  818 4461  Z " fill-rule="nonzero" fill="#ffff33" stroke="none" />
    <path d="M 818 4461.5  C 824.44 4461.5  829.5 4466.56  829.5 4473  C 829.5 4479.44  824.44 4484.5  818 4484.5  C 811.56 4484.5  806.5 4479.44  806.5 4473  C 806.5 4466.56  811.56 4461.5  818 4461.5  Z " stroke-width="1" stroke="#999999" fill="none" />
  </g>
</svg>