<?xml version="1.0" encoding="utf-8"?>
<svg version="1.1" xmlns:xlink="http://www.w3.org/1999/xlink" width="20px" height="26px" xmlns="http://www.w3.org/2000/svg">
  <g>
    <path d="M 10 25.0531965685503  C 6.2 18.9173517344925  0.5 15.2358448340578  0.5 9.1  C 0.5 5.90571428571428  2.4 0.500000000000001  10 0.500000000000001  C 17.6 0.500000000000001  19.5 5.90571428571428  19.5 9.1  C 19.5 15.2358448340578  13.8 18.9173517344925  10 25.0531965685503  Z " fill-rule="nonzero" fill="#6d000e" stroke="none" />
    <path d="M 10 26  C 6 19.5  0 15.6  0 9.1  C 0 5.72  2 0  10 0  C 18 0  20 5.72  20 9.1  C 20 15.6  14 19.5  10 26  Z M 10 24.1063931371007  C 13.6 18.334703468985  19 14.8716896681156  19 9.1  C 19 6.09142857142857  17.2 0.999999999999999  10 0.999999999999999  C 2.8 0.999999999999999  1 6.09142857142857  1 9.1  C 1 14.8716896681156  6.4 18.334703468985  10 24.1063931371007  Z " fill-rule="nonzero" fill="#ffffff" stroke="none" />
  </g>
</svg>