<?xml version="1.0" encoding="utf-8"?>
<svg version="1.1" xmlns:xlink="http://www.w3.org/1999/xlink" width="235px" height="235px" xmlns="http://www.w3.org/2000/svg">
  <g transform="matrix(1 0 0 1 -103 -103 )">
    <path d="M 220.5 103  C 286.3 103  338 154.7  338 220.5  C 338 286.3  286.3 338  220.5 338  C 154.7 338  103 286.3  103 220.5  C 103 154.7  154.7 103  220.5 103  Z " fill-rule="nonzero" fill="#ffffff" stroke="none" fill-opacity="0" />
    <path d="M 220.5 103.5  C 286.02 103.5  337.5 154.98  337.5 220.5  C 337.5 286.02  286.02 337.5  220.5 337.5  C 154.98 337.5  103.5 286.02  103.5 220.5  C 103.5 154.98  154.98 103.5  220.5 103.5  Z " stroke-width="1" stroke="#555555" fill="none" />
  </g>
</svg>