<?xml version="1.0" encoding="utf-8"?>
<svg version="1.1" xmlns:xlink="http://www.w3.org/1999/xlink" width="85px" height="85px" xmlns="http://www.w3.org/2000/svg">
  <g transform="matrix(1 0 0 1 -178 -239 )">
    <path d="M 220.5 239  C 244.3 239  263 257.7  263 281.5  C 263 305.3  244.3 324  220.5 324  C 196.7 324  178 305.3  178 281.5  C 178 257.7  196.7 239  220.5 239  Z " fill-rule="nonzero" fill="#ffffff" stroke="none" fill-opacity="0" />
    <path d="M 220.5 239.5  C 244.02 239.5  262.5 257.98  262.5 281.5  C 262.5 305.02  244.02 323.5  220.5 323.5  C 196.98 323.5  178.5 305.02  178.5 281.5  C 178.5 257.98  196.98 239.5  220.5 239.5  Z " stroke-width="1" stroke="#555555" fill="none" />
  </g>
</svg>