<?xml version="1.0" encoding="utf-8"?>
<svg version="1.1" xmlns:xlink="http://www.w3.org/1999/xlink" width="8px" height="8px" xmlns="http://www.w3.org/2000/svg">
  <g transform="matrix(1 0 0 1 -216 -380 )">
    <path d="M 220 380  C 222.24 380  224 381.76  224 384  C 224 386.24  222.24 388  220 388  C 217.76 388  216 386.24  216 384  C 216 381.76  217.76 380  220 380  Z " fill-rule="nonzero" fill="#ffffff" stroke="none" fill-opacity="0" />
    <path d="M 220 380.5  C 221.96 380.5  223.5 382.04  223.5 384  C 223.5 385.96  221.96 387.5  220 387.5  C 218.04 387.5  216.5 385.96  216.5 384  C 216.5 382.04  218.04 380.5  220 380.5  Z " stroke-width="1" stroke="#555555" fill="none" />
  </g>
</svg>