<?xml version="1.0" encoding="utf-8"?>
<svg version="1.1" xmlns:xlink="http://www.w3.org/1999/xlink" width="273px" height="273px" xmlns="http://www.w3.org/2000/svg">
  <g transform="matrix(1 0 0 1 -84 -84 )">
    <path d="M 220.5 84  C 296.94 84  357 144.06  357 220.5  C 357 296.94  296.94 357  220.5 357  C 144.06 357  84 296.94  84 220.5  C 84 144.06  144.06 84  220.5 84  Z " fill-rule="nonzero" fill="#ffffff" stroke="none" fill-opacity="0" />
    <path d="M 220.5 84.5  C 296.66 84.5  356.5 144.34  356.5 220.5  C 356.5 296.66  296.66 356.5  220.5 356.5  C 144.34 356.5  84.5 296.66  84.5 220.5  C 84.5 144.34  144.34 84.5  220.5 84.5  Z " stroke-width="1" stroke="#555555" fill="none" />
  </g>
</svg>