<?xml version="1.0" encoding="utf-8"?>
<svg version="1.1" xmlns:xlink="http://www.w3.org/1999/xlink" width="15px" height="15px" xmlns="http://www.w3.org/2000/svg">
  <g transform="matrix(1 0 0 1 -213 -274 )">
    <path d="M 220.5 274  C 224.7 274  228 277.3  228 281.5  C 228 285.7  224.7 289  220.5 289  C 216.3 289  213 285.7  213 281.5  C 213 277.3  216.3 274  220.5 274  Z " fill-rule="nonzero" fill="#ffffff" stroke="none" fill-opacity="0" />
    <path d="M 220.5 274.5  C 224.42 274.5  227.5 277.58  227.5 281.5  C 227.5 285.42  224.42 288.5  220.5 288.5  C 216.58 288.5  213.5 285.42  213.5 281.5  C 213.5 277.58  216.58 274.5  220.5 274.5  Z " stroke-width="1" stroke="#555555" fill="none" />
  </g>
</svg>