<?xml version="1.0" encoding="utf-8"?>
<svg version="1.1" xmlns:xlink="http://www.w3.org/1999/xlink" width="16px" height="21px" xmlns="http://www.w3.org/2000/svg">
  <g>
    <path d="M 8 20.0470960309766  C 5 15.163597557524  0.5 12.2334984734525  0.5 7.35  C 0.5 4.80571428571429  2 0.500000000000001  8 0.500000000000001  C 14 0.500000000000001  15.5 4.80571428571429  15.5 7.35  C 15.5 12.2334984734525  11 15.163597557524  8 20.0470960309766  Z " fill-rule="nonzero" fill="#303cd0" stroke="none" />
    <path d="M 8 21  C 4.8 15.75  0 12.6  0 7.35  C 0 4.62  1.6 0  8 0  C 14.4 0  16 4.62  16 7.35  C 16 12.6  11.2 15.75  8 21  Z M 8 19.0941920619531  C 10.8 14.5771951150481  15 11.866996946905  15 7.35  C 15 4.99142857142857  13.6 1  8 1  C 2.4 1  1 4.99142857142857  1 7.35  C 1 11.866996946905  5.2 14.5771951150481  8 19.0941920619531  Z " fill-rule="nonzero" fill="#f2f2f2" stroke="none" />
  </g>
</svg>