<?xml version="1.0" encoding="utf-8"?>
<svg version="1.1" xmlns:xlink="http://www.w3.org/1999/xlink" width="441px" height="441px" xmlns="http://www.w3.org/2000/svg">
  <defs>
    <mask fill="white" id="clip54">
      <path d="M 441 220.5  C 441 343.98  343.98 441  220.5 441  C 97.02 441  0 343.98  0 220.5  C 0 97.0200000000004  97.02 0  220.5 0  C 343.98 0  441 97.0200000000004  441 220.5  Z M 160 220.5  C 160 254.38  186.62 281  220.5 281  C 254.38 281  281 254.38  281 220.5  C 281 186.62  254.38 160  220.5 160  C 186.62 160  160 186.62  160 220.5  Z " fill-rule="evenodd" />
    </mask>
  </defs>
  <g>
    <path d="M 441 220.5  C 441 343.98  343.98 441  220.5 441  C 97.02 441  0 343.98  0 220.5  C 0 97.0200000000004  97.02 0  220.5 0  C 343.98 0  441 97.0200000000004  441 220.5  Z M 160 220.5  C 160 254.38  186.62 281  220.5 281  C 254.38 281  281 254.38  281 220.5  C 281 186.62  254.38 160  220.5 160  C 186.62 160  160 186.62  160 220.5  Z " fill-rule="nonzero" fill="#6d000e" stroke="none" />
    <path d="M 441 220.5  C 441 343.98  343.98 441  220.5 441  C 97.02 441  0 343.98  0 220.5  C 0 97.0200000000004  97.02 0  220.5 0  C 343.98 0  441 97.0200000000004  441 220.5  Z " stroke-width="2" stroke="#ec808d" fill="none" mask="url(#clip54)" />
    <path d="M 160 220.5  C 160 254.38  186.62 281  220.5 281  C 254.38 281  281 254.38  281 220.5  C 281 186.62  254.38 160  220.5 160  C 186.62 160  160 186.62  160 220.5  Z " stroke-width="2" stroke="#ec808d" fill="none" mask="url(#clip54)" />
  </g>
</svg>