<?xml version="1.0" encoding="utf-8"?>
<svg version="1.1" xmlns:xlink="http://www.w3.org/1999/xlink" width="18px" height="6px" xmlns="http://www.w3.org/2000/svg">
  <g transform="matrix(1 0 0 1 -961 -15474 )">
    <path d="M 17.8196392785571 0.618556701030928  C 17.939879759519 0.687285223367696  18 0.766323024054982  18 0.855670103092784  C 18 0.945017182130584  17.939879759519 1.02405498281787  17.8196392785571 1.09278350515464  L 9.41482965931864 5.89690721649484  C 9.29458917835671 5.96563573883161  9.1563126252505 6  9 6  C 8.8436873747495 6  8.70541082164329 5.96563573883161  8.58517034068136 5.89690721649484  L 0.180360721442886 1.09278350515464  C 0.0601202404809621 1.02405498281787  0 0.945017182130584  0 0.855670103092784  C 0 0.766323024054982  0.0601202404809621 0.687285223367696  0.180360721442886 0.618556701030928  L 1.08216432865731 0.103092783505155  C 1.20240480961924 0.0343642611683841  1.34068136272545 0  1.49699398797595 0  C 1.65330661322645 0  1.79158316633267 0.0343642611683841  1.91182364729459 0.103092783505155  L 9 4.15463917525773  L 16.0881763527054 0.103092783505155  C 16.2084168336673 0.0343642611683841  16.3466933867735 0  16.503006012024 0  C 16.6593186372746 0  16.7975951903808 0.0343642611683841  16.9178356713427 0.103092783505155  L 17.8196392785571 0.618556701030928  Z " fill-rule="nonzero" fill="#f92e47" stroke="none" transform="matrix(1 0 0 1 961 15474 )" />
  </g>
</svg>