<?xml version="1.0" encoding="utf-8"?>
<svg version="1.1" xmlns:xlink="http://www.w3.org/1999/xlink" width="45px" height="45px" xmlns="http://www.w3.org/2000/svg">
  <g transform="matrix(1 0 0 1 -923 -11085 )">
    <path d="M 945.5 11089  C 955.86 11089  964 11097.14  964 11107.5  C 964 11117.86  955.86 11126  945.5 11126  C 935.14 11126  927 11117.86  927 11107.5  C 927 11097.14  935.14 11089  945.5 11089  Z " fill-rule="nonzero" fill="#ffffff" stroke="none" />
    <path d="M 945.5 11087.5  C 956.7 11087.5  965.5 11096.3  965.5 11107.5  C 965.5 11118.7  956.7 11127.5  945.5 11127.5  C 934.3 11127.5  925.5 11118.7  925.5 11107.5  C 925.5 11096.3  934.3 11087.5  945.5 11087.5  Z " stroke-width="5" stroke="#ffffff" fill="none" />
  </g>
</svg>