<?xml version="1.0" encoding="utf-8"?>
<svg version="1.1" xmlns:xlink="http://www.w3.org/1999/xlink" width="109px" height="109px" xmlns="http://www.w3.org/2000/svg">
  <g transform="matrix(1 0 0 1 -890 -11053 )">
    <path d="M 944.5 11053  C 975.02 11053  999 11076.98  999 11107.5  C 999 11138.02  975.02 11162  944.5 11162  C 913.98 11162  890 11138.02  890 11107.5  C 890 11076.98  913.98 11053  944.5 11053  Z " fill-rule="nonzero" fill="#ffffff" stroke="none" fill-opacity="0" />
    <path d="M 944.5 11053.5  C 974.74 11053.5  998.5 11077.26  998.5 11107.5  C 998.5 11137.74  974.74 11161.5  944.5 11161.5  C 914.26 11161.5  890.5 11137.74  890.5 11107.5  C 890.5 11077.26  914.26 11053.5  944.5 11053.5  Z " stroke-width="1" stroke="#ffffff" fill="none" />
  </g>
</svg>