<?xml version="1.0" encoding="utf-8"?>
<svg version="1.1" xmlns:xlink="http://www.w3.org/1999/xlink" width="266px" height="266px" xmlns="http://www.w3.org/2000/svg">
  <g transform="matrix(1 0 0 1 -811 -10974 )">
    <path d="M 944 10978  C 1016.24 10978  1073 11034.76  1073 11107  C 1073 11179.24  1016.24 11236  944 11236  C 871.76 11236  815 11179.24  815 11107  C 815 11034.76  871.76 10978  944 10978  Z " fill-rule="nonzero" fill="#66ccff" stroke="none" />
    <path d="M 944 10976.5  C 1017.08 10976.5  1074.5 11033.92  1074.5 11107  C 1074.5 11180.08  1017.08 11237.5  944 11237.5  C 870.92 11237.5  813.5 11180.08  813.5 11107  C 813.5 11033.92  870.92 10976.5  944 10976.5  Z " stroke-width="5" stroke="#6666ff" fill="none" />
  </g>
</svg>