<?xml version="1.0" encoding="utf-8"?>
<svg version="1.1" xmlns:xlink="http://www.w3.org/1999/xlink" width="109px" height="109px" xmlns="http://www.w3.org/2000/svg">
  <g transform="matrix(1 0 0 1 -500 -11154 )">
    <path d="M 554.5 11154  C 585.02 11154  609 11177.98  609 11208.5  C 609 11239.02  585.02 11263  554.5 11263  C 523.98 11263  500 11239.02  500 11208.5  C 500 11177.98  523.98 11154  554.5 11154  Z " fill-rule="nonzero" fill="#ffffff" stroke="none" fill-opacity="0" />
    <path d="M 554.5 11154.5  C 584.74 11154.5  608.5 11178.26  608.5 11208.5  C 608.5 11238.74  584.74 11262.5  554.5 11262.5  C 524.26 11262.5  500.5 11238.74  500.5 11208.5  C 500.5 11178.26  524.26 11154.5  554.5 11154.5  Z " stroke-width="1" stroke="#ffffff" fill="none" />
  </g>
</svg>