<?xml version="1.0" encoding="utf-8"?>
<svg version="1.1" xmlns:xlink="http://www.w3.org/1999/xlink" width="45px" height="45px" xmlns="http://www.w3.org/2000/svg">
  <g transform="matrix(1 0 0 1 -533 -11186 )">
    <path d="M 555.5 11190  C 565.86 11190  574 11198.14  574 11208.5  C 574 11218.86  565.86 11227  555.5 11227  C 545.14 11227  537 11218.86  537 11208.5  C 537 11198.14  545.14 11190  555.5 11190  Z " fill-rule="nonzero" fill="#ffffff" stroke="none" />
    <path d="M 555.5 11188.5  C 566.7 11188.5  575.5 11197.3  575.5 11208.5  C 575.5 11219.7  566.7 11228.5  555.5 11228.5  C 544.3 11228.5  535.5 11219.7  535.5 11208.5  C 535.5 11197.3  544.3 11188.5  555.5 11188.5  Z " stroke-width="5" stroke="#ffffff" fill="none" />
  </g>
</svg>