<?xml version="1.0" encoding="utf-8"?>
<svg version="1.1" xmlns:xlink="http://www.w3.org/1999/xlink" width="266px" height="266px" xmlns="http://www.w3.org/2000/svg">
  <g transform="matrix(1 0 0 1 -421 -11075 )">
    <path d="M 554 11079  C 626.24 11079  683 11135.76  683 11208  C 683 11280.24  626.24 11337  554 11337  C 481.76 11337  425 11280.24  425 11208  C 425 11135.76  481.76 11079  554 11079  Z " fill-rule="nonzero" fill="#66ccff" stroke="none" />
    <path d="M 554 11077.5  C 627.08 11077.5  684.5 11134.92  684.5 11208  C 684.5 11281.08  627.08 11338.5  554 11338.5  C 480.92 11338.5  423.5 11281.08  423.5 11208  C 423.5 11134.92  480.92 11077.5  554 11077.5  Z " stroke-width="5" stroke="#6666ff" fill="none" />
  </g>
</svg>