<?xml version="1.0" encoding="utf-8"?>
<svg version="1.1" xmlns:xlink="http://www.w3.org/1999/xlink" width="450px" height="450px" xmlns="http://www.w3.org/2000/svg">
  <defs>
    <mask fill="white" id="clip679">
      <path d="M 450 225  C 450 351  351 450  225 450  C 99 450  0 351  0 225  C 0 99  99 0  225 0  C 351 0  450 99  450 225  Z M 286 225  C 286 190.280000000001  258.72 163  224 163  C 189.28 163  162 190.280000000001  162 225  C 162 259.719999999999  189.28 287  224 287  C 258.72 287  286 259.719999999999  286 225  Z " fill-rule="evenodd" />
    </mask>
  </defs>
  <g transform="matrix(1 0 0 1 -330 -9990 )">
    <path d="M 450 225  C 450 351  351 450  225 450  C 99 450  0 351  0 225  C 0 99  99 0  225 0  C 351 0  450 99  450 225  Z M 286 225  C 286 190.280000000001  258.72 163  224 163  C 189.28 163  162 190.280000000001  162 225  C 162 259.719999999999  189.28 287  224 287  C 258.72 287  286 259.719999999999  286 225  Z " fill-rule="nonzero" fill="#009900" stroke="none" transform="matrix(1 0 0 1 330 9990 )" />
    <path d="M 450 225  C 450 351  351 450  225 450  C 99 450  0 351  0 225  C 0 99  99 0  225 0  C 351 0  450 99  450 225  Z " stroke-width="2" stroke="#797979" fill="none" transform="matrix(1 0 0 1 330 9990 )" mask="url(#clip679)" />
    <path d="M 286 225  C 286 190.280000000001  258.72 163  224 163  C 189.28 163  162 190.280000000001  162 225  C 162 259.719999999999  189.28 287  224 287  C 258.72 287  286 259.719999999999  286 225  Z " stroke-width="2" stroke="#797979" fill="none" transform="matrix(1 0 0 1 330 9990 )" mask="url(#clip679)" />
  </g>
</svg>