<?xml version="1.0" encoding="utf-8"?>
<svg version="1.1" xmlns:xlink="http://www.w3.org/1999/xlink" width="12px" height="15px" xmlns="http://www.w3.org/2000/svg">
  <g transform="matrix(1 0 0 1 -848 -1357 )">
    <path d="M 854 1371.07759871885  C 851.8 1367.68236844237  848.5 1365.64523027648  848.5 1362.25  C 848.5 1360.48571428571  849.6 1357.5  854 1357.5  C 858.4 1357.5  859.5 1360.48571428571  859.5 1362.25  C 859.5 1365.64523027648  856.2 1367.68236844237  854 1371.07759871885  Z " fill-rule="nonzero" fill="#993333" stroke="none" />
    <path d="M 854 1372  C 851.6 1368.25  848 1366  848 1362.25  C 848 1360.3  849.2 1357  854 1357  C 858.8 1357  860 1360.3  860 1362.25  C 860 1366  856.4 1368.25  854 1372  Z M 854 1370.15519743769  C 856 1367.11473688473  859 1365.29046055296  859 1362.25  C 859 1360.67142857143  858 1358  854 1358  C 850 1358  849 1360.67142857143  849 1362.25  C 849 1365.29046055296  852 1367.11473688473  854 1370.15519743769  Z " fill-rule="nonzero" fill="#ffffff" stroke="none" />
  </g>
</svg>