<?xml version="1.0" encoding="utf-8"?>
<svg version="1.1" xmlns:xlink="http://www.w3.org/1999/xlink" width="111px" height="111px" xmlns="http://www.w3.org/2000/svg">
  <g transform="matrix(1 0 0 1 -356 -3191 )">
    <path d="M 357 3196  A 4 4 0 0 1 361 3192 L 462 3192  A 4 4 0 0 1 466 3196 L 466 3297  A 4 4 0 0 1 462 3301 L 361 3301  A 4 4 0 0 1 357 3297 L 357 3196  Z " fill-rule="nonzero" fill="#ffffff" stroke="none" fill-opacity="0" />
    <path d="M 356.5 3196  A 4.5 4.5 0 0 1 361 3191.5 L 462 3191.5  A 4.5 4.5 0 0 1 466.5 3196 L 466.5 3297  A 4.5 4.5 0 0 1 462 3301.5 L 361 3301.5  A 4.5 4.5 0 0 1 356.5 3297 L 356.5 3196  Z " stroke-width="1" stroke-dasharray="9,4" stroke="#f2f2f2" fill="none" stroke-dashoffset="0.5" />
  </g>
</svg>