<?xml version="1.0" encoding="utf-8"?>
<svg version="1.1" xmlns:xlink="http://www.w3.org/1999/xlink" width="899px" height="103px" xmlns="http://www.w3.org/2000/svg">
  <defs>
    <mask fill="white" id="clip99">
      <path d="M 0 98  L 0 5  C 0 2.20000000000005  2.66909581646422 0  6.06612685560054 0  L 892.9338731444 0  C 896.330904183536 0  899 2.20000000000005  899 5  L 899 70  L 899 98  C 899 100.8  896.330904183536 103  892.9338731444 103  L 6.06612685560054 103  C 2.66909581646422 103  0 100.8  0 98  Z " fill-rule="evenodd" />
    </mask>
  </defs>
  <g transform="matrix(1 0 0 1 -160 -1008 )">
    <path d="M 0 98  L 0 5  C 0 2.20000000000005  2.66909581646422 0  6.06612685560054 0  L 892.9338731444 0  C 896.330904183536 0  899 2.20000000000005  899 5  L 899 70  L 899 98  C 899 100.8  896.330904183536 103  892.9338731444 103  L 6.06612685560054 103  C 2.66909581646422 103  0 100.8  0 98  Z " fill-rule="nonzero" fill="#031c5d" stroke="none" transform="matrix(1 0 0 1 160 1008 )" />
    <path d="M 0 98  L 0 5  C 0 2.20000000000005  2.66909581646422 0  6.06612685560054 0  L 892.9338731444 0  C 896.330904183536 0  899 2.20000000000005  899 5  L 899 70  L 899 98  C 899 100.8  896.330904183536 103  892.9338731444 103  L 6.06612685560054 103  C 2.66909581646422 103  0 100.8  0 98  Z " stroke-width="2" stroke="#aaaaaa" fill="none" transform="matrix(1 0 0 1 160 1008 )" mask="url(#clip99)" />
  </g>
</svg>