<?xml version="1.0" encoding="utf-8"?>
<svg version="1.1" xmlns:xlink="http://www.w3.org/1999/xlink" width="7px" height="7px" xmlns="http://www.w3.org/2000/svg">
  <g transform="matrix(1 0 0 1 -9 -4 )">
    <path d="M 12.5 4  C 14.46 4  16 5.54  16 7.5  C 16 9.46  14.46 11  12.5 11  C 10.54 11  9 9.46  9 7.5  C 9 5.54  10.54 4  12.5 4  Z " fill-rule="nonzero" fill="#863f1e" stroke="none" />
    <path d="M 12.5 4.5  C 14.18 4.5  15.5 5.82  15.5 7.5  C 15.5 9.18  14.18 10.5  12.5 10.5  C 10.82 10.5  9.5 9.18  9.5 7.5  C 9.5 5.82  10.82 4.5  12.5 4.5  Z " stroke-width="1" stroke="#ab4513" fill="none" />
  </g>
</svg>