<?xml version="1.0" encoding="utf-8"?>
<svg version="1.1" xmlns:xlink="http://www.w3.org/1999/xlink" width="100px" height="100px" xmlns="http://www.w3.org/2000/svg">
  <g transform="matrix(1 0 0 1 -78 -74 )">
    <path d="M 128 74  C 156 74  178 96  178 124  C 178 152  156 174  128 174  C 100 174  78 152  78 124  C 78 96  100 74  128 74  Z " fill-rule="nonzero" fill="#ffffff" stroke="none" fill-opacity="0" />
    <path d="M 128 74.5  C 155.72 74.5  177.5 96.28  177.5 124  C 177.5 151.72  155.72 173.5  128 173.5  C 100.28 173.5  78.5 151.72  78.5 124  C 78.5 96.28  100.28 74.5  128 74.5  Z " stroke-width="1" stroke="#555555" fill="none" />
  </g>
</svg>