<?xml version="1.0" encoding="utf-8"?>
<svg version="1.1" xmlns:xlink="http://www.w3.org/1999/xlink" width="24px" height="24px" xmlns="http://www.w3.org/2000/svg">
  <g transform="matrix(1 0 0 1 -210 -33 )">
    <path d="M 222 33  C 228.72 33  234 38.28  234 45  C 234 51.72  228.72 57  222 57  C 215.28 57  210 51.72  210 45  C 210 38.28  215.28 33  222 33  Z " fill-rule="nonzero" fill="#ffffff" stroke="none" fill-opacity="0" />
    <path d="M 222 33.5  C 228.44 33.5  233.5 38.56  233.5 45  C 233.5 51.44  228.44 56.5  222 56.5  C 215.56 56.5  210.5 51.44  210.5 45  C 210.5 38.56  215.56 33.5  222 33.5  Z " stroke-width="1" stroke="#555555" fill="none" />
  </g>
</svg>