<?xml version="1.0" encoding="utf-8"?>
<svg version="1.1" xmlns:xlink="http://www.w3.org/1999/xlink" width="82px" height="82px" xmlns="http://www.w3.org/2000/svg">
  <g transform="matrix(1 0 0 1 -181 -177 )">
    <path d="M 222 177  C 244.96 177  263 195.04  263 218  C 263 240.96  244.96 259  222 259  C 199.04 259  181 240.96  181 218  C 181 195.04  199.04 177  222 177  Z " fill-rule="nonzero" fill="#ffffff" stroke="none" fill-opacity="0" />
    <path d="M 222 177.5  C 244.68 177.5  262.5 195.32  262.5 218  C 262.5 240.68  244.68 258.5  222 258.5  C 199.32 258.5  181.5 240.68  181.5 218  C 181.5 195.32  199.32 177.5  222 177.5  Z " stroke-width="1" stroke="#555555" fill="none" />
  </g>
</svg>