<?xml version="1.0" encoding="utf-8"?>
<svg version="1.1" xmlns:xlink="http://www.w3.org/1999/xlink" width="35px" height="12px" xmlns="http://www.w3.org/2000/svg">
  <g transform="matrix(1 0 0 1 -933 -7347 )">
    <path d="M 34.6492985971944 1.23711340206186  C 34.8830995323981 1.37457044673539  35 1.53264604810996  35 1.71134020618557  C 35 1.89003436426117  34.8830995323981 2.04810996563574  34.6492985971944 2.18556701030928  L 18.3066132264529 11.7938144329897  C 18.0728122912492 11.9312714776632  17.8039412157649 12  17.5 12  C 17.1960587842351 12  16.9271877087508 11.9312714776632  16.6933867735471 11.7938144329897  L 0.350701402805611 2.18556701030928  C 0.116900467601871 2.04810996563574  0 1.89003436426117  0 1.71134020618557  C 0 1.53264604810996  0.116900467601871 1.37457044673539  0.350701402805611 1.23711340206186  L 2.10420841683367 0.20618556701031  C 2.33800935203741 0.0687285223367682  2.60688042752171 0  2.91082164328657 0  C 3.21476285905144 0  3.48363393453574 0.0687285223367682  3.71743486973948 0.20618556701031  L 17.5 8.30927835051546  L 31.2825651302605 0.20618556701031  C 31.5163660654643 0.0687285223367682  31.7852371409486 0  32.0891783567134 0  C 32.3931195724783 0  32.6619906479626 0.0687285223367682  32.8957915831663 0.20618556701031  L 34.6492985971944 1.23711340206186  Z " fill-rule="nonzero" fill="#f92e47" stroke="none" transform="matrix(1 0 0 1 933 7347 )" />
  </g>
</svg>