<?xml version="1.0" encoding="utf-8"?>
<svg version="1.1" xmlns:xlink="http://www.w3.org/1999/xlink" width="76px" height="30px" xmlns="http://www.w3.org/2000/svg">
  <defs>
    <mask fill="white" id="clip306">
      <path d="M 0 26  L 0 4  C 0 1.76  1.52 0  3.45454545454545 0  L 72.5454545454545 0  C 74.48 0  76 1.76  76 4  L 76 26  C 76 28.24  74.48 30  72.5454545454545 30  L 40.5909090909091 30  L 3.45454545454545 30  C 1.52 30  0 28.24  0 26  Z " fill-rule="evenodd" />
    </mask>
  </defs>
  <g>
    <path d="M 0 26  L 0 4  C 0 1.76  1.52 0  3.45454545454545 0  L 72.5454545454545 0  C 74.48 0  76 1.76  76 4  L 76 26  C 76 28.24  74.48 30  72.5454545454545 30  L 40.5909090909091 30  L 3.45454545454545 30  C 1.52 30  0 28.24  0 26  Z " fill-rule="nonzero" fill="#183b95" stroke="none" />
    <path d="M 0 26  L 0 4  C 0 1.76  1.52 0  3.45454545454545 0  L 72.5454545454545 0  C 74.48 0  76 1.76  76 4  L 76 26  C 76 28.24  74.48 30  72.5454545454545 30  L 40.5909090909091 30  L 3.45454545454545 30  C 1.52 30  0 28.24  0 26  Z " stroke-width="4" stroke="#d7d7d7" fill="none" mask="url(#clip306)" />
  </g>
</svg>