<?xml version="1.0" encoding="utf-8"?>
<svg version="1.1" xmlns:xlink="http://www.w3.org/1999/xlink" width="15px" height="20px" xmlns="http://www.w3.org/2000/svg">
  <g>
    <path d="M 7.5 19.0369284683536  C 4.7 14.4073405959099  0.5 11.6295878724437  0.5 7  C 0.5 4.58571428571429  1.9 0.5  7.5 0.5  C 13.1 0.5  14.5 4.58571428571429  14.5 7  C 14.5 11.6295878724437  10.3 14.4073405959099  7.5 19.0369284683536  Z " fill-rule="nonzero" fill="#6c363f" stroke="none" />
    <path d="M 7.5 20  C 4.5 15  0 12  0 7  C 0 4.4  1.5 0  7.5 0  C 13.5 0  15 4.4  15 7  C 15 12  10.5 15  7.5 20  Z M 7.5 18.0738569367072  C 10.1 13.8146811918198  14 11.2591757448874  14 7  C 14 4.77142857142857  12.7 1  7.5 1  C 2.3 1  1 4.77142857142857  1 7  C 1 11.2591757448874  4.9 13.8146811918198  7.5 18.0738569367072  Z " fill-rule="nonzero" fill="#ffffff" stroke="none" />
  </g>
</svg>