<?xml version="1.0" encoding="utf-8"?>
<svg version="1.1" xmlns:xlink="http://www.w3.org/1999/xlink" width="68px" height="68px" xmlns="http://www.w3.org/2000/svg">
  <g transform="matrix(1 0 0 1 0 -47 )">
    <path d="M 34 49  C 51.92 49  66 63.08  66 81  C 66 98.92  51.92 113  34 113  C 16.08 113  2 98.92  2 81  C 2 63.08  16.08 49  34 49  Z " fill-rule="nonzero" fill="#5ba365" stroke="none" />
    <path d="M 34 48.5  C 52.2 48.5  66.5 62.8  66.5 81  C 66.5 99.2  52.2 113.5  34 113.5  C 15.8 113.5  1.5 99.2  1.5 81  C 1.5 62.8  15.8 48.5  34 48.5  Z " stroke-width="3" stroke="#eaf9e2" fill="none" />
  </g>
</svg>