<?xml version="1.0" encoding="utf-8"?>
<svg version="1.1" xmlns:xlink="http://www.w3.org/1999/xlink" width="25px" height="25px" xmlns="http://www.w3.org/2000/svg">
  <g transform="matrix(1 0 0 1 -108 -36 )">
    <path d="M 120.5 38  C 126.38 38  131 42.62  131 48.5  C 131 54.38  126.38 59  120.5 59  C 114.62 59  110 54.38  110 48.5  C 110 42.62  114.62 38  120.5 38  Z " fill-rule="nonzero" fill="#5ba365" stroke="none" />
    <path d="M 120.5 37.5  C 126.66 37.5  131.5 42.34  131.5 48.5  C 131.5 54.66  126.66 59.5  120.5 59.5  C 114.34 59.5  109.5 54.66  109.5 48.5  C 109.5 42.34  114.34 37.5  120.5 37.5  Z " stroke-width="3" stroke="#eaf9e2" fill="none" />
  </g>
</svg>