<?xml version="1.0" encoding="utf-8"?>
<svg version="1.1" xmlns:xlink="http://www.w3.org/1999/xlink" width="36px" height="60px" xmlns="http://www.w3.org/2000/svg">
  <g>
    <path d="M 18.0857142857142 2.14285714285714  L 15.7714285714286 0.514285714286026  C 15.7714285714286 0.514285714286026  17.0571428571429 7.11428571428509  12 12.3428571428568  C 6.94285714285706 17.5714285714286  0.599999999999844 29.1428571428571  0.599999999999844 29.1428571428571  C 0.599999999999844 29.1428571428571  2.31428571428595 43.4571428571435  14.0571428571429 39.8571428571429  C 25.7999999999999 36.2571428571422  26.742857142857 26.7428571428578  26.742857142857 26.7428571428578  L 24.4285714285714 22.8000000000003  C 24.4285714285714 22.8000000000003  36.1714285714288 24.3428571428568  34.1142857142859 31.2857142857143  C 32.0571428571429 38.2285714285717  21.7714285714287 43.7142857142857  21.7714285714287 43.7142857142857  L 15.7714285714286 54.7714285714283  L 16.8857142857141 59.2285714285717  L 18.7714285714287 53.2285714285717  L 22.6285714285715 46.1142857142851  C 22.6285714285715 46.1142857142851  34.2857142857143 40.3714285714273  35.1428571428571 32.0571428571425  C 36 23.7428571428578  30.8571428571429 18.7714285714283  21.7714285714287 18.7714285714283  C 12.6857142857144 18.7714285714283  8.05714285714294 29.7428571428578  8.05714285714294 29.7428571428578  L 10.7999999999999 34.6285714285711  L 5.22857142857135 34.1142857142851  L 2.82857142857158 29.1428571428571  L 10.0285714285713 17.6571428571432  L 16.3714285714285 10.1142857142851  L 18.0857142857142 2.14285714285714  Z " fill-rule="nonzero" fill="#000000" stroke="none" />
  </g>
</svg>