<?xml version="1.0" encoding="utf-8"?>
<svg version="1.1" xmlns:xlink="http://www.w3.org/1999/xlink" width="26px" height="26px" xmlns="http://www.w3.org/2000/svg">
  <g transform="matrix(1 0 0 1 -32 -20 )">
    <path d="M 45 22  C 51.16 22  56 26.84  56 33  C 56 39.16  51.16 44  45 44  C 38.84 44  34 39.16  34 33  C 34 26.84  38.84 22  45 22  Z " fill-rule="nonzero" fill="#5ba365" stroke="none" />
    <path d="M 45 21.5  C 51.44 21.5  56.5 26.56  56.5 33  C 56.5 39.44  51.44 44.5  45 44.5  C 38.56 44.5  33.5 39.44  33.5 33  C 33.5 26.56  38.56 21.5  45 21.5  Z " stroke-width="3" stroke="#eaf9e2" fill="none" />
  </g>
</svg>