<?xml version="1.0" encoding="utf-8"?>
<svg version="1.1" xmlns:xlink="http://www.w3.org/1999/xlink" width="41px" height="41px" xmlns="http://www.w3.org/2000/svg">
  <g transform="matrix(1 0 0 1 -63 -5 )">
    <path d="M 83.5 7  C 93.86 7  102 15.14  102 25.5  C 102 35.86  93.86 44  83.5 44  C 73.14 44  65 35.86  65 25.5  C 65 15.14  73.14 7  83.5 7  Z " fill-rule="nonzero" fill="#5ba365" stroke="none" />
    <path d="M 83.5 6.5  C 94.14 6.5  102.5 14.86  102.5 25.5  C 102.5 36.14  94.14 44.5  83.5 44.5  C 72.86 44.5  64.5 36.14  64.5 25.5  C 64.5 14.86  72.86 6.5  83.5 6.5  Z " stroke-width="3" stroke="#eaf9e2" fill="none" />
  </g>
</svg>