<?xml version="1.0" encoding="utf-8"?>
<svg version="1.1" xmlns:xlink="http://www.w3.org/1999/xlink" width="41px" height="41px" xmlns="http://www.w3.org/2000/svg">
  <g transform="matrix(1 0 0 1 -8 -8 )">
    <path d="M 28.5 8  C 39.98 8  49 17.02  49 28.5  C 49 39.98  39.98 49  28.5 49  C 17.02 49  8 39.98  8 28.5  C 8 17.02  17.02 8  28.5 8  Z " fill-rule="nonzero" fill="#ffffff" stroke="none" fill-opacity="0" />
    <path d="M 28.5 8.5  C 39.7 8.5  48.5 17.3  48.5 28.5  C 48.5 39.7  39.7 48.5  28.5 48.5  C 17.3 48.5  8.5 39.7  8.5 28.5  C 8.5 17.3  17.3 8.5  28.5 8.5  Z " stroke-width="1" stroke="#fed779" fill="none" />
  </g>
</svg>