<?xml version="1.0" encoding="utf-8"?>
<svg version="1.1" xmlns:xlink="http://www.w3.org/1999/xlink" width="16px" height="64px" xmlns="http://www.w3.org/2000/svg">
  <g transform="matrix(1 0 0 1 -12 0 )">
    <path d="M 1.53191489361702 28.3727959697733  L 2.38297872340426 25.1486146095718  L 5.4468085106383 29.823677581864  L 6.63829787234043 29.823677581864  L 7.82978723404255 0  L 9.02127659574468 29.823677581864  L 12.4255319148936 28.3727959697733  L 13.7872340425532 25.1486146095718  L 13.7872340425532 28.3727959697733  L 16 28.3727959697733  L 12.4255319148936 35.1435768261965  L 13.7872340425532 39.1738035264484  L 11.4042553191489 43.2040302267003  L 10.3829787234043 59.647355163728  L 9.02127659574468 64  L 7.82978723404255 64  L 5.4468085106383 59.647355163728  L 4.42553191489362 53.360201511335  L 4.42553191489362 43.2040302267003  L 1.53191489361702 39.1738035264484  L 4.42553191489362 35.1435768261965  L 0 28.3727959697733  L 1.53191489361702 28.3727959697733  Z " fill-rule="nonzero" fill="#6300bf" stroke="none" transform="matrix(1 0 0 1 12 0 )" />
  </g>
</svg>