<?xml version="1.0" encoding="utf-8"?>
<svg version="1.1" xmlns:xlink="http://www.w3.org/1999/xlink" width="34px" height="34px" xmlns="http://www.w3.org/2000/svg">
  <g transform="matrix(1 0 0 1 0 -1 )">
    <path d="M 18.1795918367347 33.5836734693878  L 12.2122448979592 32.265306122449  C 12.2122448979592 32.265306122449  4.71836734693877 30.669387755102  2.15102040816327 25.2571428571429  C -0.416326530612245 19.8448979591837  0.138775510204082 15.8204081632653  0.138775510204082 15.8204081632653  L 3.53877551020408 5.82857142857143  L 5.62040816326531 2.01224489795918  L 6.24489795918367 6.73061224489796  L 9.36734693877551 2.01224489795918  L 8.04897959183674 15.8204081632653  L 11.1020408163265 24.0775510204082  L 14.8489795918367 28.6571428571429  L 19.3591836734694 28.2408163265306  L 21.3714285714286 24.9102040816327  L 24.0081632653061 20.9551020408163  L 26.2979591836735 16.7224489795918  L 25.8816326530612 9.92244897959184  L 23.4530612244898 3.88571428571429  L 22.8979591836735 2.01224489795918  L 27.4081632653061 5.48163265306123  L 26.2979591836735 0.485714285714286  L 30.4612244897959 6.73061224489796  L 33.3755102040816 11.5877551020408  L 34 16.3061224489796  L 32.4734693877551 24.0775510204082  L 30.1142857142857 26.8530612244898  L 23.4530612244898 32.265306122449  L 18.1795918367347 33.5836734693878  Z " fill-rule="nonzero" fill="#fefffe" stroke="none" transform="matrix(1 0 0 1 0 1 )" />
  </g>
</svg>