<?xml version="1.0" encoding="utf-8"?>
<svg version="1.1" xmlns:xlink="http://www.w3.org/1999/xlink" width="24px" height="23px" xmlns="http://www.w3.org/2000/svg">
  <g transform="matrix(1 0 0 1 -17 -17 )">
    <path d="M 29 17  C 35.72 17  41 22.06  41 28.5  C 41 34.94  35.72 40  29 40  C 22.28 40  17 34.94  17 28.5  C 17 22.06  22.28 17  29 17  Z " fill-rule="nonzero" fill="#ffffff" stroke="none" fill-opacity="0" />
    <path d="M 29 17.5  C 35.44 17.5  40.5 22.34  40.5 28.5  C 40.5 34.66  35.44 39.5  29 39.5  C 22.56 39.5  17.5 34.66  17.5 28.5  C 17.5 22.34  22.56 17.5  29 17.5  Z " stroke-width="1" stroke="#fed779" fill="none" />
  </g>
</svg>