<?xml version="1.0" encoding="utf-8"?>
<svg version="1.1" xmlns:xlink="http://www.w3.org/1999/xlink" width="20px" height="20px" xmlns="http://www.w3.org/2000/svg">
  <g transform="matrix(1 0 0 1 -147 -15 )">
    <path d="M 157 17  C 161.48 17  165 20.52  165 25  C 165 29.48  161.48 33  157 33  C 152.52 33  149 29.48  149 25  C 149 20.52  152.52 17  157 17  Z " fill-rule="nonzero" fill="#5ba365" stroke="none" />
    <path d="M 157 16.5  C 161.76 16.5  165.5 20.24  165.5 25  C 165.5 29.76  161.76 33.5  157 33.5  C 152.24 33.5  148.5 29.76  148.5 25  C 148.5 20.24  152.24 16.5  157 16.5  Z " stroke-width="3" stroke="#eaf9e2" fill="none" />
  </g>
</svg>