<?xml version="1.0" encoding="utf-8"?>
<svg version="1.1" xmlns:xlink="http://www.w3.org/1999/xlink" width="60px" height="57px" xmlns="http://www.w3.org/2000/svg">
  <defs>
    <mask fill="white" id="clip219">
      <path d="M 26.0294117647057 28.2534602076119  L 0.0833333333332575 27  L 26.0294117647057 27  L 5.49999999999992 7.79558823529351  L 28 25.4922145328724  L 28 0.502941176470893  L 29.1666666666667 25.4922145328724  L 51.2254901960785 4.68425605536287  L 30.0490196078431 26.1825259515569  L 59.7549019607842 28  L 30.0490196078431 28  L 54.2647058823529 46.3001730103804  L 29.1666666666667 28.9437716262979  L 28.0882352941175 56.3589965397922  L 27.2058823529411 28.9437716262979  L 1.71568627450976 47.3849480968862  L 26.0294117647057 28.2534602076119  Z " fill-rule="evenodd" />
    </mask>
  </defs>
  <g>
    <path d="M 26.0294117647057 28.2534602076119  L 0.0833333333332575 27  L 26.0294117647057 27  L 5.49999999999992 7.79558823529351  L 28 25.4922145328724  L 28 0.502941176470893  L 29.1666666666667 25.4922145328724  L 51.2254901960785 4.68425605536287  L 30.0490196078431 26.1825259515569  L 59.7549019607842 28  L 30.0490196078431 28  L 54.2647058823529 46.3001730103804  L 29.1666666666667 28.9437716262979  L 28.0882352941175 56.3589965397922  L 27.2058823529411 28.9437716262979  L 1.71568627450976 47.3849480968862  L 26.0294117647057 28.2534602076119  Z " fill-rule="nonzero" fill="#fed779" stroke="none" />
    <path d="M 26.0294117647057 28.2534602076119  L 0.0833333333332575 27  L 26.0294117647057 27  L 5.49999999999992 7.79558823529351  L 28 25.4922145328724  L 28 0.502941176470893  L 29.1666666666667 25.4922145328724  L 51.2254901960785 4.68425605536287  L 30.0490196078431 26.1825259515569  L 59.7549019607842 28  L 30.0490196078431 28  L 54.2647058823529 46.3001730103804  L 29.1666666666667 28.9437716262979  L 28.0882352941175 56.3589965397922  L 27.2058823529411 28.9437716262979  L 1.71568627450976 47.3849480968862  L 26.0294117647057 28.2534602076119  Z " stroke-width="2" stroke="#fed779" fill="none" mask="url(#clip219)" />
  </g>
</svg>