<?xml version="1.0" encoding="utf-8"?>
<svg version="1.1" xmlns:xlink="http://www.w3.org/1999/xlink" width="441px" height="441px" xmlns="http://www.w3.org/2000/svg">
  <defs>
    <mask fill="white" id="clip116">
      <path d="M 220.5 0  C 343.98 0  441 97.02  441 220.5  C 441 343.98  343.98 441  220.5 441  C 97.02 441  0 343.98  0 220.5  C 0 97.02  97.02 0  220.5 0  Z M 110.5 111  C 49.18 111  1 159.18  1 220.5  C 1 281.82  49.18 330  110.5 330  C 171.82 330  220 281.82  220 220.5  C 220 159.18  171.82 111  110.5 111  Z M 221 220.5  C 221 281.82  269.18 330  330.5 330  C 391.82 330  440 281.82  440 220.5  C 440 159.18  391.82 111  330.5 111  C 269.18 111  221 159.18  221 220.5  Z " fill-rule="evenodd" />
    </mask>
  </defs>
  <g transform="matrix(1 0 0 1 -729 -710 )">
    <path d="M 220.5 0  C 343.98 0  441 97.02  441 220.5  C 441 343.98  343.98 441  220.5 441  C 97.02 441  0 343.98  0 220.5  C 0 97.02  97.02 0  220.5 0  Z M 110.5 111  C 49.18 111  1 159.18  1 220.5  C 1 281.82  49.18 330  110.5 330  C 171.82 330  220 281.82  220 220.5  C 220 159.18  171.82 111  110.5 111  Z M 221 220.5  C 221 281.82  269.18 330  330.5 330  C 391.82 330  440 281.82  440 220.5  C 440 159.18  391.82 111  330.5 111  C 269.18 111  221 159.18  221 220.5  Z " fill-rule="nonzero" fill="#658071" stroke="none" transform="matrix(1 0 0 1 729 710 )" />
    <path d="M 220.5 0  C 343.98 0  441 97.02  441 220.5  C 441 343.98  343.98 441  220.5 441  C 97.02 441  0 343.98  0 220.5  C 0 97.02  97.02 0  220.5 0  Z " stroke-width="4" stroke="#f2f2f2" fill="none" transform="matrix(1 0 0 1 729 710 )" mask="url(#clip116)" />
    <path d="M 110.5 111  C 49.18 111  1 159.18  1 220.5  C 1 281.82  49.18 330  110.5 330  C 171.82 330  220 281.82  220 220.5  C 220 159.18  171.82 111  110.5 111  Z " stroke-width="4" stroke="#f2f2f2" fill="none" transform="matrix(1 0 0 1 729 710 )" mask="url(#clip116)" />
    <path d="M 221 220.5  C 221 281.82  269.18 330  330.5 330  C 391.82 330  440 281.82  440 220.5  C 440 159.18  391.82 111  330.5 111  C 269.18 111  221 159.18  221 220.5  Z " stroke-width="4" stroke="#f2f2f2" fill="none" transform="matrix(1 0 0 1 729 710 )" mask="url(#clip116)" />
  </g>
</svg>