<?xml version="1.0" encoding="utf-8"?>
<svg version="1.1" xmlns:xlink="http://www.w3.org/1999/xlink" width="191px" height="191px" xmlns="http://www.w3.org/2000/svg">
  <g transform="matrix(1 0 0 1 -30 -30 )">
    <path d="M 125.5 31  C 178.42 31  220 72.58  220 125.5  C 220 178.42  178.42 220  125.5 220  C 72.58 220  31 178.42  31 125.5  C 31 72.58  72.58 31  125.5 31  Z " fill-rule="nonzero" fill="#242424" stroke="none" />
    <path d="M 125.5 31  C 178.42 31  220 72.58  220 125.5  C 220 178.42  178.42 220  125.5 220  C 72.58 220  31 178.42  31 125.5  C 31 72.58  72.58 31  125.5 31  Z " stroke-width="2" stroke="#9d928d" fill="none" />
  </g>
</svg>