<?xml version="1.0" encoding="utf-8"?>
<svg version="1.1" xmlns:xlink="http://www.w3.org/1999/xlink" width="42px" height="42px" xmlns="http://www.w3.org/2000/svg">
  <g transform="matrix(1 0 0 1 -104 -104 )">
    <path d="M 125 105  C 136.2 105  145 113.8  145 125  C 145 136.2  136.2 145  125 145  C 113.8 145  105 136.2  105 125  C 105 113.8  113.8 105  125 105  Z " fill-rule="nonzero" fill="#242424" stroke="none" />
    <path d="M 125 105  C 136.2 105  145 113.8  145 125  C 145 136.2  136.2 145  125 145  C 113.8 145  105 136.2  105 125  C 105 113.8  113.8 105  125 105  Z " stroke-width="2" stroke="#9d928d" fill="none" />
  </g>
</svg>