<?xml version="1.0" encoding="utf-8"?>
<svg version="1.1" xmlns:xlink="http://www.w3.org/1999/xlink" width="238px" height="47px" xmlns="http://www.w3.org/2000/svg">
  <defs>
    <mask fill="white" id="clip223">
      <path d="M 0 42  L 0 5  C 0 2.2  0.459298245614036 0  1.04385964912281 0  L 236.956140350877 0  C 237.540701754386 0  238 2.2  238 5  L 238 42  C 238 44.8  237.540701754386 47  236.956140350877 47  L 51.3578947368421 47  L 1.04385964912281 47  C 0.459298245614036 47  0 44.8  0 42  Z " fill-rule="evenodd" />
    </mask>
  </defs>
  <g transform="matrix(1 0 0 1 -717 -14074 )">
    <path d="M 0 42  L 0 5  C 0 2.2  0.459298245614036 0  1.04385964912281 0  L 236.956140350877 0  C 237.540701754386 0  238 2.2  238 5  L 238 42  C 238 44.8  237.540701754386 47  236.956140350877 47  L 51.3578947368421 47  L 1.04385964912281 47  C 0.459298245614036 47  0 44.8  0 42  Z " fill-rule="nonzero" fill="#660099" stroke="none" transform="matrix(1 0 0 1 717 14074 )" />
    <path d="M 0 42  L 0 5  C 0 2.2  0.459298245614036 0  1.04385964912281 0  L 236.956140350877 0  C 237.540701754386 0  238 2.2  238 5  L 238 42  C 238 44.8  237.540701754386 47  236.956140350877 47  L 51.3578947368421 47  L 1.04385964912281 47  C 0.459298245614036 47  0 44.8  0 42  Z " stroke-width="2" stroke="#d7d7d7" fill="none" transform="matrix(1 0 0 1 717 14074 )" mask="url(#clip223)" />
  </g>
</svg>