<?xml version="1.0" encoding="utf-8"?>
<svg version="1.1" xmlns:xlink="http://www.w3.org/1999/xlink" width="64px" height="64px" xmlns="http://www.w3.org/2000/svg">
  <g transform="matrix(1 0 0 1 -587 -510 )">
    <path d="M 619 511  C 636.36 511  650 524.64  650 542  C 650 559.36  636.36 573  619 573  C 601.64 573  588 559.36  588 542  C 588 524.64  601.64 511  619 511  Z " fill-rule="nonzero" fill="#663333" stroke="none" />
    <path d="M 619 511  C 636.36 511  650 524.64  650 542  C 650 559.36  636.36 573  619 573  C 601.64 573  588 559.36  588 542  C 588 524.64  601.64 511  619 511  Z " stroke-width="2" stroke="#ff6633" fill="none" />
  </g>
</svg>