<?xml version="1.0" encoding="utf-8"?>
<svg version="1.1" xmlns:xlink="http://www.w3.org/1999/xlink" width="440px" height="220px" xmlns="http://www.w3.org/2000/svg">
  <defs>
    <mask fill="white" id="clip37">
      <path d="M 220 220  C 96.9232000794599 220  0.193626524899656 123.393503324741  0.000303637813839686 0  L 440 0  C 440 123.07679992054  343.393503324741 219.8063734751  220.369520967877 219.999709670026  C 220.246373758886 219.999903199875  220.12320007946 220  220 220  Z M 0.000290329974460712 0.369520967877463  C 9.68001248656536E-05 0.246373758885795  0 0.123200079459934  0.000290329974460712 0.369520967877463  Z " fill-rule="evenodd" />
    </mask>
  </defs>
  <g>
    <path d="M 220 220  C 96.9232000794599 220  0.193626524899656 123.393503324741  0.000303637813839686 0  L 440 0  C 440 123.07679992054  343.393503324741 219.8063734751  220.369520967877 219.999709670026  C 220.246373758886 219.999903199875  220.12320007946 220  220 220  Z M 0.000290329974460712 0.369520967877463  C 9.68001248656536E-05 0.246373758885795  0 0.123200079459934  0.000290329974460712 0.369520967877463  Z " fill-rule="nonzero" fill="#e68334" stroke="none" />
    <path d="M 220 220  C 96.9232000794599 220  0.193626524899656 123.393503324741  0.000303637813839686 0  L 440 0  C 440 123.07679992054  343.393503324741 219.8063734751  220.369520967877 219.999709670026  C 220.246373758886 219.999903199875  220.12320007946 220  220 220  Z " stroke-width="4" stroke="#a30014" fill="none" mask="url(#clip37)" />
    <path d="M 0.000290329974460712 0.369520967877463  C 9.68001248656536E-05 0.246373758885795  0 0.123200079459934  0.000290329974460712 0.369520967877463  Z " stroke-width="4" stroke="#a30014" fill="none" mask="url(#clip37)" />
  </g>
</svg>