<?xml version="1.0" encoding="utf-8"?>
<svg version="1.1" xmlns:xlink="http://www.w3.org/1999/xlink" width="36px" height="36px" xmlns="http://www.w3.org/2000/svg">
  <g transform="matrix(1 0 0 1 -9 -9 )">
    <path d="M 27 9  C 37.08 9  45 16.92  45 27  C 45 37.08  37.08 45  27 45  C 16.92 45  9 37.08  9 27  C 9 16.92  16.92 9  27 9  Z " fill-rule="nonzero" fill="#242424" stroke="none" />
    <path d="M 27 9.5  C 36.8 9.5  44.5 17.2  44.5 27  C 44.5 36.8  36.8 44.5  27 44.5  C 17.2 44.5  9.5 36.8  9.5 27  C 9.5 17.2  17.2 9.5  27 9.5  Z " stroke-width="1" stroke="#ffff00" fill="none" />
  </g>
</svg>