<?xml version="1.0" encoding="utf-8"?>
<svg version="1.1" xmlns:xlink="http://www.w3.org/1999/xlink" width="25px" height="28px" xmlns="http://www.w3.org/2000/svg">
  <g transform="matrix(1 0 0 1 -40 0 )">
    <path d="M 24.749498997996 24.9275362318841  C 24.9164996659987 25.1207729468599  25 25.3429951690821  25 25.5942028985507  C 25 25.8454106280193  24.9164996659987 26.0676328502415  24.749498997996 26.2608695652174  L 23.496993987976 27.7101449275362  C 23.3299933199733 27.9033816425121  23.1379425517702 28  22.9208416833667 28  C 22.7037408149633 28  22.5116900467602 27.9033816425121  22.3446893787575 27.7101449275362  L 12.5 16.3188405797101  L 2.65531062124249 27.7101449275362  C 2.48830995323981 27.9033816425121  2.29625918503674 28  2.07915831663327 28  C 1.86205744822979 28  1.67000668002672 27.9033816425121  1.50300601202405 27.7101449275362  L 0.250501002004008 26.2608695652174  C 0.0835003340013362 26.0676328502415  0 25.8454106280193  0 25.5942028985507  C 0 25.3429951690821  0.0835003340013362 25.1207729468599  0.250501002004008 24.9275362318841  L 11.9238476953908 11.4202898550725  C 12.0908483633935 11.2270531400966  12.2828991315965 11.1304347826087  12.5 11.1304347826087  C 12.7171008684035 11.1304347826087  12.9091516366065 11.2270531400966  13.0761523046092 11.4202898550725  L 24.749498997996 24.9275362318841  Z M 24.749498997996 13.7971014492754  C 24.9164996659987 13.9903381642512  25 14.2125603864734  25 14.463768115942  C 25 14.7149758454106  24.9164996659987 14.9371980676328  24.749498997996 15.1304347826087  L 23.496993987976 16.5797101449275  C 23.3299933199733 16.7729468599034  23.1379425517702 16.8695652173913  22.9208416833667 16.8695652173913  C 22.7037408149633 16.8695652173913  22.5116900467602 16.7729468599034  22.3446893787575 16.5797101449275  L 12.5 5.18840579710145  L 2.65531062124249 16.5797101449275  C 2.48830995323981 16.7729468599034  2.29625918503674 16.8695652173913  2.07915831663327 16.8695652173913  C 1.86205744822979 16.8695652173913  1.67000668002672 16.7729468599034  1.50300601202405 16.5797101449275  L 0.250501002004008 15.1304347826087  C 0.0835003340013362 14.9371980676328  0 14.7149758454106  0 14.463768115942  C 0 14.2125603864734  0.0835003340013362 13.9903381642512  0.250501002004008 13.7971014492754  L 11.9238476953908 0.289855072463768  C 12.0908483633935 0.0966183574879205  12.2828991315965 0  12.5 0  C 12.7171008684035 0  12.9091516366065 0.0966183574879205  13.0761523046092 0.289855072463768  L 24.749498997996 13.7971014492754  Z " fill-rule="nonzero" fill="#facd91" stroke="none" fill-opacity="0.690196078431373" transform="matrix(1 0 0 1 40 0 )" />
  </g>
</svg>