<?xml version="1.0" encoding="utf-8"?>
<svg version="1.1" xmlns:xlink="http://www.w3.org/1999/xlink" width="24px" height="34px" xmlns="http://www.w3.org/2000/svg">
  <defs>
    <radialGradient cx="18.1590612777053" cy="22.7341578867003" r="26.3605254364721" gradientTransform="matrix(-0.220045555886986 0.975489596733039 -0.688283720034574 -0.155259240375496 37.8024327730553 8.54987060792671 )" gradientUnits="userSpaceOnUse" id="RadialGradient60">
      <stop id="Stop61" stop-color="#ff6578" offset="0" />
      <stop id="Stop62" stop-color="#fbdade" offset="1" />
    </radialGradient>
    <mask fill="white" id="clip63">
      <path d="M 0 17.1214285714286  C 0 13.451857185091  0.725539850497696 10.2426709898149  2.52307692307694 7.46785714285715  C 5.30563105438894 3.17249664584371  10.0712279416738 0.182142857142864  14.1538461538462 0.182142857142864  C 20.8738461538462 0.182142857142864  23.5076923076923 7.95357142857144  23.5076923076923 17.3035714285714  C 23.5076923076923 22.3939532090758  22.4573335836851 27.8023543907535  20.2461538461538 30.8428571428571  C 18.3958443992985 33.3871419289001  15.676842843728 34  12.6153846153846 34  C 5.89538461538461 34  0 26.4714285714286  0 17.1214285714286  Z " fill-rule="evenodd" />
    </mask>
  </defs>
  <g transform="matrix(1 0 0 1 -36 -24 )">
    <path d="M 0 17.1214285714286  C 0 13.451857185091  0.725539850497696 10.2426709898149  2.52307692307694 7.46785714285715  C 5.30563105438894 3.17249664584371  10.0712279416738 0.182142857142864  14.1538461538462 0.182142857142864  C 20.8738461538462 0.182142857142864  23.5076923076923 7.95357142857144  23.5076923076923 17.3035714285714  C 23.5076923076923 22.3939532090758  22.4573335836851 27.8023543907535  20.2461538461538 30.8428571428571  C 18.3958443992985 33.3871419289001  15.676842843728 34  12.6153846153846 34  C 5.89538461538461 34  0 26.4714285714286  0 17.1214285714286  Z " fill-rule="nonzero" fill="url(#RadialGradient60)" stroke="none" transform="matrix(1 0 0 1 36 24 )" />
    <path d="M 0 17.1214285714286  C 0 13.451857185091  0.725539850497696 10.2426709898149  2.52307692307694 7.46785714285715  C 5.30563105438894 3.17249664584371  10.0712279416738 0.182142857142864  14.1538461538462 0.182142857142864  C 20.8738461538462 0.182142857142864  23.5076923076923 7.95357142857144  23.5076923076923 17.3035714285714  C 23.5076923076923 22.3939532090758  22.4573335836851 27.8023543907535  20.2461538461538 30.8428571428571  C 18.3958443992985 33.3871419289001  15.676842843728 34  12.6153846153846 34  C 5.89538461538461 34  0 26.4714285714286  0 17.1214285714286  Z " stroke-width="2" stroke="#555555" fill="none" transform="matrix(1 0 0 1 36 24 )" mask="url(#clip63)" />
  </g>
</svg>