<?xml version="1.0" encoding="utf-8"?>
<svg version="1.1" xmlns:xlink="http://www.w3.org/1999/xlink" width="9px" height="6px" xmlns="http://www.w3.org/2000/svg">
  <defs>
    <radialGradient cx="2.9" cy="3.13846153846154" r="7.19885105733511" gradientTransform="matrix(0.987223629220712 -0.159340848210012 0.0997602042995619 0.618081502933941 -0.276042089003306 1.6607249736779 )" gradientUnits="userSpaceOnUse" id="RadialGradient117">
      <stop id="Stop118" stop-color="#ff6578" offset="0" />
      <stop id="Stop119" stop-color="#fbdade" offset="1" />
    </radialGradient>
    <mask fill="white" id="clip120">
      <path d="M 9 3.42857142857143  C 9 1.98857142857142  6.43235294117646 0.149999999999998  5.24117647058822 0.0642857142857167  C 4.04999999999999 -0.0214285714285641  2.20284895933083 0.244405241607816  1.08529411764705 1.07142857142858  C 0.279789229072804 1.66752579215368  0 2.61111826124395  0 3.21428571428571  C 0 4.01099727526464  1.37512713116877 5.1848587785723  2.67352941176471 5.63571428571429  C 3.72189775134257 5.99974833469566  4.73106267037728 5.93571428571428  5.55882352941175 5.93571428571428  C 7.41176470588234 5.93571428571428  9 4.86857142857143  9 3.42857142857143  Z " fill-rule="evenodd" />
    </mask>
  </defs>
  <g transform="matrix(1 0 0 1 -67 -16 )">
    <path d="M 9 3.42857142857143  C 9 1.98857142857142  6.43235294117646 0.149999999999998  5.24117647058822 0.0642857142857167  C 4.04999999999999 -0.0214285714285641  2.20284895933083 0.244405241607816  1.08529411764705 1.07142857142858  C 0.279789229072804 1.66752579215368  0 2.61111826124395  0 3.21428571428571  C 0 4.01099727526464  1.37512713116877 5.1848587785723  2.67352941176471 5.63571428571429  C 3.72189775134257 5.99974833469566  4.73106267037728 5.93571428571428  5.55882352941175 5.93571428571428  C 7.41176470588234 5.93571428571428  9 4.86857142857143  9 3.42857142857143  Z " fill-rule="nonzero" fill="url(#RadialGradient117)" stroke="none" transform="matrix(1 0 0 1 67 16 )" />
    <path d="M 9 3.42857142857143  C 9 1.98857142857142  6.43235294117646 0.149999999999998  5.24117647058822 0.0642857142857167  C 4.04999999999999 -0.0214285714285641  2.20284895933083 0.244405241607816  1.08529411764705 1.07142857142858  C 0.279789229072804 1.66752579215368  0 2.61111826124395  0 3.21428571428571  C 0 4.01099727526464  1.37512713116877 5.1848587785723  2.67352941176471 5.63571428571429  C 3.72189775134257 5.99974833469566  4.73106267037728 5.93571428571428  5.55882352941175 5.93571428571428  C 7.41176470588234 5.93571428571428  9 4.86857142857143  9 3.42857142857143  Z " stroke-width="2" stroke="#555555" fill="none" transform="matrix(1 0 0 1 67 16 )" mask="url(#clip120)" />
  </g>
</svg>