<?xml version="1.0" encoding="utf-8"?>
<svg version="1.1" xmlns:xlink="http://www.w3.org/1999/xlink" width="9px" height="13px" xmlns="http://www.w3.org/2000/svg">
  <defs>
    <radialGradient cx="6.80964797913949" cy="8.69247213315013" r="10.0700490823269" gradientTransform="matrix(0.208474604134232 -0.978027780500674 0.678010937304436 0.144523565251759 -0.503581866094896 14.0962299686444 )" gradientUnits="userSpaceOnUse" id="RadialGradient81">
      <stop id="Stop82" stop-color="#ff6578" offset="0" />
      <stop id="Stop83" stop-color="#fbdade" offset="1" />
    </radialGradient>
    <mask fill="white" id="clip84">
      <path d="M 0 6.54642857142857  C 0 5.14335715900538  0.272077443936636 3.91631537845863  0.946153846153851 2.85535714285715  C 1.98961164539585 1.21301342341083  3.77671047812768 0.0696428571428598  5.30769230769231 0.0696428571428598  C 7.82769230769231 0.0696428571428598  8.81538461538461 3.04107142857143  8.81538461538461 6.61607142857143  C 8.81538461538461 8.56239387405839  8.42150009388191 10.6303119729352  7.59230769230769 11.7928571428571  C 6.89844164973692 12.7656719139912  5.878816066398 13  4.73076923076923 13  C 2.21076923076923 13  0 10.1214285714286  0 6.54642857142857  Z " fill-rule="evenodd" />
    </mask>
  </defs>
  <g transform="matrix(1 0 0 1 -14 -9 )">
    <path d="M 0 6.54642857142857  C 0 5.14335715900538  0.272077443936636 3.91631537845863  0.946153846153851 2.85535714285715  C 1.98961164539585 1.21301342341083  3.77671047812768 0.0696428571428598  5.30769230769231 0.0696428571428598  C 7.82769230769231 0.0696428571428598  8.81538461538461 3.04107142857143  8.81538461538461 6.61607142857143  C 8.81538461538461 8.56239387405839  8.42150009388191 10.6303119729352  7.59230769230769 11.7928571428571  C 6.89844164973692 12.7656719139912  5.878816066398 13  4.73076923076923 13  C 2.21076923076923 13  0 10.1214285714286  0 6.54642857142857  Z " fill-rule="nonzero" fill="url(#RadialGradient81)" stroke="none" transform="matrix(1 0 0 1 14 9 )" />
    <path d="M 0 6.54642857142857  C 0 5.14335715900538  0.272077443936636 3.91631537845863  0.946153846153851 2.85535714285715  C 1.98961164539585 1.21301342341083  3.77671047812768 0.0696428571428598  5.30769230769231 0.0696428571428598  C 7.82769230769231 0.0696428571428598  8.81538461538461 3.04107142857143  8.81538461538461 6.61607142857143  C 8.81538461538461 8.56239387405839  8.42150009388191 10.6303119729352  7.59230769230769 11.7928571428571  C 6.89844164973692 12.7656719139912  5.878816066398 13  4.73076923076923 13  C 2.21076923076923 13  0 10.1214285714286  0 6.54642857142857  Z " stroke-width="2" stroke="#555555" fill="none" transform="matrix(1 0 0 1 14 9 )" mask="url(#clip84)" />
  </g>
</svg>