<?xml version="1.0" encoding="utf-8"?>
<svg version="1.1" xmlns:xlink="http://www.w3.org/1999/xlink" width="6px" height="6px" xmlns="http://www.w3.org/2000/svg">
  <defs>
    <radialGradient cx="2.3" cy="2.8" r="5.02901561606062" gradientTransform="matrix(-0.784288340685432 0.620396485052012 -0.530601755754503 -0.67077228935394 5.58954809968909 3.2512504945714 )" gradientUnits="userSpaceOnUse" id="RadialGradient98">
      <stop id="Stop99" stop-color="#ff6578" offset="0" />
      <stop id="Stop100" stop-color="#fbdade" offset="1" />
    </radialGradient>
    <mask fill="white" id="clip101">
      <path d="M 6 3.09599999999999  C 6 1.8192  4.8248275862069 0.0479999999999973  3.14482758620689 0.0479999999999973  C 1.46482758620689 0.0479999999999973  0 0.763200000000002  0 2.04  C 0 3.3168  2.33379310344827 5.97599999999999  4.01379310344827 5.97599999999999  C 4.5328022495859 5.97599999999999  5.02898498815908 5.98042380391368  5.31724137931034 5.592  C 5.96205281699789 4.72312035284515  6 3.9783530489354  6 3.09599999999999  Z " fill-rule="evenodd" />
    </mask>
  </defs>
  <g transform="matrix(1 0 0 1 -64 -22 )">
    <path d="M 6 3.09599999999999  C 6 1.8192  4.8248275862069 0.0479999999999973  3.14482758620689 0.0479999999999973  C 1.46482758620689 0.0479999999999973  0 0.763200000000002  0 2.04  C 0 3.3168  2.33379310344827 5.97599999999999  4.01379310344827 5.97599999999999  C 4.5328022495859 5.97599999999999  5.02898498815908 5.98042380391368  5.31724137931034 5.592  C 5.96205281699789 4.72312035284515  6 3.9783530489354  6 3.09599999999999  Z " fill-rule="nonzero" fill="url(#RadialGradient98)" stroke="none" transform="matrix(1 0 0 1 64 22 )" />
    <path d="M 6 3.09599999999999  C 6 1.8192  4.8248275862069 0.0479999999999973  3.14482758620689 0.0479999999999973  C 1.46482758620689 0.0479999999999973  0 0.763200000000002  0 2.04  C 0 3.3168  2.33379310344827 5.97599999999999  4.01379310344827 5.97599999999999  C 4.5328022495859 5.97599999999999  5.02898498815908 5.98042380391368  5.31724137931034 5.592  C 5.96205281699789 4.72312035284515  6 3.9783530489354  6 3.09599999999999  Z " stroke-width="2" stroke="#555555" fill="none" transform="matrix(1 0 0 1 64 22 )" mask="url(#clip101)" />
  </g>
</svg>