<?xml version="1.0" encoding="utf-8"?>
<svg version="1.1" xmlns:xlink="http://www.w3.org/1999/xlink" width="9px" height="13px" xmlns="http://www.w3.org/2000/svg">
  <defs>
    <radialGradient cx="2.9" cy="6.8" r="10.0700490823269" gradientTransform="matrix(0.208474604134233 -0.978027780500674 0.678010937304436 0.144523565251759 -2.31505072565944 8.65352031973999 )" gradientUnits="userSpaceOnUse" id="RadialGradient125">
      <stop id="Stop126" stop-color="#ff6578" offset="0" />
      <stop id="Stop127" stop-color="#fbdade" offset="1" />
    </radialGradient>
    <mask fill="white" id="clip128">
      <path d="M 9 6.54642857142857  C 9 5.14335715900538  8.72792255606336 3.91631537845863  8.05384615384615 2.85535714285715  C 7.01038835460415 1.21301342341083  5.22328952187231 0.0696428571428598  3.69230769230769 0.0696428571428598  C 1.17230769230769 0.0696428571428598  0.184615384615387 3.04107142857143  0.184615384615387 6.61607142857143  C 0.184615384615387 8.56239387405839  0.57849990611809 10.6303119729352  1.40769230769231 11.7928571428571  C 2.10155835026308 12.7656719139912  3.121183933602 13  4.26923076923077 13  C 6.78923076923077 13  9 10.1214285714286  9 6.54642857142857  Z " fill-rule="evenodd" />
    </mask>
  </defs>
  <g transform="matrix(1 0 0 1 -56 -9 )">
    <path d="M 9 6.54642857142857  C 9 5.14335715900538  8.72792255606336 3.91631537845863  8.05384615384615 2.85535714285715  C 7.01038835460415 1.21301342341083  5.22328952187231 0.0696428571428598  3.69230769230769 0.0696428571428598  C 1.17230769230769 0.0696428571428598  0.184615384615387 3.04107142857143  0.184615384615387 6.61607142857143  C 0.184615384615387 8.56239387405839  0.57849990611809 10.6303119729352  1.40769230769231 11.7928571428571  C 2.10155835026308 12.7656719139912  3.121183933602 13  4.26923076923077 13  C 6.78923076923077 13  9 10.1214285714286  9 6.54642857142857  Z " fill-rule="nonzero" fill="url(#RadialGradient125)" stroke="none" transform="matrix(1 0 0 1 56 9 )" />
    <path d="M 9 6.54642857142857  C 9 5.14335715900538  8.72792255606336 3.91631537845863  8.05384615384615 2.85535714285715  C 7.01038835460415 1.21301342341083  5.22328952187231 0.0696428571428598  3.69230769230769 0.0696428571428598  C 1.17230769230769 0.0696428571428598  0.184615384615387 3.04107142857143  0.184615384615387 6.61607142857143  C 0.184615384615387 8.56239387405839  0.57849990611809 10.6303119729352  1.40769230769231 11.7928571428571  C 2.10155835026308 12.7656719139912  3.121183933602 13  4.26923076923077 13  C 6.78923076923077 13  9 10.1214285714286  9 6.54642857142857  Z " stroke-width="2" stroke="#555555" fill="none" transform="matrix(1 0 0 1 56 9 )" mask="url(#clip128)" />
  </g>
</svg>