<?xml version="1.0" encoding="utf-8"?>
<svg version="1.1" xmlns:xlink="http://www.w3.org/1999/xlink" width="17px" height="17px" xmlns="http://www.w3.org/2000/svg">
  <defs>
    <radialGradient cx="12.8626684050413" cy="11.3670789433502" r="14.2488775788384" gradientTransform="matrix(-0.784288340685433 0.620396485052011 -0.530601755754501 -0.67077228935394 28.9821013103596 11.011846242571 )" gradientUnits="userSpaceOnUse" id="RadialGradient44">
      <stop id="Stop45" stop-color="#ff6578" offset="0" />
      <stop id="Stop46" stop-color="#fbdade" offset="1" />
    </radialGradient>
    <mask fill="white" id="clip47">
      <path d="M 0 9.11199999999999  C 0 4.54239999999999  3.74 0.272000000000004  8.5 0.272000000000004  C 13.26 0.272000000000004  17 4.2704  17 8.84  C 17 13.4096  14.076 17  9.31599999999999 17  C 4.55599999999999 17  0 13.6816  0 9.11199999999999  Z " fill-rule="evenodd" />
    </mask>
  </defs>
  <g transform="matrix(1 0 0 1 -29 -6 )">
    <path d="M 0 9.11199999999999  C 0 4.54239999999999  3.74 0.272000000000004  8.5 0.272000000000004  C 13.26 0.272000000000004  17 4.2704  17 8.84  C 17 13.4096  14.076 17  9.31599999999999 17  C 4.55599999999999 17  0 13.6816  0 9.11199999999999  Z " fill-rule="nonzero" fill="url(#RadialGradient44)" stroke="none" transform="matrix(1 0 0 1 29 6 )" />
    <path d="M 0 9.11199999999999  C 0 4.54239999999999  3.74 0.272000000000004  8.5 0.272000000000004  C 13.26 0.272000000000004  17 4.2704  17 8.84  C 17 13.4096  14.076 17  9.31599999999999 17  C 4.55599999999999 17  0 13.6816  0 9.11199999999999  Z " stroke-width="2" stroke="#555555" fill="none" transform="matrix(1 0 0 1 29 6 )" mask="url(#clip47)" />
  </g>
</svg>