<?xml version="1.0" encoding="utf-8"?>
<svg version="1.1" xmlns:xlink="http://www.w3.org/1999/xlink" width="211px" height="83px" xmlns="http://www.w3.org/2000/svg">
  <defs>
    <mask fill="white" id="clip43">
      <path d="M 68.8343245539508 6.20689163159022  L 53.2523364485981 7.12840378261364  C 53.2523364485981 7.12840378261364  45.6217869869007 0  36.0050977060323 0  C 26.3884084251639 0  21.0047489823609 10.2815312749231  21.0047489823609 10.2815312749231  C 21.0047489823609 10.2815312749231  13.7459072521843 7.27627007290723  5.07901444350043 16.0349575515446  C -3.5878783651834 24.7936450301819  3.55223880597015 38.5428962059929  3.55223880597015 38.5428962059929  C 3.55223880597015 38.5428962059929  -2.9776119402985 49.9875811780791  1.89009497964718 58.9798336561467  C 6.75780189959286 67.9720861342144  12.5753052917232 70.4245186282328  12.5753052917232 70.4245186282328  C 12.5753052917232 70.4245186282328  18.040434192673 80.8237666628689  29.0818181818182 81.8748091603054  C 40.1232021709633 82.9258516577419  49.1272727272728 73.8625954198473  49.1272727272728 73.8625954198473  C 49.1272727272728 73.8625954198473  57.4036960516774 76.0220319910783  65.763907734057 74.6286886179788  C 67.7647860042867 74.2952149472008  205.982552473076 71.1321717255113  207.288020390824 62.6402701481534  C 208.706728429724 53.4117560885148  209.46870574908 25.2000190245178  209.46870574908 15.0599510118665  C 209.46870574908 4.91988299921524  68.8343245539508 6.20689163159022  68.8343245539508 6.20689163159022  Z " fill-rule="evenodd" />
    </mask>
  </defs>
  <g>
    <path d="M 68.8343245539508 6.20689163159022  L 53.2523364485981 7.12840378261364  C 53.2523364485981 7.12840378261364  45.6217869869007 0  36.0050977060323 0  C 26.3884084251639 0  21.0047489823609 10.2815312749231  21.0047489823609 10.2815312749231  C 21.0047489823609 10.2815312749231  13.7459072521843 7.27627007290723  5.07901444350043 16.0349575515446  C -3.5878783651834 24.7936450301819  3.55223880597015 38.5428962059929  3.55223880597015 38.5428962059929  C 3.55223880597015 38.5428962059929  -2.9776119402985 49.9875811780791  1.89009497964718 58.9798336561467  C 6.75780189959286 67.9720861342144  12.5753052917232 70.4245186282328  12.5753052917232 70.4245186282328  C 12.5753052917232 70.4245186282328  18.040434192673 80.8237666628689  29.0818181818182 81.8748091603054  C 40.1232021709633 82.9258516577419  49.1272727272728 73.8625954198473  49.1272727272728 73.8625954198473  C 49.1272727272728 73.8625954198473  57.4036960516774 76.0220319910783  65.763907734057 74.6286886179788  C 67.7647860042867 74.2952149472008  205.982552473076 71.1321717255113  207.288020390824 62.6402701481534  C 208.706728429724 53.4117560885148  209.46870574908 25.2000190245178  209.46870574908 15.0599510118665  C 209.46870574908 4.91988299921524  68.8343245539508 6.20689163159022  68.8343245539508 6.20689163159022  Z " fill-rule="nonzero" fill="#7b4d12" stroke="none" />
    <path d="M 68.8343245539508 6.20689163159022  L 53.2523364485981 7.12840378261364  C 53.2523364485981 7.12840378261364  45.6217869869007 0  36.0050977060323 0  C 26.3884084251639 0  21.0047489823609 10.2815312749231  21.0047489823609 10.2815312749231  C 21.0047489823609 10.2815312749231  13.7459072521843 7.27627007290723  5.07901444350043 16.0349575515446  C -3.5878783651834 24.7936450301819  3.55223880597015 38.5428962059929  3.55223880597015 38.5428962059929  C 3.55223880597015 38.5428962059929  -2.9776119402985 49.9875811780791  1.89009497964718 58.9798336561467  C 6.75780189959286 67.9720861342144  12.5753052917232 70.4245186282328  12.5753052917232 70.4245186282328  C 12.5753052917232 70.4245186282328  18.040434192673 80.8237666628689  29.0818181818182 81.8748091603054  C 40.1232021709633 82.9258516577419  49.1272727272728 73.8625954198473  49.1272727272728 73.8625954198473  C 49.1272727272728 73.8625954198473  57.4036960516774 76.0220319910783  65.763907734057 74.6286886179788  C 67.7647860042867 74.2952149472008  205.982552473076 71.1321717255113  207.288020390824 62.6402701481534  C 208.706728429724 53.4117560885148  209.46870574908 25.2000190245178  209.46870574908 15.0599510118665  C 209.46870574908 4.91988299921524  68.8343245539508 6.20689163159022  68.8343245539508 6.20689163159022  Z " stroke-width="2" stroke="#aaaaaa" fill="none" mask="url(#clip43)" />
  </g>
</svg>