<?xml version="1.0" encoding="utf-8"?>
<svg version="1.1" xmlns:xlink="http://www.w3.org/1999/xlink" width="205px" height="80px" xmlns="http://www.w3.org/2000/svg">
  <defs>
    <mask fill="white" id="clip129">
      <path d="M 137.132370433305 5.97981023043448  L 152.269158878505 6.86760852227412  C 152.269158878505 6.86760852227412  159.681692641296 0  169.023619371283 0  C 178.365546101269 0  183.595386702849 9.90537769169417  183.595386702849 9.90537769169417  C 183.595386702849 9.90537769169417  190.646832955021 7.01006507023989  199.066100254885 15.4483127630734  C 207.48536755475 23.886560455907  200.549253731343 37.1327902472371  200.549253731343 37.1327902472371  C 200.549253731343 37.1327902472371  206.892537313433 48.1587672325396  202.163907734057 56.8220348638487  C 197.435278154681 65.4853024951578  191.783989145183 67.8480118491511  191.783989145183 67.8480118491511  C 191.783989145183 67.8480118491511  186.475006784261 77.8667995898371  175.749090909091 78.8793893129771  C 165.023175033921 79.8919790361171  156.276363636364 71.1603053435115  156.276363636364 71.1603053435115  C 156.276363636364 71.1603053435115  148.236409549799 73.2407381377462  140.115061058345 71.8983707417112  C 138.171350738693 71.5770973271813  3.90266331186917 68.5297751989682  2.63449447748522 60.3485529476112  C 1.25632095398232 51.4576674511301  0.516114415179792 24.2780671089867  0.516114415179792 14.5089771943592  C 0.516114415179792 4.73988727973175  137.132370433305 5.97981023043448  137.132370433305 5.97981023043448  Z " fill-rule="evenodd" />
    </mask>
  </defs>
  <g transform="matrix(1 0 0 1 57 -63 )">
    <path d="M 137.132370433305 5.97981023043448  L 152.269158878505 6.86760852227412  C 152.269158878505 6.86760852227412  159.681692641296 0  169.023619371283 0  C 178.365546101269 0  183.595386702849 9.90537769169417  183.595386702849 9.90537769169417  C 183.595386702849 9.90537769169417  190.646832955021 7.01006507023989  199.066100254885 15.4483127630734  C 207.48536755475 23.886560455907  200.549253731343 37.1327902472371  200.549253731343 37.1327902472371  C 200.549253731343 37.1327902472371  206.892537313433 48.1587672325396  202.163907734057 56.8220348638487  C 197.435278154681 65.4853024951578  191.783989145183 67.8480118491511  191.783989145183 67.8480118491511  C 191.783989145183 67.8480118491511  186.475006784261 77.8667995898371  175.749090909091 78.8793893129771  C 165.023175033921 79.8919790361171  156.276363636364 71.1603053435115  156.276363636364 71.1603053435115  C 156.276363636364 71.1603053435115  148.236409549799 73.2407381377462  140.115061058345 71.8983707417112  C 138.171350738693 71.5770973271813  3.90266331186917 68.5297751989682  2.63449447748522 60.3485529476112  C 1.25632095398232 51.4576674511301  0.516114415179792 24.2780671089867  0.516114415179792 14.5089771943592  C 0.516114415179792 4.73988727973175  137.132370433305 5.97981023043448  137.132370433305 5.97981023043448  Z " fill-rule="nonzero" fill="#f59a23" stroke="none" transform="matrix(1 0 0 1 -57 63 )" />
    <path d="M 137.132370433305 5.97981023043448  L 152.269158878505 6.86760852227412  C 152.269158878505 6.86760852227412  159.681692641296 0  169.023619371283 0  C 178.365546101269 0  183.595386702849 9.90537769169417  183.595386702849 9.90537769169417  C 183.595386702849 9.90537769169417  190.646832955021 7.01006507023989  199.066100254885 15.4483127630734  C 207.48536755475 23.886560455907  200.549253731343 37.1327902472371  200.549253731343 37.1327902472371  C 200.549253731343 37.1327902472371  206.892537313433 48.1587672325396  202.163907734057 56.8220348638487  C 197.435278154681 65.4853024951578  191.783989145183 67.8480118491511  191.783989145183 67.8480118491511  C 191.783989145183 67.8480118491511  186.475006784261 77.8667995898371  175.749090909091 78.8793893129771  C 165.023175033921 79.8919790361171  156.276363636364 71.1603053435115  156.276363636364 71.1603053435115  C 156.276363636364 71.1603053435115  148.236409549799 73.2407381377462  140.115061058345 71.8983707417112  C 138.171350738693 71.5770973271813  3.90266331186917 68.5297751989682  2.63449447748522 60.3485529476112  C 1.25632095398232 51.4576674511301  0.516114415179792 24.2780671089867  0.516114415179792 14.5089771943592  C 0.516114415179792 4.73988727973175  137.132370433305 5.97981023043448  137.132370433305 5.97981023043448  Z " stroke-width="2" stroke="#aaaaaa" fill="none" transform="matrix(1 0 0 1 -57 63 )" mask="url(#clip129)" />
  </g>
</svg>