<?xml version="1.0" encoding="utf-8"?>
<svg version="1.1" xmlns:xlink="http://www.w3.org/1999/xlink" width="23px" height="17px" xmlns="http://www.w3.org/2000/svg">
  <defs>
    <radialGradient cx="17.4024337244676" cy="11.3670789433502" r="18.4593784906728" gradientTransform="matrix(-0.978737659491097 0.205116049820312 -0.141418124723282 -0.674794802856909 36.042361965152 15.4680062751645 )" gradientUnits="userSpaceOnUse" id="RadialGradient72">
      <stop id="Stop73" stop-color="#ff6578" offset="0" />
      <stop id="Stop74" stop-color="#fbdade" offset="1" />
    </radialGradient>
    <mask fill="white" id="clip75">
      <path d="M 0 9.71428571428571  C 0 5.6342857142857  6.56176470588238 0.424999999999993  9.60588235294121 0.182142857142864  C 12.65 -0.060714285714265  17.3704971039323 0.692481517888812  20.2264705882353 3.03571428571432  C 22.2849830812584 4.7246564111021  23 7.39816840685787  23 9.10714285714286  C 23 11.3644922799165  19.4857862203465 14.6904332059548  16.1676470588235 15.9678571428572  C 13.4884835243468 16.9992869483044  10.9095065090358 16.8178571428571  8.79411764705886 16.8178571428571  C 4.0588235294118 16.8178571428571  0 13.7942857142857  0 9.71428571428571  Z " fill-rule="evenodd" />
    </mask>
  </defs>
  <g transform="matrix(1 0 0 1 -11 -43 )">
    <path d="M 0 9.71428571428571  C 0 5.6342857142857  6.56176470588238 0.424999999999993  9.60588235294121 0.182142857142864  C 12.65 -0.060714285714265  17.3704971039323 0.692481517888812  20.2264705882353 3.03571428571432  C 22.2849830812584 4.7246564111021  23 7.39816840685787  23 9.10714285714286  C 23 11.3644922799165  19.4857862203465 14.6904332059548  16.1676470588235 15.9678571428572  C 13.4884835243468 16.9992869483044  10.9095065090358 16.8178571428571  8.79411764705886 16.8178571428571  C 4.0588235294118 16.8178571428571  0 13.7942857142857  0 9.71428571428571  Z " fill-rule="nonzero" fill="url(#RadialGradient72)" stroke="none" transform="matrix(1 0 0 1 11 43 )" />
    <path d="M 0 9.71428571428571  C 0 5.6342857142857  6.56176470588238 0.424999999999993  9.60588235294121 0.182142857142864  C 12.65 -0.060714285714265  17.3704971039323 0.692481517888812  20.2264705882353 3.03571428571432  C 22.2849830812584 4.7246564111021  23 7.39816840685787  23 9.10714285714286  C 23 11.3644922799165  19.4857862203465 14.6904332059548  16.1676470588235 15.9678571428572  C 13.4884835243468 16.9992869483044  10.9095065090358 16.8178571428571  8.79411764705886 16.8178571428571  C 4.0588235294118 16.8178571428571  0 13.7942857142857  0 9.71428571428571  Z " stroke-width="2" stroke="#555555" fill="none" transform="matrix(1 0 0 1 11 43 )" mask="url(#clip75)" />
  </g>
</svg>