<?xml version="1.0" encoding="utf-8"?>
<svg version="1.1" xmlns:xlink="http://www.w3.org/1999/xlink" width="81px" height="32px" xmlns="http://www.w3.org/2000/svg">
  <defs>
    <mask fill="white" id="clip84">
      <path d="M 26.2225998300765 2.34650781194264  L 20.2866043613707 2.69488435684174  C 20.2866043613707 2.69488435684174  17.3797283759622 0  13.7162276975361 0  C 10.0527270191101 0  8.00180913613749 3.88692036003189  8.00180913613749 3.88692036003189  C 8.00180913613749 3.88692036003189  5.2365360960702 2.75078502756249  1.93486264514302 6.06199614753514  C -1.36681080578415 9.37320726750779  1.35323383084577 14.5710949071437  1.35323383084577 14.5710949071437  C 1.35323383084577 14.5710949071437  -1.13432835820895 18.8977441039079  0.720036182722734 22.2972541870799  C 2.57440072365442 25.6967642702518  4.79059249208501 26.6239033838441  4.79059249208501 26.6239033838441  C 4.79059249208501 26.6239033838441  6.87254635911353 30.5553264213285  11.0787878787879 30.9526717557252  C 15.2850293984622 31.3500170901219  18.7151515151515 27.9236641221374  18.7151515151515 27.9236641221374  C 18.7151515151515 27.9236641221374  21.8680746863533 28.740036484432  25.0529172320217 28.213284721431  C 25.8151565730616 28.0872154068686  78.469543799267 26.8914307742787  78.9668649107901 23.6810777389361  C 79.5073251160854 20.1922492529751  79.7976021901256 9.52683646048845  79.7976021901256 5.69339611424223  C 79.7976021901256 1.859955767996  26.2225998300765 2.34650781194264  26.2225998300765 2.34650781194264  Z " fill-rule="evenodd" />
    </mask>
  </defs>
  <g>
    <path d="M 26.2225998300765 2.34650781194264  L 20.2866043613707 2.69488435684174  C 20.2866043613707 2.69488435684174  17.3797283759622 0  13.7162276975361 0  C 10.0527270191101 0  8.00180913613749 3.88692036003189  8.00180913613749 3.88692036003189  C 8.00180913613749 3.88692036003189  5.2365360960702 2.75078502756249  1.93486264514302 6.06199614753514  C -1.36681080578415 9.37320726750779  1.35323383084577 14.5710949071437  1.35323383084577 14.5710949071437  C 1.35323383084577 14.5710949071437  -1.13432835820895 18.8977441039079  0.720036182722734 22.2972541870799  C 2.57440072365442 25.6967642702518  4.79059249208501 26.6239033838441  4.79059249208501 26.6239033838441  C 4.79059249208501 26.6239033838441  6.87254635911353 30.5553264213285  11.0787878787879 30.9526717557252  C 15.2850293984622 31.3500170901219  18.7151515151515 27.9236641221374  18.7151515151515 27.9236641221374  C 18.7151515151515 27.9236641221374  21.8680746863533 28.740036484432  25.0529172320217 28.213284721431  C 25.8151565730616 28.0872154068686  78.469543799267 26.8914307742787  78.9668649107901 23.6810777389361  C 79.5073251160854 20.1922492529751  79.7976021901256 9.52683646048845  79.7976021901256 5.69339611424223  C 79.7976021901256 1.859955767996  26.2225998300765 2.34650781194264  26.2225998300765 2.34650781194264  Z " fill-rule="nonzero" fill="#7b4d12" stroke="none" />
    <path d="M 26.2225998300765 2.34650781194264  L 20.2866043613707 2.69488435684174  C 20.2866043613707 2.69488435684174  17.3797283759622 0  13.7162276975361 0  C 10.0527270191101 0  8.00180913613749 3.88692036003189  8.00180913613749 3.88692036003189  C 8.00180913613749 3.88692036003189  5.2365360960702 2.75078502756249  1.93486264514302 6.06199614753514  C -1.36681080578415 9.37320726750779  1.35323383084577 14.5710949071437  1.35323383084577 14.5710949071437  C 1.35323383084577 14.5710949071437  -1.13432835820895 18.8977441039079  0.720036182722734 22.2972541870799  C 2.57440072365442 25.6967642702518  4.79059249208501 26.6239033838441  4.79059249208501 26.6239033838441  C 4.79059249208501 26.6239033838441  6.87254635911353 30.5553264213285  11.0787878787879 30.9526717557252  C 15.2850293984622 31.3500170901219  18.7151515151515 27.9236641221374  18.7151515151515 27.9236641221374  C 18.7151515151515 27.9236641221374  21.8680746863533 28.740036484432  25.0529172320217 28.213284721431  C 25.8151565730616 28.0872154068686  78.469543799267 26.8914307742787  78.9668649107901 23.6810777389361  C 79.5073251160854 20.1922492529751  79.7976021901256 9.52683646048845  79.7976021901256 5.69339611424223  C 79.7976021901256 1.859955767996  26.2225998300765 2.34650781194264  26.2225998300765 2.34650781194264  Z " stroke-width="2" stroke="#aaaaaa" fill="none" mask="url(#clip84)" />
  </g>
</svg>