<?xml version="1.0" encoding="utf-8"?>
<svg version="1.1" xmlns:xlink="http://www.w3.org/1999/xlink" width="15px" height="15px" xmlns="http://www.w3.org/2000/svg">
  <defs>
    <radialGradient cx="11.3494132985658" cy="10.0297755382501" r="12.5725390401515" gradientTransform="matrix(-0.784288340685433 0.620396485052011 -0.530601755754501 -0.67077228935394 25.5724423326703 9.71633491991556 )" gradientUnits="userSpaceOnUse" id="RadialGradient167">
      <stop id="Stop168" stop-color="#ff6578" offset="0" />
      <stop id="Stop169" stop-color="#fbdade" offset="1" />
    </radialGradient>
    <mask fill="white" id="clip170">
      <path d="M 0 7.73999999999999  C 0 4.54799999999999  2.93793103448276 0.119999999999993  7.13793103448276 0.119999999999993  C 11.3379310344828 0.119999999999993  15 1.908  15 5.1  C 15 8.292  9.16551724137932 14.94  4.96551724137932 14.94  C 3.66799437603526 14.94  2.42753752960229 14.9510595097842  1.70689655172414 13.98  C 0.0948679575052654 11.8078008821129  0 9.94588262233849  0 7.73999999999999  Z " fill-rule="evenodd" />
    </mask>
  </defs>
  <g transform="matrix(1 0 0 1 -63 -165 )">
    <path d="M 0 7.73999999999999  C 0 4.54799999999999  2.93793103448276 0.119999999999993  7.13793103448276 0.119999999999993  C 11.3379310344828 0.119999999999993  15 1.908  15 5.1  C 15 8.292  9.16551724137932 14.94  4.96551724137932 14.94  C 3.66799437603526 14.94  2.42753752960229 14.9510595097842  1.70689655172414 13.98  C 0.0948679575052654 11.8078008821129  0 9.94588262233849  0 7.73999999999999  Z " fill-rule="nonzero" fill="url(#RadialGradient167)" stroke="none" transform="matrix(1 0 0 1 63 165 )" />
    <path d="M 0 7.73999999999999  C 0 4.54799999999999  2.93793103448276 0.119999999999993  7.13793103448276 0.119999999999993  C 11.3379310344828 0.119999999999993  15 1.908  15 5.1  C 15 8.292  9.16551724137932 14.94  4.96551724137932 14.94  C 3.66799437603526 14.94  2.42753752960229 14.9510595097842  1.70689655172414 13.98  C 0.0948679575052654 11.8078008821129  0 9.94588262233849  0 7.73999999999999  Z " stroke-width="2" stroke="#555555" fill="none" transform="matrix(1 0 0 1 63 165 )" mask="url(#clip170)" />
  </g>
</svg>