<?xml version="1.0" encoding="utf-8"?>
<svg version="1.1" xmlns:xlink="http://www.w3.org/1999/xlink" width="20px" height="15px" xmlns="http://www.w3.org/2000/svg">
  <defs>
    <radialGradient cx="15.1325510647544" cy="10.0297755382501" r="16.0618979797969" gradientTransform="matrix(-0.976949918919416 0.213468629834331 -0.149150396718604 -0.682594290758896 31.4122406010387 13.6457181165618 )" gradientUnits="userSpaceOnUse" id="RadialGradient179">
      <stop id="Stop180" stop-color="#ff6578" offset="0" />
      <stop id="Stop181" stop-color="#fbdade" offset="1" />
    </radialGradient>
    <mask fill="white" id="clip182">
      <path d="M 0 8.4  C 0 4.36799999999998  4.81249999999999 0  9.18749999999999 0  C 13.5625 0  19.875 4.36799999999998  19.875 8.4  C 19.875 12.432  12.3125 15  7.93749999999999 15  C 3.56249999999999 15  0 12.432  0 8.4  Z " fill-rule="evenodd" />
    </mask>
  </defs>
  <g transform="matrix(1 0 0 1 -20 -178 )">
    <path d="M 0 8.4  C 0 4.36799999999998  4.81249999999999 0  9.18749999999999 0  C 13.5625 0  19.875 4.36799999999998  19.875 8.4  C 19.875 12.432  12.3125 15  7.93749999999999 15  C 3.56249999999999 15  0 12.432  0 8.4  Z " fill-rule="nonzero" fill="url(#RadialGradient179)" stroke="none" transform="matrix(1 0 0 1 20 178 )" />
    <path d="M 0 8.4  C 0 4.36799999999998  4.81249999999999 0  9.18749999999999 0  C 13.5625 0  19.875 4.36799999999998  19.875 8.4  C 19.875 12.432  12.3125 15  7.93749999999999 15  C 3.56249999999999 15  0 12.432  0 8.4  Z " stroke-width="2" stroke="#555555" fill="none" transform="matrix(1 0 0 1 20 178 )" mask="url(#clip182)" />
  </g>
</svg>