<?xml version="1.0" encoding="utf-8"?>
<svg version="1.1" xmlns:xlink="http://www.w3.org/1999/xlink" width="81px" height="32px" xmlns="http://www.w3.org/2000/svg">
  <defs>
    <mask fill="white" id="clip195">
      <path d="M 53.7774001699235 2.34650781194264  L 59.7133956386293 2.69488435684174  C 59.7133956386293 2.69488435684174  62.6202716240378 0  66.2837723024639 0  C 69.9472729808899 0  71.9981908638625 3.88692036003189  71.9981908638625 3.88692036003189  C 71.9981908638625 3.88692036003189  74.7634639039298 2.75078502756249  78.065137354857 6.06199614753514  C 81.3668108057842 9.37320726750779  78.6467661691542 14.5710949071437  78.6467661691542 14.5710949071437  C 78.6467661691542 14.5710949071437  81.1343283582089 18.8977441039079  79.2799638172773 22.2972541870799  C 77.4255992763456 25.6967642702518  75.209407507915 26.6239033838441  75.209407507915 26.6239033838441  C 75.209407507915 26.6239033838441  73.1274536408865 30.5553264213285  68.9212121212121 30.9526717557252  C 64.7149706015378 31.3500170901219  61.2848484848485 27.9236641221374  61.2848484848485 27.9236641221374  C 61.2848484848485 27.9236641221374  58.1319253136467 28.740036484432  54.9470827679783 28.213284721431  C 54.1848434269384 28.0872154068686  1.53045620073301 26.8914307742787  1.03313508920989 23.6810777389361  C 0.492674883914637 20.1922492529751  0.202397809874428 9.52683646048845  0.202397809874428 5.69339611424223  C 0.202397809874428 1.859955767996  53.7774001699235 2.34650781194264  53.7774001699235 2.34650781194264  Z " fill-rule="evenodd" />
    </mask>
  </defs>
  <g>
    <path d="M 53.7774001699235 2.34650781194264  L 59.7133956386293 2.69488435684174  C 59.7133956386293 2.69488435684174  62.6202716240378 0  66.2837723024639 0  C 69.9472729808899 0  71.9981908638625 3.88692036003189  71.9981908638625 3.88692036003189  C 71.9981908638625 3.88692036003189  74.7634639039298 2.75078502756249  78.065137354857 6.06199614753514  C 81.3668108057842 9.37320726750779  78.6467661691542 14.5710949071437  78.6467661691542 14.5710949071437  C 78.6467661691542 14.5710949071437  81.1343283582089 18.8977441039079  79.2799638172773 22.2972541870799  C 77.4255992763456 25.6967642702518  75.209407507915 26.6239033838441  75.209407507915 26.6239033838441  C 75.209407507915 26.6239033838441  73.1274536408865 30.5553264213285  68.9212121212121 30.9526717557252  C 64.7149706015378 31.3500170901219  61.2848484848485 27.9236641221374  61.2848484848485 27.9236641221374  C 61.2848484848485 27.9236641221374  58.1319253136467 28.740036484432  54.9470827679783 28.213284721431  C 54.1848434269384 28.0872154068686  1.53045620073301 26.8914307742787  1.03313508920989 23.6810777389361  C 0.492674883914637 20.1922492529751  0.202397809874428 9.52683646048845  0.202397809874428 5.69339611424223  C 0.202397809874428 1.859955767996  53.7774001699235 2.34650781194264  53.7774001699235 2.34650781194264  Z " fill-rule="nonzero" fill="#f59a23" stroke="none" />
    <path d="M 53.7774001699235 2.34650781194264  L 59.7133956386293 2.69488435684174  C 59.7133956386293 2.69488435684174  62.6202716240378 0  66.2837723024639 0  C 69.9472729808899 0  71.9981908638625 3.88692036003189  71.9981908638625 3.88692036003189  C 71.9981908638625 3.88692036003189  74.7634639039298 2.75078502756249  78.065137354857 6.06199614753514  C 81.3668108057842 9.37320726750779  78.6467661691542 14.5710949071437  78.6467661691542 14.5710949071437  C 78.6467661691542 14.5710949071437  81.1343283582089 18.8977441039079  79.2799638172773 22.2972541870799  C 77.4255992763456 25.6967642702518  75.209407507915 26.6239033838441  75.209407507915 26.6239033838441  C 75.209407507915 26.6239033838441  73.1274536408865 30.5553264213285  68.9212121212121 30.9526717557252  C 64.7149706015378 31.3500170901219  61.2848484848485 27.9236641221374  61.2848484848485 27.9236641221374  C 61.2848484848485 27.9236641221374  58.1319253136467 28.740036484432  54.9470827679783 28.213284721431  C 54.1848434269384 28.0872154068686  1.53045620073301 26.8914307742787  1.03313508920989 23.6810777389361  C 0.492674883914637 20.1922492529751  0.202397809874428 9.52683646048845  0.202397809874428 5.69339611424223  C 0.202397809874428 1.859955767996  53.7774001699235 2.34650781194264  53.7774001699235 2.34650781194264  Z " stroke-width="2" stroke="#aaaaaa" fill="none" mask="url(#clip195)" />
  </g>
</svg>