<?xml version="1.0" encoding="utf-8"?>
<svg version="1.1" xmlns:xlink="http://www.w3.org/1999/xlink" width="6px" height="6px" xmlns="http://www.w3.org/2000/svg">
  <defs>
    <radialGradient cx="4.53976531942633" cy="4.01191021530006" r="5.02901561606062" gradientTransform="matrix(-0.784288340685433 0.620396485052011 -0.530601755754501 -0.67077228935394 10.2289769330681 3.88653396796622 )" gradientUnits="userSpaceOnUse" id="RadialGradient187">
      <stop id="Stop188" stop-color="#ff6578" offset="0" />
      <stop id="Stop189" stop-color="#fbdade" offset="1" />
    </radialGradient>
    <mask fill="white" id="clip190">
      <path d="M 0 3.09599999999999  C 0 1.8192  1.1751724137931 0.0479999999999973  2.85517241379311 0.0479999999999973  C 4.53517241379311 0.0479999999999973  6 0.763200000000002  6 2.04  C 6 3.3168  3.66620689655173 5.97599999999999  1.98620689655173 5.97599999999999  C 1.4671977504141 5.97599999999999  0.971015011840916 5.98042380391368  0.682758620689658 5.592  C 0.0379471830021061 4.72312035284515  0 3.9783530489354  0 3.09599999999999  Z " fill-rule="evenodd" />
    </mask>
  </defs>
  <g transform="matrix(1 0 0 1 -10 -22 )">
    <path d="M 0 3.09599999999999  C 0 1.8192  1.1751724137931 0.0479999999999973  2.85517241379311 0.0479999999999973  C 4.53517241379311 0.0479999999999973  6 0.763200000000002  6 2.04  C 6 3.3168  3.66620689655173 5.97599999999999  1.98620689655173 5.97599999999999  C 1.4671977504141 5.97599999999999  0.971015011840916 5.98042380391368  0.682758620689658 5.592  C 0.0379471830021061 4.72312035284515  0 3.9783530489354  0 3.09599999999999  Z " fill-rule="nonzero" fill="url(#RadialGradient187)" stroke="none" transform="matrix(1 0 0 1 10 22 )" />
    <path d="M 0 3.09599999999999  C 0 1.8192  1.1751724137931 0.0479999999999973  2.85517241379311 0.0479999999999973  C 4.53517241379311 0.0479999999999973  6 0.763200000000002  6 2.04  C 6 3.3168  3.66620689655173 5.97599999999999  1.98620689655173 5.97599999999999  C 1.4671977504141 5.97599999999999  0.971015011840916 5.98042380391368  0.682758620689658 5.592  C 0.0379471830021061 4.72312035284515  0 3.9783530489354  0 3.09599999999999  Z " stroke-width="2" stroke="#555555" fill="none" transform="matrix(1 0 0 1 10 22 )" mask="url(#clip190)" />
  </g>
</svg>