<?xml version="1.0" encoding="utf-8"?>
<svg version="1.1" xmlns:xlink="http://www.w3.org/1999/xlink" width="6px" height="6px" xmlns="http://www.w3.org/2000/svg">
  <defs>
    <radialGradient cx="2.3" cy="2.8" r="5.02901561606062" gradientTransform="matrix(-0.784288340685432 0.620396485052012 -0.530601755754503 -0.67077228935394 5.58954809968909 3.2512504945714 )" gradientUnits="userSpaceOnUse" id="RadialGradient110">
      <stop id="Stop111" stop-color="#ff6578" offset="0" />
      <stop id="Stop112" stop-color="#fbdade" offset="1" />
    </radialGradient>
    <mask fill="white" id="clip113">
      <path d="M 6 3.21599999999999  C 6 1.60319999999999  4.68 0.0960000000000014  3 0.0960000000000014  C 1.32 0.0960000000000014  0 1.5072  0 3.12  C 0 4.73280000000001  1.032 6  2.712 6  C 4.392 6  6 4.8288  6 3.21599999999999  Z " fill-rule="evenodd" />
    </mask>
  </defs>
  <g transform="matrix(1 0 0 1 -62 -3 )">
    <path d="M 6 3.21599999999999  C 6 1.60319999999999  4.68 0.0960000000000014  3 0.0960000000000014  C 1.32 0.0960000000000014  0 1.5072  0 3.12  C 0 4.73280000000001  1.032 6  2.712 6  C 4.392 6  6 4.8288  6 3.21599999999999  Z " fill-rule="nonzero" fill="url(#RadialGradient110)" stroke="none" transform="matrix(1 0 0 1 62 3 )" />
    <path d="M 6 3.21599999999999  C 6 1.60319999999999  4.68 0.0960000000000014  3 0.0960000000000014  C 1.32 0.0960000000000014  0 1.5072  0 3.12  C 0 4.73280000000001  1.032 6  2.712 6  C 4.392 6  6 4.8288  6 3.21599999999999  Z " stroke-width="2" stroke="#555555" fill="none" transform="matrix(1 0 0 1 62 3 )" mask="url(#clip113)" />
  </g>
</svg>