<?xml version="1.0" encoding="utf-8"?>
<svg version="1.1" xmlns:xlink="http://www.w3.org/1999/xlink" width="23px" height="33px" xmlns="http://www.w3.org/2000/svg">
  <defs>
    <radialGradient cx="6.49425287356323" cy="18.4022988505747" r="25.5700284912023" gradientTransform="matrix(0.212351446584447 -0.977193360156266 0.681589169958713 0.148114438880223 -7.42761871751851 22.0227934694374 )" gradientUnits="userSpaceOnUse" id="RadialGradient170">
      <stop id="Stop171" stop-color="#ff6578" offset="0" />
      <stop id="Stop172" stop-color="#fbdade" offset="1" />
    </radialGradient>
    <mask fill="white" id="clip173">
      <path d="M 23 16.6178571428571  C 23 13.056214326706  22.3046909766064 9.94141596070268  20.5820512820513 7.24821428571429  C 17.9154369062106 3.07918792096595  13.3484065558959 0.176785714285721  9.43589743589744 0.176785714285721  C 2.99589743589743 0.176785714285721  0.471794871794878 7.71964285714287  0.471794871794878 16.7946428571429  C 0.471794871794878 21.7353075264559  1.47838864896845 26.9846380851432  3.59743589743591 29.9357142857143  C 5.37064911733898 32.4051671662854  7.97635894142732 33  10.9102564102564 33  C 17.3502564102564 33  23 25.6928571428571  23 16.6178571428571  Z " fill-rule="evenodd" />
    </mask>
  </defs>
  <g transform="matrix(1 0 0 1 -35 -140 )">
    <path d="M 23 16.6178571428571  C 23 13.056214326706  22.3046909766064 9.94141596070268  20.5820512820513 7.24821428571429  C 17.9154369062106 3.07918792096595  13.3484065558959 0.176785714285721  9.43589743589744 0.176785714285721  C 2.99589743589743 0.176785714285721  0.471794871794878 7.71964285714287  0.471794871794878 16.7946428571429  C 0.471794871794878 21.7353075264559  1.47838864896845 26.9846380851432  3.59743589743591 29.9357142857143  C 5.37064911733898 32.4051671662854  7.97635894142732 33  10.9102564102564 33  C 17.3502564102564 33  23 25.6928571428571  23 16.6178571428571  Z " fill-rule="nonzero" fill="url(#RadialGradient170)" stroke="none" transform="matrix(1 0 0 1 35 140 )" />
    <path d="M 23 16.6178571428571  C 23 13.056214326706  22.3046909766064 9.94141596070268  20.5820512820513 7.24821428571429  C 17.9154369062106 3.07918792096595  13.3484065558959 0.176785714285721  9.43589743589744 0.176785714285721  C 2.99589743589743 0.176785714285721  0.471794871794878 7.71964285714287  0.471794871794878 16.7946428571429  C 0.471794871794878 21.7353075264559  1.47838864896845 26.9846380851432  3.59743589743591 29.9357142857143  C 5.37064911733898 32.4051671662854  7.97635894142732 33  10.9102564102564 33  C 17.3502564102564 33  23 25.6928571428571  23 16.6178571428571  Z " stroke-width="2" stroke="#555555" fill="none" transform="matrix(1 0 0 1 35 140 )" mask="url(#clip173)" />
  </g>
</svg>