<?xml version="1.0" encoding="utf-8"?>
<svg version="1.1" xmlns:xlink="http://www.w3.org/1999/xlink" width="6px" height="6px" xmlns="http://www.w3.org/2000/svg">
  <defs>
    <radialGradient cx="4.53976531942633" cy="4.01191021530006" r="5.02901561606062" gradientTransform="matrix(-0.784288340685433 0.620396485052011 -0.530601755754501 -0.67077228935394 10.2289769330681 3.88653396796622 )" gradientUnits="userSpaceOnUse" id="RadialGradient89">
      <stop id="Stop90" stop-color="#ff6578" offset="0" />
      <stop id="Stop91" stop-color="#fbdade" offset="1" />
    </radialGradient>
    <mask fill="white" id="clip92">
      <path d="M 0 3.21599999999999  C 0 1.60319999999999  1.32 0.0960000000000014  3 0.0960000000000014  C 4.68 0.0960000000000014  6 1.5072  6 3.12  C 6 4.73280000000001  4.968 6  3.288 6  C 1.608 6  0 4.8288  0 3.21599999999999  Z " fill-rule="evenodd" />
    </mask>
  </defs>
  <g transform="matrix(1 0 0 1 -11 -2 )">
    <path d="M 0 3.21599999999999  C 0 1.60319999999999  1.32 0.0960000000000014  3 0.0960000000000014  C 4.68 0.0960000000000014  6 1.5072  6 3.12  C 6 4.73280000000001  4.968 6  3.288 6  C 1.608 6  0 4.8288  0 3.21599999999999  Z " fill-rule="nonzero" fill="url(#RadialGradient89)" stroke="none" transform="matrix(1 0 0 1 11 2 )" />
    <path d="M 0 3.21599999999999  C 0 1.60319999999999  1.32 0.0960000000000014  3 0.0960000000000014  C 4.68 0.0960000000000014  6 1.5072  6 3.12  C 6 4.73280000000001  4.968 6  3.288 6  C 1.608 6  0 4.8288  0 3.21599999999999  Z " stroke-width="2" stroke="#555555" fill="none" transform="matrix(1 0 0 1 11 2 )" mask="url(#clip92)" />
  </g>
</svg>