<?xml version="1.0" encoding="utf-8"?>
<svg version="1.1" xmlns:xlink="http://www.w3.org/1999/xlink" width="23px" height="16px" xmlns="http://www.w3.org/2000/svg">
  <defs>
    <radialGradient cx="5.20114942528738" cy="6.79885057471264" r="18.4190222787725" gradientTransform="matrix(-0.984420863107399 0.175828223783568 -0.114595109235458 -0.641591059239257 11.1003844559641 10.2464234514707 )" gradientUnits="userSpaceOnUse" id="RadialGradient166">
      <stop id="Stop167" stop-color="#ff6578" offset="0" />
      <stop id="Stop168" stop-color="#fbdade" offset="1" />
    </radialGradient>
    <mask fill="white" id="clip169">
      <path d="M 23 9.14285714285714  C 23 5.30285714285713  16.4382352941176 0.399999999999994  13.3941176470588 0.171428571428578  C 10.35 -0.0571428571428377  5.62950289606768 0.651747310954176  2.77352941176468 2.85714285714289  C 0.715016918741611 4.44673544574315  0 6.96298202998388  0 8.57142857142857  C 0 10.695992734039  3.51421377965352 13.8262900761928  6.83235294117649 15.0285714285714  C 9.51151647565323 15.9993288925218  12.0904934909642 15.8285714285714  14.2058823529411 15.8285714285714  C 18.9411764705882 15.8285714285714  23 12.9828571428572  23 9.14285714285714  Z " fill-rule="evenodd" />
    </mask>
  </defs>
  <g transform="matrix(1 0 0 1 -25 -176 )">
    <path d="M 23 9.14285714285714  C 23 5.30285714285713  16.4382352941176 0.399999999999994  13.3941176470588 0.171428571428578  C 10.35 -0.0571428571428377  5.62950289606768 0.651747310954176  2.77352941176468 2.85714285714289  C 0.715016918741611 4.44673544574315  0 6.96298202998388  0 8.57142857142857  C 0 10.695992734039  3.51421377965352 13.8262900761928  6.83235294117649 15.0285714285714  C 9.51151647565323 15.9993288925218  12.0904934909642 15.8285714285714  14.2058823529411 15.8285714285714  C 18.9411764705882 15.8285714285714  23 12.9828571428572  23 9.14285714285714  Z " fill-rule="nonzero" fill="url(#RadialGradient166)" stroke="none" transform="matrix(1 0 0 1 25 176 )" />
    <path d="M 23 9.14285714285714  C 23 5.30285714285713  16.4382352941176 0.399999999999994  13.3941176470588 0.171428571428578  C 10.35 -0.0571428571428377  5.62950289606768 0.651747310954176  2.77352941176468 2.85714285714289  C 0.715016918741611 4.44673544574315  0 6.96298202998388  0 8.57142857142857  C 0 10.695992734039  3.51421377965352 13.8262900761928  6.83235294117649 15.0285714285714  C 9.51151647565323 15.9993288925218  12.0904934909642 15.8285714285714  14.2058823529411 15.8285714285714  C 18.9411764705882 15.8285714285714  23 12.9828571428572  23 9.14285714285714  Z " stroke-width="2" stroke="#555555" fill="none" transform="matrix(1 0 0 1 25 176 )" mask="url(#clip169)" />
  </g>
</svg>