<?xml version="1.0" encoding="utf-8"?>
<svg version="1.1" xmlns:xlink="http://www.w3.org/1999/xlink" width="17px" height="17px" xmlns="http://www.w3.org/2000/svg">
  <defs>
    <radialGradient cx="12.8626684050413" cy="11.3670789433502" r="14.2488775788384" gradientTransform="matrix(-0.784288340685433 0.620396485052011 -0.530601755754501 -0.67077228935394 28.9821013103596 11.011846242571 )" gradientUnits="userSpaceOnUse" id="RadialGradient80">
      <stop id="Stop81" stop-color="#ff6578" offset="0" />
      <stop id="Stop82" stop-color="#fbdade" offset="1" />
    </radialGradient>
    <mask fill="white" id="clip83">
      <path d="M 0 8.77199999999998  C 0 5.15439999999999  3.3296551724138 0.135999999999992  8.0896551724138 0.135999999999992  C 12.8496551724138 0.135999999999992  17 2.1624  17 5.78  C 17 9.3976  10.3875862068966 16.932  5.62758620689656 16.932  C 4.15706029283996 16.932  2.75120920021593 16.9445341110888  1.9344827586207 15.844  C 0.107517018505967 13.3821743330613  0 11.272000305317  0 8.77199999999998  Z " fill-rule="evenodd" />
    </mask>
  </defs>
  <g transform="matrix(1 0 0 1 -26 -59 )">
    <path d="M 0 8.77199999999998  C 0 5.15439999999999  3.3296551724138 0.135999999999992  8.0896551724138 0.135999999999992  C 12.8496551724138 0.135999999999992  17 2.1624  17 5.78  C 17 9.3976  10.3875862068966 16.932  5.62758620689656 16.932  C 4.15706029283996 16.932  2.75120920021593 16.9445341110888  1.9344827586207 15.844  C 0.107517018505967 13.3821743330613  0 11.272000305317  0 8.77199999999998  Z " fill-rule="nonzero" fill="url(#RadialGradient80)" stroke="none" transform="matrix(1 0 0 1 26 59 )" />
    <path d="M 0 8.77199999999998  C 0 5.15439999999999  3.3296551724138 0.135999999999992  8.0896551724138 0.135999999999992  C 12.8496551724138 0.135999999999992  17 2.1624  17 5.78  C 17 9.3976  10.3875862068966 16.932  5.62758620689656 16.932  C 4.15706029283996 16.932  2.75120920021593 16.9445341110888  1.9344827586207 15.844  C 0.107517018505967 13.3821743330613  0 11.272000305317  0 8.77199999999998  Z " stroke-width="2" stroke="#555555" fill="none" transform="matrix(1 0 0 1 26 59 )" mask="url(#clip83)" />
  </g>
</svg>