<?xml version="1.0" encoding="utf-8"?>
<svg version="1.1" xmlns:xlink="http://www.w3.org/1999/xlink" width="15px" height="15px" xmlns="http://www.w3.org/2000/svg">
  <defs>
    <radialGradient cx="11.3494132985658" cy="10.0297755382501" r="12.5725390401515" gradientTransform="matrix(-0.784288340685433 0.620396485052011 -0.530601755754501 -0.67077228935394 25.5724423326703 9.71633491991556 )" gradientUnits="userSpaceOnUse" id="RadialGradient175">
      <stop id="Stop176" stop-color="#ff6578" offset="0" />
      <stop id="Stop177" stop-color="#fbdade" offset="1" />
    </radialGradient>
    <mask fill="white" id="clip178">
      <path d="M 0 8.03999999999999  C 0 4.00799999999999  3.3 0.240000000000003  7.5 0.240000000000003  C 11.7 0.240000000000003  15 3.768  15 7.8  C 15 11.832  12.42 15  8.21999999999999 15  C 4.01999999999999 15  0 12.072  0 8.03999999999999  Z " fill-rule="evenodd" />
    </mask>
  </defs>
  <g transform="matrix(1 0 0 1 -12 -163 )">
    <path d="M 0 8.03999999999999  C 0 4.00799999999999  3.3 0.240000000000003  7.5 0.240000000000003  C 11.7 0.240000000000003  15 3.768  15 7.8  C 15 11.832  12.42 15  8.21999999999999 15  C 4.01999999999999 15  0 12.072  0 8.03999999999999  Z " fill-rule="nonzero" fill="url(#RadialGradient175)" stroke="none" transform="matrix(1 0 0 1 12 163 )" />
    <path d="M 0 8.03999999999999  C 0 4.00799999999999  3.3 0.240000000000003  7.5 0.240000000000003  C 11.7 0.240000000000003  15 3.768  15 7.8  C 15 11.832  12.42 15  8.21999999999999 15  C 4.01999999999999 15  0 12.072  0 8.03999999999999  Z " stroke-width="2" stroke="#555555" fill="none" transform="matrix(1 0 0 1 12 163 )" mask="url(#clip178)" />
  </g>
</svg>