<?xml version="1.0" encoding="utf-8"?>
<svg version="1.1" xmlns:xlink="http://www.w3.org/1999/xlink" width="16px" height="16px" xmlns="http://www.w3.org/2000/svg">
  <defs>
    <radialGradient cx="4.65517241379311" cy="6.86206896551724" r="13.410708309495" gradientTransform="matrix(-0.784288340685432 0.620396485052013 -0.530601755754503 -0.67077228935394 11.9471957030234 8.57690207239352 )" gradientUnits="userSpaceOnUse" id="RadialGradient256">
      <stop id="Stop257" stop-color="#ff6578" offset="0" />
      <stop id="Stop258" stop-color="#fbdade" offset="1" />
    </radialGradient>
    <mask fill="white" id="clip259">
      <path d="M 16 8.25599999999999  C 16 4.85119999999999  12.8662068965517 0.127999999999993  8.38620689655172 0.127999999999993  C 3.90620689655172 0.127999999999993  0 2.0352  0 5.44  C 0 8.8448  6.22344827586205 15.936  10.7034482758621 15.936  C 12.0874726655624 15.936  13.4106266350909 15.9477968104365  14.1793103448276 14.912  C 15.8988075119944 12.5949876075871  16 10.6089414638277  16 8.25599999999999  Z " fill-rule="evenodd" />
    </mask>
  </defs>
  <g transform="matrix(1 0 0 1 -13 -164 )">
    <path d="M 16 8.25599999999999  C 16 4.85119999999999  12.8662068965517 0.127999999999993  8.38620689655172 0.127999999999993  C 3.90620689655172 0.127999999999993  0 2.0352  0 5.44  C 0 8.8448  6.22344827586205 15.936  10.7034482758621 15.936  C 12.0874726655624 15.936  13.4106266350909 15.9477968104365  14.1793103448276 14.912  C 15.8988075119944 12.5949876075871  16 10.6089414638277  16 8.25599999999999  Z " fill-rule="nonzero" fill="url(#RadialGradient256)" stroke="none" transform="matrix(1 0 0 1 13 164 )" />
    <path d="M 16 8.25599999999999  C 16 4.85119999999999  12.8662068965517 0.127999999999993  8.38620689655172 0.127999999999993  C 3.90620689655172 0.127999999999993  0 2.0352  0 5.44  C 0 8.8448  6.22344827586205 15.936  10.7034482758621 15.936  C 12.0874726655624 15.936  13.4106266350909 15.9477968104365  14.1793103448276 14.912  C 15.8988075119944 12.5949876075871  16 10.6089414638277  16 8.25599999999999  Z " stroke-width="2" stroke="#555555" fill="none" transform="matrix(1 0 0 1 13 164 )" mask="url(#clip259)" />
  </g>
</svg>