<?xml version="1.0" encoding="utf-8"?>
<svg version="1.1" xmlns:xlink="http://www.w3.org/1999/xlink" width="8px" height="6px" xmlns="http://www.w3.org/2000/svg">
  <defs>
    <radialGradient cx="3.06666666666666" cy="2.8" r="6.42475919191878" gradientTransform="matrix(-0.976949918919417 0.213468629834329 -0.149150396718602 -0.682594290758896 6.48026752883162 4.05662688263297 )" gradientUnits="userSpaceOnUse" id="RadialGradient200">
      <stop id="Stop201" stop-color="#ff6578" offset="0" />
      <stop id="Stop202" stop-color="#fbdade" offset="1" />
    </radialGradient>
    <mask fill="white" id="clip203">
      <path d="M 8 3.36  C 8 1.74719999999999  6.075 0  4.325 0  C 2.575 0  0.0499999999999972 1.74719999999999  0.0499999999999972 3.36  C 0.0499999999999972 4.97280000000001  3.075 6  4.825 6  C 6.575 6  8 4.97280000000001  8 3.36  Z " fill-rule="evenodd" />
    </mask>
  </defs>
  <g transform="matrix(1 0 0 1 -69 -7 )">
    <path d="M 8 3.36  C 8 1.74719999999999  6.075 0  4.325 0  C 2.575 0  0.0499999999999972 1.74719999999999  0.0499999999999972 3.36  C 0.0499999999999972 4.97280000000001  3.075 6  4.825 6  C 6.575 6  8 4.97280000000001  8 3.36  Z " fill-rule="nonzero" fill="url(#RadialGradient200)" stroke="none" transform="matrix(1 0 0 1 69 7 )" />
    <path d="M 8 3.36  C 8 1.74719999999999  6.075 0  4.325 0  C 2.575 0  0.0499999999999972 1.74719999999999  0.0499999999999972 3.36  C 0.0499999999999972 4.97280000000001  3.075 6  4.825 6  C 6.575 6  8 4.97280000000001  8 3.36  Z " stroke-width="2" stroke="#555555" fill="none" transform="matrix(1 0 0 1 69 7 )" mask="url(#clip203)" />
  </g>
</svg>