<?xml version="1.0" encoding="utf-8"?>
<svg version="1.1" xmlns:xlink="http://www.w3.org/1999/xlink" width="20px" height="17px" xmlns="http://www.w3.org/2000/svg">
  <defs>
    <radialGradient cx="15.1325510647544" cy="11.3670789433502" r="16.2001858777258" gradientTransform="matrix(-0.947992428805804 0.318292876022812 -0.247758556501068 -0.737915465371693 32.2943859732969 14.9384390917864 )" gradientUnits="userSpaceOnUse" id="RadialGradient158">
      <stop id="Stop159" stop-color="#ff6578" offset="0" />
      <stop id="Stop160" stop-color="#fbdade" offset="1" />
    </radialGradient>
    <mask fill="white" id="clip161">
      <path d="M 0 9.52  C 0 4.95039999999998  4.81249999999999 0  9.18749999999999 0  C 13.5625 0  19.875 4.95039999999998  19.875 9.52  C 19.875 14.0896  12.3125 17  7.93749999999999 17  C 3.56249999999999 17  0 14.0896  0 9.52  Z " fill-rule="evenodd" />
    </mask>
  </defs>
  <g transform="matrix(1 0 0 1 -11 -17 )">
    <path d="M 0 9.52  C 0 4.95039999999998  4.81249999999999 0  9.18749999999999 0  C 13.5625 0  19.875 4.95039999999998  19.875 9.52  C 19.875 14.0896  12.3125 17  7.93749999999999 17  C 3.56249999999999 17  0 14.0896  0 9.52  Z " fill-rule="nonzero" fill="url(#RadialGradient158)" stroke="none" transform="matrix(1 0 0 1 11 17 )" />
    <path d="M 0 9.52  C 0 4.95039999999998  4.81249999999999 0  9.18749999999999 0  C 13.5625 0  19.875 4.95039999999998  19.875 9.52  C 19.875 14.0896  12.3125 17  7.93749999999999 17  C 3.56249999999999 17  0 14.0896  0 9.52  Z " stroke-width="2" stroke="#555555" fill="none" transform="matrix(1 0 0 1 11 17 )" mask="url(#clip161)" />
  </g>
</svg>