<?xml version="1.0" encoding="utf-8"?>
<svg version="1.1" xmlns:xlink="http://www.w3.org/1999/xlink" width="9px" height="6px" xmlns="http://www.w3.org/2000/svg">
  <defs>
    <radialGradient cx="6.80964797913949" cy="4.01191021530006" r="7.19885105733511" gradientTransform="matrix(-0.987223629220712 0.159340848210011 -0.0997602042995612 -0.618081502933941 13.9325223535309 5.40654262580108 )" gradientUnits="userSpaceOnUse" id="RadialGradient97">
      <stop id="Stop98" stop-color="#ff6578" offset="0" />
      <stop id="Stop99" stop-color="#fbdade" offset="1" />
    </radialGradient>
    <mask fill="white" id="clip100">
      <path d="M 0 3.42857142857143  C 0 1.98857142857142  2.56764705882354 0.149999999999998  3.75882352941178 0.0642857142857167  C 4.95000000000001 -0.0214285714285641  6.79715104066917 0.244405241607816  7.91470588235295 1.07142857142858  C 8.7202107709272 1.66752579215368  9 2.61111826124395  9 3.21428571428571  C 9 4.01099727526464  7.62487286883123 5.1848587785723  6.32647058823529 5.63571428571429  C 5.27810224865743 5.99974833469566  4.26893732962272 5.93571428571428  3.44117647058825 5.93571428571428  C 1.58823529411766 5.93571428571428  0 4.86857142857143  0 3.42857142857143  Z " fill-rule="evenodd" />
    </mask>
  </defs>
  <g transform="matrix(1 0 0 1 -4 -16 )">
    <path d="M 0 3.42857142857143  C 0 1.98857142857142  2.56764705882354 0.149999999999998  3.75882352941178 0.0642857142857167  C 4.95000000000001 -0.0214285714285641  6.79715104066917 0.244405241607816  7.91470588235295 1.07142857142858  C 8.7202107709272 1.66752579215368  9 2.61111826124395  9 3.21428571428571  C 9 4.01099727526464  7.62487286883123 5.1848587785723  6.32647058823529 5.63571428571429  C 5.27810224865743 5.99974833469566  4.26893732962272 5.93571428571428  3.44117647058825 5.93571428571428  C 1.58823529411766 5.93571428571428  0 4.86857142857143  0 3.42857142857143  Z " fill-rule="nonzero" fill="url(#RadialGradient97)" stroke="none" transform="matrix(1 0 0 1 4 16 )" />
    <path d="M 0 3.42857142857143  C 0 1.98857142857142  2.56764705882354 0.149999999999998  3.75882352941178 0.0642857142857167  C 4.95000000000001 -0.0214285714285641  6.79715104066917 0.244405241607816  7.91470588235295 1.07142857142858  C 8.7202107709272 1.66752579215368  9 2.61111826124395  9 3.21428571428571  C 9 4.01099727526464  7.62487286883123 5.1848587785723  6.32647058823529 5.63571428571429  C 5.27810224865743 5.99974833469566  4.26893732962272 5.93571428571428  3.44117647058825 5.93571428571428  C 1.58823529411766 5.93571428571428  0 4.86857142857143  0 3.42857142857143  Z " stroke-width="2" stroke="#555555" fill="none" transform="matrix(1 0 0 1 4 16 )" mask="url(#clip100)" />
  </g>
</svg>