<?xml version="1.0" encoding="utf-8"?>
<svg version="1.1" xmlns:xlink="http://www.w3.org/1999/xlink" width="6px" height="6px" xmlns="http://www.w3.org/2000/svg">
  <defs>
    <radialGradient cx="1.93333333333333" cy="3.13846153846154" r="5.02901561606062" gradientTransform="matrix(0.784288340685433 -0.620396485052011 0.5306017557545 0.670772289353939 -1.24823066133417 2.23270171169229 )" gradientUnits="userSpaceOnUse" id="RadialGradient133">
      <stop id="Stop134" stop-color="#ff6578" offset="0" />
      <stop id="Stop135" stop-color="#fbdade" offset="1" />
    </radialGradient>
    <mask fill="white" id="clip136">
      <path d="M 6 3.21599999999999  C 6 1.60319999999999  4.68 0.0960000000000014  3 0.0960000000000014  C 1.32 0.0960000000000014  0 1.5072  0 3.12  C 0 4.73280000000001  1.032 6  2.712 6  C 4.392 6  6 4.8288  6 3.21599999999999  Z " fill-rule="evenodd" />
    </mask>
  </defs>
  <g transform="matrix(1 0 0 1 -62 -3 )">
    <path d="M 6 3.21599999999999  C 6 1.60319999999999  4.68 0.0960000000000014  3 0.0960000000000014  C 1.32 0.0960000000000014  0 1.5072  0 3.12  C 0 4.73280000000001  1.032 6  2.712 6  C 4.392 6  6 4.8288  6 3.21599999999999  Z " fill-rule="nonzero" fill="url(#RadialGradient133)" stroke="none" transform="matrix(1 0 0 1 62 3 )" />
    <path d="M 6 3.21599999999999  C 6 1.60319999999999  4.68 0.0960000000000014  3 0.0960000000000014  C 1.32 0.0960000000000014  0 1.5072  0 3.12  C 0 4.73280000000001  1.032 6  2.712 6  C 4.392 6  6 4.8288  6 3.21599999999999  Z " stroke-width="2" stroke="#555555" fill="none" transform="matrix(1 0 0 1 62 3 )" mask="url(#clip136)" />
  </g>
</svg>