<?xml version="1.0" encoding="utf-8"?>
<svg version="1.1" xmlns:xlink="http://www.w3.org/1999/xlink" width="23px" height="33px" xmlns="http://www.w3.org/2000/svg">
  <defs>
    <radialGradient cx="17.4024337244676" cy="22.0655061841503" r="25.5700284912023" gradientTransform="matrix(0.212351446584447 -0.977193360156265 0.681589169958714 0.148114438880223 -1.33260829578695 35.802828803186 )" gradientUnits="userSpaceOnUse" id="RadialGradient195">
      <stop id="Stop196" stop-color="#ff6578" offset="0" />
      <stop id="Stop197" stop-color="#fbdade" offset="1" />
    </radialGradient>
    <mask fill="white" id="clip198">
      <path d="M 0 16.6178571428571  C 0 13.056214326706  0.695309023393625 9.94141596070268  2.41794871794873 7.24821428571429  C 5.0845630937894 3.07918792096595  9.65159344410408 0.176785714285721  13.5641025641026 0.176785714285721  C 20.0041025641026 0.176785714285721  22.5282051282051 7.71964285714287  22.5282051282051 16.7946428571429  C 22.5282051282051 21.7353075264559  21.5216113510315 26.9846380851432  19.4025641025641 29.9357142857143  C 17.629350882661 32.4051671662854  15.0236410585727 33  12.0897435897436 33  C 5.64974358974358 33  0 25.6928571428571  0 16.6178571428571  Z " fill-rule="evenodd" />
    </mask>
  </defs>
  <g transform="matrix(1 0 0 1 -35 -142 )">
    <path d="M 0 16.6178571428571  C 0 13.056214326706  0.695309023393625 9.94141596070268  2.41794871794873 7.24821428571429  C 5.0845630937894 3.07918792096595  9.65159344410408 0.176785714285721  13.5641025641026 0.176785714285721  C 20.0041025641026 0.176785714285721  22.5282051282051 7.71964285714287  22.5282051282051 16.7946428571429  C 22.5282051282051 21.7353075264559  21.5216113510315 26.9846380851432  19.4025641025641 29.9357142857143  C 17.629350882661 32.4051671662854  15.0236410585727 33  12.0897435897436 33  C 5.64974358974358 33  0 25.6928571428571  0 16.6178571428571  Z " fill-rule="nonzero" fill="url(#RadialGradient195)" stroke="none" transform="matrix(1 0 0 1 35 142 )" />
    <path d="M 0 16.6178571428571  C 0 13.056214326706  0.695309023393625 9.94141596070268  2.41794871794873 7.24821428571429  C 5.0845630937894 3.07918792096595  9.65159344410408 0.176785714285721  13.5641025641026 0.176785714285721  C 20.0041025641026 0.176785714285721  22.5282051282051 7.71964285714287  22.5282051282051 16.7946428571429  C 22.5282051282051 21.7353075264559  21.5216113510315 26.9846380851432  19.4025641025641 29.9357142857143  C 17.629350882661 32.4051671662854  15.0236410585727 33  12.0897435897436 33  C 5.64974358974358 33  0 25.6928571428571  0 16.6178571428571  Z " stroke-width="2" stroke="#555555" fill="none" transform="matrix(1 0 0 1 35 142 )" mask="url(#clip198)" />
  </g>
</svg>