<?xml version="1.0" encoding="utf-8"?>
<svg version="1.1" xmlns:xlink="http://www.w3.org/1999/xlink" width="23px" height="15px" xmlns="http://www.w3.org/2000/svg">
  <defs>
    <radialGradient cx="17.4024337244676" cy="10.0297755382501" r="18.3872821040145" gradientTransform="matrix(-0.988404154808211 0.151846062701228 -0.0931001485049445 -0.606012246604039 35.5368451135882 13.4654513026399 )" gradientUnits="userSpaceOnUse" id="RadialGradient273">
      <stop id="Stop274" stop-color="#ff6578" offset="0" />
      <stop id="Stop275" stop-color="#fbdade" offset="1" />
    </radialGradient>
    <mask fill="white" id="clip276">
      <path d="M 0 8.57142857142857  C 0 4.97142857142856  6.56176470588238 0.374999999999994  9.60588235294121 0.160714285714292  C 12.65 -0.0535714285714103  17.3704971039323 0.61101310401954  20.2264705882353 2.67857142857146  C 22.2849830812584 4.1688144803842  23 6.52779565310988  23 8.03571428571428  C 23 10.0274931881616  19.4857862203465 12.9621469464307  16.1676470588235 14.0892857142857  C 13.4884835243468 14.9993708367391  10.9095065090358 14.8392857142857  8.79411764705886 14.8392857142857  C 4.0588235294118 14.8392857142857  0 12.1714285714286  0 8.57142857142857  Z " fill-rule="evenodd" />
    </mask>
  </defs>
  <g transform="matrix(1 0 0 1 -43 -176 )">
    <path d="M 0 8.57142857142857  C 0 4.97142857142856  6.56176470588238 0.374999999999994  9.60588235294121 0.160714285714292  C 12.65 -0.0535714285714103  17.3704971039323 0.61101310401954  20.2264705882353 2.67857142857146  C 22.2849830812584 4.1688144803842  23 6.52779565310988  23 8.03571428571428  C 23 10.0274931881616  19.4857862203465 12.9621469464307  16.1676470588235 14.0892857142857  C 13.4884835243468 14.9993708367391  10.9095065090358 14.8392857142857  8.79411764705886 14.8392857142857  C 4.0588235294118 14.8392857142857  0 12.1714285714286  0 8.57142857142857  Z " fill-rule="nonzero" fill="url(#RadialGradient273)" stroke="none" transform="matrix(1 0 0 1 43 176 )" />
    <path d="M 0 8.57142857142857  C 0 4.97142857142856  6.56176470588238 0.374999999999994  9.60588235294121 0.160714285714292  C 12.65 -0.0535714285714103  17.3704971039323 0.61101310401954  20.2264705882353 2.67857142857146  C 22.2849830812584 4.1688144803842  23 6.52779565310988  23 8.03571428571428  C 23 10.0274931881616  19.4857862203465 12.9621469464307  16.1676470588235 14.0892857142857  C 13.4884835243468 14.9993708367391  10.9095065090358 14.8392857142857  8.79411764705886 14.8392857142857  C 4.0588235294118 14.8392857142857  0 12.1714285714286  0 8.57142857142857  Z " stroke-width="2" stroke="#555555" fill="none" transform="matrix(1 0 0 1 43 176 )" mask="url(#clip276)" />
  </g>
</svg>