<?xml version="1.0" encoding="utf-8"?>
<svg version="1.1" xmlns:xlink="http://www.w3.org/1999/xlink" width="206px" height="80px" xmlns="http://www.w3.org/2000/svg">
  <defs>
    <mask fill="white" id="clip178">
      <path d="M 67.195412064571 5.97981023043448  L 51.9844236760125 6.86760852227412  C 51.9844236760125 6.86760852227412  44.535553963403 0  35.1478334749363 0  C 25.7601129864695 0  20.5046359113523 9.90537769169417  20.5046359113523 9.90537769169417  C 20.5046359113523 9.90537769169417  13.4186237461799 7.01006507023989  4.958085528179 15.4483127630734  C -3.50245268982189 23.886560455907  3.46766169154229 37.1327902472371  3.46766169154229 37.1327902472371  C 3.46766169154229 37.1327902472371  -2.90671641791044 48.1587672325396  1.84509271822701 56.8220348638487  C 6.59690185436445 65.4853024951578  12.2758932609678 67.8480118491511  12.2758932609678 67.8480118491511  C 12.2758932609678 67.8480118491511  17.6109000452284 77.8667995898371  28.3893939393939 78.8793893129771  C 39.1678878335594 79.8919790361171  47.9575757575758 71.1603053435115  47.9575757575758 71.1603053435115  C 47.9575757575758 71.1603053435115  56.0369413837804 73.2407381377462  64.1981004070556 71.8983707417112  C 66.1513387184704 71.5770973271813  201.078205985622 68.5297751989682  202.3525913339 60.3485529476112  C 203.737520609969 51.4576674511301  204.481355612197 24.2780671089867  204.481355612197 14.5089771943592  C 204.481355612197 4.73988727973175  67.195412064571 5.97981023043448  67.195412064571 5.97981023043448  Z " fill-rule="evenodd" />
    </mask>
  </defs>
  <g transform="matrix(1 0 0 1 57 -63 )">
    <path d="M 67.195412064571 5.97981023043448  L 51.9844236760125 6.86760852227412  C 51.9844236760125 6.86760852227412  44.535553963403 0  35.1478334749363 0  C 25.7601129864695 0  20.5046359113523 9.90537769169417  20.5046359113523 9.90537769169417  C 20.5046359113523 9.90537769169417  13.4186237461799 7.01006507023989  4.958085528179 15.4483127630734  C -3.50245268982189 23.886560455907  3.46766169154229 37.1327902472371  3.46766169154229 37.1327902472371  C 3.46766169154229 37.1327902472371  -2.90671641791044 48.1587672325396  1.84509271822701 56.8220348638487  C 6.59690185436445 65.4853024951578  12.2758932609678 67.8480118491511  12.2758932609678 67.8480118491511  C 12.2758932609678 67.8480118491511  17.6109000452284 77.8667995898371  28.3893939393939 78.8793893129771  C 39.1678878335594 79.8919790361171  47.9575757575758 71.1603053435115  47.9575757575758 71.1603053435115  C 47.9575757575758 71.1603053435115  56.0369413837804 73.2407381377462  64.1981004070556 71.8983707417112  C 66.1513387184704 71.5770973271813  201.078205985622 68.5297751989682  202.3525913339 60.3485529476112  C 203.737520609969 51.4576674511301  204.481355612197 24.2780671089867  204.481355612197 14.5089771943592  C 204.481355612197 4.73988727973175  67.195412064571 5.97981023043448  67.195412064571 5.97981023043448  Z " fill-rule="nonzero" fill="#f59a23" stroke="none" transform="matrix(1 0 0 1 -57 63 )" />
    <path d="M 67.195412064571 5.97981023043448  L 51.9844236760125 6.86760852227412  C 51.9844236760125 6.86760852227412  44.535553963403 0  35.1478334749363 0  C 25.7601129864695 0  20.5046359113523 9.90537769169417  20.5046359113523 9.90537769169417  C 20.5046359113523 9.90537769169417  13.4186237461799 7.01006507023989  4.958085528179 15.4483127630734  C -3.50245268982189 23.886560455907  3.46766169154229 37.1327902472371  3.46766169154229 37.1327902472371  C 3.46766169154229 37.1327902472371  -2.90671641791044 48.1587672325396  1.84509271822701 56.8220348638487  C 6.59690185436445 65.4853024951578  12.2758932609678 67.8480118491511  12.2758932609678 67.8480118491511  C 12.2758932609678 67.8480118491511  17.6109000452284 77.8667995898371  28.3893939393939 78.8793893129771  C 39.1678878335594 79.8919790361171  47.9575757575758 71.1603053435115  47.9575757575758 71.1603053435115  C 47.9575757575758 71.1603053435115  56.0369413837804 73.2407381377462  64.1981004070556 71.8983707417112  C 66.1513387184704 71.5770973271813  201.078205985622 68.5297751989682  202.3525913339 60.3485529476112  C 203.737520609969 51.4576674511301  204.481355612197 24.2780671089867  204.481355612197 14.5089771943592  C 204.481355612197 4.73988727973175  67.195412064571 5.97981023043448  67.195412064571 5.97981023043448  Z " stroke-width="2" stroke="#aaaaaa" fill="none" transform="matrix(1 0 0 1 -57 63 )" mask="url(#clip178)" />
  </g>
</svg>