<?xml version="1.0" encoding="utf-8"?>
<svg version="1.1" xmlns:xlink="http://www.w3.org/1999/xlink" width="39px" height="39px" xmlns="http://www.w3.org/2000/svg">
  <defs>
    <radialGradient cx="10.5714285714285" cy="27.2857142857143" r="32.688601504394" gradientTransform="matrix(-0.784288340685432 0.620396485052012 -0.530601755754501 -0.670772289353939 33.3403246514045 39.0297381961077 )" gradientUnits="userSpaceOnUse" id="RadialGradient219">
      <stop id="Stop220" stop-color="#ff6578" offset="0" />
      <stop id="Stop221" stop-color="#fbdade" offset="1" />
    </radialGradient>
    <mask fill="white" id="clip222">
      <path d="M 39 20.904  C 39 10.4208  30.42 0.624000000000009  19.5 0.624000000000009  C 8.58 0.624000000000009  0 9.7968  0 20.28  C 0 30.7632  6.70800000000002 39  17.628 39  C 28.548 39  39 31.3872  39 20.904  Z " fill-rule="evenodd" />
    </mask>
  </defs>
  <g transform="matrix(1 0 0 1 -154 -390 )">
    <path d="M 39 20.904  C 39 10.4208  30.42 0.624000000000009  19.5 0.624000000000009  C 8.58 0.624000000000009  0 9.7968  0 20.28  C 0 30.7632  6.70800000000002 39  17.628 39  C 28.548 39  39 31.3872  39 20.904  Z " fill-rule="nonzero" fill="url(#RadialGradient219)" stroke="none" transform="matrix(1 0 0 1 154 390 )" />
    <path d="M 39 20.904  C 39 10.4208  30.42 0.624000000000009  19.5 0.624000000000009  C 8.58 0.624000000000009  0 9.7968  0 20.28  C 0 30.7632  6.70800000000002 39  17.628 39  C 28.548 39  39 31.3872  39 20.904  Z " stroke-width="2" stroke="#555555" fill="none" transform="matrix(1 0 0 1 154 390 )" mask="url(#clip222)" />
  </g>
</svg>