<?xml version="1.0" encoding="utf-8"?>
<svg version="1.1" xmlns:xlink="http://www.w3.org/1999/xlink" width="39px" height="39px" xmlns="http://www.w3.org/2000/svg">
  <defs>
    <radialGradient cx="11.0847534801512" cy="15.2851146322544" r="32.688601504394" gradientTransform="matrix(-0.784288340685432 0.620396485052013 -0.530601755754503 -0.67077228935394 27.8887050547891 18.6610038704152 )" gradientUnits="userSpaceOnUse" id="RadialGradient231">
      <stop id="Stop232" stop-color="#ff6578" offset="0" />
      <stop id="Stop233" stop-color="#fbdade" offset="1" />
    </radialGradient>
    <mask fill="white" id="clip234">
      <path d="M 39 20.124  C 39 11.8248  31.3613793103448 0.311999999999983  20.4413793103448 0.311999999999983  C 9.52137931034481 0.311999999999983  0 4.96080000000001  0 13.26  C 0 21.5592  15.1696551724138 38.844  26.0896551724138 38.844  C 29.4632146223083 38.844  32.688402423034 38.8727547254389  34.5620689655172 36.348  C 38.7533433104863 30.7002822934935  39 25.8592948180801  39 20.124  Z " fill-rule="evenodd" />
    </mask>
  </defs>
  <g transform="matrix(1 0 0 1 -32 -401 )">
    <path d="M 39 20.124  C 39 11.8248  31.3613793103448 0.311999999999983  20.4413793103448 0.311999999999983  C 9.52137931034481 0.311999999999983  0 4.96080000000001  0 13.26  C 0 21.5592  15.1696551724138 38.844  26.0896551724138 38.844  C 29.4632146223083 38.844  32.688402423034 38.8727547254389  34.5620689655172 36.348  C 38.7533433104863 30.7002822934935  39 25.8592948180801  39 20.124  Z " fill-rule="nonzero" fill="url(#RadialGradient231)" stroke="none" transform="matrix(1 0 0 1 32 401 )" />
    <path d="M 39 20.124  C 39 11.8248  31.3613793103448 0.311999999999983  20.4413793103448 0.311999999999983  C 9.52137931034481 0.311999999999983  0 4.96080000000001  0 13.26  C 0 21.5592  15.1696551724138 38.844  26.0896551724138 38.844  C 29.4632146223083 38.844  32.688402423034 38.8727547254389  34.5620689655172 36.348  C 38.7533433104863 30.7002822934935  39 25.8592948180801  39 20.124  Z " stroke-width="2" stroke="#555555" fill="none" transform="matrix(1 0 0 1 32 401 )" mask="url(#clip234)" />
  </g>
</svg>