<?xml version="1.0" encoding="utf-8"?>
<svg version="1.1" xmlns:xlink="http://www.w3.org/1999/xlink" width="82px" height="56px" xmlns="http://www.w3.org/2000/svg">
  <defs>
    <radialGradient cx="28.1428571428571" cy="14" r="62.7404227868705" gradientTransform="matrix(-0.9781932367303 -0.207696874350817 0.14380399344793 -0.6772759303444 53.658753753996 29.3270464886946 )" gradientUnits="userSpaceOnUse" id="RadialGradient235">
      <stop id="Stop236" stop-color="#ff6578" offset="0" />
      <stop id="Stop237" stop-color="#fbdade" offset="1" />
    </radialGradient>
    <mask fill="white" id="clip238">
      <path d="M 40.7107142857143 55.5  C 49.4529284708127 55.5  57.0983426419116 53.807073682172  63.7089285714285 49.6128205128205  C 73.9419932849017 43.1201942064258  81.0660714285714 32.0004681360944  81.0660714285714 22.474358974359  C 81.0660714285714 6.79435897435894  62.5517857142857 0.648717948717946  40.2767857142857 0.648717948717946  C 28.14969970779 0.648717948717946  15.2649792455577 3.09955497140146  8.02142857142856 8.2589743589744  C 1.96004422820866 12.5763630683036  0.5 18.9207000313013  0.5 26.0641025641025  C 0.5 41.7441025641026  18.4357142857143 55.5  40.7107142857143 55.5  Z " fill-rule="evenodd" />
    </mask>
  </defs>
  <g transform="matrix(1 0 0 1 -73 -354 )">
    <path d="M 40.7107142857143 55.5  C 49.4529284708127 55.5  57.0983426419116 53.807073682172  63.7089285714285 49.6128205128205  C 73.9419932849017 43.1201942064258  81.0660714285714 32.0004681360944  81.0660714285714 22.474358974359  C 81.0660714285714 6.79435897435894  62.5517857142857 0.648717948717946  40.2767857142857 0.648717948717946  C 28.14969970779 0.648717948717946  15.2649792455577 3.09955497140146  8.02142857142856 8.2589743589744  C 1.96004422820866 12.5763630683036  0.5 18.9207000313013  0.5 26.0641025641025  C 0.5 41.7441025641026  18.4357142857143 55.5  40.7107142857143 55.5  Z " fill-rule="nonzero" fill="url(#RadialGradient235)" stroke="none" transform="matrix(1 0 0 1 73 354 )" />
    <path d="M 40.7107142857143 55.5  C 49.4529284708127 55.5  57.0983426419116 53.807073682172  63.7089285714285 49.6128205128205  C 73.9419932849017 43.1201942064258  81.0660714285714 32.0004681360944  81.0660714285714 22.474358974359  C 81.0660714285714 6.79435897435894  62.5517857142857 0.648717948717946  40.2767857142857 0.648717948717946  C 28.14969970779 0.648717948717946  15.2649792455577 3.09955497140146  8.02142857142856 8.2589743589744  C 1.96004422820866 12.5763630683036  0.5 18.9207000313013  0.5 26.0641025641025  C 0.5 41.7441025641026  18.4357142857143 55.5  40.7107142857143 55.5  Z " stroke-width="2" stroke="#555555" fill="none" transform="matrix(1 0 0 1 73 354 )" mask="url(#clip238)" />
  </g>
</svg>