<?xml version="1.0" encoding="utf-8"?>
<svg version="1.1" xmlns:xlink="http://www.w3.org/1999/xlink" width="56px" height="37px" xmlns="http://www.w3.org/2000/svg">
  <defs>
    <radialGradient cx="42.3711429813124" cy="24.7401129943504" r="44.7828528033404" gradientTransform="matrix(-0.987724385148456 0.156206718751484 -0.0969680742147913 -0.613147323292871 86.6211552434849 33.2907898399387 )" gradientUnits="userSpaceOnUse" id="RadialGradient226">
      <stop id="Stop227" stop-color="#ff6578" offset="0" />
      <stop id="Stop228" stop-color="#fbdade" offset="1" />
    </radialGradient>
    <mask fill="white" id="clip229">
      <path d="M 0 21.1428571428571  C 0 12.2628571428571  15.9764705882354 0.924999999999985  23.3882352941177 0.396428571428586  C 30.8000000000001 -0.132142857142812  42.2933842530526 1.50716565658153  49.2470588235295 6.60714285714293  C 54.2590892413248 10.283075718281  56 16.1018959443377  56 19.8214285714286  C 56 24.7344831974653  47.443653406061 31.9732958011958  39.3647058823529 34.7535714285714  C 32.8415251027573 36.9984480639566  26.5622767176525 36.6035714285714  21.4117647058824 36.6035714285714  C 9.88235294117657 36.6035714285714  0 30.0228571428572  0 21.1428571428571  Z " fill-rule="evenodd" />
    </mask>
  </defs>
  <g transform="matrix(1 0 0 1 -105 -430 )">
    <path d="M 0 21.1428571428571  C 0 12.2628571428571  15.9764705882354 0.924999999999985  23.3882352941177 0.396428571428586  C 30.8000000000001 -0.132142857142812  42.2933842530526 1.50716565658153  49.2470588235295 6.60714285714293  C 54.2590892413248 10.283075718281  56 16.1018959443377  56 19.8214285714286  C 56 24.7344831974653  47.443653406061 31.9732958011958  39.3647058823529 34.7535714285714  C 32.8415251027573 36.9984480639566  26.5622767176525 36.6035714285714  21.4117647058824 36.6035714285714  C 9.88235294117657 36.6035714285714  0 30.0228571428572  0 21.1428571428571  Z " fill-rule="nonzero" fill="url(#RadialGradient226)" stroke="none" transform="matrix(1 0 0 1 105 430 )" />
    <path d="M 0 21.1428571428571  C 0 12.2628571428571  15.9764705882354 0.924999999999985  23.3882352941177 0.396428571428586  C 30.8000000000001 -0.132142857142812  42.2933842530526 1.50716565658153  49.2470588235295 6.60714285714293  C 54.2590892413248 10.283075718281  56 16.1018959443377  56 19.8214285714286  C 56 24.7344831974653  47.443653406061 31.9732958011958  39.3647058823529 34.7535714285714  C 32.8415251027573 36.9984480639566  26.5622767176525 36.6035714285714  21.4117647058824 36.6035714285714  C 9.88235294117657 36.6035714285714  0 30.0228571428572  0 21.1428571428571  Z " stroke-width="2" stroke="#555555" fill="none" transform="matrix(1 0 0 1 105 430 )" mask="url(#clip229)" />
  </g>
</svg>