<?xml version="1.0" encoding="utf-8"?>
<svg version="1.1" xmlns:xlink="http://www.w3.org/1999/xlink" width="502px" height="194px" xmlns="http://www.w3.org/2000/svg">
  <defs>
    <mask fill="white" id="clip307">
      <path d="M 164.219031435854 14.6089034743526  L 127.044859813084 16.777828415176  C 127.044859813084 16.777828415176  108.840548954463 0  85.8978759558199 0  C 62.9552029571767 0  50.111329715061 24.1992138543921  50.111329715061 24.1992138543921  C 50.111329715061 24.1992138543921  32.7938073016396 17.1258551715987  12.1170773152082 37.7408147249768  C -8.55965267122326 58.355774278355  8.47462686567165 90.716816679959  8.47462686567165 90.716816679959  C 8.47462686567165 90.716816679959  -7.10373134328356 117.65369716304  4.50922659430112 138.818388971175  C 16.1221845318858 159.98308077931  30.0010854816824 165.755269454255  30.0010854816824 165.755269454255  C 30.0010854816824 165.755269454255  43.0393215739485 190.231548365045  69.3809090909091 192.70534351145  C 95.7224966078697 195.179138657856  117.203636363636 173.847328244275  117.203636363636 173.847328244275  C 117.203636363636 173.847328244275  136.948817723288 178.929904564367  156.893894165536 175.650450039877  C 161.667418038798 174.865566887924  491.41551804291 167.420843207606  494.529991503823 147.433806568215  C 497.914623539485 125.713035671748  499.732483715661 59.31223989917  499.732483715661 35.4459822596371  C 499.732483715661 11.5797246201042  164.219031435854 14.6089034743526  164.219031435854 14.6089034743526  Z " fill-rule="evenodd" />
    </mask>
  </defs>
  <g transform="matrix(1 0 0 1 139 -154 )">
    <path d="M 164.219031435854 14.6089034743526  L 127.044859813084 16.777828415176  C 127.044859813084 16.777828415176  108.840548954463 0  85.8978759558199 0  C 62.9552029571767 0  50.111329715061 24.1992138543921  50.111329715061 24.1992138543921  C 50.111329715061 24.1992138543921  32.7938073016396 17.1258551715987  12.1170773152082 37.7408147249768  C -8.55965267122326 58.355774278355  8.47462686567165 90.716816679959  8.47462686567165 90.716816679959  C 8.47462686567165 90.716816679959  -7.10373134328356 117.65369716304  4.50922659430112 138.818388971175  C 16.1221845318858 159.98308077931  30.0010854816824 165.755269454255  30.0010854816824 165.755269454255  C 30.0010854816824 165.755269454255  43.0393215739485 190.231548365045  69.3809090909091 192.70534351145  C 95.7224966078697 195.179138657856  117.203636363636 173.847328244275  117.203636363636 173.847328244275  C 117.203636363636 173.847328244275  136.948817723288 178.929904564367  156.893894165536 175.650450039877  C 161.667418038798 174.865566887924  491.41551804291 167.420843207606  494.529991503823 147.433806568215  C 497.914623539485 125.713035671748  499.732483715661 59.31223989917  499.732483715661 35.4459822596371  C 499.732483715661 11.5797246201042  164.219031435854 14.6089034743526  164.219031435854 14.6089034743526  Z " fill-rule="nonzero" fill="#f59a23" stroke="none" transform="matrix(1 0 0 1 -139 154 )" />
    <path d="M 164.219031435854 14.6089034743526  L 127.044859813084 16.777828415176  C 127.044859813084 16.777828415176  108.840548954463 0  85.8978759558199 0  C 62.9552029571767 0  50.111329715061 24.1992138543921  50.111329715061 24.1992138543921  C 50.111329715061 24.1992138543921  32.7938073016396 17.1258551715987  12.1170773152082 37.7408147249768  C -8.55965267122326 58.355774278355  8.47462686567165 90.716816679959  8.47462686567165 90.716816679959  C 8.47462686567165 90.716816679959  -7.10373134328356 117.65369716304  4.50922659430112 138.818388971175  C 16.1221845318858 159.98308077931  30.0010854816824 165.755269454255  30.0010854816824 165.755269454255  C 30.0010854816824 165.755269454255  43.0393215739485 190.231548365045  69.3809090909091 192.70534351145  C 95.7224966078697 195.179138657856  117.203636363636 173.847328244275  117.203636363636 173.847328244275  C 117.203636363636 173.847328244275  136.948817723288 178.929904564367  156.893894165536 175.650450039877  C 161.667418038798 174.865566887924  491.41551804291 167.420843207606  494.529991503823 147.433806568215  C 497.914623539485 125.713035671748  499.732483715661 59.31223989917  499.732483715661 35.4459822596371  C 499.732483715661 11.5797246201042  164.219031435854 14.6089034743526  164.219031435854 14.6089034743526  Z " stroke-width="2" stroke="#aaaaaa" fill="none" transform="matrix(1 0 0 1 -139 154 )" mask="url(#clip307)" />
  </g>
</svg>