<?xml version="1.0" encoding="utf-8"?>
<svg version="1.1" xmlns:xlink="http://www.w3.org/1999/xlink" width="37px" height="37px" xmlns="http://www.w3.org/2000/svg">
  <defs>
    <radialGradient cx="27.9952194697957" cy="24.7401129943504" r="31.0122629657071" gradientTransform="matrix(-0.784288340685433 0.620396485052011 -0.530601755754501 -0.67077228935394 63.0786910872533 23.966959469125 )" gradientUnits="userSpaceOnUse" id="RadialGradient230">
      <stop id="Stop231" stop-color="#ff6578" offset="0" />
      <stop id="Stop232" stop-color="#fbdade" offset="1" />
    </radialGradient>
    <mask fill="white" id="clip233">
      <path d="M 0 19.092  C 0 11.2184  7.24689655172415 0.295999999999983  17.6068965517242 0.295999999999983  C 27.9668965517242 0.295999999999983  37 4.70640000000001  37 12.58  C 37 20.4536  22.608275862069 36.852  12.248275862069 36.852  C 9.04771946088696 36.852  5.98792590635232 36.8792801241344  4.21034482758622 34.484  C 0.234007628512988 29.1259088425451  0 24.5331771351016  0 19.092  Z " fill-rule="evenodd" />
    </mask>
  </defs>
  <g transform="matrix(1 0 0 1 -154 -403 )">
    <path d="M 0 19.092  C 0 11.2184  7.24689655172415 0.295999999999983  17.6068965517242 0.295999999999983  C 27.9668965517242 0.295999999999983  37 4.70640000000001  37 12.58  C 37 20.4536  22.608275862069 36.852  12.248275862069 36.852  C 9.04771946088696 36.852  5.98792590635232 36.8792801241344  4.21034482758622 34.484  C 0.234007628512988 29.1259088425451  0 24.5331771351016  0 19.092  Z " fill-rule="nonzero" fill="url(#RadialGradient230)" stroke="none" transform="matrix(1 0 0 1 154 403 )" />
    <path d="M 0 19.092  C 0 11.2184  7.24689655172415 0.295999999999983  17.6068965517242 0.295999999999983  C 27.9668965517242 0.295999999999983  37 4.70640000000001  37 12.58  C 37 20.4536  22.608275862069 36.852  12.248275862069 36.852  C 9.04771946088696 36.852  5.98792590635232 36.8792801241344  4.21034482758622 34.484  C 0.234007628512988 29.1259088425451  0 24.5331771351016  0 19.092  Z " stroke-width="2" stroke="#555555" fill="none" transform="matrix(1 0 0 1 154 403 )" mask="url(#clip233)" />
  </g>
</svg>