<?xml version="1.0" encoding="utf-8"?>
<svg version="1.1" xmlns:xlink="http://www.w3.org/1999/xlink" width="56px" height="39px" xmlns="http://www.w3.org/2000/svg">
  <defs>
    <radialGradient cx="9.21428571428571" cy="18.3571428571429" r="44.8478658045953" gradientTransform="matrix(-0.984336465592796 0.176300092184557 -0.115022931877567 -0.642207640526708 20.3957355395718 28.5217608373969 )" gradientUnits="userSpaceOnUse" id="RadialGradient247">
      <stop id="Stop248" stop-color="#ff6578" offset="0" />
      <stop id="Stop249" stop-color="#fbdade" offset="1" />
    </radialGradient>
    <mask fill="white" id="clip250">
      <path d="M 56 22.2857142857143  C 56 12.9257142857142  40.0235294117646 0.974999999999984  32.6117647058823 0.417857142857159  C 25.1999999999999 -0.13928571428567  13.7066157469474 1.58863407045081  6.75294117647053 6.96428571428579  C 1.74091075867523 10.8389176489989  0 16.9722686980857  0 20.8928571428571  C 0 26.0714822892202  8.556346593939 33.7015820607199  16.6352941176471 36.6321428571429  C 23.1584748972427 38.9983641755218  29.4377232823475 38.5821428571428  34.5882352941176 38.5821428571428  C 46.1176470588234 38.5821428571428  56 31.6457142857143  56 22.2857142857143  Z " fill-rule="evenodd" />
    </mask>
  </defs>
  <g transform="matrix(1 0 0 1 -64 -429 )">
    <path d="M 56 22.2857142857143  C 56 12.9257142857142  40.0235294117646 0.974999999999984  32.6117647058823 0.417857142857159  C 25.1999999999999 -0.13928571428567  13.7066157469474 1.58863407045081  6.75294117647053 6.96428571428579  C 1.74091075867523 10.8389176489989  0 16.9722686980857  0 20.8928571428571  C 0 26.0714822892202  8.556346593939 33.7015820607199  16.6352941176471 36.6321428571429  C 23.1584748972427 38.9983641755218  29.4377232823475 38.5821428571428  34.5882352941176 38.5821428571428  C 46.1176470588234 38.5821428571428  56 31.6457142857143  56 22.2857142857143  Z " fill-rule="nonzero" fill="url(#RadialGradient247)" stroke="none" transform="matrix(1 0 0 1 64 429 )" />
    <path d="M 56 22.2857142857143  C 56 12.9257142857142  40.0235294117646 0.974999999999984  32.6117647058823 0.417857142857159  C 25.1999999999999 -0.13928571428567  13.7066157469474 1.58863407045081  6.75294117647053 6.96428571428579  C 1.74091075867523 10.8389176489989  0 16.9722686980857  0 20.8928571428571  C 0 26.0714822892202  8.556346593939 33.7015820607199  16.6352941176471 36.6321428571429  C 23.1584748972427 38.9983641755218  29.4377232823475 38.5821428571428  34.5882352941176 38.5821428571428  C 46.1176470588234 38.5821428571428  56 31.6457142857143  56 22.2857142857143  Z " stroke-width="2" stroke="#555555" fill="none" transform="matrix(1 0 0 1 64 429 )" mask="url(#clip250)" />
  </g>
</svg>