<?xml version="1.0" encoding="utf-8"?>
<svg version="1.1" xmlns:xlink="http://www.w3.org/1999/xlink" width="56px" height="81px" xmlns="http://www.w3.org/2000/svg">
  <defs>
    <radialGradient cx="42.3711429813124" cy="54.1607879065508" r="62.7404227868705" gradientTransform="matrix(0.207696874350816 -0.9781932367303 0.677275930344399 0.143803993447929 -3.11100899617261 87.8194158141548 )" gradientUnits="userSpaceOnUse" id="RadialGradient238">
      <stop id="Stop239" stop-color="#ff6578" offset="0" />
      <stop id="Stop240" stop-color="#fbdade" offset="1" />
    </radialGradient>
    <mask fill="white" id="clip241">
      <path d="M 0 40.7892857142857  C 0 32.0470715291874  1.69292631782796 24.4016573580884  5.88717948717952 17.7910714285714  C 12.3798057935742 7.55800671509825  23.4995318639056 0.433928571428588  33.025641025641 0.433928571428588  C 48.705641025641 0.433928571428588  54.851282051282 18.9482142857143  54.851282051282 41.2232142857143  C 54.851282051282 53.35030029221  52.4004450285986 66.2350207544423  47.2410256410256 73.4785714285714  C 42.9236369316964 79.5399557717913  36.5792999686987 81  29.4358974358974 81  C 13.7558974358974 81  0 63.0642857142857  0 40.7892857142857  Z " fill-rule="evenodd" />
    </mask>
  </defs>
  <g transform="matrix(1 0 0 1 -86 -347 )">
    <path d="M 0 40.7892857142857  C 0 32.0470715291874  1.69292631782796 24.4016573580884  5.88717948717952 17.7910714285714  C 12.3798057935742 7.55800671509825  23.4995318639056 0.433928571428588  33.025641025641 0.433928571428588  C 48.705641025641 0.433928571428588  54.851282051282 18.9482142857143  54.851282051282 41.2232142857143  C 54.851282051282 53.35030029221  52.4004450285986 66.2350207544423  47.2410256410256 73.4785714285714  C 42.9236369316964 79.5399557717913  36.5792999686987 81  29.4358974358974 81  C 13.7558974358974 81  0 63.0642857142857  0 40.7892857142857  Z " fill-rule="nonzero" fill="url(#RadialGradient238)" stroke="none" transform="matrix(1 0 0 1 86 347 )" />
    <path d="M 0 40.7892857142857  C 0 32.0470715291874  1.69292631782796 24.4016573580884  5.88717948717952 17.7910714285714  C 12.3798057935742 7.55800671509825  23.4995318639056 0.433928571428588  33.025641025641 0.433928571428588  C 48.705641025641 0.433928571428588  54.851282051282 18.9482142857143  54.851282051282 41.2232142857143  C 54.851282051282 53.35030029221  52.4004450285986 66.2350207544423  47.2410256410256 73.4785714285714  C 42.9236369316964 79.5399557717913  36.5792999686987 81  29.4358974358974 81  C 13.7558974358974 81  0 63.0642857142857  0 40.7892857142857  Z " stroke-width="2" stroke="#555555" fill="none" transform="matrix(1 0 0 1 86 347 )" mask="url(#clip241)" />
  </g>
</svg>