<?xml version="1.0" encoding="utf-8"?>
<svg version="1.1" xmlns:xlink="http://www.w3.org/1999/xlink" width="500px" height="194px" xmlns="http://www.w3.org/2000/svg">
  <defs>
    <mask fill="white" id="clip238">
      <path d="M 335.436533559898 14.6089034743526  L 372.46230529595 16.777828415176  C 372.46230529595 16.777828415176  390.593944254936 0  413.445029736619 0  C 436.296115218301 0  449.088715513342 24.1992138543921  449.088715513342 24.1992138543921  C 449.088715513342 24.1992138543921  466.337106100762 17.1258551715987  486.93129425092 37.7408147249768  C 507.525482401079 58.355774278355  490.559203980099 90.716816679959  490.559203980099 90.716816679959  C 490.559203980099 90.716816679959  506.075373134328 117.65369716304  494.508774310267 138.818388971175  C 482.942175486206 159.98308077931  469.11867933062 165.755269454255  469.11867933062 165.755269454255  C 469.11867933062 165.755269454255  456.132492085029 190.231548365045  429.896060606061 192.70534351145  C 403.659629127092 195.179138657856  382.264242424242 173.847328244275  382.264242424242 173.847328244275  C 382.264242424242 173.847328244275  362.597884143871 178.929904564367  342.732428765265 175.650450039877  C 337.977960875528 174.865566887924  9.54622055207214 167.420843207606  6.44418011894668 147.433806568215  C 3.07305958841755 125.713035671748  1.26245633909175 59.31223989917  1.26245633909175 35.4459822596371  C 1.26245633909175 11.5797246201042  335.436533559898 14.6089034743526  335.436533559898 14.6089034743526  Z " fill-rule="evenodd" />
    </mask>
  </defs>
  <g transform="matrix(1 0 0 1 139 -153 )">
    <path d="M 335.436533559898 14.6089034743526  L 372.46230529595 16.777828415176  C 372.46230529595 16.777828415176  390.593944254936 0  413.445029736619 0  C 436.296115218301 0  449.088715513342 24.1992138543921  449.088715513342 24.1992138543921  C 449.088715513342 24.1992138543921  466.337106100762 17.1258551715987  486.93129425092 37.7408147249768  C 507.525482401079 58.355774278355  490.559203980099 90.716816679959  490.559203980099 90.716816679959  C 490.559203980099 90.716816679959  506.075373134328 117.65369716304  494.508774310267 138.818388971175  C 482.942175486206 159.98308077931  469.11867933062 165.755269454255  469.11867933062 165.755269454255  C 469.11867933062 165.755269454255  456.132492085029 190.231548365045  429.896060606061 192.70534351145  C 403.659629127092 195.179138657856  382.264242424242 173.847328244275  382.264242424242 173.847328244275  C 382.264242424242 173.847328244275  362.597884143871 178.929904564367  342.732428765265 175.650450039877  C 337.977960875528 174.865566887924  9.54622055207214 167.420843207606  6.44418011894668 147.433806568215  C 3.07305958841755 125.713035671748  1.26245633909175 59.31223989917  1.26245633909175 35.4459822596371  C 1.26245633909175 11.5797246201042  335.436533559898 14.6089034743526  335.436533559898 14.6089034743526  Z " fill-rule="nonzero" fill="#f59a23" stroke="none" transform="matrix(1 0 0 1 -139 153 )" />
    <path d="M 335.436533559898 14.6089034743526  L 372.46230529595 16.777828415176  C 372.46230529595 16.777828415176  390.593944254936 0  413.445029736619 0  C 436.296115218301 0  449.088715513342 24.1992138543921  449.088715513342 24.1992138543921  C 449.088715513342 24.1992138543921  466.337106100762 17.1258551715987  486.93129425092 37.7408147249768  C 507.525482401079 58.355774278355  490.559203980099 90.716816679959  490.559203980099 90.716816679959  C 490.559203980099 90.716816679959  506.075373134328 117.65369716304  494.508774310267 138.818388971175  C 482.942175486206 159.98308077931  469.11867933062 165.755269454255  469.11867933062 165.755269454255  C 469.11867933062 165.755269454255  456.132492085029 190.231548365045  429.896060606061 192.70534351145  C 403.659629127092 195.179138657856  382.264242424242 173.847328244275  382.264242424242 173.847328244275  C 382.264242424242 173.847328244275  362.597884143871 178.929904564367  342.732428765265 175.650450039877  C 337.977960875528 174.865566887924  9.54622055207214 167.420843207606  6.44418011894668 147.433806568215  C 3.07305958841755 125.713035671748  1.26245633909175 59.31223989917  1.26245633909175 35.4459822596371  C 1.26245633909175 11.5797246201042  335.436533559898 14.6089034743526  335.436533559898 14.6089034743526  Z " stroke-width="2" stroke="#aaaaaa" fill="none" transform="matrix(1 0 0 1 -139 153 )" mask="url(#clip238)" />
  </g>
</svg>