<?xml version="1.0" encoding="utf-8"?>
<svg version="1.1" xmlns:xlink="http://www.w3.org/1999/xlink" width="37px" height="37px" xmlns="http://www.w3.org/2000/svg">
  <defs>
    <radialGradient cx="27.9952194697957" cy="24.7401129943504" r="31.0122629657071" gradientTransform="matrix(-0.784288340685433 0.620396485052011 -0.530601755754501 -0.67077228935394 63.0786910872533 23.966959469125 )" gradientUnits="userSpaceOnUse" id="RadialGradient222">
      <stop id="Stop223" stop-color="#ff6578" offset="0" />
      <stop id="Stop224" stop-color="#fbdade" offset="1" />
    </radialGradient>
    <mask fill="white" id="clip225">
      <path d="M 0 19.832  C 0 9.88639999999997  8.14 0.592000000000008  18.5 0.592000000000008  C 28.86 0.592000000000008  37 9.2944  37 19.24  C 37 29.1856  30.636 37  20.276 37  C 9.91599999999998 37  0 29.7776  0 19.832  Z " fill-rule="evenodd" />
    </mask>
  </defs>
  <g transform="matrix(1 0 0 1 -29 -398 )">
    <path d="M 0 19.832  C 0 9.88639999999997  8.14 0.592000000000008  18.5 0.592000000000008  C 28.86 0.592000000000008  37 9.2944  37 19.24  C 37 29.1856  30.636 37  20.276 37  C 9.91599999999998 37  0 29.7776  0 19.832  Z " fill-rule="nonzero" fill="url(#RadialGradient222)" stroke="none" transform="matrix(1 0 0 1 29 398 )" />
    <path d="M 0 19.832  C 0 9.88639999999997  8.14 0.592000000000008  18.5 0.592000000000008  C 28.86 0.592000000000008  37 9.2944  37 19.24  C 37 29.1856  30.636 37  20.276 37  C 9.91599999999998 37  0 29.7776  0 19.832  Z " stroke-width="2" stroke="#555555" fill="none" transform="matrix(1 0 0 1 29 398 )" mask="url(#clip225)" />
  </g>
</svg>