<?xml version="1.0" encoding="utf-8"?>
<svg version="1.1" xmlns:xlink="http://www.w3.org/1999/xlink" width="91px" height="84px" xmlns="http://www.w3.org/2000/svg">
  <defs>
    <mask fill="white" id="clip349">
      <path d="M 69.3343245539508 6.70689163159022  L 53.7523364485982 7.62840378261364  C 53.7523364485982 7.62840378261364  46.1217869869007 0.5  36.5050977060323 0.5  C 26.8884084251639 0.5  21.5047489823609 10.7815312749231  21.5047489823609 10.7815312749231  C 21.5047489823609 10.7815312749231  14.2459072521843 7.77627007290723  5.57901444350043 16.5349575515446  C -3.0878783651834 25.2936450301819  4.05223880597015 39.0428962059929  4.05223880597015 39.0428962059929  C 4.05223880597015 39.0428962059929  -2.47761194029849 50.4875811780791  2.39009497964719 59.4798336561467  C 7.25780189959286 68.4720861342144  13.0753052917232 70.9245186282328  13.0753052917232 70.9245186282328  C 13.0753052917232 70.9245186282328  18.540434192673 81.3237666628689  29.5818181818182 82.3748091603054  C 40.6232021709633 83.4258516577419  49.6272727272728 74.3625954198473  49.6272727272728 74.3625954198473  C 49.6272727272728 74.3625954198473  57.9036960516774 76.5220319910783  66.263907734057 75.1286886179788  C 68.2647860042867 74.7952149472008  88.1957805217025 73.5349727384065  89.5012484394507 65.0430711610487  C 90.9199564783507 55.8145571014101  87.3789013732834 26.6750255641959  87.3789013732834 16.5349575515446  C 87.3789013732834 7.88510068095196  69.3343245539508 6.70689163159022  69.3343245539508 6.70689163159022  Z " fill-rule="evenodd" />
    </mask>
  </defs>
  <g transform="matrix(1 0 0 1 3 -4 )">
    <path d="M 69.3343245539508 6.70689163159022  L 53.7523364485982 7.62840378261364  C 53.7523364485982 7.62840378261364  46.1217869869007 0.5  36.5050977060323 0.5  C 26.8884084251639 0.5  21.5047489823609 10.7815312749231  21.5047489823609 10.7815312749231  C 21.5047489823609 10.7815312749231  14.2459072521843 7.77627007290723  5.57901444350043 16.5349575515446  C -3.0878783651834 25.2936450301819  4.05223880597015 39.0428962059929  4.05223880597015 39.0428962059929  C 4.05223880597015 39.0428962059929  -2.47761194029849 50.4875811780791  2.39009497964719 59.4798336561467  C 7.25780189959286 68.4720861342144  13.0753052917232 70.9245186282328  13.0753052917232 70.9245186282328  C 13.0753052917232 70.9245186282328  18.540434192673 81.3237666628689  29.5818181818182 82.3748091603054  C 40.6232021709633 83.4258516577419  49.6272727272728 74.3625954198473  49.6272727272728 74.3625954198473  C 49.6272727272728 74.3625954198473  57.9036960516774 76.5220319910783  66.263907734057 75.1286886179788  C 68.2647860042867 74.7952149472008  88.1957805217025 73.5349727384065  89.5012484394507 65.0430711610487  C 90.9199564783507 55.8145571014101  87.3789013732834 26.6750255641959  87.3789013732834 16.5349575515446  C 87.3789013732834 7.88510068095196  69.3343245539508 6.70689163159022  69.3343245539508 6.70689163159022  Z " fill-rule="nonzero" fill="#7b4d12" stroke="none" transform="matrix(1 0 0 1 -3 4 )" />
    <path d="M 69.3343245539508 6.70689163159022  L 53.7523364485982 7.62840378261364  C 53.7523364485982 7.62840378261364  46.1217869869007 0.5  36.5050977060323 0.5  C 26.8884084251639 0.5  21.5047489823609 10.7815312749231  21.5047489823609 10.7815312749231  C 21.5047489823609 10.7815312749231  14.2459072521843 7.77627007290723  5.57901444350043 16.5349575515446  C -3.0878783651834 25.2936450301819  4.05223880597015 39.0428962059929  4.05223880597015 39.0428962059929  C 4.05223880597015 39.0428962059929  -2.47761194029849 50.4875811780791  2.39009497964719 59.4798336561467  C 7.25780189959286 68.4720861342144  13.0753052917232 70.9245186282328  13.0753052917232 70.9245186282328  C 13.0753052917232 70.9245186282328  18.540434192673 81.3237666628689  29.5818181818182 82.3748091603054  C 40.6232021709633 83.4258516577419  49.6272727272728 74.3625954198473  49.6272727272728 74.3625954198473  C 49.6272727272728 74.3625954198473  57.9036960516774 76.5220319910783  66.263907734057 75.1286886179788  C 68.2647860042867 74.7952149472008  88.1957805217025 73.5349727384065  89.5012484394507 65.0430711610487  C 90.9199564783507 55.8145571014101  87.3789013732834 26.6750255641959  87.3789013732834 16.5349575515446  C 87.3789013732834 7.88510068095196  69.3343245539508 6.70689163159022  69.3343245539508 6.70689163159022  Z " stroke-width="2" stroke="#aaaaaa" fill="none" transform="matrix(1 0 0 1 -3 4 )" mask="url(#clip349)" />
  </g>
</svg>