<?xml version="1.0" encoding="utf-8"?>
<svg version="1.1" xmlns:xlink="http://www.w3.org/1999/xlink" width="93px" height="84px" xmlns="http://www.w3.org/2000/svg">
  <defs>
    <mask fill="white" id="clip261">
      <path d="M 22.6656754460492 6.70689163159023  L 38.2476635514019 7.62840378261365  C 38.2476635514019 7.62840378261365  45.8782130130993 0.5  55.4949022939677 0.5  C 65.1115915748361 0.5  70.4952510176391 10.7815312749231  70.4952510176391 10.7815312749231  C 70.4952510176391 10.7815312749231  77.7540927478157 7.77627007290722  86.4209855564996 16.5349575515446  C 95.0878783651834 25.2936450301819  87.9477611940299 39.0428962059929  87.9477611940299 39.0428962059929  C 87.9477611940299 39.0428962059929  94.4776119402985 50.4875811780791  89.6099050203528 59.4798336561467  C 84.7421981004071 68.4720861342144  78.9246947082768 70.9245186282328  78.9246947082768 70.9245186282328  C 78.9246947082768 70.9245186282328  73.459565807327 81.3237666628689  62.4181818181818 82.3748091603054  C 51.3767978290367 83.4258516577419  42.3727272727272 74.3625954198473  42.3727272727272 74.3625954198473  C 42.3727272727272 74.3625954198473  34.0963039483225 76.5220319910783  25.736092265943 75.1286886179788  C 23.7352139957133 74.7952149472008  1.30546791774817 76.3727369581932  0 67.8808353808354  C -1.41870803890004 58.6523213211968  2.32555282555283 26.6750255641959  2.32555282555283 16.5349575515446  C 2.32555282555283 6.39488953889325  22.6656754460492 6.70689163159023  22.6656754460492 6.70689163159023  Z " fill-rule="evenodd" />
    </mask>
  </defs>
  <g transform="matrix(1 0 0 1 5 -5 )">
    <path d="M 22.6656754460492 6.70689163159023  L 38.2476635514019 7.62840378261365  C 38.2476635514019 7.62840378261365  45.8782130130993 0.5  55.4949022939677 0.5  C 65.1115915748361 0.5  70.4952510176391 10.7815312749231  70.4952510176391 10.7815312749231  C 70.4952510176391 10.7815312749231  77.7540927478157 7.77627007290722  86.4209855564996 16.5349575515446  C 95.0878783651834 25.2936450301819  87.9477611940299 39.0428962059929  87.9477611940299 39.0428962059929  C 87.9477611940299 39.0428962059929  94.4776119402985 50.4875811780791  89.6099050203528 59.4798336561467  C 84.7421981004071 68.4720861342144  78.9246947082768 70.9245186282328  78.9246947082768 70.9245186282328  C 78.9246947082768 70.9245186282328  73.459565807327 81.3237666628689  62.4181818181818 82.3748091603054  C 51.3767978290367 83.4258516577419  42.3727272727272 74.3625954198473  42.3727272727272 74.3625954198473  C 42.3727272727272 74.3625954198473  34.0963039483225 76.5220319910783  25.736092265943 75.1286886179788  C 23.7352139957133 74.7952149472008  1.30546791774817 76.3727369581932  0 67.8808353808354  C -1.41870803890004 58.6523213211968  2.32555282555283 26.6750255641959  2.32555282555283 16.5349575515446  C 2.32555282555283 6.39488953889325  22.6656754460492 6.70689163159023  22.6656754460492 6.70689163159023  Z " fill-rule="nonzero" fill="#7b4d12" stroke="none" transform="matrix(1 0 0 1 -5 5 )" />
    <path d="M 22.6656754460492 6.70689163159023  L 38.2476635514019 7.62840378261365  C 38.2476635514019 7.62840378261365  45.8782130130993 0.5  55.4949022939677 0.5  C 65.1115915748361 0.5  70.4952510176391 10.7815312749231  70.4952510176391 10.7815312749231  C 70.4952510176391 10.7815312749231  77.7540927478157 7.77627007290722  86.4209855564996 16.5349575515446  C 95.0878783651834 25.2936450301819  87.9477611940299 39.0428962059929  87.9477611940299 39.0428962059929  C 87.9477611940299 39.0428962059929  94.4776119402985 50.4875811780791  89.6099050203528 59.4798336561467  C 84.7421981004071 68.4720861342144  78.9246947082768 70.9245186282328  78.9246947082768 70.9245186282328  C 78.9246947082768 70.9245186282328  73.459565807327 81.3237666628689  62.4181818181818 82.3748091603054  C 51.3767978290367 83.4258516577419  42.3727272727272 74.3625954198473  42.3727272727272 74.3625954198473  C 42.3727272727272 74.3625954198473  34.0963039483225 76.5220319910783  25.736092265943 75.1286886179788  C 23.7352139957133 74.7952149472008  1.30546791774817 76.3727369581932  0 67.8808353808354  C -1.41870803890004 58.6523213211968  2.32555282555283 26.6750255641959  2.32555282555283 16.5349575515446  C 2.32555282555283 6.39488953889325  22.6656754460492 6.70689163159023  22.6656754460492 6.70689163159023  Z " stroke-width="2" stroke="#aaaaaa" fill="none" transform="matrix(1 0 0 1 -5 5 )" mask="url(#clip261)" />
  </g>
</svg>