<?xml version="1.0" encoding="utf-8"?>
<svg version="1.1" xmlns:xlink="http://www.w3.org/1999/xlink" width="56px" height="79px" xmlns="http://www.w3.org/2000/svg">
  <defs>
    <radialGradient cx="42.3711429813124" cy="52.8234845014508" r="61.2620955288995" gradientTransform="matrix(-0.222702945872379 0.974886351273708 -0.690475437419331 -0.157732143613355 88.2806399103829 19.8483969646432 )" gradientUnits="userSpaceOnUse" id="RadialGradient367">
      <stop id="Stop368" stop-color="#ff6578" offset="0" />
      <stop id="Stop369" stop-color="#fbdade" offset="1" />
    </radialGradient>
    <mask fill="white" id="clip370">
      <path d="M 0 39.7821428571428  C 0 31.2557858124173  1.69292631782796 23.799147299864  5.88717948717952 17.3517857142857  C 12.3798057935742 7.37138926534274  23.4995318639056 0.423214285714302  33.025641025641 0.423214285714302  C 48.705641025641 0.423214285714302  54.851282051282 18.4803571428572  54.851282051282 40.2053571428571  C 54.851282051282 52.0330089269702  52.4004450285986 64.5995881432215  47.2410256410256 71.6642857142857  C 42.9236369316964 77.5760062465619  36.5792999686987 79  29.4358974358974 79  C 13.7558974358974 79  0 61.5071428571428  0 39.7821428571428  Z " fill-rule="evenodd" />
    </mask>
  </defs>
  <g transform="matrix(1 0 0 1 -69 -58 )">
    <path d="M 0 39.7821428571428  C 0 31.2557858124173  1.69292631782796 23.799147299864  5.88717948717952 17.3517857142857  C 12.3798057935742 7.37138926534274  23.4995318639056 0.423214285714302  33.025641025641 0.423214285714302  C 48.705641025641 0.423214285714302  54.851282051282 18.4803571428572  54.851282051282 40.2053571428571  C 54.851282051282 52.0330089269702  52.4004450285986 64.5995881432215  47.2410256410256 71.6642857142857  C 42.9236369316964 77.5760062465619  36.5792999686987 79  29.4358974358974 79  C 13.7558974358974 79  0 61.5071428571428  0 39.7821428571428  Z " fill-rule="nonzero" fill="url(#RadialGradient367)" stroke="none" transform="matrix(1 0 0 1 69 58 )" />
    <path d="M 0 39.7821428571428  C 0 31.2557858124173  1.69292631782796 23.799147299864  5.88717948717952 17.3517857142857  C 12.3798057935742 7.37138926534274  23.4995318639056 0.423214285714302  33.025641025641 0.423214285714302  C 48.705641025641 0.423214285714302  54.851282051282 18.4803571428572  54.851282051282 40.2053571428571  C 54.851282051282 52.0330089269702  52.4004450285986 64.5995881432215  47.2410256410256 71.6642857142857  C 42.9236369316964 77.5760062465619  36.5792999686987 79  29.4358974358974 79  C 13.7558974358974 79  0 61.5071428571428  0 39.7821428571428  Z " stroke-width="2" stroke="#555555" fill="none" transform="matrix(1 0 0 1 69 58 )" mask="url(#clip370)" />
  </g>
</svg>