<?xml version="1.0" encoding="utf-8"?>
<svg version="1.1" xmlns:xlink="http://www.w3.org/1999/xlink" width="54px" height="40px" xmlns="http://www.w3.org/2000/svg">
  <defs>
    <radialGradient cx="40.8578878748369" cy="26.7460681020004" r="43.3434021727615" gradientTransform="matrix(-0.978483582257813 0.206324693752149 -0.142535087567335 -0.675964861713816 84.648913525096 36.395479124822 )" gradientUnits="userSpaceOnUse" id="RadialGradient269">
      <stop id="Stop270" stop-color="#ff6578" offset="0" />
      <stop id="Stop271" stop-color="#fbdade" offset="1" />
    </radialGradient>
    <mask fill="white" id="clip272">
      <path d="M 0 22.8571428571429  C 0 13.2571428571428  15.4058823529412 0.999999999999984  22.5529411764707 0.428571428571445  C 29.7000000000001 -0.142857142857094  40.782906244015 1.62936827738544  47.4882352941177 7.14285714285722  C 52.3212646255632 11.1168386143579  54 17.4074550749597  54 21.4285714285714  C 54 26.7399818350976  45.7492372129874 34.565725190482  37.9588235294117 37.5714285714286  C 31.6686134919446 39.9983222313044  25.6136239777363 39.5714285714286  20.6470588235295 39.5714285714286  C 9.52941176470597 39.5714285714286  0 32.4571428571429  0 22.8571428571429  Z " fill-rule="evenodd" />
    </mask>
  </defs>
  <g transform="matrix(1 0 0 1 -95 -137 )">
    <path d="M 0 22.8571428571429  C 0 13.2571428571428  15.4058823529412 0.999999999999984  22.5529411764707 0.428571428571445  C 29.7000000000001 -0.142857142857094  40.782906244015 1.62936827738544  47.4882352941177 7.14285714285722  C 52.3212646255632 11.1168386143579  54 17.4074550749597  54 21.4285714285714  C 54 26.7399818350976  45.7492372129874 34.565725190482  37.9588235294117 37.5714285714286  C 31.6686134919446 39.9983222313044  25.6136239777363 39.5714285714286  20.6470588235295 39.5714285714286  C 9.52941176470597 39.5714285714286  0 32.4571428571429  0 22.8571428571429  Z " fill-rule="nonzero" fill="url(#RadialGradient269)" stroke="none" transform="matrix(1 0 0 1 95 137 )" />
    <path d="M 0 22.8571428571429  C 0 13.2571428571428  15.4058823529412 0.999999999999984  22.5529411764707 0.428571428571445  C 29.7000000000001 -0.142857142857094  40.782906244015 1.62936827738544  47.4882352941177 7.14285714285722  C 52.3212646255632 11.1168386143579  54 17.4074550749597  54 21.4285714285714  C 54 26.7399818350976  45.7492372129874 34.565725190482  37.9588235294117 37.5714285714286  C 31.6686134919446 39.9983222313044  25.6136239777363 39.5714285714286  20.6470588235295 39.5714285714286  C 9.52941176470597 39.5714285714286  0 32.4571428571429  0 22.8571428571429  Z " stroke-width="2" stroke="#555555" fill="none" transform="matrix(1 0 0 1 95 137 )" mask="url(#clip272)" />
  </g>
</svg>