<?xml version="1.0" encoding="utf-8"?>
<svg version="1.1" xmlns:xlink="http://www.w3.org/1999/xlink" width="17px" height="17px" xmlns="http://www.w3.org/2000/svg">
  <defs>
    <radialGradient cx="3.64285714285714" cy="8.71428571428571" r="14.2488775788384" gradientTransform="matrix(-0.784288340685431 0.620396485052014 -0.530601755754503 -0.670772289353938 11.123722826929 12.2995713259663 )" gradientUnits="userSpaceOnUse" id="RadialGradient262">
      <stop id="Stop263" stop-color="#ff6578" offset="0" />
      <stop id="Stop264" stop-color="#fbdade" offset="1" />
    </radialGradient>
    <mask fill="white" id="clip265">
      <path d="M 17 9.11199999999999  C 17 4.54239999999999  13.26 0.272000000000004  8.5 0.272000000000004  C 3.74 0.272000000000004  0 4.2704  0 8.84  C 0 13.4096  2.92400000000001 17  7.68400000000001 17  C 12.444 17  17 13.6816  17 9.11199999999999  Z " fill-rule="evenodd" />
    </mask>
  </defs>
  <g transform="matrix(1 0 0 1 -56 -46 )">
    <path d="M 17 9.11199999999999  C 17 4.54239999999999  13.26 0.272000000000004  8.5 0.272000000000004  C 3.74 0.272000000000004  0 4.2704  0 8.84  C 0 13.4096  2.92400000000001 17  7.68400000000001 17  C 12.444 17  17 13.6816  17 9.11199999999999  Z " fill-rule="nonzero" fill="url(#RadialGradient262)" stroke="none" transform="matrix(1 0 0 1 56 46 )" />
    <path d="M 17 9.11199999999999  C 17 4.54239999999999  13.26 0.272000000000004  8.5 0.272000000000004  C 3.74 0.272000000000004  0 4.2704  0 8.84  C 0 13.4096  2.92400000000001 17  7.68400000000001 17  C 12.444 17  17 13.6816  17 9.11199999999999  Z " stroke-width="2" stroke="#555555" fill="none" transform="matrix(1 0 0 1 56 46 )" mask="url(#clip265)" />
  </g>
</svg>