<?xml version="1.0" encoding="utf-8"?>
<svg version="1.1" xmlns:xlink="http://www.w3.org/1999/xlink" width="211px" height="195px" xmlns="http://www.w3.org/2000/svg">
  <defs>
    <mask fill="white" id="clip260">
      <path d="M 161.780090625885 15.6763491148012  L 125.422118380062 17.830244985868  C 125.422118380062 17.830244985868  107.617502969435 1.16867469879518  85.1785613140753 1.16867469879518  C 62.7396196587158 1.16867469879518  50.1777476255088 25.2002056305431  50.1777476255088 25.2002056305431  C 50.1777476255088 25.2002056305431  33.2404502550967 18.1758601704097  13.0177003681677 38.6479730722849  C -7.20504951876127 59.1200859741601  9.45522388059701 91.2568899272606  9.45522388059701 91.2568899272606  C 9.45522388059701 91.2568899272606  -5.78109452736314 118.007117452378  5.57688828584344 139.025153364969  C 16.93487109905 160.043189277561  30.5090456806874 165.775380890086  30.5090456806874 165.775380890086  C 30.5090456806874 165.775380890086  43.261013116237 190.082057019236  69.0242424242424 192.538710567461  C 94.7874717322478 194.995364115686  115.79696969697 173.811367607836  115.79696969697 173.811367607836  C 115.79696969697 173.811367607836  135.108624120581 178.858725376737  154.6157847128 175.601995082986  C 159.284500676669 174.822550599482  205.790154550639 171.876924231938  208.836246358718 152.028383195704  C 212.146565116152 130.458121417754  203.884103204328 62.3488549331807  203.884103204328 38.6479730722849  C 203.884103204328 18.4302353265624  161.780090625885 15.6763491148012  161.780090625885 15.6763491148012  Z " fill-rule="evenodd" />
    </mask>
  </defs>
  <g transform="matrix(1 0 0 1 8 -9 )">
    <path d="M 161.780090625885 15.6763491148012  L 125.422118380062 17.830244985868  C 125.422118380062 17.830244985868  107.617502969435 1.16867469879518  85.1785613140753 1.16867469879518  C 62.7396196587158 1.16867469879518  50.1777476255088 25.2002056305431  50.1777476255088 25.2002056305431  C 50.1777476255088 25.2002056305431  33.2404502550967 18.1758601704097  13.0177003681677 38.6479730722849  C -7.20504951876127 59.1200859741601  9.45522388059701 91.2568899272606  9.45522388059701 91.2568899272606  C 9.45522388059701 91.2568899272606  -5.78109452736314 118.007117452378  5.57688828584344 139.025153364969  C 16.93487109905 160.043189277561  30.5090456806874 165.775380890086  30.5090456806874 165.775380890086  C 30.5090456806874 165.775380890086  43.261013116237 190.082057019236  69.0242424242424 192.538710567461  C 94.7874717322478 194.995364115686  115.79696969697 173.811367607836  115.79696969697 173.811367607836  C 115.79696969697 173.811367607836  135.108624120581 178.858725376737  154.6157847128 175.601995082986  C 159.284500676669 174.822550599482  205.790154550639 171.876924231938  208.836246358718 152.028383195704  C 212.146565116152 130.458121417754  203.884103204328 62.3488549331807  203.884103204328 38.6479730722849  C 203.884103204328 18.4302353265624  161.780090625885 15.6763491148012  161.780090625885 15.6763491148012  Z " fill-rule="nonzero" fill="#7b4d12" stroke="none" transform="matrix(1 0 0 1 -8 9 )" />
    <path d="M 161.780090625885 15.6763491148012  L 125.422118380062 17.830244985868  C 125.422118380062 17.830244985868  107.617502969435 1.16867469879518  85.1785613140753 1.16867469879518  C 62.7396196587158 1.16867469879518  50.1777476255088 25.2002056305431  50.1777476255088 25.2002056305431  C 50.1777476255088 25.2002056305431  33.2404502550967 18.1758601704097  13.0177003681677 38.6479730722849  C -7.20504951876127 59.1200859741601  9.45522388059701 91.2568899272606  9.45522388059701 91.2568899272606  C 9.45522388059701 91.2568899272606  -5.78109452736314 118.007117452378  5.57688828584344 139.025153364969  C 16.93487109905 160.043189277561  30.5090456806874 165.775380890086  30.5090456806874 165.775380890086  C 30.5090456806874 165.775380890086  43.261013116237 190.082057019236  69.0242424242424 192.538710567461  C 94.7874717322478 194.995364115686  115.79696969697 173.811367607836  115.79696969697 173.811367607836  C 115.79696969697 173.811367607836  135.108624120581 178.858725376737  154.6157847128 175.601995082986  C 159.284500676669 174.822550599482  205.790154550639 171.876924231938  208.836246358718 152.028383195704  C 212.146565116152 130.458121417754  203.884103204328 62.3488549331807  203.884103204328 38.6479730722849  C 203.884103204328 18.4302353265624  161.780090625885 15.6763491148012  161.780090625885 15.6763491148012  Z " stroke-width="2" stroke="#aaaaaa" fill="none" transform="matrix(1 0 0 1 -8 9 )" mask="url(#clip260)" />
  </g>
</svg>