<?xml version="1.0" encoding="utf-8"?>
<svg version="1.1" xmlns:xlink="http://www.w3.org/1999/xlink" width="40px" height="40px" xmlns="http://www.w3.org/2000/svg">
  <defs>
    <radialGradient cx="30.2651021295088" cy="26.7460681020004" r="33.5267707737375" gradientTransform="matrix(-0.784288340685433 0.620396485052011 -0.530601755754501 -0.67077228935394 68.1931795537874 25.9102264531082 )" gradientUnits="userSpaceOnUse" id="RadialGradient277">
      <stop id="Stop278" stop-color="#ff6578" offset="0" />
      <stop id="Stop279" stop-color="#fbdade" offset="1" />
    </radialGradient>
    <mask fill="white" id="clip280">
      <path d="M 0 20.64  C 0 12.128  7.8344827586207 0.319999999999982  19.0344827586207 0.319999999999982  C 30.2344827586207 0.319999999999982  40 5.08800000000001  40 13.6  C 40 22.112  24.4413793103449 39.84  13.2413793103449 39.84  C 9.78131833609402 39.84  6.47343341227278 39.8694920260912  4.55172413793105 37.28  C 0.252981220014041 31.4874690189677  0 26.5223536595693  0 20.64  Z " fill-rule="evenodd" />
    </mask>
  </defs>
  <g transform="matrix(1 0 0 1 -139 -109 )">
    <path d="M 0 20.64  C 0 12.128  7.8344827586207 0.319999999999982  19.0344827586207 0.319999999999982  C 30.2344827586207 0.319999999999982  40 5.08800000000001  40 13.6  C 40 22.112  24.4413793103449 39.84  13.2413793103449 39.84  C 9.78131833609402 39.84  6.47343341227278 39.8694920260912  4.55172413793105 37.28  C 0.252981220014041 31.4874690189677  0 26.5223536595693  0 20.64  Z " fill-rule="nonzero" fill="url(#RadialGradient277)" stroke="none" transform="matrix(1 0 0 1 139 109 )" />
    <path d="M 0 20.64  C 0 12.128  7.8344827586207 0.319999999999982  19.0344827586207 0.319999999999982  C 30.2344827586207 0.319999999999982  40 5.08800000000001  40 13.6  C 40 22.112  24.4413793103449 39.84  13.2413793103449 39.84  C 9.78131833609402 39.84  6.47343341227278 39.8694920260912  4.55172413793105 37.28  C 0.252981220014041 31.4874690189677  0 26.5223536595693  0 20.64  Z " stroke-width="2" stroke="#555555" fill="none" transform="matrix(1 0 0 1 139 109 )" mask="url(#clip280)" />
  </g>
</svg>