<?xml version="1.0" encoding="utf-8"?>
<svg version="1.1" xmlns:xlink="http://www.w3.org/1999/xlink" width="17px" height="17px" xmlns="http://www.w3.org/2000/svg">
  <defs>
    <radialGradient cx="3.64285714285714" cy="8.71428571428571" r="14.2488775788384" gradientTransform="matrix(-0.784288340685431 0.620396485052014 -0.530601755754503 -0.670772289353938 11.123722826929 12.2995713259663 )" gradientUnits="userSpaceOnUse" id="RadialGradient294">
      <stop id="Stop295" stop-color="#ff6578" offset="0" />
      <stop id="Stop296" stop-color="#fbdade" offset="1" />
    </radialGradient>
    <mask fill="white" id="clip297">
      <path d="M 17 8.77199999999998  C 17 5.15439999999999  13.6703448275862 0.135999999999992  8.9103448275862 0.135999999999992  C 4.1503448275862 0.135999999999992  0 2.1624  0 5.78  C 0 9.3976  6.61241379310343 16.932  11.3724137931034 16.932  C 12.84293970716 16.932  14.2487907997841 16.9445341110888  15.0655172413793 15.844  C 16.892482981494 13.3821743330613  17 11.272000305317  17 8.77199999999998  Z " fill-rule="evenodd" />
    </mask>
  </defs>
  <g transform="matrix(1 0 0 1 -8 -49 )">
    <path d="M 17 8.77199999999998  C 17 5.15439999999999  13.6703448275862 0.135999999999992  8.9103448275862 0.135999999999992  C 4.1503448275862 0.135999999999992  0 2.1624  0 5.78  C 0 9.3976  6.61241379310343 16.932  11.3724137931034 16.932  C 12.84293970716 16.932  14.2487907997841 16.9445341110888  15.0655172413793 15.844  C 16.892482981494 13.3821743330613  17 11.272000305317  17 8.77199999999998  Z " fill-rule="nonzero" fill="url(#RadialGradient294)" stroke="none" transform="matrix(1 0 0 1 8 49 )" />
    <path d="M 17 8.77199999999998  C 17 5.15439999999999  13.6703448275862 0.135999999999992  8.9103448275862 0.135999999999992  C 4.1503448275862 0.135999999999992  0 2.1624  0 5.78  C 0 9.3976  6.61241379310343 16.932  11.3724137931034 16.932  C 12.84293970716 16.932  14.2487907997841 16.9445341110888  15.0655172413793 15.844  C 16.892482981494 13.3821743330613  17 11.272000305317  17 8.77199999999998  Z " stroke-width="2" stroke="#555555" fill="none" transform="matrix(1 0 0 1 8 49 )" mask="url(#clip297)" />
  </g>
</svg>