<?xml version="1.0" encoding="utf-8"?>
<svg version="1.1" xmlns:xlink="http://www.w3.org/1999/xlink" width="53px" height="39px" xmlns="http://www.w3.org/2000/svg">
  <defs>
    <radialGradient cx="17.8272727272727" cy="20.75" r="42.528961032066" gradientTransform="matrix(-0.979244377325798 0.20268312577965 -0.139171832395115 -0.672395562436743 38.1723448307067 31.0889205600725 )" gradientUnits="userSpaceOnUse" id="RadialGradient291">
      <stop id="Stop292" stop-color="#ff6578" offset="0" />
      <stop id="Stop293" stop-color="#fbdade" offset="1" />
    </radialGradient>
    <mask fill="white" id="clip294">
      <path d="M 53 22.2857142857143  C 53 12.9257142857142  37.8794117647058 0.974999999999984  30.8647058823529 0.417857142857159  C 23.8499999999999 -0.139285714285667  12.9723327605038 1.5886340704508  6.39117647058818 6.96428571428579  C 1.64764768231763 10.8389176489989  0 16.9722686980857  0 20.8928571428571  C 0 26.0714822892202  8.09797088354941 33.7015820607199  15.7441176470589 36.6321428571429  C 21.9178423134618 38.9983641755218  27.8607023922218 38.5821428571428  32.735294117647 38.5821428571428  C 43.6470588235293 38.5821428571428  53 31.6457142857143  53 22.2857142857143  Z " fill-rule="evenodd" />
    </mask>
  </defs>
  <g transform="matrix(1 0 0 1 -49 -139 )">
    <path d="M 53 22.2857142857143  C 53 12.9257142857142  37.8794117647058 0.974999999999984  30.8647058823529 0.417857142857159  C 23.8499999999999 -0.139285714285667  12.9723327605038 1.5886340704508  6.39117647058818 6.96428571428579  C 1.64764768231763 10.8389176489989  0 16.9722686980857  0 20.8928571428571  C 0 26.0714822892202  8.09797088354941 33.7015820607199  15.7441176470589 36.6321428571429  C 21.9178423134618 38.9983641755218  27.8607023922218 38.5821428571428  32.735294117647 38.5821428571428  C 43.6470588235293 38.5821428571428  53 31.6457142857143  53 22.2857142857143  Z " fill-rule="nonzero" fill="url(#RadialGradient291)" stroke="none" transform="matrix(1 0 0 1 49 139 )" />
    <path d="M 53 22.2857142857143  C 53 12.9257142857142  37.8794117647058 0.974999999999984  30.8647058823529 0.417857142857159  C 23.8499999999999 -0.139285714285667  12.9723327605038 1.5886340704508  6.39117647058818 6.96428571428579  C 1.64764768231763 10.8389176489989  0 16.9722686980857  0 20.8928571428571  C 0 26.0714822892202  8.09797088354941 33.7015820607199  15.7441176470589 36.6321428571429  C 21.9178423134618 38.9983641755218  27.8607023922218 38.5821428571428  32.735294117647 38.5821428571428  C 43.6470588235293 38.5821428571428  53 31.6457142857143  53 22.2857142857143  Z " stroke-width="2" stroke="#555555" fill="none" transform="matrix(1 0 0 1 49 139 )" mask="url(#clip294)" />
  </g>
</svg>