<?xml version="1.0" encoding="utf-8"?>
<svg version="1.1" xmlns:xlink="http://www.w3.org/1999/xlink" width="211px" height="190px" xmlns="http://www.w3.org/2000/svg">
  <defs>
    <mask fill="white" id="clip392">
      <path d="M 51.7368678659819 15.2723194984404  L 87.3044494108086 17.370702589325  C 87.3044494108086 17.370702589325  104.722007964683 1.13855421686747  126.673146540579 1.13855421686747  C 148.624285116474 1.13855421686747  160.913072975046 24.5507157947043  160.913072975046 24.5507157947043  C 160.913072975046 24.5507157947043  177.48216822871 17.7074101660177  197.265293118097 37.6518912920714  C 217.048418007484 57.5963724181251  200.750324464633 88.9049082281044  200.750324464633 88.9049082281044  C 200.750324464633 88.9049082281044  215.655418559377 114.965696899481  204.544348416023 135.442030855563  C 193.433278272668 155.918364811645  180.154194442806 161.50281952694  180.154194442806 161.50281952694  C 180.154194442806 161.50281952694  167.679443690638 185.183034931111  142.47628458498 187.576372666238  C 117.273125479323 189.969710401364  96.7203557312252 169.331693184954  96.7203557312252 169.331693184954  C 96.7203557312252 169.331693184954  77.8285198820406 174.248964413419  58.7454279983481 171.076170467446  C 54.1782058597803 170.316814759289  2.97987242094692 173.909003434922  0 154.572022734673  C -3.23835530618486 133.557695538629  5.30832710180536 60.7419256823256  5.30832710180536 37.6518912920714  C 5.30832710180536 14.5618569018172  51.7368678659819 15.2723194984404  51.7368678659819 15.2723194984404  Z " fill-rule="evenodd" />
    </mask>
  </defs>
  <g transform="matrix(1 0 0 1 11 -11 )">
    <path d="M 51.7368678659819 15.2723194984404  L 87.3044494108086 17.370702589325  C 87.3044494108086 17.370702589325  104.722007964683 1.13855421686747  126.673146540579 1.13855421686747  C 148.624285116474 1.13855421686747  160.913072975046 24.5507157947043  160.913072975046 24.5507157947043  C 160.913072975046 24.5507157947043  177.48216822871 17.7074101660177  197.265293118097 37.6518912920714  C 217.048418007484 57.5963724181251  200.750324464633 88.9049082281044  200.750324464633 88.9049082281044  C 200.750324464633 88.9049082281044  215.655418559377 114.965696899481  204.544348416023 135.442030855563  C 193.433278272668 155.918364811645  180.154194442806 161.50281952694  180.154194442806 161.50281952694  C 180.154194442806 161.50281952694  167.679443690638 185.183034931111  142.47628458498 187.576372666238  C 117.273125479323 189.969710401364  96.7203557312252 169.331693184954  96.7203557312252 169.331693184954  C 96.7203557312252 169.331693184954  77.8285198820406 174.248964413419  58.7454279983481 171.076170467446  C 54.1782058597803 170.316814759289  2.97987242094692 173.909003434922  0 154.572022734673  C -3.23835530618486 133.557695538629  5.30832710180536 60.7419256823256  5.30832710180536 37.6518912920714  C 5.30832710180536 14.5618569018172  51.7368678659819 15.2723194984404  51.7368678659819 15.2723194984404  Z " fill-rule="nonzero" fill="#7b4d12" stroke="none" transform="matrix(1 0 0 1 -11 11 )" />
    <path d="M 51.7368678659819 15.2723194984404  L 87.3044494108086 17.370702589325  C 87.3044494108086 17.370702589325  104.722007964683 1.13855421686747  126.673146540579 1.13855421686747  C 148.624285116474 1.13855421686747  160.913072975046 24.5507157947043  160.913072975046 24.5507157947043  C 160.913072975046 24.5507157947043  177.48216822871 17.7074101660177  197.265293118097 37.6518912920714  C 217.048418007484 57.5963724181251  200.750324464633 88.9049082281044  200.750324464633 88.9049082281044  C 200.750324464633 88.9049082281044  215.655418559377 114.965696899481  204.544348416023 135.442030855563  C 193.433278272668 155.918364811645  180.154194442806 161.50281952694  180.154194442806 161.50281952694  C 180.154194442806 161.50281952694  167.679443690638 185.183034931111  142.47628458498 187.576372666238  C 117.273125479323 189.969710401364  96.7203557312252 169.331693184954  96.7203557312252 169.331693184954  C 96.7203557312252 169.331693184954  77.8285198820406 174.248964413419  58.7454279983481 171.076170467446  C 54.1782058597803 170.316814759289  2.97987242094692 173.909003434922  0 154.572022734673  C -3.23835530618486 133.557695538629  5.30832710180536 60.7419256823256  5.30832710180536 37.6518912920714  C 5.30832710180536 14.5618569018172  51.7368678659819 15.2723194984404  51.7368678659819 15.2723194984404  Z " stroke-width="2" stroke="#aaaaaa" fill="none" transform="matrix(1 0 0 1 -11 11 )" mask="url(#clip392)" />
  </g>
</svg>