<?xml version="1.0" encoding="utf-8"?>
<svg version="1.1" xmlns:xlink="http://www.w3.org/1999/xlink" width="55px" height="78px" xmlns="http://www.w3.org/2000/svg">
  <defs>
    <radialGradient cx="18.5" cy="41.5" r="60.4710260911124" gradientTransform="matrix(-0.21937968228679 0.975639562030849 -0.687725045436921 -0.154640000098571 51.0991135079378 29.86822810652 )" gradientUnits="userSpaceOnUse" id="RadialGradient409">
      <stop id="Stop410" stop-color="#ff6578" offset="0" />
      <stop id="Stop411" stop-color="#fbdade" offset="1" />
    </radialGradient>
    <mask fill="white" id="clip412">
      <path d="M 55 39.2785714285714  C 55 30.8601429540323  53.3373045092761 23.4978922707518  49.2179487179487 17.1321428571429  C 42.8412621670253 7.27808054046498  31.9201026336641 0.417857142857159  22.5641025641026 0.417857142857159  C 7.16410256410254 0.417857142857159  1.12820512820514 18.2464285714286  1.12820512820514 39.6964285714286  C 1.12820512820514 51.3743632443503  3.53527720405499 63.7818718376111  8.60256410256413 70.7571428571429  C 12.842856584941 76.5940314839472  19.0739018164566 78  26.0897435897436 78  C 41.4897435897436 78  55 60.7285714285714  55 39.2785714285714  Z " fill-rule="evenodd" />
    </mask>
  </defs>
  <g transform="matrix(1 0 0 1 -67 -52 )">
    <path d="M 55 39.2785714285714  C 55 30.8601429540323  53.3373045092761 23.4978922707518  49.2179487179487 17.1321428571429  C 42.8412621670253 7.27808054046498  31.9201026336641 0.417857142857159  22.5641025641026 0.417857142857159  C 7.16410256410254 0.417857142857159  1.12820512820514 18.2464285714286  1.12820512820514 39.6964285714286  C 1.12820512820514 51.3743632443503  3.53527720405499 63.7818718376111  8.60256410256413 70.7571428571429  C 12.842856584941 76.5940314839472  19.0739018164566 78  26.0897435897436 78  C 41.4897435897436 78  55 60.7285714285714  55 39.2785714285714  Z " fill-rule="nonzero" fill="url(#RadialGradient409)" stroke="none" transform="matrix(1 0 0 1 67 52 )" />
    <path d="M 55 39.2785714285714  C 55 30.8601429540323  53.3373045092761 23.4978922707518  49.2179487179487 17.1321428571429  C 42.8412621670253 7.27808054046498  31.9201026336641 0.417857142857159  22.5641025641026 0.417857142857159  C 7.16410256410254 0.417857142857159  1.12820512820514 18.2464285714286  1.12820512820514 39.6964285714286  C 1.12820512820514 51.3743632443503  3.53527720405499 63.7818718376111  8.60256410256413 70.7571428571429  C 12.842856584941 76.5940314839472  19.0739018164566 78  26.0897435897436 78  C 41.4897435897436 78  55 60.7285714285714  55 39.2785714285714  Z " stroke-width="2" stroke="#555555" fill="none" transform="matrix(1 0 0 1 67 52 )" mask="url(#clip412)" />
  </g>
</svg>