<?xml version="1.0" encoding="utf-8"?>
<svg version="1.1" xmlns:xlink="http://www.w3.org/1999/xlink" width="19px" height="11px" xmlns="http://www.w3.org/2000/svg">
  <g transform="matrix(1 0 0 1 -634 -9358 )">
    <path d="M 18.8096192384774 1.13402061855675  C 18.9365397461588 1.26002290950748  19 1.40492554410082  19 1.56872852233676  C 19 1.73253150057269  18.9365397461588 1.87743413516614  18.8096192384774 2.00343642611688  L 9.93787575150327 10.8109965635739  C 9.8109552438209 10.9369988545246  9.66499665998708 11  9.5 11  C 9.33500334001292 11  9.1890447561791 10.9369988545246  9.06212424849673 10.8109965635739  L 0.190380761522647 2.00343642611688  C 0.0634602538411855 1.87743413516614  0 1.73253150057269  0 1.56872852233676  C 0 1.40492554410082  0.0634602538411855 1.26002290950748  0.190380761522647 1.13402061855675  L 1.14228456913861 0.189003436426106  C 1.26920507682007 0.0630011454753685  1.4151636606548 0  1.58016032064097 0  C 1.74515698062805 0  1.89111556446187 0.0630011454753685  2.01803607214424 0.189003436426106  L 9.5 4.70000000000005  L 16.9819639278558 0.189003436426106  C 17.1088844355381 0.0630011454753685  17.2548430193719 0  17.419839679359 0  C 17.5848363393452 0  17.7307949231799 0.0630011454753685  17.8577154308614 0.189003436426106  L 18.8096192384774 1.13402061855675  Z " fill-rule="nonzero" fill="#0000bf" stroke="none" transform="matrix(1 0 0 1 634 9358 )" />
  </g>
</svg>