<?xml version="1.0" encoding="utf-8"?>
<svg version="1.1" xmlns:xlink="http://www.w3.org/1999/xlink" width="258px" height="255px" xmlns="http://www.w3.org/2000/svg">
  <defs>
    <mask fill="white" id="clip100">
      <path d="M 257.572813643644 0.997291323323972  C 255.380266010376 1.30636474737366  253.740637994974 254.675910549386  253.740637994974 254.675910549386  L 0.229929721053505 254.676488827331  C 0.228373409530885 254.30228514013  0.227594503648963 253.9278673456  0.227594503648777 253.553236945222  C 0.227594503649053 112.096362820748  111.279768416692 0.951676008659487  252.618898851475 0.951676008660326  C 254.274402325285 0.95167600866017  255.925750608045 0.966924401396115  257.572813643644 0.997291323323972  Z " fill-rule="evenodd" />
    </mask>
  </defs>
  <g transform="matrix(1 0 0 1 -594 -12570 )">
    <path d="M 257.572813643644 0.997291323323972  C 255.380266010376 1.30636474737366  253.740637994974 254.675910549386  253.740637994974 254.675910549386  L 0.229929721053505 254.676488827331  C 0.228373409530885 254.30228514013  0.227594503648963 253.9278673456  0.227594503648777 253.553236945222  C 0.227594503649053 112.096362820748  111.279768416692 0.951676008659487  252.618898851475 0.951676008660326  C 254.274402325285 0.95167600866017  255.925750608045 0.966924401396115  257.572813643644 0.997291323323972  Z " fill-rule="nonzero" fill="#f59a23" stroke="none" transform="matrix(1 0 0 1 594 12570 )" />
    <path d="M 257.572813643644 0.997291323323972  C 255.380266010376 1.30636474737366  253.740637994974 254.675910549386  253.740637994974 254.675910549386  L 0.229929721053505 254.676488827331  C 0.228373409530885 254.30228514013  0.227594503648963 253.9278673456  0.227594503648777 253.553236945222  C 0.227594503649053 112.096362820748  111.279768416692 0.951676008659487  252.618898851475 0.951676008660326  C 254.274402325285 0.95167600866017  255.925750608045 0.966924401396115  257.572813643644 0.997291323323972  Z " stroke-width="8" stroke="#b8741a" fill="none" transform="matrix(1 0 0 1 594 12570 )" mask="url(#clip100)" />
  </g>
</svg>