<?xml version="1.0" encoding="utf-8"?>
<svg version="1.1" xmlns:xlink="http://www.w3.org/1999/xlink" width="12px" height="12px" xmlns="http://www.w3.org/2000/svg">
  <g transform="matrix(1 0 0 1 -24 0 )">
    <path d="M 30 2  C 32.24 2  34 3.76  34 6  C 34 8.24  32.24 10  30 10  C 27.76 10  26 8.24  26 6  C 26 3.76  27.76 2  30 2  Z " fill-rule="nonzero" fill="#fffff7" stroke="none" />
    <path d="M 30 1.5  C 32.52 1.5  34.5 3.48  34.5 6  C 34.5 8.52  32.52 10.5  30 10.5  C 27.48 10.5  25.5 8.52  25.5 6  C 25.5 3.48  27.48 1.5  30 1.5  Z " stroke-width="3" stroke="#007ebc" fill="none" />
  </g>
</svg>