<?xml version="1.0" encoding="utf-8"?>
<svg version="1.1" xmlns:xlink="http://www.w3.org/1999/xlink" width="240px" height="238px" xmlns="http://www.w3.org/2000/svg">
  <defs>
    <mask fill="white" id="clip97">
      <path d="M 239.74445491617 0.603251405201009  C 237.704875722432 0.89183471202579  236.179640359269 237.464168943709  236.179640359269 237.464168943709  L 0.355725685853856 237.464708884542  C 0.354277954205386 237.115313145291  0.353553390593677 236.765717493021  0.353553390593757 236.415923329674  C 0.353553390593564 104.336975961253  103.65790121668 0.560660171780253  235.136162086245 0.560660171780345  C 236.676165317695 0.560660171780675  238.212303255147 0.574897667653761  239.74445491617 0.603251405201009  Z " fill-rule="evenodd" />
    </mask>
  </defs>
  <g transform="matrix(1 0 0 1 -914 -10408 )">
    <path d="M 239.74445491617 0.603251405201009  C 237.704875722432 0.89183471202579  236.179640359269 237.464168943709  236.179640359269 237.464168943709  L 0.355725685853856 237.464708884542  C 0.354277954205386 237.115313145291  0.353553390593677 236.765717493021  0.353553390593757 236.415923329674  C 0.353553390593564 104.336975961253  103.65790121668 0.560660171780253  235.136162086245 0.560660171780345  C 236.676165317695 0.560660171780675  238.212303255147 0.574897667653761  239.74445491617 0.603251405201009  Z " fill-rule="nonzero" fill="#f59a23" stroke="none" transform="matrix(1 0 0 1 914 10408 )" />
    <path d="M 239.74445491617 0.603251405201009  C 237.704875722432 0.89183471202579  236.179640359269 237.464168943709  236.179640359269 237.464168943709  L 0.355725685853856 237.464708884542  C 0.354277954205386 237.115313145291  0.353553390593677 236.765717493021  0.353553390593757 236.415923329674  C 0.353553390593564 104.336975961253  103.65790121668 0.560660171780253  235.136162086245 0.560660171780345  C 236.676165317695 0.560660171780675  238.212303255147 0.574897667653761  239.74445491617 0.603251405201009  Z " stroke-width="8" stroke="#b8741a" fill="none" transform="matrix(1 0 0 1 914 10408 )" mask="url(#clip97)" />
  </g>
</svg>