<?xml version="1.0" encoding="utf-8"?>
<svg version="1.1" xmlns:xlink="http://www.w3.org/1999/xlink" width="37px" height="37px" xmlns="http://www.w3.org/2000/svg">
  <g transform="matrix(1 0 0 1 -632 -9132 )">
    <path d="M 650.5 9132  C 660.86 9132  669 9140.14  669 9150.5  C 669 9160.86  660.86 9169  650.5 9169  C 640.14 9169  632 9160.86  632 9150.5  C 632 9140.14  640.14 9132  650.5 9132  Z " fill-rule="nonzero" fill="#242424" stroke="none" />
    <path d="M 650.5 9132.5  C 660.58 9132.5  668.5 9140.42  668.5 9150.5  C 668.5 9160.58  660.58 9168.5  650.5 9168.5  C 640.42 9168.5  632.5 9160.58  632.5 9150.5  C 632.5 9140.42  640.42 9132.5  650.5 9132.5  Z " stroke-width="1" stroke="#555555" fill="none" />
  </g>
</svg>