<?xml version="1.0" encoding="utf-8"?>
<svg version="1.1" xmlns:xlink="http://www.w3.org/1999/xlink" width="248px" height="245px" xmlns="http://www.w3.org/2000/svg">
  <defs>
    <mask fill="white" id="clip96">
      <path d="M 247.320562157351 0.660752454583954  C 245.212996990489 0.957787992152569  243.636920448552 244.459019042338  243.636920448552 244.459019042338  L -0.0477913806435866 244.459574797338  C -0.0492873700138921 244.099945710076  -0.0500360857451381 243.7401108546  -0.0500360857453859 243.380071673917  C -0.0500360857450417 107.432703252864  106.697790001212 0.616913779180324  242.558659566428 0.616913779180535  C 244.149996238927 0.616913779180793  245.737338774295 0.631568272840499  247.320562157351 0.660752454583954  Z " fill-rule="evenodd" />
    </mask>
  </defs>
  <g transform="matrix(1 0 0 1 -798 -11340 )">
    <path d="M 247.320562157351 0.660752454583954  C 245.212996990489 0.957787992152569  243.636920448552 244.459019042338  243.636920448552 244.459019042338  L -0.0477913806435866 244.459574797338  C -0.0492873700138921 244.099945710076  -0.0500360857451381 243.7401108546  -0.0500360857453859 243.380071673917  C -0.0500360857450417 107.432703252864  106.697790001212 0.616913779180324  242.558659566428 0.616913779180535  C 244.149996238927 0.616913779180793  245.737338774295 0.631568272840499  247.320562157351 0.660752454583954  Z " fill-rule="nonzero" fill="#f59a23" stroke="none" transform="matrix(1 0 0 1 798 11340 )" />
    <path d="M 247.320562157351 0.660752454583954  C 245.212996990489 0.957787992152569  243.636920448552 244.459019042338  243.636920448552 244.459019042338  L -0.0477913806435866 244.459574797338  C -0.0492873700138921 244.099945710076  -0.0500360857451381 243.7401108546  -0.0500360857453859 243.380071673917  C -0.0500360857450417 107.432703252864  106.697790001212 0.616913779180324  242.558659566428 0.616913779180535  C 244.149996238927 0.616913779180793  245.737338774295 0.631568272840499  247.320562157351 0.660752454583954  Z " stroke-width="8" stroke="#b8741a" fill="none" transform="matrix(1 0 0 1 798 11340 )" mask="url(#clip96)" />
  </g>
</svg>