<?xml version="1.0" encoding="utf-8"?>
<svg version="1.1" xmlns:xlink="http://www.w3.org/1999/xlink" width="37px" height="37px" xmlns="http://www.w3.org/2000/svg">
  <g transform="matrix(1 0 0 1 -300 -9011 )">
    <path d="M 318.5 9012  C 328.3 9012  336 9019.7  336 9029.5  C 336 9039.3  328.3 9047  318.5 9047  C 308.7 9047  301 9039.3  301 9029.5  C 301 9019.7  308.7 9012  318.5 9012  Z " fill-rule="nonzero" fill="#ffff80" stroke="none" />
    <path d="M 318.5 9012  C 328.3 9012  336 9019.7  336 9029.5  C 336 9039.3  328.3 9047  318.5 9047  C 308.7 9047  301 9039.3  301 9029.5  C 301 9019.7  308.7 9012  318.5 9012  Z " stroke-width="2" stroke="#f59a23" fill="none" />
  </g>
</svg>