<?xml version="1.0" encoding="utf-8"?>
<svg version="1.1" xmlns:xlink="http://www.w3.org/1999/xlink" width="741px" height="741px" xmlns="http://www.w3.org/2000/svg">
  <g transform="matrix(1 0 0 1 -281 -8659 )">
    <path d="M 651.5 8659  C 858.98 8659  1022 8822.02  1022 9029.5  C 1022 9236.98  858.98 9400  651.5 9400  C 444.02 9400  281 9236.98  281 9029.5  C 281 8822.02  444.02 8659  651.5 8659  Z " fill-rule="nonzero" fill="#ffffff" stroke="none" fill-opacity="0" />
    <path d="M 651.5 8659.5  C 858.7 8659.5  1021.5 8822.3  1021.5 9029.5  C 1021.5 9236.7  858.7 9399.5  651.5 9399.5  C 444.3 9399.5  281.5 9236.7  281.5 9029.5  C 281.5 8822.3  444.3 8659.5  651.5 8659.5  Z " stroke-width="1" stroke="#555555" fill="none" />
  </g>
</svg>