<?xml version="1.0" encoding="utf-8"?>
<svg version="1.1" xmlns:xlink="http://www.w3.org/1999/xlink" width="92px" height="92px" xmlns="http://www.w3.org/2000/svg">
  <g transform="matrix(1 0 0 1 -606 -8984 )">
    <path d="M 652 8984  C 677.76 8984  698 9004.24  698 9030  C 698 9055.76  677.76 9076  652 9076  C 626.24 9076  606 9055.76  606 9030  C 606 9004.24  626.24 8984  652 8984  Z " fill-rule="nonzero" fill="#242424" stroke="none" />
    <path d="M 652 8984.5  C 677.48 8984.5  697.5 9004.52  697.5 9030  C 697.5 9055.48  677.48 9075.5  652 9075.5  C 626.52 9075.5  606.5 9055.48  606.5 9030  C 606.5 9004.52  626.52 8984.5  652 8984.5  Z " stroke-width="1" stroke="#555555" fill="none" />
  </g>
</svg>