<?xml version="1.0" encoding="utf-8"?>
<svg version="1.1" xmlns:xlink="http://www.w3.org/1999/xlink" width="263px" height="263px" xmlns="http://www.w3.org/2000/svg">
  <g transform="matrix(1 0 0 1 -589 -9223 )">
    <path d="M 720.5 9224  C 793.58 9224  851 9281.42  851 9354.5  C 851 9427.58  793.58 9485  720.5 9485  C 647.42 9485  590 9427.58  590 9354.5  C 590 9281.42  647.42 9224  720.5 9224  Z " fill-rule="nonzero" fill="#705013" stroke="none" />
    <path d="M 720.5 9224  C 793.58 9224  851 9281.42  851 9354.5  C 851 9427.58  793.58 9485  720.5 9485  C 647.42 9485  590 9427.58  590 9354.5  C 590 9281.42  647.42 9224  720.5 9224  Z " stroke-width="2" stroke="#d7d7d7" fill="none" />
  </g>
</svg>