<?xml version="1.0" encoding="utf-8"?>
<svg version="1.1" xmlns:xlink="http://www.w3.org/1999/xlink" width="901px" height="901px" xmlns="http://www.w3.org/2000/svg">
  <g transform="matrix(1 0 0 1 -201 -8579 )">
    <path d="M 651.5 8580  C 903.22 8580  1101 8777.78  1101 9029.5  C 1101 9281.22  903.22 9479  651.5 9479  C 399.78 9479  202 9281.22  202 9029.5  C 202 8777.78  399.78 8580  651.5 8580  Z " fill-rule="nonzero" fill="#242424" stroke="none" />
    <path d="M 651.5 8580  C 903.22 8580  1101 8777.78  1101 9029.5  C 1101 9281.22  903.22 9479  651.5 9479  C 399.78 9479  202 9281.22  202 9029.5  C 202 8777.78  399.78 8580  651.5 8580  Z " stroke-width="2" stroke="#8a47bf" fill="none" />
  </g>
</svg>