<?xml version="1.0" encoding="utf-8"?>
<svg version="1.1" xmlns:xlink="http://www.w3.org/1999/xlink" width="460px" height="460px" xmlns="http://www.w3.org/2000/svg">
  <g transform="matrix(1 0 0 1 -192 -9030 )">
    <path d="M 422 9033  C 549.12 9033  649 9132.88  649 9260  C 649 9387.12  549.12 9487  422 9487  C 294.88 9487  195 9387.12  195 9260  C 195 9132.88  294.88 9033  422 9033  Z " fill-rule="nonzero" fill="#facd91" stroke="none" />
    <path d="M 422 9032  C 549.68 9032  650 9132.32  650 9260  C 650 9387.68  549.68 9488  422 9488  C 294.32 9488  194 9387.68  194 9260  C 194 9132.32  294.32 9032  422 9032  Z " stroke-width="4" stroke="#f59a23" fill="none" />
  </g>
</svg>