<?xml version="1.0" encoding="utf-8"?>
<svg version="1.1" xmlns:xlink="http://www.w3.org/1999/xlink" width="513px" height="507px" xmlns="http://www.w3.org/2000/svg">
  <defs>
    <mask fill="white" id="clip104">
      <path d="M 512.039413905285 1.06385944400497  C 507.67981337867 1.67958965406712  512.646446609406 506.853553390594  512.646446609406 506.853553390594  L 0.34600517548159 506.43874260663  C 0.342910649083243 505.693261122303  0.341361894362873 504.947353097416  0.341361894364895 504.201021523196  C 0.341361894364055 222.393321338883  221.154405372625 0.972985479779374  502.189187981321 0.972985479778024  C 505.480944888546 0.972985479779121  508.764439729849 1.00336303841607  512.039413905285 1.06385944400497  Z " fill-rule="evenodd" />
    </mask>
  </defs>
  <g transform="matrix(1 0 0 1 -106 -9104 )">
    <path d="M 512.039413905285 1.06385944400497  C 507.67981337867 1.67958965406712  512.646446609406 506.853553390594  512.646446609406 506.853553390594  L 0.34600517548159 506.43874260663  C 0.342910649083243 505.693261122303  0.341361894362873 504.947353097416  0.341361894364895 504.201021523196  C 0.341361894364055 222.393321338883  221.154405372625 0.972985479779374  502.189187981321 0.972985479778024  C 505.480944888546 0.972985479779121  508.764439729849 1.00336303841607  512.039413905285 1.06385944400497  Z " fill-rule="nonzero" fill="#f59a23" stroke="none" transform="matrix(1 0 0 1 106 9104 )" />
    <path d="M 512.039413905285 1.06385944400497  C 507.67981337867 1.67958965406712  512.646446609406 506.853553390594  512.646446609406 506.853553390594  L 0.34600517548159 506.43874260663  C 0.342910649083243 505.693261122303  0.341361894362873 504.947353097416  0.341361894364895 504.201021523196  C 0.341361894364055 222.393321338883  221.154405372625 0.972985479779374  502.189187981321 0.972985479778024  C 505.480944888546 0.972985479779121  508.764439729849 1.00336303841607  512.039413905285 1.06385944400497  Z " stroke-width="8" stroke="#b8741a" fill="none" transform="matrix(1 0 0 1 106 9104 )" mask="url(#clip104)" />
  </g>
</svg>