<?xml version="1.0" encoding="utf-8"?>
<svg version="1.1" xmlns:xlink="http://www.w3.org/1999/xlink" width="586px" height="586px" xmlns="http://www.w3.org/2000/svg">
  <g transform="matrix(1 0 0 1 -358 -8736 )">
    <path d="M 651 8736  C 815.08 8736  944 8864.92  944 9029  C 944 9193.08  815.08 9322  651 9322  C 486.92 9322  358 9193.08  358 9029  C 358 8864.92  486.92 8736  651 8736  Z " fill-rule="nonzero" fill="#ffffff" stroke="none" fill-opacity="0" />
    <path d="M 651 8736.5  C 814.8 8736.5  943.5 8865.2  943.5 9029  C 943.5 9192.8  814.8 9321.5  651 9321.5  C 487.2 9321.5  358.5 9192.8  358.5 9029  C 358.5 8865.2  487.2 8736.5  651 8736.5  Z " stroke-width="1" stroke="#555555" fill="none" />
  </g>
</svg>