<?xml version="1.0" encoding="utf-8"?>
<svg version="1.1" xmlns:xlink="http://www.w3.org/1999/xlink" width="319px" height="226px" xmlns="http://www.w3.org/2000/svg">
  <defs>
    <mask fill="white" id="clip140">
      <path d="M 319 64.243654822335  L 161.730769230769 226  L 0 69.9796954314721  C 0 69.9796954314721  60.2307692307692 -1.14720812182741  159.5 1.14720812182741  C 258.769230769231 3.44162436548223  319 64.243654822335  319 64.243654822335  Z " fill-rule="evenodd" />
    </mask>
  </defs>
  <g transform="matrix(1 0 0 1 -755 -5996 )">
    <path d="M 319 64.243654822335  L 161.730769230769 226  L 0 69.9796954314721  C 0 69.9796954314721  60.2307692307692 -1.14720812182741  159.5 1.14720812182741  C 258.769230769231 3.44162436548223  319 64.243654822335  319 64.243654822335  Z " fill-rule="nonzero" fill="#cc9900" stroke="none" transform="matrix(1 0 0 1 755 5996 )" />
    <path d="M 319 64.243654822335  L 161.730769230769 226  L 0 69.9796954314721  C 0 69.9796954314721  60.2307692307692 -1.14720812182741  159.5 1.14720812182741  C 258.769230769231 3.44162436548223  319 64.243654822335  319 64.243654822335  Z " stroke-width="2" stroke="#333333" fill="none" transform="matrix(1 0 0 1 755 5996 )" mask="url(#clip140)" />
  </g>
</svg>