<?xml version="1.0" encoding="utf-8"?>
<svg version="1.1" xmlns:xlink="http://www.w3.org/1999/xlink" width="274px" height="225px" xmlns="http://www.w3.org/2000/svg">
  <defs>
    <mask fill="white" id="clip31">
      <path d="M -0.141204187881158 170.493323365111  C -0.141204187881158 170.493323365111  16.456720278793 78.7802333800441  103.573604060914 31.1326407492895  C 190.690487843034 -16.5149518814653  273.252879314785 6.02576648045942  273.252879314785 6.02576648045942  L 217.931902823826 224.745486012256  L -0.141204187881158 170.493323365111  Z " fill-rule="evenodd" />
    </mask>
  </defs>
  <g transform="matrix(1 0 0 1 -921 -6023 )">
    <path d="M -0.141204187881158 170.493323365111  C -0.141204187881158 170.493323365111  16.456720278793 78.7802333800441  103.573604060914 31.1326407492895  C 190.690487843034 -16.5149518814653  273.252879314785 6.02576648045942  273.252879314785 6.02576648045942  L 217.931902823826 224.745486012256  L -0.141204187881158 170.493323365111  Z " fill-rule="nonzero" fill="#cc9900" stroke="none" transform="matrix(1 0 0 1 921 6023 )" />
    <path d="M -0.141204187881158 170.493323365111  C -0.141204187881158 170.493323365111  16.456720278793 78.7802333800441  103.573604060914 31.1326407492895  C 190.690487843034 -16.5149518814653  273.252879314785 6.02576648045942  273.252879314785 6.02576648045942  L 217.931902823826 224.745486012256  L -0.141204187881158 170.493323365111  Z " stroke-width="2" stroke="#333333" fill="none" transform="matrix(1 0 0 1 921 6023 )" mask="url(#clip31)" />
  </g>
</svg>