<?xml version="1.0" encoding="utf-8"?>
<svg version="1.1" xmlns:xlink="http://www.w3.org/1999/xlink" width="77px" height="77px" xmlns="http://www.w3.org/2000/svg">
  <g transform="matrix(1 0 0 1 -964 -11481 )">
    <path d="M 1002.5 11485  C 1021.82 11485  1037 11500.18  1037 11519.5  C 1037 11538.82  1021.82 11554  1002.5 11554  C 983.18 11554  968 11538.82  968 11519.5  C 968 11500.18  983.18 11485  1002.5 11485  Z " fill-rule="nonzero" fill="#ffffff" stroke="none" />
    <path d="M 1002.5 11483.5  C 1022.66 11483.5  1038.5 11499.34  1038.5 11519.5  C 1038.5 11539.66  1022.66 11555.5  1002.5 11555.5  C 982.34 11555.5  966.5 11539.66  966.5 11519.5  C 966.5 11499.34  982.34 11483.5  1002.5 11483.5  Z " stroke-width="5" stroke="#ffcc00" fill="none" />
  </g>
</svg>