<?xml version="1.0" encoding="utf-8"?>
<svg version="1.1" xmlns:xlink="http://www.w3.org/1999/xlink" width="83px" height="83px" xmlns="http://www.w3.org/2000/svg">
  <g transform="matrix(1 0 0 1 -957 -10537 )">
    <path d="M 998.5 10537  C 1021.74 10537  1040 10555.26  1040 10578.5  C 1040 10601.74  1021.74 10620  998.5 10620  C 975.26 10620  957 10601.74  957 10578.5  C 957 10555.26  975.26 10537  998.5 10537  Z " fill-rule="nonzero" fill="#9999ff" stroke="none" />
    <path d="M 998.5 10537.5  C 1021.46 10537.5  1039.5 10555.54  1039.5 10578.5  C 1039.5 10601.46  1021.46 10619.5  998.5 10619.5  C 975.54 10619.5  957.5 10601.46  957.5 10578.5  C 957.5 10555.54  975.54 10537.5  998.5 10537.5  Z " stroke-width="1" stroke="#797979" fill="none" />
  </g>
</svg>