<?xml version="1.0" encoding="utf-8"?>
<svg version="1.1" xmlns:xlink="http://www.w3.org/1999/xlink" width="83px" height="83px" xmlns="http://www.w3.org/2000/svg">
  <g transform="matrix(1 0 0 1 -957 -12476 )">
    <path d="M 998.5 12476  C 1021.74 12476  1040 12494.26  1040 12517.5  C 1040 12540.74  1021.74 12559  998.5 12559  C 975.26 12559  957 12540.74  957 12517.5  C 957 12494.26  975.26 12476  998.5 12476  Z " fill-rule="nonzero" fill="#9999ff" stroke="none" />
    <path d="M 998.5 12476.5  C 1021.46 12476.5  1039.5 12494.54  1039.5 12517.5  C 1039.5 12540.46  1021.46 12558.5  998.5 12558.5  C 975.54 12558.5  957.5 12540.46  957.5 12517.5  C 957.5 12494.54  975.54 12476.5  998.5 12476.5  Z " stroke-width="1" stroke="#797979" fill="none" />
  </g>
</svg>