<?xml version="1.0" encoding="utf-8"?>
<svg version="1.1" xmlns:xlink="http://www.w3.org/1999/xlink" width="77px" height="77px" xmlns="http://www.w3.org/2000/svg">
  <g transform="matrix(1 0 0 1 -964 -9542 )">
    <path d="M 1002.5 9546  C 1021.82 9546  1037 9561.18  1037 9580.5  C 1037 9599.82  1021.82 9615  1002.5 9615  C 983.18 9615  968 9599.82  968 9580.5  C 968 9561.18  983.18 9546  1002.5 9546  Z " fill-rule="nonzero" fill="#ffffff" stroke="none" />
    <path d="M 1002.5 9544.5  C 1022.66 9544.5  1038.5 9560.34  1038.5 9580.5  C 1038.5 9600.66  1022.66 9616.5  1002.5 9616.5  C 982.34 9616.5  966.5 9600.66  966.5 9580.5  C 966.5 9560.34  982.34 9544.5  1002.5 9544.5  Z " stroke-width="5" stroke="#ffcc00" fill="none" />
  </g>
</svg>