<?xml version="1.0" encoding="utf-8"?>
<svg version="1.1" xmlns:xlink="http://www.w3.org/1999/xlink" width="255px" height="341px" xmlns="http://www.w3.org/2000/svg">
  <defs>
    <mask fill="white" id="clip45">
      <path d="M 0.344734345491598 99.5794593113035  C 0.344734345491439 66.7546311316708  6.28483437919505 35.5498302339553  17.1700465567675 6.96004415775793  C 33.3773569333648 2.47216850957298  50.5347671123914 0.0794593113011775  68.3447343454901 0.0794593113033733  C 172.504734345491 0.0794593113044665  254.344734345492 81.9194593113027  254.34473434549 186.079459311304  C 254.344734345491 251.34550489575  222.212695882316 307.848267262966  172.59134410296 340.945020758781  C 71.5150738384304 307.409532012838  0.344734345492278 213.199541956562  0.344734345491598 99.5794593113035  Z " fill-rule="evenodd" />
    </mask>
  </defs>
  <g transform="matrix(1 0 0 1 -493 -1278 )">
    <path d="M 0.344734345491598 99.5794593113035  C 0.344734345491439 66.7546311316708  6.28483437919505 35.5498302339553  17.1700465567675 6.96004415775793  C 33.3773569333648 2.47216850957298  50.5347671123914 0.0794593113011775  68.3447343454901 0.0794593113033733  C 172.504734345491 0.0794593113044665  254.344734345492 81.9194593113027  254.34473434549 186.079459311304  C 254.344734345491 251.34550489575  222.212695882316 307.848267262966  172.59134410296 340.945020758781  C 71.5150738384304 307.409532012838  0.344734345492278 213.199541956562  0.344734345491598 99.5794593113035  Z " fill-rule="nonzero" fill="#ff9933" stroke="none" transform="matrix(1 0 0 1 493 1278 )" />
    <path d="M 0.344734345491598 99.5794593113035  C 0.344734345491439 66.7546311316708  6.28483437919505 35.5498302339553  17.1700465567675 6.96004415775793  C 33.3773569333648 2.47216850957298  50.5347671123914 0.0794593113011775  68.3447343454901 0.0794593113033733  C 172.504734345491 0.0794593113044665  254.344734345492 81.9194593113027  254.34473434549 186.079459311304  C 254.344734345491 251.34550489575  222.212695882316 307.848267262966  172.59134410296 340.945020758781  C 71.5150738384304 307.409532012838  0.344734345492278 213.199541956562  0.344734345491598 99.5794593113035  Z " stroke-width="4" stroke="#ff0000" fill="none" transform="matrix(1 0 0 1 493 1278 )" mask="url(#clip45)" />
  </g>
</svg>