<?xml version="1.0" encoding="utf-8"?>
<svg version="1.1" xmlns:xlink="http://www.w3.org/1999/xlink" width="255px" height="342px" xmlns="http://www.w3.org/2000/svg">
  <defs>
    <mask fill="white" id="clip46">
      <path d="M 0.474143868042476 99.5964963981587  C 0.474143868042862 66.7716682185251  6.4142439017464 35.5668673208101  17.2994560793188 6.97708124461271  C 33.5067664559166 2.48920559642668  50.6641766349424 0.0964963981571573  68.4741438680416 0.0964963981584958  C 172.634143868042 0.0964963981584222  254.474143868043 81.9364963981575  254.474143868041 186.096496398158  C 254.474143868042 251.362541982604  222.342105404867 307.86530434982  172.720753625511 340.962057845636  C 71.6444833609812 307.426569099693  0.474143868043156 213.216579043417  0.474143868042476 99.5964963981587  Z " fill-rule="evenodd" />
    </mask>
  </defs>
  <g transform="matrix(1 0 0 1 -363 -573 )">
    <path d="M 0.474143868042476 99.5964963981587  C 0.474143868042862 66.7716682185251  6.4142439017464 35.5668673208101  17.2994560793188 6.97708124461271  C 33.5067664559166 2.48920559642668  50.6641766349424 0.0964963981571573  68.4741438680416 0.0964963981584958  C 172.634143868042 0.0964963981584222  254.474143868043 81.9364963981575  254.474143868041 186.096496398158  C 254.474143868042 251.362541982604  222.342105404867 307.86530434982  172.720753625511 340.962057845636  C 71.6444833609812 307.426569099693  0.474143868043156 213.216579043417  0.474143868042476 99.5964963981587  Z " fill-rule="nonzero" fill="#ff9933" stroke="none" transform="matrix(1 0 0 1 363 573 )" />
    <path d="M 0.474143868042476 99.5964963981587  C 0.474143868042862 66.7716682185251  6.4142439017464 35.5668673208101  17.2994560793188 6.97708124461271  C 33.5067664559166 2.48920559642668  50.6641766349424 0.0964963981571573  68.4741438680416 0.0964963981584958  C 172.634143868042 0.0964963981584222  254.474143868043 81.9364963981575  254.474143868041 186.096496398158  C 254.474143868042 251.362541982604  222.342105404867 307.86530434982  172.720753625511 340.962057845636  C 71.6444833609812 307.426569099693  0.474143868043156 213.216579043417  0.474143868042476 99.5964963981587  Z " stroke-width="4" stroke="#ff0000" fill="none" transform="matrix(1 0 0 1 363 573 )" mask="url(#clip46)" />
  </g>
</svg>