<?xml version="1.0" encoding="utf-8"?>
<svg version="1.1" xmlns:xlink="http://www.w3.org/1999/xlink" width="14px" height="18px" xmlns="http://www.w3.org/2000/svg">
  <g transform="matrix(1 0 0 1 -488 -9321 )">
    <path d="M 495 9338.06016861149  C 492.4 9333.92164222246  488.5 9331.43852638903  488.5 9327.3  C 488.5 9325.14571428571  489.8 9321.5  495 9321.5  C 500.2 9321.5  501.5 9325.14571428571  501.5 9327.3  C 501.5 9331.43852638903  497.6 9333.92164222246  495 9338.06016861149  Z " fill-rule="nonzero" fill="#cc0000" stroke="none" />
    <path d="M 495 9339  C 492.2 9334.5  488 9331.8  488 9327.3  C 488 9324.96  489.4 9321  495 9321  C 500.6 9321  502 9324.96  502 9327.3  C 502 9331.8  497.8 9334.5  495 9339  Z M 495 9337.12033722298  C 497.4 9333.34328444491  501 9331.07705277807  501 9327.3  C 501 9325.33142857143  499.8 9322  495 9322  C 490.2 9322  489 9325.33142857143  489 9327.3  C 489 9331.07705277807  492.6 9333.34328444491  495 9337.12033722298  Z " fill-rule="nonzero" fill="#ffffff" stroke="none" />
  </g>
</svg>