<?xml version="1.0" encoding="utf-8"?>
<svg version="1.1" xmlns:xlink="http://www.w3.org/1999/xlink" width="441px" height="220px" xmlns="http://www.w3.org/2000/svg">
  <defs>
    <mask fill="white" id="clip226">
      <path d="M 440.999468381766 220  L 0.000531615614363545 219.999423241052  C 0.26233127952878 96.7578943282951  97.1869073222695 0  220.5 0  C 343.813092677731 0  440.737668720471 96.7578943282951  440.999468381766 220  Z " fill-rule="evenodd" />
    </mask>
  </defs>
  <g transform="matrix(1 0 0 1 -729 -15224 )">
    <path d="M 440.999468381766 220  L 0.000531615614363545 219.999423241052  C 0.26233127952878 96.7578943282951  97.1869073222695 0  220.5 0  C 343.813092677731 0  440.737668720471 96.7578943282951  440.999468381766 220  Z " fill-rule="nonzero" fill="#7bb6c3" stroke="none" transform="matrix(1 0 0 1 729 15224 )" />
    <path d="M 440.999468381766 220  L 0.000531615614363545 219.999423241052  C 0.26233127952878 96.7578943282951  97.1869073222695 0  220.5 0  C 343.813092677731 0  440.737668720471 96.7578943282951  440.999468381766 220  Z " stroke-width="4" stroke="#e9f9ff" fill="none" transform="matrix(1 0 0 1 729 15224 )" mask="url(#clip226)" />
  </g>
</svg>