<?xml version="1.0" encoding="utf-8"?>
<svg version="1.1" xmlns:xlink="http://www.w3.org/1999/xlink" width="156px" height="153px" xmlns="http://www.w3.org/2000/svg">
  <defs>
    <mask fill="white" id="clip219">
      <path d="M 96.7383297014434 92.409902576696  C 68.4159807738619 120.732251504278  35.310282568198 140.683739195215  0.248737341923588 152.264365639938  L 0.248737341528884 0.127416997967008  L 155.159676297253 0.127416950312645  C 143.399053778635 33.6284990023861  123.925271580031 65.222960698108  96.7383297014434 92.409902576696  Z " fill-rule="evenodd" />
    </mask>
  </defs>
  <g transform="matrix(1 0 0 1 -852 -13998 )">
    <path d="M 96.7383297014434 92.409902576696  C 68.4159807738619 120.732251504278  35.310282568198 140.683739195215  0.248737341923588 152.264365639938  L 0.248737341528884 0.127416997967008  L 155.159676297253 0.127416950312645  C 143.399053778635 33.6284990023861  123.925271580031 65.222960698108  96.7383297014434 92.409902576696  Z " fill-rule="nonzero" fill="#81d3f8" stroke="none" transform="matrix(1 0 0 1 852 13998 )" />
    <path d="M 96.7383297014434 92.409902576696  C 68.4159807738619 120.732251504278  35.310282568198 140.683739195215  0.248737341923588 152.264365639938  L 0.248737341528884 0.127416997967008  L 155.159676297253 0.127416950312645  C 143.399053778635 33.6284990023861  123.925271580031 65.222960698108  96.7383297014434 92.409902576696  Z " stroke-width="4" stroke="#fafefd" fill="none" transform="matrix(1 0 0 1 852 13998 )" mask="url(#clip219)" />
  </g>
</svg>