<?xml version="1.0" encoding="utf-8"?>
<svg version="1.1" xmlns:xlink="http://www.w3.org/1999/xlink" width="479px" height="372px" xmlns="http://www.w3.org/2000/svg">
  <defs>
    <mask fill="white" id="clip18">
      <path d="M 238.641531350227 135.795464412258  L 2.00963635618285 372  L 0 372  L 0 0  L 479 0  L 478.999915658581 366.892292463484  L 247.485165482352 135.795464412258  C 245.008947925357 133.3237168344  241.117748907222 133.3237168344  238.641531350227 135.795464412258  Z " fill-rule="evenodd" />
    </mask>
  </defs>
  <g transform="matrix(1 0 0 1 -162 -14050 )">
    <path d="M 238.641531350227 135.795464412258  L 2.00963635618285 372  L 0 372  L 0 0  L 479 0  L 478.999915658581 366.892292463484  L 247.485165482352 135.795464412258  C 245.008947925357 133.3237168344  241.117748907222 133.3237168344  238.641531350227 135.795464412258  Z " fill-rule="nonzero" fill="#81d3f8" stroke="none" transform="matrix(1 0 0 1 162 14050 )" />
    <path d="M 238.641531350227 135.795464412258  L 2.00963635618285 372  L 0 372  L 0 0  L 479 0  L 478.999915658581 366.892292463484  L 247.485165482352 135.795464412258  C 245.008947925357 133.3237168344  241.117748907222 133.3237168344  238.641531350227 135.795464412258  Z " stroke-width="4" stroke="#fafefd" fill="none" transform="matrix(1 0 0 1 162 14050 )" mask="url(#clip18)" />
  </g>
</svg>