<?xml version="1.0" encoding="utf-8"?>
<svg version="1.1" xmlns:xlink="http://www.w3.org/1999/xlink" width="25px" height="25px" xmlns="http://www.w3.org/2000/svg">
  <g transform="matrix(1 0 0 1 -440 -2007 )">
    <path d="M 452.5 2007  C 459.5 2007  465 2012.5  465 2019.5  C 465 2026.5  459.5 2032  452.5 2032  C 445.5 2032  440 2026.5  440 2019.5  C 440 2012.5  445.5 2007  452.5 2007  Z " fill-rule="nonzero" fill="#8080ff" stroke="none" />
    <path d="M 452.5 2007.5  C 459.22 2007.5  464.5 2012.78  464.5 2019.5  C 464.5 2026.22  459.22 2031.5  452.5 2031.5  C 445.78 2031.5  440.5 2026.22  440.5 2019.5  C 440.5 2012.78  445.78 2007.5  452.5 2007.5  Z " stroke-width="1" stroke="#ffffff" fill="none" />
  </g>
</svg>