<?xml version="1.0" encoding="utf-8"?>
<svg version="1.1" xmlns:xlink="http://www.w3.org/1999/xlink" width="18px" height="23px" xmlns="http://www.w3.org/2000/svg">
  <g>
    <path d="M 9 22.0640419686815  C 5.6 16.6740258268809  0.5 13.4400161418006  0.5 8.05  C 0.5 5.24571428571429  2.2 0.5  9 0.5  C 15.8 0.5  17.5 5.24571428571429  17.5 8.05  C 17.5 13.4400161418006  12.4 16.6740258268809  9 22.0640419686815  Z " fill-rule="nonzero" fill="#a43f35" stroke="none" />
    <path d="M 9 23  C 5.4 17.25  0 13.8  0 8.05  C 0 5.06  1.8 0  9 0  C 16.2 0  18 5.06  18 8.05  C 18 13.8  12.6 17.25  9 23  Z M 9 21.128083937363  C 12.2 16.0980516537618  17 13.0800322836011  17 8.05  C 17 5.43142857142857  15.4 0.999999999999999  9 0.999999999999999  C 2.6 0.999999999999999  1 5.43142857142857  1 8.05  C 1 13.0800322836011  5.8 16.0980516537618  9 21.128083937363  Z " fill-rule="nonzero" fill="#ffffff" stroke="none" />
  </g>
</svg>