<?xml version="1.0" encoding="utf-8"?>
<svg version="1.1" xmlns:xlink="http://www.w3.org/1999/xlink" width="45px" height="44px" xmlns="http://www.w3.org/2000/svg">
  <defs>
    <radialGradient cx="22.5" cy="22" r="22.5" gradientTransform="matrix(-1 0 0 -0.977777777777778 45 43.5111111111111 )" gradientUnits="userSpaceOnUse" id="RadialGradient58">
      <stop id="Stop59" stop-color="#ffffff" offset="0" />
      <stop id="Stop60" stop-color="#de7d23" offset="0.7" />
      <stop id="Stop61" stop-color="#db7c23" offset="1" />
    </radialGradient>
    <mask fill="white" id="clip62">
      <path d="M 11.3390877415268 17.9801084990958  L 8.39919227114348 7.31103074141053  L 19.045177383592 9.9783001808318  L 23.4550205891669 0.168173598553373  L 27.6866883116883 9.9783001808318  L 37.7090592334495 7.31103074141053  L 35.3482340829902 17.25678119349  L 44.8360785555907 22.4104882459313  L 35.3482340829902 27.0216998191681  L 37.7090592334495 37.3743218806509  L 28.7111973392461 34.2097649186257  L 23.4550205891669 43.9746835443038  L 17.6197735191638 33.9385171790235  L 8.13192904656319 37.3743218806509  L 11.3390877415268 27.0216998191681  L 0.158576179917633 22.4104882459313  L 11.3390877415268 17.9801084990958  Z " fill-rule="evenodd" />
    </mask>
  </defs>
  <g>
    <path d="M 11.3390877415268 17.9801084990958  L 8.39919227114348 7.31103074141053  L 19.045177383592 9.9783001808318  L 23.4550205891669 0.168173598553373  L 27.6866883116883 9.9783001808318  L 37.7090592334495 7.31103074141053  L 35.3482340829902 17.25678119349  L 44.8360785555907 22.4104882459313  L 35.3482340829902 27.0216998191681  L 37.7090592334495 37.3743218806509  L 28.7111973392461 34.2097649186257  L 23.4550205891669 43.9746835443038  L 17.6197735191638 33.9385171790235  L 8.13192904656319 37.3743218806509  L 11.3390877415268 27.0216998191681  L 0.158576179917633 22.4104882459313  L 11.3390877415268 17.9801084990958  Z " fill-rule="nonzero" fill="url(#RadialGradient58)" stroke="none" />
    <path d="M 11.3390877415268 17.9801084990958  L 8.39919227114348 7.31103074141053  L 19.045177383592 9.9783001808318  L 23.4550205891669 0.168173598553373  L 27.6866883116883 9.9783001808318  L 37.7090592334495 7.31103074141053  L 35.3482340829902 17.25678119349  L 44.8360785555907 22.4104882459313  L 35.3482340829902 27.0216998191681  L 37.7090592334495 37.3743218806509  L 28.7111973392461 34.2097649186257  L 23.4550205891669 43.9746835443038  L 17.6197735191638 33.9385171790235  L 8.13192904656319 37.3743218806509  L 11.3390877415268 27.0216998191681  L 0.158576179917633 22.4104882459313  L 11.3390877415268 17.9801084990958  Z " stroke-width="2" stroke="#f2f2f2" fill="none" mask="url(#clip62)" />
  </g>
</svg>