<?xml version="1.0" encoding="utf-8"?>
<svg version="1.1" xmlns:xlink="http://www.w3.org/1999/xlink" width="100px" height="97px" xmlns="http://www.w3.org/2000/svg">
  <defs>
    <radialGradient cx="50" cy="48.5" r="50" gradientTransform="matrix(-1 0 0 -0.97 100 95.545 )" gradientUnits="userSpaceOnUse" id="RadialGradient267">
      <stop id="Stop268" stop-color="#ffffff" offset="0" />
      <stop id="Stop269" stop-color="#de7d23" offset="0.7" />
      <stop id="Stop270" stop-color="#db7c23" offset="1" />
    </radialGradient>
    <mask fill="white" id="clip271">
      <path d="M 25.1979727589484 39.6379664639158  L 18.6648717136522 16.1174995890187  L 42.3226164079822 21.9976163077428  L 52.1222679759265 0.370746342265391  L 61.525974025974 21.9976163077428  L 83.7979094076655 16.1174995890187  L 78.5516312955338 38.0433585401938  L 99.635730123535 49.4049399967122  L 78.5516312955338 59.5705655104388  L 83.7979094076655 82.3933914187077  L 63.8026607538803 75.4169817524248  L 52.1222679759265 96.9441887226698  L 39.1550522648084 74.8190037810291  L 18.0709534368071 82.3933914187077  L 25.1979727589484 59.5705655104388  L 0.352391510928073 49.4049399967122  L 25.1979727589484 39.6379664639158  Z " fill-rule="evenodd" />
    </mask>
  </defs>
  <g>
    <path d="M 25.1979727589484 39.6379664639158  L 18.6648717136522 16.1174995890187  L 42.3226164079822 21.9976163077428  L 52.1222679759265 0.370746342265391  L 61.525974025974 21.9976163077428  L 83.7979094076655 16.1174995890187  L 78.5516312955338 38.0433585401938  L 99.635730123535 49.4049399967122  L 78.5516312955338 59.5705655104388  L 83.7979094076655 82.3933914187077  L 63.8026607538803 75.4169817524248  L 52.1222679759265 96.9441887226698  L 39.1550522648084 74.8190037810291  L 18.0709534368071 82.3933914187077  L 25.1979727589484 59.5705655104388  L 0.352391510928073 49.4049399967122  L 25.1979727589484 39.6379664639158  Z " fill-rule="nonzero" fill="url(#RadialGradient267)" stroke="none" />
    <path d="M 25.1979727589484 39.6379664639158  L 18.6648717136522 16.1174995890187  L 42.3226164079822 21.9976163077428  L 52.1222679759265 0.370746342265391  L 61.525974025974 21.9976163077428  L 83.7979094076655 16.1174995890187  L 78.5516312955338 38.0433585401938  L 99.635730123535 49.4049399967122  L 78.5516312955338 59.5705655104388  L 83.7979094076655 82.3933914187077  L 63.8026607538803 75.4169817524248  L 52.1222679759265 96.9441887226698  L 39.1550522648084 74.8190037810291  L 18.0709534368071 82.3933914187077  L 25.1979727589484 59.5705655104388  L 0.352391510928073 49.4049399967122  L 25.1979727589484 39.6379664639158  Z " stroke-width="4" stroke="#f2f2f2" fill="none" mask="url(#clip271)" />
  </g>
</svg>