<?xml version="1.0" encoding="utf-8"?>
<svg version="1.1" xmlns:xlink="http://www.w3.org/1999/xlink" width="31px" height="51px" xmlns="http://www.w3.org/2000/svg">
  <defs>
    <mask fill="white" id="clip77">
      <path d="M 5.34482758620691 17.7589285714286  L 0 28.0803571428571  L 14.8128078817734 51  L 31 28.0803571428571  L 24.5862068965518 17.7589285714286  L 18.2192982456141 28.0803571428571  L 14.8128078817734 0  L 11.2677087455481 28.0803571428571  L 5.34482758620691 17.7589285714286  Z " fill-rule="evenodd" />
    </mask>
  </defs>
  <g transform="matrix(1 0 0 1 -14 -47 )">
    <path d="M 5.34482758620691 17.7589285714286  L 0 28.0803571428571  L 14.8128078817734 51  L 31 28.0803571428571  L 24.5862068965518 17.7589285714286  L 18.2192982456141 28.0803571428571  L 14.8128078817734 0  L 11.2677087455481 28.0803571428571  L 5.34482758620691 17.7589285714286  Z " fill-rule="nonzero" fill="#f2f2f2" stroke="none" transform="matrix(1 0 0 1 14 47 )" />
    <path d="M 5.34482758620691 17.7589285714286  L 0 28.0803571428571  L 14.8128078817734 51  L 31 28.0803571428571  L 24.5862068965518 17.7589285714286  L 18.2192982456141 28.0803571428571  L 14.8128078817734 0  L 11.2677087455481 28.0803571428571  L 5.34482758620691 17.7589285714286  Z " stroke-width="4" stroke="#304676" fill="none" transform="matrix(1 0 0 1 14 47 )" mask="url(#clip77)" />
  </g>
</svg>