<?xml version="1.0" encoding="utf-8"?>
<svg version="1.1" xmlns:xlink="http://www.w3.org/1999/xlink" width="12px" height="16px" xmlns="http://www.w3.org/2000/svg">
  <g transform="matrix(1 0 0 1 -16 -3 )">
    <path d="M 22 18.0369284683536  C 19.8 14.4073405959099  16.5 12.2295878724437  16.5 8.6  C 16.5 6.70571428571429  17.6 3.5  22 3.5  C 26.4 3.5  27.5 6.70571428571429  27.5 8.6  C 27.5 12.2295878724437  24.2 14.4073405959099  22 18.0369284683536  Z " fill-rule="nonzero" fill="#a43f35" stroke="none" />
    <path d="M 22 19  C 19.6 15  16 12.6  16 8.6  C 16 6.52  17.2 3  22 3  C 26.8 3  28 6.52  28 8.6  C 28 12.6  24.4 15  22 19  Z M 22 17.0738569367072  C 24 13.8146811918198  27 11.8591757448874  27 8.6  C 27 6.89142857142857  26 4  22 4  C 18 4  17 6.89142857142857  17 8.6  C 17 11.8591757448874  20 13.8146811918198  22 17.0738569367072  Z " fill-rule="nonzero" fill="#ffffff" stroke="none" />
  </g>
</svg>