<?xml version="1.0" encoding="utf-8"?>
<svg version="1.1" xmlns:xlink="http://www.w3.org/1999/xlink" width="15px" height="25px" xmlns="http://www.w3.org/2000/svg">
  <defs>
    <mask fill="white" id="clip284">
      <path d="M 2.58620689655173 8.70535714285714  L 0 13.764880952381  L 7.16748768472906 25  L 15 13.764880952381  L 11.8965517241379 8.70535714285714  L 8.81578947368423 13.764880952381  L 7.16748768472906 0  L 5.45211713494262 13.764880952381  L 2.58620689655173 8.70535714285714  Z " fill-rule="evenodd" />
    </mask>
  </defs>
  <g transform="matrix(1 0 0 1 -7 -23 )">
    <path d="M 2.58620689655173 8.70535714285714  L 0 13.764880952381  L 7.16748768472906 25  L 15 13.764880952381  L 11.8965517241379 8.70535714285714  L 8.81578947368423 13.764880952381  L 7.16748768472906 0  L 5.45211713494262 13.764880952381  L 2.58620689655173 8.70535714285714  Z " fill-rule="nonzero" fill="#f2f2f2" stroke="none" transform="matrix(1 0 0 1 7 23 )" />
    <path d="M 2.58620689655173 8.70535714285714  L 0 13.764880952381  L 7.16748768472906 25  L 15 13.764880952381  L 11.8965517241379 8.70535714285714  L 8.81578947368423 13.764880952381  L 7.16748768472906 0  L 5.45211713494262 13.764880952381  L 2.58620689655173 8.70535714285714  Z " stroke-width="2" stroke="#304676" fill="none" transform="matrix(1 0 0 1 7 23 )" mask="url(#clip284)" />
  </g>
</svg>