<?xml version="1.0" encoding="utf-8"?>
<svg version="1.1" xmlns:xlink="http://www.w3.org/1999/xlink" width="70px" height="70px" xmlns="http://www.w3.org/2000/svg">
  <g transform="matrix(1 0 0 1 -20 -450 )">
    <path d="M 55 451.5  C 73.76 451.5  88.5 466.24  88.5 485  C 88.5 503.76  73.76 518.5  55 518.5  C 36.24 518.5  21.5 503.76  21.5 485  C 21.5 466.24  36.24 451.5  55 451.5  Z " fill-rule="nonzero" fill="#000000" stroke="none" fill-opacity="0.4" />
    <path d="M 55 451  C 74.04 451  89 465.96  89 485  C 89 504.04  74.04 519  55 519  C 35.96 519  21 504.04  21 485  C 21 465.96  35.96 451  55 451  Z " stroke-width="2" stroke="#ffff80" fill="none" stroke-opacity="0.596078431372549" />
  </g>
</svg>