<?xml version="1.0" encoding="utf-8"?>
<svg version="1.1" xmlns:xlink="http://www.w3.org/1999/xlink" width="70px" height="70px" xmlns="http://www.w3.org/2000/svg">
  <g transform="matrix(1 0 0 1 -20 -60 )">
    <path d="M 55 61.5  C 73.76 61.5  88.5 76.24  88.5 95  C 88.5 113.76  73.76 128.5  55 128.5  C 36.24 128.5  21.5 113.76  21.5 95  C 21.5 76.24  36.24 61.5  55 61.5  Z " fill-rule="nonzero" fill="#000000" stroke="none" fill-opacity="0.4" />
    <path d="M 55 61  C 74.04 61  89 75.96  89 95  C 89 114.04  74.04 129  55 129  C 35.96 129  21 114.04  21 95  C 21 75.96  35.96 61  55 61  Z " stroke-width="2" stroke="#80ffff" fill="none" stroke-opacity="0.596078431372549" />
  </g>
</svg>