<?xml version="1.0" encoding="utf-8"?>
<svg version="1.1" xmlns:xlink="http://www.w3.org/1999/xlink" width="70px" height="70px" xmlns="http://www.w3.org/2000/svg">
  <g transform="matrix(1 0 0 1 -770 -450 )">
    <path d="M 805 451.5  C 823.76 451.5  838.5 466.24  838.5 485  C 838.5 503.76  823.76 518.5  805 518.5  C 786.24 518.5  771.5 503.76  771.5 485  C 771.5 466.24  786.24 451.5  805 451.5  Z " fill-rule="nonzero" fill="#000000" stroke="none" fill-opacity="0.4" />
    <path d="M 805 451  C 824.04 451  839 465.96  839 485  C 839 504.04  824.04 519  805 519  C 785.96 519  771 504.04  771 485  C 771 465.96  785.96 451  805 451  Z " stroke-width="2" stroke="#caf982" fill="none" stroke-opacity="0.596078431372549" />
  </g>
</svg>