<?xml version="1.0" encoding="utf-8"?>
<svg version="1.1" xmlns:xlink="http://www.w3.org/1999/xlink" width="70px" height="70px" xmlns="http://www.w3.org/2000/svg">
  <g transform="matrix(1 0 0 1 -1010 -10 )">
    <path d="M 1045 11.5  C 1063.76 11.5  1078.5 26.24  1078.5 45  C 1078.5 63.76  1063.76 78.5  1045 78.5  C 1026.24 78.5  1011.5 63.76  1011.5 45  C 1011.5 26.24  1026.24 11.5  1045 11.5  Z " fill-rule="nonzero" fill="#000000" stroke="none" fill-opacity="0" />
    <path d="M 1045 11  C 1064.04 11  1079 25.96  1079 45  C 1079 64.04  1064.04 79  1045 79  C 1025.96 79  1011 64.04  1011 45  C 1011 25.96  1025.96 11  1045 11  Z " stroke-width="2" stroke="#80ffff" fill="none" stroke-opacity="0.596078431372549" />
  </g>
</svg>