<?xml version="1.0" encoding="utf-8"?>
<svg version="1.1" xmlns:xlink="http://www.w3.org/1999/xlink" width="39px" height="39px" xmlns="http://www.w3.org/2000/svg">
  <g transform="matrix(1 0 0 1 -837 -3681 )">
    <path d="M 856.5 3682.5  C 866.58 3682.5  874.5 3690.42  874.5 3700.5  C 874.5 3710.58  866.58 3718.5  856.5 3718.5  C 846.42 3718.5  838.5 3710.58  838.5 3700.5  C 838.5 3690.42  846.42 3682.5  856.5 3682.5  Z " fill-rule="nonzero" fill="#ffffff" stroke="none" fill-opacity="0" />
    <path d="M 856.5 3682  C 866.86 3682  875 3690.14  875 3700.5  C 875 3710.86  866.86 3719  856.5 3719  C 846.14 3719  838 3710.86  838 3700.5  C 838 3690.14  846.14 3682  856.5 3682  Z " stroke-width="2" stroke-dasharray="6,2" stroke="#ff0000" fill="none" />
  </g>
</svg>