<?xml version="1.0" encoding="utf-8"?>
<svg version="1.1" xmlns:xlink="http://www.w3.org/1999/xlink" width="39px" height="39px" xmlns="http://www.w3.org/2000/svg">
  <g transform="matrix(1 0 0 1 -951 -2910 )">
    <path d="M 970.5 2912  C 980.3 2912  988 2919.7  988 2929.5  C 988 2939.3  980.3 2947  970.5 2947  C 960.7 2947  953 2939.3  953 2929.5  C 953 2919.7  960.7 2912  970.5 2912  Z " fill-rule="nonzero" fill="#ff6633" stroke="none" />
    <path d="M 970.5 2911.5  C 980.58 2911.5  988.5 2919.42  988.5 2929.5  C 988.5 2939.58  980.58 2947.5  970.5 2947.5  C 960.42 2947.5  952.5 2939.58  952.5 2929.5  C 952.5 2919.42  960.42 2911.5  970.5 2911.5  Z " stroke-width="3" stroke="#ff0000" fill="none" />
  </g>
</svg>