<?xml version="1.0" encoding="utf-8"?>
<svg version="1.1" xmlns:xlink="http://www.w3.org/1999/xlink" width="13px" height="13px" xmlns="http://www.w3.org/2000/svg">
  <g transform="matrix(1 0 0 1 -6 -6 )">
    <path d="M 12.5 6  C 16.14 6  19 8.86  19 12.5  C 19 16.14  16.14 19  12.5 19  C 8.86 19  6 16.14  6 12.5  C 6 8.86  8.86 6  12.5 6  Z " fill-rule="nonzero" fill="#131010" stroke="none" />
    <path d="M 12.5 6.5  C 15.86 6.5  18.5 9.14  18.5 12.5  C 18.5 15.86  15.86 18.5  12.5 18.5  C 9.14 18.5  6.5 15.86  6.5 12.5  C 6.5 9.14  9.14 6.5  12.5 6.5  Z " stroke-width="1" stroke="#95f204" fill="none" />
  </g>
</svg>