<?xml version="1.0" encoding="utf-8"?>
<svg version="1.1" xmlns:xlink="http://www.w3.org/1999/xlink" width="79px" height="387px" xmlns="http://www.w3.org/2000/svg">
  <defs>
    <linearGradient gradientUnits="userSpaceOnUse" x1="204" y1="166.209580838323" x2="126.75205145265" y2="166.209580838323" id="LinearGradient413">
      <stop id="Stop414" stop-color="#3da4e7" offset="0" />
      <stop id="Stop415" stop-color="#3da3e6" stop-opacity="0" offset="0.16" />
      <stop id="Stop416" stop-color="#3b9fe0" stop-opacity="0.0274509803921569" offset="0.83" />
      <stop id="Stop417" stop-color="#3ca2e4" offset="1" />
    </linearGradient>
  </defs>
  <g transform="matrix(1 0 0 1 -125 29 )">
    <path d="M 126.5 -27  A 0.5 0.5 0 0 1 127 -27.5 L 202 -27.5  A 0.5 0.5 0 0 1 202.5 -27 L 202.5 356  A 0.5 0.5 0 0 1 202 356.5 L 127 356.5  A 0.5 0.5 0 0 1 126.5 356 L 126.5 -27  Z " fill-rule="nonzero" fill="url(#LinearGradient413)" stroke="none" />
    <path d="M 126 -27  A 1 1 0 0 1 127 -28 L 202 -28  A 1 1 0 0 1 203 -27 L 203 356  A 1 1 0 0 1 202 357 L 127 357  A 1 1 0 0 1 126 356 L 126 -27  Z " stroke-width="2" stroke="#3ea6ea" fill="none" />
  </g>
</svg>