<?xml version="1.0" encoding="utf-8"?>
<svg version="1.1" xmlns:xlink="http://www.w3.org/1999/xlink" width="23px" height="17px" xmlns="http://www.w3.org/2000/svg">
  <defs>
    <radialGradient cx="8.84042553191491" cy="7.93617021276596" r="18.4593784906727" gradientTransform="matrix(-0.978737659491097 0.205116049820313 -0.141418124723283 -0.67479480285691 18.6152012349008 11.4781434630912 )" gradientUnits="userSpaceOnUse" id="RadialGradient337">
      <stop id="Stop338" stop-color="#ff6578" offset="0" />
      <stop id="Stop339" stop-color="#fd9faa" offset="0.5" />
      <stop id="Stop340" stop-color="#fcb0b9" offset="0.64" />
      <stop id="Stop341" stop-color="#fcbbc3" offset="0.74" />
      <stop id="Stop342" stop-color="#fbdade" offset="1" />
    </radialGradient>
    <mask fill="white" id="clip343">
      <path d="M 23 9.71428571428571  C 23 5.6342857142857  16.4382352941176 0.424999999999993  13.3941176470588 0.182142857142864  C 10.35 -0.060714285714265  5.62950289606768 0.692481517888812  2.77352941176468 3.03571428571432  C 0.715016918741611 4.7246564111021  0 7.39816840685787  0 9.10714285714286  C 0 11.3644922799165  3.51421377965352 14.6904332059548  6.83235294117649 15.9678571428572  C 9.51151647565323 16.9992869483044  12.0904934909642 16.8178571428571  14.2058823529411 16.8178571428571  C 18.9411764705882 16.8178571428571  23 13.7942857142857  23 9.71428571428571  Z " fill-rule="evenodd" />
    </mask>
  </defs>
  <g transform="matrix(1 0 0 1 -176 -41 )">
    <path d="M 23 9.71428571428571  C 23 5.6342857142857  16.4382352941176 0.424999999999993  13.3941176470588 0.182142857142864  C 10.35 -0.060714285714265  5.62950289606768 0.692481517888812  2.77352941176468 3.03571428571432  C 0.715016918741611 4.7246564111021  0 7.39816840685787  0 9.10714285714286  C 0 11.3644922799165  3.51421377965352 14.6904332059548  6.83235294117649 15.9678571428572  C 9.51151647565323 16.9992869483044  12.0904934909642 16.8178571428571  14.2058823529411 16.8178571428571  C 18.9411764705882 16.8178571428571  23 13.7942857142857  23 9.71428571428571  Z " fill-rule="nonzero" fill="url(#RadialGradient337)" stroke="none" transform="matrix(1 0 0 1 176 41 )" />
    <path d="M 23 9.71428571428571  C 23 5.6342857142857  16.4382352941176 0.424999999999993  13.3941176470588 0.182142857142864  C 10.35 -0.060714285714265  5.62950289606768 0.692481517888812  2.77352941176468 3.03571428571432  C 0.715016918741611 4.7246564111021  0 7.39816840685787  0 9.10714285714286  C 0 11.3644922799165  3.51421377965352 14.6904332059548  6.83235294117649 15.9678571428572  C 9.51151647565323 16.9992869483044  12.0904934909642 16.8178571428571  14.2058823529411 16.8178571428571  C 18.9411764705882 16.8178571428571  23 13.7942857142857  23 9.71428571428571  Z " stroke-width="2" stroke="#555555" fill="none" transform="matrix(1 0 0 1 176 41 )" mask="url(#clip343)" />
  </g>
</svg>