<?xml version="1.0" encoding="utf-8"?>
<svg version="1.1" xmlns:xlink="http://www.w3.org/1999/xlink" width="17px" height="17px" xmlns="http://www.w3.org/2000/svg">
  <defs>
    <radialGradient cx="6.67021276595743" cy="7.09574468085107" r="14.2488775788384" gradientTransform="matrix(-0.784288340685434 0.62039648505201 -0.530601755754499 -0.67077228935394 15.6665974542342 7.71719703054755 )" gradientUnits="userSpaceOnUse" id="RadialGradient344">
      <stop id="Stop345" stop-color="#ff6578" offset="0" />
      <stop id="Stop346" stop-color="#fbdade" offset="1" />
    </radialGradient>
    <mask fill="white" id="clip347">
      <path d="M 17 8.77199999999998  C 17 5.15439999999999  13.6703448275862 0.135999999999992  8.9103448275862 0.135999999999992  C 4.1503448275862 0.135999999999992  0 2.1624  0 5.78  C 0 9.3976  6.61241379310343 16.932  11.3724137931034 16.932  C 12.84293970716 16.932  14.2487907997841 16.9445341110888  15.0655172413793 15.844  C 16.892482981494 13.3821743330613  17 11.272000305317  17 8.77199999999998  Z " fill-rule="evenodd" />
    </mask>
  </defs>
  <g transform="matrix(1 0 0 1 -167 -57 )">
    <path d="M 17 8.77199999999998  C 17 5.15439999999999  13.6703448275862 0.135999999999992  8.9103448275862 0.135999999999992  C 4.1503448275862 0.135999999999992  0 2.1624  0 5.78  C 0 9.3976  6.61241379310343 16.932  11.3724137931034 16.932  C 12.84293970716 16.932  14.2487907997841 16.9445341110888  15.0655172413793 15.844  C 16.892482981494 13.3821743330613  17 11.272000305317  17 8.77199999999998  Z " fill-rule="nonzero" fill="url(#RadialGradient344)" stroke="none" transform="matrix(1 0 0 1 167 57 )" />
    <path d="M 17 8.77199999999998  C 17 5.15439999999999  13.6703448275862 0.135999999999992  8.9103448275862 0.135999999999992  C 4.1503448275862 0.135999999999992  0 2.1624  0 5.78  C 0 9.3976  6.61241379310343 16.932  11.3724137931034 16.932  C 12.84293970716 16.932  14.2487907997841 16.9445341110888  15.0655172413793 15.844  C 16.892482981494 13.3821743330613  17 11.272000305317  17 8.77199999999998  Z " stroke-width="2" stroke="#555555" fill="none" transform="matrix(1 0 0 1 167 57 )" mask="url(#clip347)" />
  </g>
</svg>