<?xml version="1.0" encoding="utf-8"?>
<svg version="1.1" xmlns:xlink="http://www.w3.org/1999/xlink" width="17px" height="17px" xmlns="http://www.w3.org/2000/svg">
  <defs>
    <radialGradient cx="6.21276595744682" cy="8.28723404255319" r="14.2488775788384" gradientTransform="matrix(-0.784288340685433 0.620396485052011 -0.530601755754502 -0.670772289353941 15.4825867946069 9.99170283123771 )" gradientUnits="userSpaceOnUse" id="RadialGradient419">
      <stop id="Stop420" stop-color="#ff6578" offset="0" />
      <stop id="Stop421" stop-color="#fbdade" offset="1" />
    </radialGradient>
    <mask fill="white" id="clip422">
      <path d="M 17 9.11199999999999  C 17 4.54239999999999  13.26 0.272000000000004  8.5 0.272000000000004  C 3.74 0.272000000000004  0 4.2704  0 8.84  C 0 13.4096  2.92400000000001 17  7.68400000000001 17  C 12.444 17  17 13.6816  17 9.11199999999999  Z " fill-rule="evenodd" />
    </mask>
  </defs>
  <g transform="matrix(1 0 0 1 -164 -9 )">
    <path d="M 17 9.11199999999999  C 17 4.54239999999999  13.26 0.272000000000004  8.5 0.272000000000004  C 3.74 0.272000000000004  0 4.2704  0 8.84  C 0 13.4096  2.92400000000001 17  7.68400000000001 17  C 12.444 17  17 13.6816  17 9.11199999999999  Z " fill-rule="nonzero" fill="url(#RadialGradient419)" stroke="none" transform="matrix(1 0 0 1 164 9 )" />
    <path d="M 17 9.11199999999999  C 17 4.54239999999999  13.26 0.272000000000004  8.5 0.272000000000004  C 3.74 0.272000000000004  0 4.2704  0 8.84  C 0 13.4096  2.92400000000001 17  7.68400000000001 17  C 12.444 17  17 13.6816  17 9.11199999999999  Z " stroke-width="2" stroke="#555555" fill="none" transform="matrix(1 0 0 1 164 9 )" mask="url(#clip422)" />
  </g>
</svg>