<?xml version="1.0" encoding="utf-8"?>
<svg version="1.1" xmlns:xlink="http://www.w3.org/1999/xlink" width="211px" height="83px" xmlns="http://www.w3.org/2000/svg">
  <defs>
    <mask fill="white" id="clip332">
      <path d="M 141.165675446049 6.20689163159022  L 156.747663551402 7.12840378261364  C 156.747663551402 7.12840378261364  164.378213013099 0  173.994902293968 0  C 183.611591574836 0  188.995251017639 10.2815312749231  188.995251017639 10.2815312749231  C 188.995251017639 10.2815312749231  196.254092747816 7.27627007290723  204.9209855565 16.0349575515446  C 213.587878365183 24.7936450301819  206.44776119403 38.5428962059929  206.44776119403 38.5428962059929  C 206.44776119403 38.5428962059929  212.977611940298 49.9875811780791  208.109905020353 58.9798336561467  C 203.242198100407 67.9720861342144  197.424694708277 70.4245186282328  197.424694708277 70.4245186282328  C 197.424694708277 70.4245186282328  191.959565807327 80.8237666628689  180.918181818182 81.8748091603054  C 169.876797829037 82.9258516577419  160.872727272727 73.8625954198473  160.872727272727 73.8625954198473  C 160.872727272727 73.8625954198473  152.596303948323 76.0220319910783  144.236092265943 74.6286886179788  C 142.235213995713 74.2952149472008  4.01744752692415 71.1321717255113  2.71197960917596 62.6402701481534  C 1.29327157027592 53.4117560885148  0.531294250920374 25.2000190245178  0.531294250920374 15.0599510118665  C 0.531294250920374 4.91988299921524  141.165675446049 6.20689163159022  141.165675446049 6.20689163159022  Z " fill-rule="evenodd" />
    </mask>
  </defs>
  <g>
    <path d="M 141.165675446049 6.20689163159022  L 156.747663551402 7.12840378261364  C 156.747663551402 7.12840378261364  164.378213013099 0  173.994902293968 0  C 183.611591574836 0  188.995251017639 10.2815312749231  188.995251017639 10.2815312749231  C 188.995251017639 10.2815312749231  196.254092747816 7.27627007290723  204.9209855565 16.0349575515446  C 213.587878365183 24.7936450301819  206.44776119403 38.5428962059929  206.44776119403 38.5428962059929  C 206.44776119403 38.5428962059929  212.977611940298 49.9875811780791  208.109905020353 58.9798336561467  C 203.242198100407 67.9720861342144  197.424694708277 70.4245186282328  197.424694708277 70.4245186282328  C 197.424694708277 70.4245186282328  191.959565807327 80.8237666628689  180.918181818182 81.8748091603054  C 169.876797829037 82.9258516577419  160.872727272727 73.8625954198473  160.872727272727 73.8625954198473  C 160.872727272727 73.8625954198473  152.596303948323 76.0220319910783  144.236092265943 74.6286886179788  C 142.235213995713 74.2952149472008  4.01744752692415 71.1321717255113  2.71197960917596 62.6402701481534  C 1.29327157027592 53.4117560885148  0.531294250920374 25.2000190245178  0.531294250920374 15.0599510118665  C 0.531294250920374 4.91988299921524  141.165675446049 6.20689163159022  141.165675446049 6.20689163159022  Z " fill-rule="nonzero" fill="#7b4d12" stroke="none" />
    <path d="M 141.165675446049 6.20689163159022  L 156.747663551402 7.12840378261364  C 156.747663551402 7.12840378261364  164.378213013099 0  173.994902293968 0  C 183.611591574836 0  188.995251017639 10.2815312749231  188.995251017639 10.2815312749231  C 188.995251017639 10.2815312749231  196.254092747816 7.27627007290723  204.9209855565 16.0349575515446  C 213.587878365183 24.7936450301819  206.44776119403 38.5428962059929  206.44776119403 38.5428962059929  C 206.44776119403 38.5428962059929  212.977611940298 49.9875811780791  208.109905020353 58.9798336561467  C 203.242198100407 67.9720861342144  197.424694708277 70.4245186282328  197.424694708277 70.4245186282328  C 197.424694708277 70.4245186282328  191.959565807327 80.8237666628689  180.918181818182 81.8748091603054  C 169.876797829037 82.9258516577419  160.872727272727 73.8625954198473  160.872727272727 73.8625954198473  C 160.872727272727 73.8625954198473  152.596303948323 76.0220319910783  144.236092265943 74.6286886179788  C 142.235213995713 74.2952149472008  4.01744752692415 71.1321717255113  2.71197960917596 62.6402701481534  C 1.29327157027592 53.4117560885148  0.531294250920374 25.2000190245178  0.531294250920374 15.0599510118665  C 0.531294250920374 4.91988299921524  141.165675446049 6.20689163159022  141.165675446049 6.20689163159022  Z " stroke-width="2" stroke="#aaaaaa" fill="none" mask="url(#clip332)" />
  </g>
</svg>