<?xml version="1.0" encoding="utf-8"?>
<svg version="1.1" xmlns:xlink="http://www.w3.org/1999/xlink" width="24px" height="34px" xmlns="http://www.w3.org/2000/svg">
  <defs>
    <radialGradient cx="6.39361702127661" cy="15.3617021276596" r="26.3605254364721" gradientTransform="matrix(-0.220045555886986 0.975489596733039 -0.688283720034573 -0.155259240375496 18.3737135193405 11.509841441124 )" gradientUnits="userSpaceOnUse" id="RadialGradient438">
      <stop id="Stop439" stop-color="#ff6578" offset="0" />
      <stop id="Stop440" stop-color="#fbdade" offset="1" />
    </radialGradient>
    <mask fill="white" id="clip441">
      <path d="M 24 17.1214285714286  C 24 13.451857185091  23.2744601495023 10.2426709898149  21.4769230769231 7.46785714285715  C 18.6943689456111 3.17249664584371  13.9287720583262 0.182142857142864  9.84615384615385 0.182142857142864  C 3.12615384615384 0.182142857142864  0.492307692307699 7.95357142857144  0.492307692307699 17.3035714285714  C 0.492307692307699 22.3939532090758  1.54266641631491 27.8023543907535  3.75384615384617 30.8428571428571  C 5.60415560070155 33.3871419289001  8.32315715627199 34  11.3846153846154 34  C 18.1046153846154 34  24 26.4714285714286  24 17.1214285714286  Z " fill-rule="evenodd" />
    </mask>
  </defs>
  <g transform="matrix(1 0 0 1 -146 -24 )">
    <path d="M 24 17.1214285714286  C 24 13.451857185091  23.2744601495023 10.2426709898149  21.4769230769231 7.46785714285715  C 18.6943689456111 3.17249664584371  13.9287720583262 0.182142857142864  9.84615384615385 0.182142857142864  C 3.12615384615384 0.182142857142864  0.492307692307699 7.95357142857144  0.492307692307699 17.3035714285714  C 0.492307692307699 22.3939532090758  1.54266641631491 27.8023543907535  3.75384615384617 30.8428571428571  C 5.60415560070155 33.3871419289001  8.32315715627199 34  11.3846153846154 34  C 18.1046153846154 34  24 26.4714285714286  24 17.1214285714286  Z " fill-rule="nonzero" fill="url(#RadialGradient438)" stroke="none" transform="matrix(1 0 0 1 146 24 )" />
    <path d="M 24 17.1214285714286  C 24 13.451857185091  23.2744601495023 10.2426709898149  21.4769230769231 7.46785714285715  C 18.6943689456111 3.17249664584371  13.9287720583262 0.182142857142864  9.84615384615385 0.182142857142864  C 3.12615384615384 0.182142857142864  0.492307692307699 7.95357142857144  0.492307692307699 17.3035714285714  C 0.492307692307699 22.3939532090758  1.54266641631491 27.8023543907535  3.75384615384617 30.8428571428571  C 5.60415560070155 33.3871419289001  8.32315715627199 34  11.3846153846154 34  C 18.1046153846154 34  24 26.4714285714286  24 17.1214285714286  Z " stroke-width="2" stroke="#555555" fill="none" transform="matrix(1 0 0 1 146 24 )" mask="url(#clip441)" />
  </g>
</svg>