<?xml version="1.0" encoding="utf-8"?>
<svg version="1.1" xmlns:xlink="http://www.w3.org/1999/xlink" width="294px" height="203px" xmlns="http://www.w3.org/2000/svg">
  <defs>
    <mask fill="white" id="clip26">
      <path d="M 294 57.7055837563452  L 149.055944055944 203  L 0 62.8578680203046  C 0 62.8578680203046  55.5104895104895 -1.03045685279188  147 1.03045685279188  C 238.48951048951 3.09137055837563  294 57.7055837563452  294 57.7055837563452  Z " fill-rule="evenodd" />
    </mask>
  </defs>
  <g transform="matrix(1 0 0 1 -924 -6924 )">
    <path d="M 294 57.7055837563452  L 149.055944055944 203  L 0 62.8578680203046  C 0 62.8578680203046  55.5104895104895 -1.03045685279188  147 1.03045685279188  C 238.48951048951 3.09137055837563  294 57.7055837563452  294 57.7055837563452  Z " fill-rule="nonzero" fill="#cc9900" stroke="none" transform="matrix(1 0 0 1 924 6924 )" />
    <path d="M 294 57.7055837563452  L 149.055944055944 203  L 0 62.8578680203046  C 0 62.8578680203046  55.5104895104895 -1.03045685279188  147 1.03045685279188  C 238.48951048951 3.09137055837563  294 57.7055837563452  294 57.7055837563452  Z " stroke-width="2" stroke="#333333" fill="none" transform="matrix(1 0 0 1 924 6924 )" mask="url(#clip26)" />
  </g>
</svg>