<?xml version="1.0" encoding="utf-8"?>
<svg version="1.1" xmlns:xlink="http://www.w3.org/1999/xlink" width="291px" height="202px" xmlns="http://www.w3.org/2000/svg">
  <defs>
    <mask fill="white" id="clip25">
      <path d="M 291 57.4213197969543  L 147.534965034965 202  L 0 62.5482233502538  C 0 62.5482233502538  54.9440559440559 -1.0253807106599  145.5 1.0253807106599  C 236.055944055944 3.0761421319797  291 57.4213197969543  291 57.4213197969543  Z " fill-rule="evenodd" />
    </mask>
  </defs>
  <g transform="matrix(1 0 0 1 -825 -6828 )">
    <path d="M 291 57.4213197969543  L 147.534965034965 202  L 0 62.5482233502538  C 0 62.5482233502538  54.9440559440559 -1.0253807106599  145.5 1.0253807106599  C 236.055944055944 3.0761421319797  291 57.4213197969543  291 57.4213197969543  Z " fill-rule="nonzero" fill="#cc9900" stroke="none" transform="matrix(1 0 0 1 825 6828 )" />
    <path d="M 291 57.4213197969543  L 147.534965034965 202  L 0 62.5482233502538  C 0 62.5482233502538  54.9440559440559 -1.0253807106599  145.5 1.0253807106599  C 236.055944055944 3.0761421319797  291 57.4213197969543  291 57.4213197969543  Z " stroke-width="2" stroke="#333333" fill="none" transform="matrix(1 0 0 1 825 6828 )" mask="url(#clip25)" />
  </g>
</svg>