<?xml version="1.0" encoding="utf-8"?>
<svg version="1.1" xmlns:xlink="http://www.w3.org/1999/xlink" width="62px" height="62px" xmlns="http://www.w3.org/2000/svg">
  <g transform="matrix(1 0 0 1 -940 -6862 )">
    <path d="M 971 6863  C 987.8 6863  1001 6876.2  1001 6893  C 1001 6909.8  987.8 6923  971 6923  C 954.2 6923  941 6909.8  941 6893  C 941 6876.2  954.2 6863  971 6863  Z " fill-rule="nonzero" fill="#ff9900" stroke="none" />
    <path d="M 971 6863  C 987.8 6863  1001 6876.2  1001 6893  C 1001 6909.8  987.8 6923  971 6923  C 954.2 6923  941 6909.8  941 6893  C 941 6876.2  954.2 6863  971 6863  Z " stroke-width="2" stroke="#cc0000" fill="none" />
  </g>
</svg>