<?xml version="1.0" encoding="utf-8"?>
<svg version="1.1" xmlns:xlink="http://www.w3.org/1999/xlink" width="286px" height="199px" xmlns="http://www.w3.org/2000/svg">
  <defs>
    <mask fill="white" id="clip24">
      <path d="M 286 56.5685279187817  L 145 199  L 0 61.6192893401015  C 0 61.6192893401015  54 -1.01015228426396  143 1.01015228426396  C 232 3.03045685279188  286 56.5685279187817  286 56.5685279187817  Z " fill-rule="evenodd" />
    </mask>
  </defs>
  <g transform="matrix(1 0 0 1 -727 -6930 )">
    <path d="M 286 56.5685279187817  L 145 199  L 0 61.6192893401015  C 0 61.6192893401015  54 -1.01015228426396  143 1.01015228426396  C 232 3.03045685279188  286 56.5685279187817  286 56.5685279187817  Z " fill-rule="nonzero" fill="#cc9900" stroke="none" transform="matrix(1 0 0 1 727 6930 )" />
    <path d="M 286 56.5685279187817  L 145 199  L 0 61.6192893401015  C 0 61.6192893401015  54 -1.01015228426396  143 1.01015228426396  C 232 3.03045685279188  286 56.5685279187817  286 56.5685279187817  Z " stroke-width="2" stroke="#333333" fill="none" transform="matrix(1 0 0 1 727 6930 )" mask="url(#clip24)" />
  </g>
</svg>