<?xml version="1.0" encoding="utf-8"?>
<svg version="1.1" xmlns:xlink="http://www.w3.org/1999/xlink" width="62px" height="62px" xmlns="http://www.w3.org/2000/svg">
  <g transform="matrix(1 0 0 1 -981 -4369 )">
    <path d="M 1012 4370  C 1028.8 4370  1042 4383.2  1042 4400  C 1042 4416.8  1028.8 4430  1012 4430  C 995.2 4430  982 4416.8  982 4400  C 982 4383.2  995.2 4370  1012 4370  Z " fill-rule="nonzero" fill="#cc6633" stroke="none" />
    <path d="M 1012 4370  C 1028.8 4370  1042 4383.2  1042 4400  C 1042 4416.8  1028.8 4430  1012 4430  C 995.2 4430  982 4416.8  982 4400  C 982 4383.2  995.2 4370  1012 4370  Z " stroke-width="2" stroke="#cc0000" fill="none" />
  </g>
</svg>