<?xml version="1.0" encoding="utf-8"?>
<svg version="1.1" xmlns:xlink="http://www.w3.org/1999/xlink" width="12px" height="12px" xmlns="http://www.w3.org/2000/svg">
  <g transform="matrix(1 0 0 1 -22 0 )">
    <path d="M 28 0  C 31.36 0  34 2.64  34 6  C 34 9.36  31.36 12  28 12  C 24.64 12  22 9.36  22 6  C 22 2.64  24.64 0  28 0  Z " fill-rule="nonzero" fill="#d4d4d4" stroke="none" />
    <path d="M 28 0.5  C 31.08 0.5  33.5 2.92  33.5 6  C 33.5 9.08  31.08 11.5  28 11.5  C 24.92 11.5  22.5 9.08  22.5 6  C 22.5 2.92  24.92 0.5  28 0.5  Z " stroke-width="1" stroke="#666666" fill="none" />
  </g>
</svg>