<?xml version="1.0" encoding="utf-8"?>
<svg version="1.1" xmlns:xlink="http://www.w3.org/1999/xlink" width="217px" height="217px" xmlns="http://www.w3.org/2000/svg">
  <defs>
    <mask fill="white" id="clip402">
      <path d="M 217 108.5  C 217 169.26  169.26 217  108.5 217  C 47.74 217  0 169.26  0 108.5  C 0 47.7399999999998  47.74 0  108.5 0  C 169.26 0  217 47.7399999999998  217 108.5  Z M 138.397777777778 108.5  C 138.397777777778 91.757244444445  125.242755555556 78.6022222222227  108.5 78.6022222222227  C 91.7572444444445 78.6022222222227  78.6022222222223 91.757244444445  78.6022222222223 108.5  C 78.6022222222223 125.242755555555  91.7572444444445 138.397777777777  108.5 138.397777777777  C 125.242755555556 138.397777777777  138.397777777778 125.242755555555  138.397777777778 108.5  Z " fill-rule="evenodd" />
    </mask>
  </defs>
  <g transform="matrix(1 0 0 1 -546 -7154 )">
    <path d="M 217 108.5  C 217 169.26  169.26 217  108.5 217  C 47.74 217  0 169.26  0 108.5  C 0 47.7399999999998  47.74 0  108.5 0  C 169.26 0  217 47.7399999999998  217 108.5  Z M 138.397777777778 108.5  C 138.397777777778 91.757244444445  125.242755555556 78.6022222222227  108.5 78.6022222222227  C 91.7572444444445 78.6022222222227  78.6022222222223 91.757244444445  78.6022222222223 108.5  C 78.6022222222223 125.242755555555  91.7572444444445 138.397777777777  108.5 138.397777777777  C 125.242755555556 138.397777777777  138.397777777778 125.242755555555  138.397777777778 108.5  Z " fill-rule="nonzero" fill="#009900" stroke="none" transform="matrix(1 0 0 1 546 7154 )" />
    <path d="M 217 108.5  C 217 169.26  169.26 217  108.5 217  C 47.74 217  0 169.26  0 108.5  C 0 47.7399999999998  47.74 0  108.5 0  C 169.26 0  217 47.7399999999998  217 108.5  Z " stroke-width="2" stroke="#797979" fill="none" transform="matrix(1 0 0 1 546 7154 )" mask="url(#clip402)" />
    <path d="M 138.397777777778 108.5  C 138.397777777778 91.757244444445  125.242755555556 78.6022222222227  108.5 78.6022222222227  C 91.7572444444445 78.6022222222227  78.6022222222223 91.757244444445  78.6022222222223 108.5  C 78.6022222222223 125.242755555555  91.7572444444445 138.397777777777  108.5 138.397777777777  C 125.242755555556 138.397777777777  138.397777777778 125.242755555555  138.397777777778 108.5  Z " stroke-width="2" stroke="#797979" fill="none" transform="matrix(1 0 0 1 546 7154 )" mask="url(#clip402)" />
  </g>
</svg>