<?xml version="1.0" encoding="utf-8"?>
<svg version="1.1" xmlns:xlink="http://www.w3.org/1999/xlink" width="91px" height="91px" xmlns="http://www.w3.org/2000/svg">
  <g transform="matrix(1 0 0 1 -207 -7217 )">
    <path d="M 252.5 7218  C 277.42 7218  297 7237.58  297 7262.5  C 297 7287.42  277.42 7307  252.5 7307  C 227.58 7307  208 7287.42  208 7262.5  C 208 7237.58  227.58 7218  252.5 7218  Z " fill-rule="nonzero" fill="#009900" stroke="none" />
    <path d="M 252.5 7218  C 277.42 7218  297 7237.58  297 7262.5  C 297 7287.42  277.42 7307  252.5 7307  C 227.58 7307  208 7287.42  208 7262.5  C 208 7237.58  227.58 7218  252.5 7218  Z " stroke-width="2" stroke="#ffffff" fill="none" />
  </g>
</svg>