<?xml version="1.0" encoding="utf-8"?>
<svg version="1.1" xmlns:xlink="http://www.w3.org/1999/xlink" width="44px" height="44px" xmlns="http://www.w3.org/2000/svg">
  <g transform="matrix(1 0 0 1 -852 -5949 )">
    <path d="M 874 5949  C 886.32 5949  896 5958.68  896 5971  C 896 5983.32  886.32 5993  874 5993  C 861.68 5993  852 5983.32  852 5971  C 852 5958.68  861.68 5949  874 5949  Z " fill-rule="nonzero" fill="#ffffff" stroke="none" />
    <path d="M 874 5949.5  C 886.04 5949.5  895.5 5958.96  895.5 5971  C 895.5 5983.04  886.04 5992.5  874 5992.5  C 861.96 5992.5  852.5 5983.04  852.5 5971  C 852.5 5958.96  861.96 5949.5  874 5949.5  Z " stroke-width="1" stroke="#666666" fill="none" />
  </g>
</svg>