<?xml version="1.0" encoding="utf-8"?>
<svg version="1.1" xmlns:xlink="http://www.w3.org/1999/xlink" width="70px" height="70px" xmlns="http://www.w3.org/2000/svg">
  <g transform="matrix(1 0 0 1 -826 -6004 )">
    <path d="M 861 6006  C 879.48 6006  894 6020.52  894 6039  C 894 6057.48  879.48 6072  861 6072  C 842.52 6072  828 6057.48  828 6039  C 828 6020.52  842.52 6006  861 6006  Z " fill-rule="nonzero" fill="#ffffff" stroke="none" />
    <path d="M 861 6005.5  C 879.76 6005.5  894.5 6020.24  894.5 6039  C 894.5 6057.76  879.76 6072.5  861 6072.5  C 842.24 6072.5  827.5 6057.76  827.5 6039  C 827.5 6020.24  842.24 6005.5  861 6005.5  Z " stroke-width="3" stroke="#666666" fill="none" />
  </g>
</svg>