<?xml version="1.0" encoding="utf-8"?>
<svg version="1.1" xmlns:xlink="http://www.w3.org/1999/xlink" width="42px" height="42px" xmlns="http://www.w3.org/2000/svg">
  <g transform="matrix(1 0 0 1 -948 -1584 )">
    <path d="M 969 1586  C 979.64 1586  988 1594.36  988 1605  C 988 1615.64  979.64 1624  969 1624  C 958.36 1624  950 1615.64  950 1605  C 950 1594.36  958.36 1586  969 1586  Z " fill-rule="nonzero" fill="#ffffff" stroke="none" />
    <path d="M 969 1585.5  C 979.92 1585.5  988.5 1594.08  988.5 1605  C 988.5 1615.92  979.92 1624.5  969 1624.5  C 958.08 1624.5  949.5 1615.92  949.5 1605  C 949.5 1594.08  958.08 1585.5  969 1585.5  Z " stroke-width="3" stroke="#666666" fill="none" />
  </g>
</svg>