<?xml version="1.0" encoding="utf-8"?>
<svg version="1.1" xmlns:xlink="http://www.w3.org/1999/xlink" width="70px" height="70px" xmlns="http://www.w3.org/2000/svg">
  <g transform="matrix(1 0 0 1 -826 -6402 )">
    <path d="M 861 6404  C 879.48 6404  894 6418.52  894 6437  C 894 6455.48  879.48 6470  861 6470  C 842.52 6470  828 6455.48  828 6437  C 828 6418.52  842.52 6404  861 6404  Z " fill-rule="nonzero" fill="#ffffff" stroke="none" />
    <path d="M 861 6403.5  C 879.76 6403.5  894.5 6418.24  894.5 6437  C 894.5 6455.76  879.76 6470.5  861 6470.5  C 842.24 6470.5  827.5 6455.76  827.5 6437  C 827.5 6418.24  842.24 6403.5  861 6403.5  Z " stroke-width="3" stroke="#666666" fill="none" />
  </g>
</svg>