<?xml version="1.0" encoding="utf-8"?>
<svg version="1.1" xmlns:xlink="http://www.w3.org/1999/xlink" width="44px" height="44px" xmlns="http://www.w3.org/2000/svg">
  <g transform="matrix(1 0 0 1 -852 -6347 )">
    <path d="M 874 6347  C 886.32 6347  896 6356.68  896 6369  C 896 6381.32  886.32 6391  874 6391  C 861.68 6391  852 6381.32  852 6369  C 852 6356.68  861.68 6347  874 6347  Z " fill-rule="nonzero" fill="#ffffff" stroke="none" />
    <path d="M 874 6347.5  C 886.04 6347.5  895.5 6356.96  895.5 6369  C 895.5 6381.04  886.04 6390.5  874 6390.5  C 861.96 6390.5  852.5 6381.04  852.5 6369  C 852.5 6356.96  861.96 6347.5  874 6347.5  Z " stroke-width="1" stroke="#666666" fill="none" />
  </g>
</svg>