<?xml version="1.0" encoding="utf-8"?>
<svg version="1.1" xmlns:xlink="http://www.w3.org/1999/xlink" width="379px" height="312px" xmlns="http://www.w3.org/2000/svg">
  <defs>
    <mask fill="white" id="clip500">
      <path d="M 335.907829378381 311  L 43.0921691478795 311.000780741518  C 16.0751681988501 278.306880908297  0 236.095508844901  0 189.5  C 0 83.3800000000001  83.38 0  189.5 0  C 295.62 0  379 83.3800000000001  379 189.5  C 379 236.095508844901  362.92483180115 278.306880908297  335.907829378381 311  Z " fill-rule="evenodd" />
    </mask>
  </defs>
  <g transform="matrix(1 0 0 1 -369 -10649 )">
    <path d="M 335.907829378381 311  L 43.0921691478795 311.000780741518  C 16.0751681988501 278.306880908297  0 236.095508844901  0 189.5  C 0 83.3800000000001  83.38 0  189.5 0  C 295.62 0  379 83.3800000000001  379 189.5  C 379 236.095508844901  362.92483180115 278.306880908297  335.907829378381 311  Z " fill-rule="nonzero" fill="#ff9933" stroke="none" transform="matrix(1 0 0 1 369 10649 )" />
    <path d="M 335.907829378381 311  L 43.0921691478795 311.000780741518  C 16.0751681988501 278.306880908297  0 236.095508844901  0 189.5  C 0 83.3800000000001  83.38 0  189.5 0  C 295.62 0  379 83.3800000000001  379 189.5  C 379 236.095508844901  362.92483180115 278.306880908297  335.907829378381 311  Z " stroke-width="4" stroke="#ff0000" fill="none" transform="matrix(1 0 0 1 369 10649 )" mask="url(#clip500)" />
  </g>
</svg>