<?xml version="1.0" encoding="utf-8"?>
<svg version="1.1" xmlns:xlink="http://www.w3.org/1999/xlink" width="176px" height="176px" xmlns="http://www.w3.org/2000/svg">
  <g transform="matrix(1 0 0 1 -509 -7503 )">
    <path d="M 597 7505  C 645.16 7505  683 7542.84  683 7591  C 683 7639.16  645.16 7677  597 7677  C 548.84 7677  511 7639.16  511 7591  C 511 7542.84  548.84 7505  597 7505  Z " fill-rule="nonzero" fill="#336600" stroke="none" />
    <path d="M 597 7504.5  C 645.44 7504.5  683.5 7542.56  683.5 7591  C 683.5 7639.44  645.44 7677.5  597 7677.5  C 548.56 7677.5  510.5 7639.44  510.5 7591  C 510.5 7542.56  548.56 7504.5  597 7504.5  Z " stroke-width="3" stroke="#ffffff" fill="none" />
  </g>
</svg>