<?xml version="1.0" encoding="utf-8"?>
<svg version="1.1" xmlns:xlink="http://www.w3.org/1999/xlink" width="20px" height="27px" xmlns="http://www.w3.org/2000/svg">
  <g>
    <path d="M 10 26.0287944182552  C 6.2 19.6523350266186  0.5 15.8264593916366  0.5 9.45  C 0.5 6.12571428571429  2.4 0.499999999999999  10 0.499999999999999  C 17.6 0.499999999999999  19.5 6.12571428571429  19.5 9.45  C 19.5 15.8264593916366  13.8 19.6523350266186  10 26.0287944182552  Z " fill-rule="nonzero" fill="#fefae6" stroke="none" />
    <path d="M 10 27  C 6 20.25  0 16.2  0 9.45  C 0 5.94  2 0  10 0  C 18 0  20 5.94  20 9.45  C 20 16.2  14 20.25  10 27  Z M 10 25.0575888365105  C 13.6 19.0546700532372  19 15.4529187832733  19 9.45  C 19 6.31142857142857  17.2 0.999999999999998  10 0.999999999999998  C 2.8 0.999999999999998  1 6.31142857142857  1 9.45  C 1 15.4529187832733  6.4 19.0546700532372  10 25.0575888365105  Z " fill-rule="nonzero" fill="#7f7f7f" stroke="none" />
  </g>
</svg>