<?xml version="1.0" encoding="utf-8"?>
<svg version="1.1" xmlns:xlink="http://www.w3.org/1999/xlink" width="257px" height="289px" xmlns="http://www.w3.org/2000/svg">
  <defs>
    <mask fill="white" id="clip115">
      <path d="M 217.548603866285 0.567037317770531  L 256.769721989447 248.200073729559  L 2.85671221354803 288.415943497901  C 1.29672526659555 276.819349503244  0.491974166649187 264.954257824296  0.491974166650214 252.870092570118  C 0.491974166649358 123.114192680452  93.2779832920547 18.6169879972036  217.548603866285 0.567037317770531  Z " fill-rule="evenodd" />
    </mask>
  </defs>
  <g transform="matrix(1 0 0 1 -837 -9781 )">
    <path d="M 217.548603866285 0.567037317770531  L 256.769721989447 248.200073729559  L 2.85671221354803 288.415943497901  C 1.29672526659555 276.819349503244  0.491974166649187 264.954257824296  0.491974166650214 252.870092570118  C 0.491974166649358 123.114192680452  93.2779832920547 18.6169879972036  217.548603866285 0.567037317770531  Z " fill-rule="nonzero" fill="#f37c51" stroke="none" transform="matrix(1 0 0 1 837 9781 )" />
    <path d="M 217.548603866285 0.567037317770531  L 256.769721989447 248.200073729559  L 2.85671221354803 288.415943497901  C 1.29672526659555 276.819349503244  0.491974166649187 264.954257824296  0.491974166650214 252.870092570118  C 0.491974166649358 123.114192680452  93.2779832920547 18.6169879972036  217.548603866285 0.567037317770531  Z " stroke-width="6" stroke="#ffffff" fill="none" transform="matrix(1 0 0 1 837 9781 )" mask="url(#clip115)" />
  </g>
</svg>