<?xml version="1.0" encoding="utf-8"?>
<svg version="1.1" xmlns:xlink="http://www.w3.org/1999/xlink" width="203px" height="203px" xmlns="http://www.w3.org/2000/svg">
  <g transform="matrix(1 0 0 1 -960 -9458 )">
    <path d="M 1061.5 9459  C 1117.78 9459  1162 9503.22  1162 9559.5  C 1162 9615.78  1117.78 9660  1061.5 9660  C 1005.22 9660  961 9615.78  961 9559.5  C 961 9503.22  1005.22 9459  1061.5 9459  Z " fill-rule="nonzero" fill="#ec808d" stroke="none" />
    <path d="M 1061.5 9459  C 1117.78 9459  1162 9503.22  1162 9559.5  C 1162 9615.78  1117.78 9660  1061.5 9660  C 1005.22 9660  961 9615.78  961 9559.5  C 961 9503.22  1005.22 9459  1061.5 9459  Z " stroke-width="2" stroke="#facd91" fill="none" />
  </g>
</svg>