<?xml version="1.0" encoding="utf-8"?>
<svg version="1.1" xmlns:xlink="http://www.w3.org/1999/xlink" width="203px" height="203px" xmlns="http://www.w3.org/2000/svg">
  <g transform="matrix(1 0 0 1 -960 -10553 )">
    <path d="M 1061.5 10554  C 1117.78 10554  1162 10598.22  1162 10654.5  C 1162 10710.78  1117.78 10755  1061.5 10755  C 1005.22 10755  961 10710.78  961 10654.5  C 961 10598.22  1005.22 10554  1061.5 10554  Z " fill-rule="nonzero" fill="#ec808d" stroke="none" />
    <path d="M 1061.5 10554  C 1117.78 10554  1162 10598.22  1162 10654.5  C 1162 10710.78  1117.78 10755  1061.5 10755  C 1005.22 10755  961 10710.78  961 10654.5  C 961 10598.22  1005.22 10554  1061.5 10554  Z " stroke-width="2" stroke="#facd91" fill="none" />
  </g>
</svg>