<?xml version="1.0" encoding="utf-8"?>
<svg version="1.1" xmlns:xlink="http://www.w3.org/1999/xlink" width="334px" height="457px" xmlns="http://www.w3.org/2000/svg">
  <defs>
    <mask fill="white" id="clip672">
      <path d="M 167.508431086821 456.099607293595  L 0.912983669597565 167.548060234051  L 289.501037179259 0.931669852308005  C 317.861719789 49.7758455449116  334 106.937248198229  334 168.5  C 334 293.363002788161  267.612127172417 400.12022207789  167.508431086821 456.099607293595  Z " fill-rule="evenodd" />
    </mask>
  </defs>
  <g transform="matrix(1 0 0 1 -858 -2947 )">
    <path d="M 167.508431086821 456.099607293595  L 0.912983669597565 167.548060234051  L 289.501037179259 0.931669852308005  C 317.861719789 49.7758455449116  334 106.937248198229  334 168.5  C 334 293.363002788161  267.612127172417 400.12022207789  167.508431086821 456.099607293595  Z " fill-rule="nonzero" fill="#ff6611" stroke="none" transform="matrix(1 0 0 1 858 2947 )" />
    <path d="M 167.508431086821 456.099607293595  L 0.912983669597565 167.548060234051  L 289.501037179259 0.931669852308005  C 317.861719789 49.7758455449116  334 106.937248198229  334 168.5  C 334 293.363002788161  267.612127172417 400.12022207789  167.508431086821 456.099607293595  Z " stroke-width="4" stroke="#ffff80" fill="none" transform="matrix(1 0 0 1 858 2947 )" mask="url(#clip672)" />
  </g>
</svg>