<?xml version="1.0" encoding="utf-8"?>
<svg version="1.1" xmlns:xlink="http://www.w3.org/1999/xlink" width="203px" height="203px" xmlns="http://www.w3.org/2000/svg">
  <g transform="matrix(1 0 0 1 -960 -10913 )">
    <path d="M 1061.5 10914  C 1117.78 10914  1162 10958.22  1162 11014.5  C 1162 11070.78  1117.78 11115  1061.5 11115  C 1005.22 11115  961 11070.78  961 11014.5  C 961 10958.22  1005.22 10914  1061.5 10914  Z " fill-rule="nonzero" fill="#ec808d" stroke="none" />
    <path d="M 1061.5 10914  C 1117.78 10914  1162 10958.22  1162 11014.5  C 1162 11070.78  1117.78 11115  1061.5 11115  C 1005.22 11115  961 11070.78  961 11014.5  C 961 10958.22  1005.22 10914  1061.5 10914  Z " stroke-width="2" stroke="#facd91" fill="none" />
  </g>
</svg>