<?xml version="1.0" encoding="utf-8"?>
<svg version="1.1" xmlns:xlink="http://www.w3.org/1999/xlink" width="14px" height="5px" xmlns="http://www.w3.org/2000/svg">
  <g transform="matrix(1 0 0 1 -79 -185 )">
    <path d="M 13.8597194388778 0.515463917525773  C 13.9532398129593 0.572737686139747  14 0.638602520045818  14 0.713058419243987  C 14 0.787514318442153  13.9532398129593 0.853379152348224  13.8597194388778 0.910652920962199  L 7.32264529058116 4.91408934707904  C 7.22912491649967 4.97136311569301  7.12157648630595 5  7 5  C 6.87842351369406 5  6.77087508350033 4.97136311569301  6.67735470941884 4.91408934707904  L 0.140280561122244 0.910652920962199  C 0.0467601870407483 0.853379152348224  0 0.787514318442153  0 0.713058419243987  C 0 0.638602520045818  0.0467601870407483 0.572737686139747  0.140280561122244 0.515463917525773  L 0.841683366733467 0.0859106529209624  C 0.935203740814964 0.0286368843069867  1.04275217100868 0  1.16432865731463 0  C 1.28590514362057 0  1.3934535738143 0.0286368843069867  1.48697394789579 0.0859106529209624  L 7 3.46219931271478  L 12.5130260521042 0.0859106529209624  C 12.6065464261857 0.0286368843069867  12.7140948563794 0  12.8356713426854 0  C 12.9572478289913 0  13.064796259185 0.0286368843069867  13.1583166332665 0.0859106529209624  L 13.8597194388778 0.515463917525773  Z " fill-rule="nonzero" fill="#a30014" stroke="none" transform="matrix(1 0 0 1 79 185 )" />
  </g>
</svg>