<?xml version="1.0" encoding="utf-8"?>
<svg version="1.1" xmlns:xlink="http://www.w3.org/1999/xlink" width="24px" height="18px" xmlns="http://www.w3.org/2000/svg">
  <g transform="matrix(1 0 0 1 -552 -236 )">
    <path d="M 23.5664516129032 2.48484848484849  C 23.8554838709677 2.76767676767677  24 3.11111111111111  24 3.51515151515152  C 24 3.91919191919192  23.8554838709677 4.26262626262626  23.5664516129032 4.54545454545455  L 12.3561290322581 15.5151515151515  L 10.2503225806452 17.5757575757576  C 9.96129032258065 17.8585858585859  9.61032258064516 18  9.19741935483871 18  C 8.78451612903226 18  8.43354838709677 17.8585858585859  8.14451612903226 17.5757575757576  L 6.03870967741935 15.5151515151515  L 0.433548387096774 10.030303030303  C 0.144516129032258 9.74747474747475  0 9.4040404040404  0 9  C 0 8.5959595959596  0.144516129032258 8.25252525252525  0.433548387096774 7.96969696969697  L 2.53935483870968 5.90909090909091  C 2.82838709677419 5.62626262626263  3.17935483870968 5.48484848484848  3.59225806451613 5.48484848484848  C 4.00516129032258 5.48484848484848  4.35612903225806 5.62626262626263  4.64516129032258 5.90909090909091  L 9.19741935483871 10.3787878787879  L 19.3548387096774 0.424242424242424  C 19.6438709677419 0.141414141414141  19.9948387096774 0  20.4077419354839 0  C 20.8206451612903 0  21.1716129032258 0.141414141414141  21.4606451612903 0.424242424242424  L 23.5664516129032 2.48484848484849  Z " fill-rule="nonzero" fill="#f2f2f2" stroke="none" transform="matrix(1 0 0 1 552 236 )" />
  </g>
</svg>