<?xml version="1.0" encoding="utf-8"?>
<svg version="1.1" xmlns:xlink="http://www.w3.org/1999/xlink" width="20px" height="20px" xmlns="http://www.w3.org/2000/svg">
  <g transform="matrix(1 0 0 1 -53 -202 )">
    <path d="M 63 202  C 68.6 202  73 206.4  73 212  C 73 217.6  68.6 222  63 222  C 57.4 222  53 217.6  53 212  C 53 206.4  57.4 202  63 202  Z " fill-rule="nonzero" fill="#ffff80" stroke="none" />
    <path d="M 63 202.5  C 68.32 202.5  72.5 206.68  72.5 212  C 72.5 217.32  68.32 221.5  63 221.5  C 57.68 221.5  53.5 217.32  53.5 212  C 53.5 206.68  57.68 202.5  63 202.5  Z " stroke-width="1" stroke="#aaaaaa" fill="none" />
  </g>
</svg>