<?xml version="1.0" encoding="utf-8"?>
<svg version="1.1" xmlns:xlink="http://www.w3.org/1999/xlink" width="25px" height="24px" xmlns="http://www.w3.org/2000/svg">
  <g transform="matrix(1 0 0 1 -23 -23 )">
    <path d="M 24.749498997996 21.3664596273292  C 24.9164996659987 21.5320910973085  25 21.7225672877847  25 21.9378881987578  C 25 22.1532091097309  24.9164996659987 22.343685300207  24.749498997996 22.5093167701863  L 23.496993987976 23.7515527950311  C 23.3299933199733 23.9171842650104  23.1379425517702 24  22.9208416833667 24  C 22.7037408149633 24  22.5116900467602 23.9171842650104  22.3446893787575 23.7515527950311  L 12.5 13.9875776397516  L 2.65531062124249 23.7515527950311  C 2.48830995323981 23.9171842650104  2.29625918503674 24  2.07915831663327 24  C 1.86205744822979 24  1.67000668002672 23.9171842650104  1.50300601202405 23.7515527950311  L 0.250501002004008 22.5093167701863  C 0.0835003340013362 22.343685300207  0 22.1532091097309  0 21.9378881987578  C 0 21.7225672877847  0.0835003340013362 21.5320910973085  0.250501002004008 21.3664596273292  L 11.9238476953908 9.7888198757764  C 12.0908483633935 9.6231884057971  12.2828991315965 9.54037267080745  12.5 9.54037267080745  C 12.7171008684035 9.54037267080745  12.9091516366065 9.6231884057971  13.0761523046092 9.7888198757764  L 24.749498997996 21.3664596273292  Z M 24.749498997996 11.8260869565217  C 24.9164996659987 11.991718426501  25 12.1821946169772  25 12.3975155279503  C 25 12.6128364389234  24.9164996659987 12.8033126293996  24.749498997996 12.9689440993789  L 23.496993987976 14.2111801242236  C 23.3299933199733 14.3768115942029  23.1379425517702 14.4596273291925  22.9208416833667 14.4596273291925  C 22.7037408149633 14.4596273291925  22.5116900467602 14.3768115942029  22.3446893787575 14.2111801242236  L 12.5 4.4472049689441  L 2.65531062124249 14.2111801242236  C 2.48830995323981 14.3768115942029  2.29625918503674 14.4596273291925  2.07915831663327 14.4596273291925  C 1.86205744822979 14.4596273291925  1.67000668002672 14.3768115942029  1.50300601202405 14.2111801242236  L 0.250501002004008 12.9689440993789  C 0.0835003340013362 12.8033126293996  0 12.6128364389234  0 12.3975155279503  C 0 12.1821946169772  0.0835003340013362 11.991718426501  0.250501002004008 11.8260869565217  L 11.9238476953908 0.248447204968944  C 12.0908483633935 0.0828157349896461  12.2828991315965 0  12.5 0  C 12.7171008684035 0  12.9091516366065 0.0828157349896461  13.0761523046092 0.248447204968944  L 24.749498997996 11.8260869565217  Z " fill-rule="nonzero" fill="#f2f2f2" stroke="none" transform="matrix(1 0 0 1 23 23 )" />
  </g>
</svg>