<?xml version="1.0" encoding="utf-8"?>
<svg version="1.1" xmlns:xlink="http://www.w3.org/1999/xlink" width="26px" height="22px" xmlns="http://www.w3.org/2000/svg">
  <g transform="matrix(1 0 0 1 -676 -50 )">
    <path d="M 17.5412946428571 18.7916666666667  C 18.460193452381 18.4861111111111  19.2678571428571 18.3333333333333  19.9642857142857 18.3333333333333  L 20.4285714285714 18.3333333333333  L 20.4285714285714 9.16666666666667  L 19.9642857142857 9.16666666666667  C 19.625744047619 9.16666666666667  19.2992931547619 9.109375  18.9849330357143 8.99479166666667  C 18.6705729166667 8.88020833333333  18.3683035714286 8.70355902777778  18.078125 8.46484375  C 17.7879464285714 8.22612847222222  17.546130952381 8.00651041666667  17.3526785714286 7.80598958333333  C 17.1592261904762 7.60546875  16.9222470238095 7.34765625  16.6417410714286 7.03255208333333  C 16.5643601190476 6.94661458333333  16.5063244047619 6.87977430555555  16.4676339285714 6.83203125  C 15.7712053571429 6.05859375  15.2295386904762 5.36631944444444  14.8426339285714 4.75520833333333  C 14.7072172619048 4.54513888888889  14.5234375 4.22048611111111  14.2912946428571 3.78125  C 14.2816220238095 3.75260416666667  14.2308407738095 3.64518229166667  14.1389508928571 3.458984375  C 14.0470610119048 3.27278645833333  13.9575892857143 3.10091145833333  13.8705357142857 2.943359375  C 13.7834821428571 2.78580729166667  13.686755952381 2.61631944444444  13.5803571428571 2.43489583333333  C 13.4739583333333 2.25347222222222  13.3699776785714 2.10785590277778  13.2684151785714 1.998046875  C 13.1668526785714 1.88823784722222  13.077380952381 1.83333333333333  13 1.83333333333333  C 12.313244047619 1.83333333333333  11.754650297619 1.97894965277777  11.32421875 2.27018229166667  C 10.893787202381 2.56141493055555  10.6785714285714 3.02690972222222  10.6785714285714 3.66666666666667  C 10.6785714285714 4.07725694444444  10.7511160714286 4.48068576388889  10.8962053571429 4.876953125  C 11.0412946428571 5.27322048611111  11.2008928571429 5.59787326388889  11.375 5.85091145833333  C 11.5491071428571 6.10394965277778  11.7087053571429 6.36653645833333  11.8537946428571 6.638671875  C 11.9988839285714 6.91080729166667  12.0714285714286 7.14236111111111  12.0714285714286 7.33333333333333  L 3.71428571428571 7.33333333333333  C 3.23065476190476 7.33333333333333  2.80022321428571 7.51714409722222  2.42299107142857 7.884765625  C 2.04575892857143 8.25238715277778  1.85714285714286 8.6796875  1.85714285714286 9.16666666666667  C 1.85714285714286 9.66319444444444  2.04092261904762 10.0928819444444  2.40848214285714 10.4557291666667  C 2.77604166666667 10.8185763888889  3.21130952380952 11  3.71428571428571 11  L 8.51674107142857 11  C 8.37165178571429 11.1623263888889  8.25074404761905 11.3891059027778  8.15401785714286 11.6803385416667  C 8.05729166666667 11.9715711805556  8.00892857142857 12.2365451388889  8.00892857142857 12.4752604166667  C 8.00892857142857 13.1341145833333  8.26525297619048 13.7022569444444  8.77790178571429 14.1796875  C 8.60379464285714 14.4852430555556  8.51674107142857 14.8146701388889  8.51674107142857 15.16796875  C 8.51674107142857 15.5212673611111  8.60137648809524 15.8721788194444  8.77064732142857 16.220703125  C 8.93991815476191 16.5692274305556  9.16964285714286 16.8198784722222  9.45982142857143 16.97265625  C 9.42113095238095 17.2018229166667  9.40178571428571 17.4691840277778  9.40178571428571 17.7747395833333  C 9.40178571428571 18.5863715277778  9.63634672619048 19.1879340277778  10.10546875 19.5794270833333  C 10.5745907738095 19.9709201388889  11.2299107142857 20.1666666666667  12.0714285714286 20.1666666666667  C 12.8839285714286 20.1666666666667  13.7689732142857 20.0138888888889  14.7265625 19.7083333333333  C 15.6841517857143 19.4027777777778  16.6223958333333 19.0972222222222  17.5412946428571 18.7916666666667  Z M 23.8671875 18.0611979166667  C 24.0509672619048 17.8797743055556  24.1428571428571 17.6649305555556  24.1428571428571 17.4166666666667  C 24.1428571428571 17.1684027777778  24.0509672619048 16.9535590277778  23.8671875 16.7721354166667  C 23.6834077380952 16.5907118055556  23.4657738095238 16.5  23.2142857142857 16.5  C 22.9627976190476 16.5  22.7451636904762 16.5907118055556  22.5613839285714 16.7721354166667  C 22.3776041666667 16.9535590277778  22.2857142857143 17.1684027777778  22.2857142857143 17.4166666666667  C 22.2857142857143 17.6649305555556  22.3776041666667 17.8797743055556  22.5613839285714 18.0611979166667  C 22.7451636904762 18.2426215277778  22.9627976190476 18.3333333333333  23.2142857142857 18.3333333333333  C 23.4657738095238 18.3333333333333  23.6834077380952 18.2426215277778  23.8671875 18.0611979166667  Z M 25.4559151785714 7.87044270833333  C 25.8186383928571 8.228515625  26 8.66059027777778  26 9.16666666666667  L 26 18.3333333333333  C 26 18.8394097222222  25.8186383928571 19.271484375  25.4559151785714 19.6295572916667  C 25.0931919642857 19.9876302083333  24.655505952381 20.1666666666667  24.1428571428571 20.1666666666667  L 19.9642857142857 20.1666666666667  C 19.3936011904762 20.1666666666667  18.3151041666667 20.4483506944444  16.7287946428571 21.01171875  C 14.8909970238095 21.6705729166667  13.3578869047619 22  12.1294642857143 22  C 10.7559523809524 22  9.64360119047619 21.6299913194444  8.79241071428571 20.8899739583333  C 7.94122023809524 20.1499565972222  7.52046130952381 19.1115451388889  7.53013392857143 17.7747395833333  L 7.54464285714286 17.703125  C 6.9546130952381 16.9774305555556  6.65959821428572 16.1276041666667  6.65959821428571 15.1536458333333  C 6.65959821428572 14.9435763888889  6.67410714285714 14.73828125  6.703125 14.5377604166667  C 6.38392857142857 13.9934895833333  6.20498511904762 13.4253472222222  6.16629464285714 12.8333333333333  L 3.71428571428571 12.8333333333333  C 2.69866071428571 12.8333333333333  1.8257068452381 12.4704861111111  1.09542410714286 11.7447916666667  C 0.365141369047619 11.0190972222222  0 10.1549479166667  0 9.15234375  C 0 8.16883680555555  0.367559523809524 7.31423611111111  1.10267857142857 6.58854166666667  C 1.83779761904762 5.86284722222222  2.70833333333333 5.5  3.71428571428571 5.5  L 9.140625 5.5  C 8.92782738095238 4.92708333333333  8.82142857142857 4.31597222222222  8.82142857142857 3.66666666666667  C 8.82142857142857 2.50173611111111  9.21558779761905 1.59939236111111  10.00390625 0.959635416666666  C 10.792224702381 0.31987847222222  11.7909226190476 0  13 0  C 13.3675595238095 0  13.7036830357143 0.0835503472222203  14.0083705357143 0.250651041666666  C 14.3130580357143 0.417751736111109  14.5790550595238 0.654079861111109  14.8063616071429 0.959635416666666  C 15.0336681547619 1.26519097222222  15.2295386904762 1.56597222222222  15.3939732142857 1.86197916666667  C 15.5584077380952 2.15798611111111  15.7373511904762 2.50173611111111  15.9308035714286 2.89322916666667  C 16.124255952381 3.28472222222222  16.2838541666667 3.58072916666667  16.4095982142857 3.78125  C 16.7481398809524 4.30642361111111  17.2317708333333 4.92230902777778  17.8604910714286 5.62890625  C 17.8798363095238 5.65755208333333  17.9475446428571 5.73871527777778  18.0636160714286 5.87239583333333  C 18.1796875 6.00607638888889  18.2715773809524 6.10872395833333  18.3392857142857 6.18033854166667  C 18.406994047619 6.251953125  18.5061383928571 6.35460069444444  18.63671875 6.48828125  C 18.7672991071429 6.62196180555555  18.8833705357143 6.72938368055555  18.9849330357143 6.810546875  C 19.0864955357143 6.89171006944444  19.1953125 6.97764756944444  19.3113839285714 7.068359375  C 19.4274553571429 7.15907118055555  19.5411086309524 7.22591145833333  19.65234375 7.26888020833333  C 19.7635788690476 7.31184895833333  19.8675595238095 7.33333333333333  19.9642857142857 7.33333333333333  L 24.1428571428571 7.33333333333333  C 24.655505952381 7.33333333333333  25.0931919642857 7.51236979166667  25.4559151785714 7.87044270833333  Z " fill-rule="nonzero" fill="#f2f2f2" stroke="none" fill-opacity="0.996078431372549" transform="matrix(1 0 0 1 676 50 )" />
  </g>
</svg>