<?xml version="1.0" encoding="utf-8"?>
<svg version="1.1" xmlns:xlink="http://www.w3.org/1999/xlink" width="44px" height="25px" xmlns="http://www.w3.org/2000/svg">
  <defs>
    <mask fill="white" id="clip6">
      <path d="M 0 22  L 0 3  C 0 1.31999999999999  0.829714285714286 0  1.88571428571429 0  L 42.1142857142857 0  C 43.1702857142857 0  44 1.31999999999999  44 3  L 44 22  C 44 23.68  43.1702857142857 25  42.1142857142857 25  L 22.6285714285714 25  L 1.88571428571429 25  C 0.829714285714286 25  0 23.68  0 22  Z " fill-rule="evenodd" />
    </mask>
  </defs>
  <g transform="matrix(1 0 0 1 0 -184 )">
    <path d="M 0 22  L 0 3  C 0 1.31999999999999  0.829714285714286 0  1.88571428571429 0  L 42.1142857142857 0  C 43.1702857142857 0  44 1.31999999999999  44 3  L 44 22  C 44 23.68  43.1702857142857 25  42.1142857142857 25  L 22.6285714285714 25  L 1.88571428571429 25  C 0.829714285714286 25  0 23.68  0 22  Z " fill-rule="nonzero" fill="#555555" stroke="none" transform="matrix(1 0 0 1 0 184 )" />
    <path d="M 0 22  L 0 3  C 0 1.31999999999999  0.829714285714286 0  1.88571428571429 0  L 42.1142857142857 0  C 43.1702857142857 0  44 1.31999999999999  44 3  L 44 22  C 44 23.68  43.1702857142857 25  42.1142857142857 25  L 22.6285714285714 25  L 1.88571428571429 25  C 0.829714285714286 25  0 23.68  0 22  Z " stroke-width="2" stroke="#aaaaaa" fill="none" transform="matrix(1 0 0 1 0 184 )" mask="url(#clip6)" />
  </g>
</svg>