<?xml version="1.0" encoding="utf-8"?>
<svg version="1.1" xmlns:xlink="http://www.w3.org/1999/xlink" width="334px" height="387px" xmlns="http://www.w3.org/2000/svg">
  <defs>
    <mask fill="white" id="clip143">
      <path d="M 0.257041555166156 226.066987298109  C 0.257041555158564 100.066987298104  99.2570415551626 1.06698729810659  225.257041555162 1.06698729810722  C 240.691277596713 1.06698729810479  253.432781431824 2.05516076075092  267.924424713889 4.89376867088783  C 281.458250778058 7.54476034742727  382.913360449997 131.327089667677  302.686565530752 270.683974596215  C 222.459770611507 410.040859524752  69.0692674384046 389.936900375658  58.08134665205 377.952641490625  C 21.5014369992822 338.055820627629  0.257041555161874 285.585403755056  0.257041555166156 226.066987298109  Z " fill-rule="evenodd" />
    </mask>
  </defs>
  <g transform="matrix(1 0 0 1 -777 -8543 )">
    <path d="M 0.257041555166156 226.066987298109  C 0.257041555158564 100.066987298104  99.2570415551626 1.06698729810659  225.257041555162 1.06698729810722  C 240.691277596713 1.06698729810479  253.432781431824 2.05516076075092  267.924424713889 4.89376867088783  C 281.458250778058 7.54476034742727  382.913360449997 131.327089667677  302.686565530752 270.683974596215  C 222.459770611507 410.040859524752  69.0692674384046 389.936900375658  58.08134665205 377.952641490625  C 21.5014369992822 338.055820627629  0.257041555161874 285.585403755056  0.257041555166156 226.066987298109  Z " fill-rule="nonzero" fill="#ff0000" stroke="none" transform="matrix(1 0 0 1 777 8543 )" />
    <path d="M 0.257041555166156 226.066987298109  C 0.257041555158564 100.066987298104  99.2570415551626 1.06698729810659  225.257041555162 1.06698729810722  C 240.691277596713 1.06698729810479  253.432781431824 2.05516076075092  267.924424713889 4.89376867088783  C 281.458250778058 7.54476034742727  382.913360449997 131.327089667677  302.686565530752 270.683974596215  C 222.459770611507 410.040859524752  69.0692674384046 389.936900375658  58.08134665205 377.952641490625  C 21.5014369992822 338.055820627629  0.257041555161874 285.585403755056  0.257041555166156 226.066987298109  Z " stroke-width="2" stroke="#ff0000" fill="none" transform="matrix(1 0 0 1 777 8543 )" mask="url(#clip143)" />
  </g>
</svg>