<?xml version="1.0" encoding="utf-8"?>
<svg version="1.1" xmlns:xlink="http://www.w3.org/1999/xlink" width="246px" height="246px" xmlns="http://www.w3.org/2000/svg">
  <defs>
    <mask fill="white" id="clip24">
      <path d="M 122.793404186141 0.000162320849085518  C 122.862254671168 5.41200697625754E-05  122.931119955575 0  122.793404186141 0.000162320849085518  Z M 123 0.000162717135026469  L 123 37  C 74.8399999999999 37  37 74.8400000000001  37 123  C 37 171.16  74.8399999999999 209  123 209  C 171.16 209  209 171.16  209.000945822965 123  L 246 123  C 246 191.88  191.88 246  123 246  C 54.1199999999999 246  0 191.88  0 123  C 0 54.1888800444249  54.0118140502584 0.108254829830003  123 0.000162717135026469  Z " fill-rule="evenodd" />
    </mask>
  </defs>
  <g transform="matrix(1 0 0 1 -827 -4814 )">
    <path d="M 122.793404186141 0.000162320849085518  C 122.862254671168 5.41200697625754E-05  122.931119955575 0  122.793404186141 0.000162320849085518  Z M 123 0.000162717135026469  L 123 37  C 74.8399999999999 37  37 74.8400000000001  37 123  C 37 171.16  74.8399999999999 209  123 209  C 171.16 209  209 171.16  209.000945822965 123  L 246 123  C 246 191.88  191.88 246  123 246  C 54.1199999999999 246  0 191.88  0 123  C 0 54.1888800444249  54.0118140502584 0.108254829830003  123 0.000162717135026469  Z " fill-rule="nonzero" fill="#f59a23" stroke="none" transform="matrix(1 0 0 1 827 4814 )" />
    <path d="M 122.793404186141 0.000162320849085518  C 122.862254671168 5.41200697625754E-05  122.931119955575 0  122.793404186141 0.000162320849085518  Z " stroke-width="4" stroke="#ffff80" fill="none" transform="matrix(1 0 0 1 827 4814 )" mask="url(#clip24)" />
    <path d="M 123 0.000162717135026469  L 123 37  C 74.8399999999999 37  37 74.8400000000001  37 123  C 37 171.16  74.8399999999999 209  123 209  C 171.16 209  209 171.16  209.000945822965 123  L 246 123  C 246 191.88  191.88 246  123 246  C 54.1199999999999 246  0 191.88  0 123  C 0 54.1888800444249  54.0118140502584 0.108254829830003  123 0.000162717135026469  Z " stroke-width="4" stroke="#ffff80" fill="none" transform="matrix(1 0 0 1 827 4814 )" mask="url(#clip24)" />
  </g>
</svg>