<?xml version="1.0" encoding="utf-8"?>
<svg version="1.1" xmlns:xlink="http://www.w3.org/1999/xlink" width="98px" height="98px" xmlns="http://www.w3.org/2000/svg">
  <defs>
    <mask fill="white" id="clip416">
      <path d="M 49 0  L 49 39.0112000169197  C 43.3601829197355 39.2646016895719  39 43.7877304466401  39 49.5  C 39 55.3800000000001  43.6199999999999 60  49.5 60  C 55.3800000000001 60  60 55.3800000000001  60 49.5  C 60 49.3322928488938  59.9962417082866 49.1656106864366  59.9895036117004 49  L 98 49  C 98 76.4399999999996  76.4400000000001 98  49 98  C 21.5599999999999 98  0 76.4399999999996  0 49  C 0 21.5599999999999  21.5599999999999 0  49 0  Z " fill-rule="evenodd" />
    </mask>
  </defs>
  <g transform="matrix(1 0 0 1 -901 -4032 )">
    <path d="M 49 0  L 49 39.0112000169197  C 43.3601829197355 39.2646016895719  39 43.7877304466401  39 49.5  C 39 55.3800000000001  43.6199999999999 60  49.5 60  C 55.3800000000001 60  60 55.3800000000001  60 49.5  C 60 49.3322928488938  59.9962417082866 49.1656106864366  59.9895036117004 49  L 98 49  C 98 76.4399999999996  76.4400000000001 98  49 98  C 21.5599999999999 98  0 76.4399999999996  0 49  C 0 21.5599999999999  21.5599999999999 0  49 0  Z " fill-rule="nonzero" fill="#f59a23" stroke="none" transform="matrix(1 0 0 1 901 4032 )" />
    <path d="M 49 0  L 49 39.0112000169197  C 43.3601829197355 39.2646016895719  39 43.7877304466401  39 49.5  C 39 55.3800000000001  43.6199999999999 60  49.5 60  C 55.3800000000001 60  60 55.3800000000001  60 49.5  C 60 49.3322928488938  59.9962417082866 49.1656106864366  59.9895036117004 49  L 98 49  C 98 76.4399999999996  76.4400000000001 98  49 98  C 21.5599999999999 98  0 76.4399999999996  0 49  C 0 21.5599999999999  21.5599999999999 0  49 0  Z " stroke-width="4" stroke="#ffff80" fill="none" transform="matrix(1 0 0 1 901 4032 )" mask="url(#clip416)" />
  </g>
</svg>