<?xml version="1.0" encoding="utf-8"?>
<svg version="1.1" xmlns:xlink="http://www.w3.org/1999/xlink" width="172px" height="172px" xmlns="http://www.w3.org/2000/svg">
  <defs>
    <mask fill="white" id="clip64">
      <path d="M 85.855550894375 0.000113492626951484  C 85.90369025789 3.78400491172215E-05  85.9518399689384 0  85.855550894375 0.000113492626951484  Z M 86 0.000113484657958907  L 86 37  C 58.5599999999999 37  37 58.5600000000004  37 86  C 37 113.44  58.5599999999999 135  86 135  C 113.44 135  135 113.44  135.000003972583 86  L 172 86  C 172 134.16  134.16 172  86 172  C 37.8399999999999 172  0 134.16  0 86  C 0 37.8881600310615  37.7643577912377 0.0756903688243256  86 0.000113484657958907  Z " fill-rule="evenodd" />
    </mask>
  </defs>
  <g transform="matrix(1 0 0 1 -864 -4356 )">
    <path d="M 85.855550894375 0.000113492626951484  C 85.90369025789 3.78400491172215E-05  85.9518399689384 0  85.855550894375 0.000113492626951484  Z M 86 0.000113484657958907  L 86 37  C 58.5599999999999 37  37 58.5600000000004  37 86  C 37 113.44  58.5599999999999 135  86 135  C 113.44 135  135 113.44  135.000003972583 86  L 172 86  C 172 134.16  134.16 172  86 172  C 37.8399999999999 172  0 134.16  0 86  C 0 37.8881600310615  37.7643577912377 0.0756903688243256  86 0.000113484657958907  Z " fill-rule="nonzero" fill="#f59a23" stroke="none" transform="matrix(1 0 0 1 864 4356 )" />
    <path d="M 85.855550894375 0.000113492626951484  C 85.90369025789 3.78400491172215E-05  85.9518399689384 0  85.855550894375 0.000113492626951484  Z " stroke-width="4" stroke="#ffff80" fill="none" transform="matrix(1 0 0 1 864 4356 )" mask="url(#clip64)" />
    <path d="M 86 0.000113484657958907  L 86 37  C 58.5599999999999 37  37 58.5600000000004  37 86  C 37 113.44  58.5599999999999 135  86 135  C 113.44 135  135 113.44  135.000003972583 86  L 172 86  C 172 134.16  134.16 172  86 172  C 37.8399999999999 172  0 134.16  0 86  C 0 37.8881600310615  37.7643577912377 0.0756903688243256  86 0.000113484657958907  Z " stroke-width="4" stroke="#ffff80" fill="none" transform="matrix(1 0 0 1 864 4356 )" mask="url(#clip64)" />
  </g>
</svg>