<?xml version="1.0" encoding="utf-8"?>
<svg version="1.1" xmlns:xlink="http://www.w3.org/1999/xlink" width="92px" height="232px" xmlns="http://www.w3.org/2000/svg">
  <defs>
    <mask fill="white" id="clip67">
      <path d="M 91.0971594525413 4.6269460318963  L 46.0685754936544 231.000015347644  L 45.5606097635768 231.000015381698  L 0.398372991105703 3.95411894647782  C 14.4864884092013 1.3560094016425  29.0583338316494 0  44 0  C 60.1809903354072 0  75.9282667027608 1.59028454952954  91.0971594525413 4.6269460318963  Z " fill-rule="evenodd" />
    </mask>
  </defs>
  <g transform="matrix(1 0 0 1 -997 -6330 )">
    <path d="M 91.0971594525413 4.6269460318963  L 46.0685754936544 231.000015347644  L 45.5606097635768 231.000015381698  L 0.398372991105703 3.95411894647782  C 14.4864884092013 1.3560094016425  29.0583338316494 0  44 0  C 60.1809903354072 0  75.9282667027608 1.59028454952954  91.0971594525413 4.6269460318963  Z " fill-rule="nonzero" fill="#7b5035" stroke="none" transform="matrix(1 0 0 1 997 6330 )" />
    <path d="M 91.0971594525413 4.6269460318963  L 46.0685754936544 231.000015347644  L 45.5606097635768 231.000015381698  L 0.398372991105703 3.95411894647782  C 14.4864884092013 1.3560094016425  29.0583338316494 0  44 0  C 60.1809903354072 0  75.9282667027608 1.59028454952954  91.0971594525413 4.6269460318963  Z " stroke-width="4" stroke="#fff873" fill="none" transform="matrix(1 0 0 1 997 6330 )" mask="url(#clip67)" />
  </g>
</svg>