<?xml version="1.0" encoding="utf-8"?>
<svg version="1.1" xmlns:xlink="http://www.w3.org/1999/xlink" width="62px" height="25px" xmlns="http://www.w3.org/2000/svg">
  <defs>
    <mask fill="white" id="clip40">
      <path d="M 0 22  L 0 3  C 0 1.31999999999999  1.16914285714286 0  2.65714285714286 0  L 59.3428571428571 0  C 60.8308571428571 0  62 1.31999999999999  62 3  L 62 22  C 62 23.68  60.8308571428571 25  59.3428571428571 25  L 31.8857142857143 25  L 2.65714285714286 25  C 1.16914285714286 25  0 23.68  0 22  Z " fill-rule="evenodd" />
    </mask>
  </defs>
  <g transform="matrix(1 0 0 1 -79 -115 )">
    <path d="M 0 22  L 0 3  C 0 1.31999999999999  1.16914285714286 0  2.65714285714286 0  L 59.3428571428571 0  C 60.8308571428571 0  62 1.31999999999999  62 3  L 62 22  C 62 23.68  60.8308571428571 25  59.3428571428571 25  L 31.8857142857143 25  L 2.65714285714286 25  C 1.16914285714286 25  0 23.68  0 22  Z " fill-rule="nonzero" fill="#555555" stroke="none" transform="matrix(1 0 0 1 79 115 )" />
    <path d="M 0 22  L 0 3  C 0 1.31999999999999  1.16914285714286 0  2.65714285714286 0  L 59.3428571428571 0  C 60.8308571428571 0  62 1.31999999999999  62 3  L 62 22  C 62 23.68  60.8308571428571 25  59.3428571428571 25  L 31.8857142857143 25  L 2.65714285714286 25  C 1.16914285714286 25  0 23.68  0 22  Z " stroke-width="2" stroke="#aaaaaa" fill="none" transform="matrix(1 0 0 1 79 115 )" mask="url(#clip40)" />
  </g>
</svg>