<?xml version="1.0" encoding="utf-8"?>
<svg version="1.1" xmlns:xlink="http://www.w3.org/1999/xlink" width="23px" height="23px" xmlns="http://www.w3.org/2000/svg">
  <g transform="matrix(1 0 0 1 -89 -89 )">
    <path d="M 100.5 89  C 106.94 89  112 94.06  112 100.5  C 112 106.94  106.94 112  100.5 112  C 94.06 112  89 106.94  89 100.5  C 89 94.06  94.06 89  100.5 89  Z " fill-rule="nonzero" fill="#242424" stroke="none" />
    <path d="M 100.5 89.5  C 106.66 89.5  111.5 94.34  111.5 100.5  C 111.5 106.66  106.66 111.5  100.5 111.5  C 94.34 111.5  89.5 106.66  89.5 100.5  C 89.5 94.34  94.34 89.5  100.5 89.5  Z " stroke-width="1" stroke="#555555" fill="none" />
  </g>
</svg>