<?xml version="1.0" encoding="utf-8"?>
<svg version="1.1" xmlns:xlink="http://www.w3.org/1999/xlink" width="51px" height="51px" xmlns="http://www.w3.org/2000/svg">
  <g transform="matrix(1 0 0 1 -195 -195 )">
    <path d="M 220.5 195  C 234.78 195  246 206.22  246 220.5  C 246 234.78  234.78 246  220.5 246  C 206.22 246  195 234.78  195 220.5  C 195 206.22  206.22 195  220.5 195  Z " fill-rule="nonzero" fill="#242424" stroke="none" />
    <path d="M 220.5 195.5  C 234.5 195.5  245.5 206.5  245.5 220.5  C 245.5 234.5  234.5 245.5  220.5 245.5  C 206.5 245.5  195.5 234.5  195.5 220.5  C 195.5 206.5  206.5 195.5  220.5 195.5  Z " stroke-width="1" stroke="#555555" fill="none" />
  </g>
</svg>