<?xml version="1.0" encoding="utf-8"?>
<svg version="1.1" xmlns:xlink="http://www.w3.org/1999/xlink" width="85px" height="85px" xmlns="http://www.w3.org/2000/svg">
  <g transform="matrix(1 0 0 1 -58 -58 )">
    <path d="M 100.5 58  C 124.3 58  143 76.7  143 100.5  C 143 124.3  124.3 143  100.5 143  C 76.7 143  58 124.3  58 100.5  C 58 76.7  76.7 58  100.5 58  Z " fill-rule="nonzero" fill="#242424" stroke="none" fill-opacity="0" />
    <path d="M 100.5 58.5  C 124.02 58.5  142.5 76.98  142.5 100.5  C 142.5 124.02  124.02 142.5  100.5 142.5  C 76.98 142.5  58.5 124.02  58.5 100.5  C 58.5 76.98  76.98 58.5  100.5 58.5  Z " stroke-width="1" stroke="#555555" fill="none" />
  </g>
</svg>