<?xml version="1.0" encoding="utf-8"?>
<svg version="1.1" xmlns:xlink="http://www.w3.org/1999/xlink" width="194px" height="194px" xmlns="http://www.w3.org/2000/svg">
  <defs>
    <mask fill="white" id="clip205">
      <path d="M 100 168.360478429249  C 137.345782477766 166.670304528022  166.457872927942 137.412337726127  167.923277310827 100  L 193.9574032874 100  C 192.464051745297 151.881121702463  151.881123540241 192.464050406366  100 193.957403215442  L 100 168.360478429249  Z M 193.9695184845 95  L 167.939742556859 95  C 166.693893780643 56.8254560142611  137.497390248793 27.3365519603056  100 25.6395749731262  L 100 0.0425967853872721  C 152.033178448831 1.54032357615507  192.701686733164 42.3569458358542  193.9695184845 95  Z M 95 25.5900682233037  C 56.302109641229 26.6223317447542  26.4082779414554 56.3685784445969  25.1473162897226 95  L 0.0304815193020815 95  C 1.30201616482171 42.2046976974073  42.2046953769199 1.30201793292935  95 0.0304815545941264  L 95 25.5900682233037  Z M 0.0425967252312385 100  L 25.1637729916573 100  C 26.6469195033501 137.868296627018  56.4544494069941 167.381785228979  95 168.409891762227  L 95 193.969518399219  C 42.3569430562089 192.701684664232  1.54032240973925 152.033176011124  0.0425967252312385 100  Z " fill-rule="evenodd" />
    </mask>
  </defs>
  <g transform="matrix(1 0 0 1 -4 -4 )">
    <path d="M 100 168.360478429249  C 137.345782477766 166.670304528022  166.457872927942 137.412337726127  167.923277310827 100  L 193.9574032874 100  C 192.464051745297 151.881121702463  151.881123540241 192.464050406366  100 193.957403215442  L 100 168.360478429249  Z M 193.9695184845 95  L 167.939742556859 95  C 166.693893780643 56.8254560142611  137.497390248793 27.3365519603056  100 25.6395749731262  L 100 0.0425967853872721  C 152.033178448831 1.54032357615507  192.701686733164 42.3569458358542  193.9695184845 95  Z M 95 25.5900682233037  C 56.302109641229 26.6223317447542  26.4082779414554 56.3685784445969  25.1473162897226 95  L 0.0304815193020815 95  C 1.30201616482171 42.2046976974073  42.2046953769199 1.30201793292935  95 0.0304815545941264  L 95 25.5900682233037  Z M 0.0425967252312385 100  L 25.1637729916573 100  C 26.6469195033501 137.868296627018  56.4544494069941 167.381785228979  95 168.409891762227  L 95 193.969518399219  C 42.3569430562089 192.701684664232  1.54032240973925 152.033176011124  0.0425967252312385 100  Z " fill-rule="nonzero" fill="#ffffff" stroke="none" fill-opacity="0" transform="matrix(1 0 0 1 4 4 )" />
    <path d="M 100 168.360478429249  C 137.345782477766 166.670304528022  166.457872927942 137.412337726127  167.923277310827 100  L 193.9574032874 100  C 192.464051745297 151.881121702463  151.881123540241 192.464050406366  100 193.957403215442  L 100 168.360478429249  Z " stroke-width="2" stroke="#555555" fill="none" transform="matrix(1 0 0 1 4 4 )" mask="url(#clip205)" />
    <path d="M 193.9695184845 95  L 167.939742556859 95  C 166.693893780643 56.8254560142611  137.497390248793 27.3365519603056  100 25.6395749731262  L 100 0.0425967853872721  C 152.033178448831 1.54032357615507  192.701686733164 42.3569458358542  193.9695184845 95  Z " stroke-width="2" stroke="#555555" fill="none" transform="matrix(1 0 0 1 4 4 )" mask="url(#clip205)" />
    <path d="M 95 25.5900682233037  C 56.302109641229 26.6223317447542  26.4082779414554 56.3685784445969  25.1473162897226 95  L 0.0304815193020815 95  C 1.30201616482171 42.2046976974073  42.2046953769199 1.30201793292935  95 0.0304815545941264  L 95 25.5900682233037  Z " stroke-width="2" stroke="#555555" fill="none" transform="matrix(1 0 0 1 4 4 )" mask="url(#clip205)" />
    <path d="M 0.0425967252312385 100  L 25.1637729916573 100  C 26.6469195033501 137.868296627018  56.4544494069941 167.381785228979  95 168.409891762227  L 95 193.969518399219  C 42.3569430562089 192.701684664232  1.54032240973925 152.033176011124  0.0425967252312385 100  Z " stroke-width="2" stroke="#555555" fill="none" transform="matrix(1 0 0 1 4 4 )" mask="url(#clip205)" />
  </g>
</svg>