<?xml version="1.0" encoding="utf-8"?>
<svg version="1.1" xmlns:xlink="http://www.w3.org/1999/xlink" width="86px" height="86px" xmlns="http://www.w3.org/2000/svg">
  <g transform="matrix(1 0 0 1 -5 -5 )">
    <path d="M 48 8  C 70.4 8  88 25.6  88 48  C 88 70.4  70.4 88  48 88  C 25.6 88  8 70.4  8 48  C 8 25.6  25.6 8  48 8  Z " fill-rule="nonzero" fill="#3a283c" stroke="none" fill-opacity="0" />
    <path d="M 48 7  C 70.96 7  89 25.04  89 48  C 89 70.96  70.96 89  48 89  C 25.04 89  7 70.96  7 48  C 7 25.04  25.04 7  48 7  Z " stroke-width="4" stroke="#ffe56e" fill="none" />
  </g>
</svg>