<?xml version="1.0" encoding="utf-8"?>
<svg version="1.1" xmlns:xlink="http://www.w3.org/1999/xlink" width="187px" height="187px" xmlns="http://www.w3.org/2000/svg">
  <g transform="matrix(1 0 0 1 -127 -127 )">
    <path d="M 220.5 127  C 272.86 127  314 168.14  314 220.5  C 314 272.86  272.86 314  220.5 314  C 168.14 314  127 272.86  127 220.5  C 127 168.14  168.14 127  220.5 127  Z " fill-rule="nonzero" fill="#242424" stroke="none" fill-opacity="0" />
    <path d="M 220.5 127.5  C 272.58 127.5  313.5 168.42  313.5 220.5  C 313.5 272.58  272.58 313.5  220.5 313.5  C 168.42 313.5  127.5 272.58  127.5 220.5  C 127.5 168.42  168.42 127.5  220.5 127.5  Z " stroke-width="1" stroke="#555555" fill="none" />
  </g>
</svg>