<?xml version="1.0" encoding="utf-8"?>
<svg version="1.1" xmlns:xlink="http://www.w3.org/1999/xlink" width="141px" height="141px" xmlns="http://www.w3.org/2000/svg">
  <g transform="matrix(1 0 0 1 -815 -14685 )">
    <path d="M 885.5 14686  C 924.42 14686  955 14716.58  955 14755.5  C 955 14794.42  924.42 14825  885.5 14825  C 846.58 14825  816 14794.42  816 14755.5  C 816 14716.58  846.58 14686  885.5 14686  Z " fill-rule="nonzero" fill="#81d3f8" stroke="none" />
    <path d="M 885.5 14686  C 924.42 14686  955 14716.58  955 14755.5  C 955 14794.42  924.42 14825  885.5 14825  C 846.58 14825  816 14794.42  816 14755.5  C 816 14716.58  846.58 14686  885.5 14686  Z " stroke-width="2" stroke="#ffffff" fill="none" />
  </g>
</svg>