<?xml version="1.0" encoding="utf-8"?>
<svg version="1.1" xmlns:xlink="http://www.w3.org/1999/xlink" width="425px" height="425px" xmlns="http://www.w3.org/2000/svg">
  <defs>
    <mask fill="white" id="clip108">
      <path d="M 219 368.83094501253  C 300.886379139436 365.128244455719  364.662865950388 301.032183162908  367.873159057224 219  L 424.906682459509 219  C 421.635164905933 332.729261461582  332.72926548764 421.63516197271  219 424.906682301871  L 219 368.83094501253  Z M 424.933223484086 207  L 367.909229828171 207  C 365.179921942131 124.488756732273  301.218509565656 59.8867762017004  219 56.1691719772094  L 219 0.0933176999463434  C 333.062375467799 3.37442020549436  422.15575701853 92.7922782486496  424.933223484086 207  Z M 207 56.0607164685778  C 123.342250502692 58.3221185129924  57.8531862119513 123.487865149246  55.0907702223304 207  L 0.0667765242442506 207  C 2.85235500025376 92.4587449556604  92.4587398721184 2.85235887368543  207 0.0667766015592974  L 207 56.0607164685778  Z M 0.0933175681612184 219  L 55.1268222755378 219  C 58.3759834480607 302.031062198365  123.675984525631 366.686900630496  207 368.939195870857  L 207 424.933223297258  C 92.7922721592206 422.155752486075  3.37441765020196 333.062370127462  0.0933175681612184 219  Z " fill-rule="evenodd" />
    </mask>
  </defs>
  <g transform="matrix(1 0 0 1 -8 -8 )">
    <path d="M 219 368.83094501253  C 300.886379139436 365.128244455719  364.662865950388 301.032183162908  367.873159057224 219  L 424.906682459509 219  C 421.635164905933 332.729261461582  332.72926548764 421.63516197271  219 424.906682301871  L 219 368.83094501253  Z M 424.933223484086 207  L 367.909229828171 207  C 365.179921942131 124.488756732273  301.218509565656 59.8867762017004  219 56.1691719772094  L 219 0.0933176999463434  C 333.062375467799 3.37442020549436  422.15575701853 92.7922782486496  424.933223484086 207  Z M 207 56.0607164685778  C 123.342250502692 58.3221185129924  57.8531862119513 123.487865149246  55.0907702223304 207  L 0.0667765242442506 207  C 2.85235500025376 92.4587449556604  92.4587398721184 2.85235887368543  207 0.0667766015592974  L 207 56.0607164685778  Z M 0.0933175681612184 219  L 55.1268222755378 219  C 58.3759834480607 302.031062198365  123.675984525631 366.686900630496  207 368.939195870857  L 207 424.933223297258  C 92.7922721592206 422.155752486075  3.37441765020196 333.062370127462  0.0933175681612184 219  Z " fill-rule="nonzero" fill="#ffffff" stroke="none" fill-opacity="0" transform="matrix(1 0 0 1 8 8 )" />
    <path d="M 219 368.83094501253  C 300.886379139436 365.128244455719  364.662865950388 301.032183162908  367.873159057224 219  L 424.906682459509 219  C 421.635164905933 332.729261461582  332.72926548764 421.63516197271  219 424.906682301871  L 219 368.83094501253  Z " stroke-width="2" stroke="#555555" fill="none" transform="matrix(1 0 0 1 8 8 )" mask="url(#clip108)" />
    <path d="M 424.933223484086 207  L 367.909229828171 207  C 365.179921942131 124.488756732273  301.218509565656 59.8867762017004  219 56.1691719772094  L 219 0.0933176999463434  C 333.062375467799 3.37442020549436  422.15575701853 92.7922782486496  424.933223484086 207  Z " stroke-width="2" stroke="#555555" fill="none" transform="matrix(1 0 0 1 8 8 )" mask="url(#clip108)" />
    <path d="M 207 56.0607164685778  C 123.342250502692 58.3221185129924  57.8531862119513 123.487865149246  55.0907702223304 207  L 0.0667765242442506 207  C 2.85235500025376 92.4587449556604  92.4587398721184 2.85235887368543  207 0.0667766015592974  L 207 56.0607164685778  Z " stroke-width="2" stroke="#555555" fill="none" transform="matrix(1 0 0 1 8 8 )" mask="url(#clip108)" />
    <path d="M 0.0933175681612184 219  L 55.1268222755378 219  C 58.3759834480607 302.031062198365  123.675984525631 366.686900630496  207 368.939195870857  L 207 424.933223297258  C 92.7922721592206 422.155752486075  3.37441765020196 333.062370127462  0.0933175681612184 219  Z " stroke-width="2" stroke="#555555" fill="none" transform="matrix(1 0 0 1 8 8 )" mask="url(#clip108)" />
  </g>
</svg>