<?xml version="1.0" encoding="utf-8"?>
<svg version="1.1" xmlns:xlink="http://www.w3.org/1999/xlink" width="141px" height="141px" xmlns="http://www.w3.org/2000/svg">
  <g transform="matrix(1 0 0 1 -815 -14725 )">
    <path d="M 885.5 14726  C 924.42 14726  955 14756.58  955 14795.5  C 955 14834.42  924.42 14865  885.5 14865  C 846.58 14865  816 14834.42  816 14795.5  C 816 14756.58  846.58 14726  885.5 14726  Z " fill-rule="nonzero" fill="#81d3f8" stroke="none" />
    <path d="M 885.5 14726  C 924.42 14726  955 14756.58  955 14795.5  C 955 14834.42  924.42 14865  885.5 14865  C 846.58 14865  816 14834.42  816 14795.5  C 816 14756.58  846.58 14726  885.5 14726  Z " stroke-width="2" stroke="#ffffff" fill="none" />
  </g>
</svg>