<?xml version="1.0" encoding="utf-8"?>
<svg version="1.1" xmlns:xlink="http://www.w3.org/1999/xlink" width="24px" height="8px" xmlns="http://www.w3.org/2000/svg">
  <g transform="matrix(1 0 0 1 -938 -12161 )">
    <path d="M 23.7595190380762 0.824742268041237  C 23.9198396793587 0.916380297823594  24 1.02176403207331  24 1.14089347079038  C 24 1.26002290950744  23.9198396793587 1.36540664375716  23.7595190380762 1.45704467353952  L 12.5531062124248 7.86254295532646  C 12.3927855711423 7.95418098510882  12.2084168336673 8  12 8  C 11.7915831663327 8  11.6072144288577 7.95418098510882  11.4468937875751 7.86254295532646  L 0.240480961923848 1.45704467353952  C 0.0801603206412828 1.36540664375716  0 1.26002290950744  0 1.14089347079038  C 0 1.02176403207331  0.0801603206412828 0.916380297823594  0.240480961923848 0.824742268041237  L 1.44288577154309 0.13745704467354  C 1.60320641282565 0.0458190148911788  1.7875751503006 0  1.99599198396794 0  C 2.20440881763527 0  2.38877755511022 0.0458190148911788  2.54909819639279 0.13745704467354  L 12 5.53951890034364  L 21.4509018036072 0.13745704467354  C 21.6112224448898 0.0458190148911788  21.7955911823647 0  22.0040080160321 0  C 22.2124248496994 0  22.3967935871744 0.0458190148911788  22.5571142284569 0.13745704467354  L 23.7595190380762 0.824742268041237  Z " fill-rule="nonzero" fill="#f92e47" stroke="none" transform="matrix(1 0 0 1 938 12161 )" />
  </g>
</svg>