<?xml version="1.0" encoding="utf-8"?>
<svg version="1.1" xmlns:xlink="http://www.w3.org/1999/xlink" width="141px" height="141px" xmlns="http://www.w3.org/2000/svg">
  <g transform="matrix(1 0 0 1 -815 -14832 )">
    <path d="M 885.5 14833  C 924.42 14833  955 14863.58  955 14902.5  C 955 14941.42  924.42 14972  885.5 14972  C 846.58 14972  816 14941.42  816 14902.5  C 816 14863.58  846.58 14833  885.5 14833  Z " fill-rule="nonzero" fill="#81d3f8" stroke="none" />
    <path d="M 885.5 14833  C 924.42 14833  955 14863.58  955 14902.5  C 955 14941.42  924.42 14972  885.5 14972  C 846.58 14972  816 14941.42  816 14902.5  C 816 14863.58  846.58 14833  885.5 14833  Z " stroke-width="2" stroke="#ffffff" fill="none" />
  </g>
</svg>