<?xml version="1.0" encoding="utf-8"?>
<svg version="1.1" xmlns:xlink="http://www.w3.org/1999/xlink" width="30px" height="30px" xmlns="http://www.w3.org/2000/svg">
  <g transform="matrix(1 0 0 1 -2 -3 )">
    <path d="M 17 4  C 24.84 4  31 10.16  31 18  C 31 25.84  24.84 32  17 32  C 9.16 32  3 25.84  3 18  C 3 10.16  9.16 4  17 4  Z " fill-rule="nonzero" fill="#3a283c" stroke="none" fill-opacity="0" />
    <path d="M 17 4  C 24.84 4  31 10.16  31 18  C 31 25.84  24.84 32  17 32  C 9.16 32  3 25.84  3 18  C 3 10.16  9.16 4  17 4  Z " stroke-width="2" stroke="#ffe56e" fill="none" />
  </g>
</svg>