<?xml version="1.0" encoding="utf-8"?>
<svg version="1.1" xmlns:xlink="http://www.w3.org/1999/xlink" width="12px" height="15px" xmlns="http://www.w3.org/2000/svg">
  <g transform="matrix(1 0 0 1 -549 -2291 )">
    <path d="M 555 2305.07759871885  C 552.8 2301.68236844237  549.5 2299.64523027648  549.5 2296.25  C 549.5 2294.48571428571  550.6 2291.5  555 2291.5  C 559.4 2291.5  560.5 2294.48571428571  560.5 2296.25  C 560.5 2299.64523027648  557.2 2301.68236844237  555 2305.07759871885  Z " fill-rule="nonzero" fill="#008000" stroke="none" />
    <path d="M 555 2306  C 552.6 2302.25  549 2300  549 2296.25  C 549 2294.3  550.2 2291  555 2291  C 559.8 2291  561 2294.3  561 2296.25  C 561 2300  557.4 2302.25  555 2306  Z M 555 2304.15519743769  C 557 2301.11473688473  560 2299.29046055296  560 2296.25  C 560 2294.67142857143  559 2292  555 2292  C 551 2292  550 2294.67142857143  550 2296.25  C 550 2299.29046055296  553 2301.11473688473  555 2304.15519743769  Z " fill-rule="nonzero" fill="#ffffff" stroke="none" />
  </g>
</svg>