<?xml version="1.0" encoding="utf-8"?>
<svg version="1.1" xmlns:xlink="http://www.w3.org/1999/xlink" width="379px" height="445px" xmlns="http://www.w3.org/2000/svg">
  <defs>
    <mask fill="white" id="clip19">
      <path d="M 0 220  C 0 111.879130846641  72.8975883283762 23.6394221464743  173.199254977263 0.774384092226683  C 289.912506818978 10.2451773318953  379 105.474294141262  379 225  C 379 333.120869102131  306.102411740703 421.360577769907  205.800745116754 444.225615915402  C 89.0874932288647 434.754822719246  0 339.525705890832  0 220  Z M 299 220.5  C 299 179.34  266.66 147  225.5 147  C 184.34 147  152 179.34  152 220.5  C 152 261.66  184.34 294  225.5 294  C 266.66 294  299 261.66  299 220.5  Z " fill-rule="evenodd" />
    </mask>
  </defs>
  <g transform="matrix(1 0 0 1 -792 -15221 )">
    <path d="M 0 220  C 0 111.879130846641  72.8975883283762 23.6394221464743  173.199254977263 0.774384092226683  C 289.912506818978 10.2451773318953  379 105.474294141262  379 225  C 379 333.120869102131  306.102411740703 421.360577769907  205.800745116754 444.225615915402  C 89.0874932288647 434.754822719246  0 339.525705890832  0 220  Z M 299 220.5  C 299 179.34  266.66 147  225.5 147  C 184.34 147  152 179.34  152 220.5  C 152 261.66  184.34 294  225.5 294  C 266.66 294  299 261.66  299 220.5  Z " fill-rule="nonzero" fill="#009900" stroke="none" transform="matrix(1 0 0 1 792 15221 )" />
    <path d="M 0 220  C 0 111.879130846641  72.8975883283762 23.6394221464743  173.199254977263 0.774384092226683  C 289.912506818978 10.2451773318953  379 105.474294141262  379 225  C 379 333.120869102131  306.102411740703 421.360577769907  205.800745116754 444.225615915402  C 89.0874932288647 434.754822719246  0 339.525705890832  0 220  Z " stroke-width="2" stroke="#797979" fill="none" transform="matrix(1 0 0 1 792 15221 )" mask="url(#clip19)" />
    <path d="M 299 220.5  C 299 179.34  266.66 147  225.5 147  C 184.34 147  152 179.34  152 220.5  C 152 261.66  184.34 294  225.5 294  C 266.66 294  299 261.66  299 220.5  Z " stroke-width="2" stroke="#797979" fill="none" transform="matrix(1 0 0 1 792 15221 )" mask="url(#clip19)" />
  </g>
</svg>