<?xml version="1.0" encoding="utf-8"?>
<svg version="1.1" xmlns:xlink="http://www.w3.org/1999/xlink" width="147px" height="147px" xmlns="http://www.w3.org/2000/svg">
  <g transform="matrix(1 0 0 1 -943 -14356 )">
    <path d="M 1016.5 14357  C 1057.1 14357  1089 14388.9  1089 14429.5  C 1089 14470.1  1057.1 14502  1016.5 14502  C 975.9 14502  944 14470.1  944 14429.5  C 944 14388.9  975.9 14357  1016.5 14357  Z " fill-rule="nonzero" fill="#009900" stroke="none" />
    <path d="M 1016.5 14357  C 1057.1 14357  1089 14388.9  1089 14429.5  C 1089 14470.1  1057.1 14502  1016.5 14502  C 975.9 14502  944 14470.1  944 14429.5  C 944 14388.9  975.9 14357  1016.5 14357  Z " stroke-width="2" stroke="#ffffff" fill="none" />
  </g>
</svg>