<?xml version="1.0" encoding="utf-8"?>
<svg version="1.1" xmlns:xlink="http://www.w3.org/1999/xlink" width="35px" height="35px" xmlns="http://www.w3.org/2000/svg">
  <g transform="matrix(1 0 0 1 -530 -4784 )">
    <path d="M 547.5 4785  C 556.74 4785  564 4792.26  564 4801.5  C 564 4810.74  556.74 4818  547.5 4818  C 538.26 4818  531 4810.74  531 4801.5  C 531 4792.26  538.26 4785  547.5 4785  Z " fill-rule="nonzero" fill="#ff6600" stroke="none" />
    <path d="M 547.5 4785  C 556.74 4785  564 4792.26  564 4801.5  C 564 4810.74  556.74 4818  547.5 4818  C 538.26 4818  531 4810.74  531 4801.5  C 531 4792.26  538.26 4785  547.5 4785  Z " stroke-width="2" stroke="#ffffff" fill="none" />
  </g>
</svg>