<?xml version="1.0" encoding="utf-8"?>
<svg version="1.1" xmlns:xlink="http://www.w3.org/1999/xlink" width="12px" height="15px" xmlns="http://www.w3.org/2000/svg">
  <g transform="matrix(1 0 0 1 -940 -843 )">
    <path d="M 946 857.077598718845  C 943.8 853.682368442366  940.5 851.645230276479  940.5 848.25  C 940.5 846.485714285714  941.6 843.5  946 843.5  C 950.4 843.5  951.5 846.485714285714  951.5 848.25  C 951.5 851.645230276479  948.2 853.682368442366  946 857.077598718845  Z " fill-rule="nonzero" fill="#008000" stroke="none" />
    <path d="M 946 858  C 943.6 854.25  940 852  940 848.25  C 940 846.3  941.2 843  946 843  C 950.8 843  952 846.3  952 848.25  C 952 852  948.4 854.25  946 858  Z M 946 856.155197437691  C 948 853.114736884733  951 851.290460552958  951 848.25  C 951 846.671428571429  950 844  946 844  C 942 844  941 846.671428571429  941 848.25  C 941 851.290460552958  944 853.114736884733  946 856.155197437691  Z " fill-rule="nonzero" fill="#ffffff" stroke="none" />
  </g>
</svg>