<?xml version="1.0" encoding="utf-8"?>
<svg version="1.1" xmlns:xlink="http://www.w3.org/1999/xlink" width="35px" height="35px" xmlns="http://www.w3.org/2000/svg">
  <g transform="matrix(1 0 0 1 -921 -3514 )">
    <path d="M 938.5 3515  C 947.74 3515  955 3522.26  955 3531.5  C 955 3540.74  947.74 3548  938.5 3548  C 929.26 3548  922 3540.74  922 3531.5  C 922 3522.26  929.26 3515  938.5 3515  Z " fill-rule="nonzero" fill="#ff6600" stroke="none" />
    <path d="M 938.5 3515  C 947.74 3515  955 3522.26  955 3531.5  C 955 3540.74  947.74 3548  938.5 3548  C 929.26 3548  922 3540.74  922 3531.5  C 922 3522.26  929.26 3515  938.5 3515  Z " stroke-width="2" stroke="#ffffff" fill="none" />
  </g>
</svg>