<?xml version="1.0" encoding="utf-8"?>
<svg version="1.1" xmlns:xlink="http://www.w3.org/1999/xlink" width="27px" height="26px" xmlns="http://www.w3.org/2000/svg">
  <g transform="matrix(1 0 0 1 -542 -2978 )">
    <path d="M 26.7294589178357 11.9503105590061  C 26.9098196392786 12.1297446514836  27 12.336093857833  27 12.5693581780538  C 27 12.8026224982746  26.9098196392786 13.0089717046239  26.7294589178357 13.1884057971015  L 14.1222444889779 25.7308488612834  C 13.941883767535 25.910282953761  13.7344689378757 26  13.5 26  C 13.2655310621243 26  13.058116232465 25.910282953761  12.8777555110221 25.7308488612834  L 0.2705410821643 13.1884057971015  C 0.0901803607214333 13.0089717046239  0 12.8026224982746  0 12.5693581780538  C 0 12.336093857833  0.0901803607214333 12.1297446514836  0.2705410821643 11.9503105590061  L 1.62324649298603 10.6045548654242  C 1.80360721442889 10.4251207729467  2.01102204408812 10.3354037267081  2.24549098196394 10.3354037267081  C 2.47995991983964 10.3354037267081  2.68737474949899 10.4251207729467  2.86773547094185 10.6045548654242  L 13.5 21.1821946169771  L 24.1322645290581 10.6045548654242  C 24.312625250501 10.4251207729467  24.5200400801604 10.3354037267081  24.7545090180361 10.3354037267081  C 24.9889779559119 10.3354037267081  25.1963927855711 10.4251207729467  25.376753507014 10.6045548654242  L 26.7294589178357 11.9503105590061  Z M 26.7294589178357 1.61490683229795  C 26.9098196392786 1.7943409247755  27 2.00069013112488  27 2.23395445134565  C 27 2.46721877156642  26.9098196392786 2.67356797791581  26.7294589178357 2.85300207039336  L 14.1222444889779 15.3954451345758  C 13.941883767535 15.5748792270533  13.7344689378757 15.6645962732919  13.5 15.6645962732919  C 13.2655310621243 15.6645962732919  13.058116232465 15.5748792270533  12.8777555110221 15.3954451345758  L 0.2705410821643 2.85300207039336  C 0.0901803607214333 2.67356797791581  0 2.46721877156642  0 2.23395445134565  C 0 2.00069013112488  0.0901803607214333 1.7943409247755  0.2705410821643 1.61490683229795  L 1.62324649298603 0.269151138716552  C 1.80360721442889 0.0897170462390022  2.01102204408812 0  2.24549098196394 0  C 2.47995991983964 0  2.68737474949899 0.0897170462390022  2.86773547094185 0.269151138716552  L 13.5 10.8467908902689  L 24.1322645290581 0.269151138716552  C 24.312625250501 0.0897170462390022  24.5200400801604 0  24.7545090180361 0  C 24.9889779559119 0  25.1963927855711 0.0897170462390022  25.376753507014 0.269151138716552  L 26.7294589178357 1.61490683229795  Z " fill-rule="nonzero" fill="#008000" stroke="none" fill-opacity="0.509803921568627" transform="matrix(1 0 0 1 542 2978 )" />
  </g>
</svg>