<?xml version="1.0" encoding="utf-8"?>
<svg version="1.1" xmlns:xlink="http://www.w3.org/1999/xlink" width="147px" height="147px" xmlns="http://www.w3.org/2000/svg">
  <g transform="matrix(1 0 0 1 -552 -14637 )">
    <path d="M 625.5 14638  C 666.1 14638  698 14669.9  698 14710.5  C 698 14751.1  666.1 14783  625.5 14783  C 584.9 14783  553 14751.1  553 14710.5  C 553 14669.9  584.9 14638  625.5 14638  Z " fill-rule="nonzero" fill="#009900" stroke="none" />
    <path d="M 625.5 14638  C 666.1 14638  698 14669.9  698 14710.5  C 698 14751.1  666.1 14783  625.5 14783  C 584.9 14783  553 14751.1  553 14710.5  C 553 14669.9  584.9 14638  625.5 14638  Z " stroke-width="2" stroke="#ffffff" fill="none" />
  </g>
</svg>