<?xml version="1.0" encoding="utf-8"?>
<svg version="1.1" xmlns:xlink="http://www.w3.org/1999/xlink" width="163px" height="96px" xmlns="http://www.w3.org/2000/svg">
  <g transform="matrix(1 0 0 1 -439 -12482 )">
    <path d="M 85.3333333333333 26.6666666666679  C 85.3333333333333 26.6666666666679  71.3333333333333 -10  26.6666666666667 2.66666666666788  C 9.34438237148362 7.57895624291268  1.43318732523697 25.7800456327604  0.666666666666671 40.6666666666679  C -0.543337373586652 64.1661919506223  15.3629098452938 85.0341662265819  40.6666666666667 86.6666666666679  C 59.0694783395909 87.853944839113  64.5147108582636 80.4249484123429  69.3333333333333 75.3333333333321  C 75.3374988381344 68.9890098717442  78.9776138737938 64.1413459395444  89.3333333333333 59.3333333333321  C 104.520952248732 52.2819388368988  137.36141057633 70.3858405028453  149.07529328194 77.3791039010573  " stroke-width="1" stroke="#0000ff" fill="none" transform="matrix(1 0 0 1 439 12482 )" />
    <path d="M 144.897195911678 82.1264019852653  L 153.333333333333 80  L 151.620734007132 71.4702284000159  L 144.897195911678 82.1264019852653  Z " fill-rule="nonzero" fill="#0000ff" stroke="none" transform="matrix(1 0 0 1 439 12482 )" />
  </g>
</svg>