<?xml version="1.0" encoding="utf-8"?>
<svg version="1.1" xmlns:xlink="http://www.w3.org/1999/xlink" width="114px" height="114px" xmlns="http://www.w3.org/2000/svg">
  <g transform="matrix(1 0 0 1 -426 -12467 )">
    <path d="M 483 12469  C 513.8 12469  538 12493.2  538 12524  C 538 12554.8  513.8 12579  483 12579  C 452.2 12579  428 12554.8  428 12524  C 428 12493.2  452.2 12469  483 12469  Z " fill-rule="nonzero" fill="#ff6633" stroke="none" />
    <path d="M 483 12468.5  C 514.08 12468.5  538.5 12492.92  538.5 12524  C 538.5 12555.08  514.08 12579.5  483 12579.5  C 451.92 12579.5  427.5 12555.08  427.5 12524  C 427.5 12492.92  451.92 12468.5  483 12468.5  Z " stroke-width="3" stroke="#ff0000" fill="none" />
  </g>
</svg>