<?xml version="1.0" encoding="utf-8"?>
<svg version="1.1" xmlns:xlink="http://www.w3.org/1999/xlink" width="58px" height="58px" xmlns="http://www.w3.org/2000/svg">
  <g transform="matrix(1 0 0 1 -878 -6443 )">
    <path d="M 907 6443  C 923.24 6443  936 6455.76  936 6472  C 936 6488.24  923.24 6501  907 6501  C 890.76 6501  878 6488.24  878 6472  C 878 6455.76  890.76 6443  907 6443  Z " fill-rule="nonzero" fill="#ff6600" stroke="none" />
    <path d="M 907 6443.5  C 922.96 6443.5  935.5 6456.04  935.5 6472  C 935.5 6487.96  922.96 6500.5  907 6500.5  C 891.04 6500.5  878.5 6487.96  878.5 6472  C 878.5 6456.04  891.04 6443.5  907 6443.5  Z " stroke-width="1" stroke="#ff0000" fill="none" />
  </g>
</svg>