<?xml version="1.0" encoding="utf-8"?>
<svg version="1.1" xmlns:xlink="http://www.w3.org/1999/xlink" width="30px" height="28px" xmlns="http://www.w3.org/2000/svg">
  <g transform="matrix(1 0 0 1 -893 -6153 )">
    <path d="M 29.6993987975952 24.9275362318841  C 29.8997995991984 25.1207729468599  30 25.3429951690821  30 25.5942028985507  C 30 25.8454106280193  29.8997995991984 26.0676328502415  29.6993987975952 26.2608695652174  L 28.1963927855711 27.7101449275362  C 27.9959919839679 27.9033816425121  27.7655310621243 28  27.5050100200401 28  C 27.2444889779559 28  27.0140280561122 27.9033816425121  26.813627254509 27.7101449275362  L 15 16.3188405797101  L 3.18637274549098 27.7101449275362  C 2.98597194388778 27.9033816425121  2.75551102204409 28  2.49498997995992 28  C 2.23446893787575 28  2.00400801603206 27.9033816425121  1.80360721442886 27.7101449275362  L 0.30060120240481 26.2608695652174  C 0.100200400801604 26.0676328502415  0 25.8454106280193  0 25.5942028985507  C 0 25.3429951690821  0.100200400801604 25.1207729468599  0.30060120240481 24.9275362318841  L 14.3086172344689 11.4202898550725  C 14.5090180360721 11.2270531400966  14.7394789579158 11.1304347826087  15 11.1304347826087  C 15.2605210420842 11.1304347826087  15.4909819639279 11.2270531400966  15.6913827655311 11.4202898550725  L 29.6993987975952 24.9275362318841  Z M 29.6993987975952 13.7971014492754  C 29.8997995991984 13.9903381642512  30 14.2125603864734  30 14.463768115942  C 30 14.7149758454106  29.8997995991984 14.9371980676328  29.6993987975952 15.1304347826087  L 28.1963927855711 16.5797101449275  C 27.9959919839679 16.7729468599034  27.7655310621243 16.8695652173913  27.5050100200401 16.8695652173913  C 27.2444889779559 16.8695652173913  27.0140280561122 16.7729468599034  26.813627254509 16.5797101449275  L 15 5.18840579710145  L 3.18637274549098 16.5797101449275  C 2.98597194388778 16.7729468599034  2.75551102204409 16.8695652173913  2.49498997995992 16.8695652173913  C 2.23446893787575 16.8695652173913  2.00400801603206 16.7729468599034  1.80360721442886 16.5797101449275  L 0.30060120240481 15.1304347826087  C 0.100200400801604 14.9371980676328  0 14.7149758454106  0 14.463768115942  C 0 14.2125603864734  0.100200400801604 13.9903381642512  0.30060120240481 13.7971014492754  L 14.3086172344689 0.289855072463768  C 14.5090180360721 0.0966183574879205  14.7394789579158 0  15 0  C 15.2605210420842 0  15.4909819639279 0.0966183574879205  15.6913827655311 0.289855072463768  L 29.6993987975952 13.7971014492754  Z " fill-rule="nonzero" fill="#ffffff" stroke="none" transform="matrix(1 0 0 1 893 6153 )" />
  </g>
</svg>