<?xml version="1.0" encoding="utf-8"?>
<svg version="1.1" xmlns:xlink="http://www.w3.org/1999/xlink" width="58px" height="58px" xmlns="http://www.w3.org/2000/svg">
  <g transform="matrix(1 0 0 1 -878 -6137 )">
    <path d="M 907 6137  C 923.24 6137  936 6149.76  936 6166  C 936 6182.24  923.24 6195  907 6195  C 890.76 6195  878 6182.24  878 6166  C 878 6149.76  890.76 6137  907 6137  Z " fill-rule="nonzero" fill="#ff9900" stroke="none" />
    <path d="M 907 6137.5  C 922.96 6137.5  935.5 6150.04  935.5 6166  C 935.5 6181.96  922.96 6194.5  907 6194.5  C 891.04 6194.5  878.5 6181.96  878.5 6166  C 878.5 6150.04  891.04 6137.5  907 6137.5  Z " stroke-width="1" stroke="#ff0000" fill="none" />
  </g>
</svg>