<?xml version="1.0" encoding="utf-8"?>
<svg version="1.1" xmlns:xlink="http://www.w3.org/1999/xlink" width="58px" height="58px" xmlns="http://www.w3.org/2000/svg">
  <g transform="matrix(1 0 0 1 -614 -3807 )">
    <path d="M 643 3807  C 659.24 3807  672 3819.76  672 3836  C 672 3852.24  659.24 3865  643 3865  C 626.76 3865  614 3852.24  614 3836  C 614 3819.76  626.76 3807  643 3807  Z " fill-rule="nonzero" fill="#ffffff" stroke="none" fill-opacity="0" />
    <path d="M 643 3807.5  C 658.96 3807.5  671.5 3820.04  671.5 3836  C 671.5 3851.96  658.96 3864.5  643 3864.5  C 627.04 3864.5  614.5 3851.96  614.5 3836  C 614.5 3820.04  627.04 3807.5  643 3807.5  Z " stroke-width="1" stroke="#ff0000" fill="none" />
  </g>
</svg>