<?xml version="1.0" encoding="utf-8"?>
<svg version="1.1" xmlns:xlink="http://www.w3.org/1999/xlink" width="88px" height="88px" xmlns="http://www.w3.org/2000/svg">
  <g transform="matrix(1 0 0 1 -977 -1958 )">
    <path d="M 1021 1958  C 1045.64 1958  1065 1977.36  1065 2002  C 1065 2026.64  1045.64 2046  1021 2046  C 996.36 2046  977 2026.64  977 2002  C 977 1977.36  996.36 1958  1021 1958  Z " fill-rule="nonzero" fill="#ff9900" stroke="none" />
    <path d="M 1021 1958.5  C 1045.36 1958.5  1064.5 1977.64  1064.5 2002  C 1064.5 2026.36  1045.36 2045.5  1021 2045.5  C 996.64 2045.5  977.5 2026.36  977.5 2002  C 977.5 1977.64  996.64 1958.5  1021 1958.5  Z " stroke-width="1" stroke="#ff0000" fill="none" />
  </g>
</svg>