<?xml version="1.0" encoding="utf-8"?>
<svg version="1.1" xmlns:xlink="http://www.w3.org/1999/xlink" width="46px" height="42px" xmlns="http://www.w3.org/2000/svg">
  <g transform="matrix(1 0 0 1 -997 -1982 )">
    <path d="M 45.5390781563126 37.3913043478261  C 45.8463593854375 37.6811594202899  46 38.0144927536232  46 38.3913043478261  C 46 38.768115942029  45.8463593854375 39.1014492753623  45.5390781563126 39.3913043478261  L 43.2344689378758 41.5652173913044  C 42.9271877087508 41.8550724637681  42.5738142952572 42  42.1743486973948 42  C 41.7748830995324 42  41.4215096860387 41.8550724637681  41.1142284569138 41.5652173913044  L 23 24.4782608695652  L 4.88577154308617 41.5652173913044  C 4.57849031396126 41.8550724637681  4.2251169004676 42  3.82565130260521 42  C 3.42618570474282 42  3.07281229124917 41.8550724637681  2.76553106212425 41.5652173913044  L 0.460921843687375 39.3913043478261  C 0.153640614562459 39.1014492753623  0 38.768115942029  0 38.3913043478261  C 0 38.0144927536232  0.153640614562459 37.6811594202899  0.460921843687375 37.3913043478261  L 21.939879759519 17.1304347826087  C 22.247160988644 16.8405797101449  22.6005344021376 16.695652173913  23 16.695652173913  C 23.3994655978624 16.695652173913  23.752839011356 16.8405797101449  24.060120240481 17.1304347826087  L 45.5390781563126 37.3913043478261  Z M 45.5390781563126 20.695652173913  C 45.8463593854375 20.9855072463768  46 21.3188405797101  46 21.695652173913  C 46 22.0724637681159  45.8463593854375 22.4057971014493  45.5390781563126 22.695652173913  L 43.2344689378758 24.8695652173913  C 42.9271877087508 25.1594202898551  42.5738142952572 25.304347826087  42.1743486973948 25.304347826087  C 41.7748830995324 25.304347826087  41.4215096860387 25.1594202898551  41.1142284569138 24.8695652173913  L 23 7.78260869565217  L 4.88577154308617 24.8695652173913  C 4.57849031396126 25.1594202898551  4.2251169004676 25.304347826087  3.82565130260521 25.304347826087  C 3.42618570474282 25.304347826087  3.07281229124917 25.1594202898551  2.76553106212425 24.8695652173913  L 0.460921843687375 22.695652173913  C 0.153640614562459 22.4057971014493  0 22.0724637681159  0 21.695652173913  C 0 21.3188405797101  0.153640614562459 20.9855072463768  0.460921843687375 20.695652173913  L 21.939879759519 0.434782608695651  C 22.247160988644 0.144927536231881  22.6005344021376 0  23 0  C 23.3994655978624 0  23.752839011356 0.144927536231881  24.060120240481 0.434782608695651  L 45.5390781563126 20.695652173913  Z " fill-rule="nonzero" fill="#ffffff" stroke="none" transform="matrix(1 0 0 1 997 1982 )" />
  </g>
</svg>