<?xml version="1.0" encoding="utf-8"?>
<svg version="1.1" xmlns:xlink="http://www.w3.org/1999/xlink" width="24px" height="24px" xmlns="http://www.w3.org/2000/svg">
  <g transform="matrix(1 0 0 1 -1169 -35 )">
    <path d="M 24 21.5742857142857  L 18.5509096143464 16.1251953289269  C 17.9381426824691 17.1088699554874  17.1088699554879 17.9381426824685  16.1251953288291 18.5509096145434  L 21.5742857142858 24  L 24 21.5742857142857  Z M 16.1251953289269 5.44909038565351  C 17.1088699554873 6.06185731753098  17.9381426824685 6.89113004451208  18.5509096145433 7.87480467117089  L 24 2.42571428571428  L 21.5742857142858 0  L 16.1251953289269 5.44909038565351  Z M 5.44909038565356 7.87480467107307  C 6.06185731753112 6.89113004451263  6.89113004451214 6.0618573175315  7.87480467117094 5.44909038545659  L 2.42571428571422 0  L 0 2.42571428571428  L 5.44909038565356 7.87480467107307  Z M 7.87480467107311 18.5509096143465  C 6.89113004451273 17.938142682469  6.06185731753151 17.108869955488  5.44909038545653 16.1251953288292  L 0 21.5742857142857  L 2.42571428571422 24  L 7.87480467107311 18.5509096143465  Z " fill-rule="nonzero" fill="#7f7f7f" stroke="none" transform="matrix(1 0 0 1 1169 35 )" />
  </g>
</svg>