<?xml version="1.0" encoding="utf-8"?>
<svg version="1.1" xmlns:xlink="http://www.w3.org/1999/xlink" width="107px" height="107px" xmlns="http://www.w3.org/2000/svg">
  <g transform="matrix(1 0 0 1 -897 -6567 )">
    <path d="M 950.5 6569  C 979.34 6569  1002 6591.66  1002 6620.5  C 1002 6649.34  979.34 6672  950.5 6672  C 921.66 6672  899 6649.34  899 6620.5  C 899 6591.66  921.66 6569  950.5 6569  Z " fill-rule="nonzero" fill="#81d3f8" stroke="none" />
    <path d="M 950.5 6568.5  C 979.62 6568.5  1002.5 6591.38  1002.5 6620.5  C 1002.5 6649.62  979.62 6672.5  950.5 6672.5  C 921.38 6672.5  898.5 6649.62  898.5 6620.5  C 898.5 6591.38  921.38 6568.5  950.5 6568.5  Z " stroke-width="3" stroke="#80ffff" fill="none" />
  </g>
</svg>