<?xml version="1.0" encoding="utf-8"?>
<svg version="1.1" xmlns:xlink="http://www.w3.org/1999/xlink" width="58px" height="58px" xmlns="http://www.w3.org/2000/svg">
  <g transform="matrix(1 0 0 1 -235 -117 )">
    <path d="M 264 117  C 280.24 117  293 129.76  293 146  C 293 162.24  280.24 175  264 175  C 247.76 175  235 162.24  235 146  C 235 129.76  247.76 117  264 117  Z " fill-rule="nonzero" fill="#ffffff" stroke="none" fill-opacity="0" />
    <path d="M 264 117.5  C 279.96 117.5  292.5 130.04  292.5 146  C 292.5 161.96  279.96 174.5  264 174.5  C 248.04 174.5  235.5 161.96  235.5 146  C 235.5 130.04  248.04 117.5  264 117.5  Z " stroke-width="1" stroke="#555555" fill="none" />
  </g>
</svg>