<?xml version="1.0" encoding="utf-8"?>
<svg version="1.1" xmlns:xlink="http://www.w3.org/1999/xlink" width="258px" height="256px" xmlns="http://www.w3.org/2000/svg">
  <defs>
    <mask fill="white" id="clip113">
      <path d="M 257.494596411124 1.00344715302698  C 255.302048777856 1.31252057707622  257.92178276748 255.006155829703  257.92178276748 255.006155829703  L 0.151712488533523 254.682644657034  C 0.150156177010917 254.308440969833  0.14937727112906 253.934023175303  0.149377271128809 253.559392774925  C 0.149377271129002 112.102518650451  111.201551184172 0.957831838361898  252.540681618955 0.957831838362864  C 254.196185092764 0.95783183836275  255.847533375525 0.973080231098976  257.494596411124 1.00344715302698  Z " fill-rule="evenodd" />
    </mask>
  </defs>
  <g transform="matrix(1 0 0 1 -702 -4630 )">
    <path d="M 257.494596411124 1.00344715302698  C 255.302048777856 1.31252057707622  257.92178276748 255.006155829703  257.92178276748 255.006155829703  L 0.151712488533523 254.682644657034  C 0.150156177010917 254.308440969833  0.14937727112906 253.934023175303  0.149377271128809 253.559392774925  C 0.149377271129002 112.102518650451  111.201551184172 0.957831838361898  252.540681618955 0.957831838362864  C 254.196185092764 0.95783183836275  255.847533375525 0.973080231098976  257.494596411124 1.00344715302698  Z " fill-rule="nonzero" fill="#f59a23" stroke="none" transform="matrix(1 0 0 1 702 4630 )" />
    <path d="M 257.494596411124 1.00344715302698  C 255.302048777856 1.31252057707622  257.92178276748 255.006155829703  257.92178276748 255.006155829703  L 0.151712488533523 254.682644657034  C 0.150156177010917 254.308440969833  0.14937727112906 253.934023175303  0.149377271128809 253.559392774925  C 0.149377271129002 112.102518650451  111.201551184172 0.957831838361898  252.540681618955 0.957831838362864  C 254.196185092764 0.95783183836275  255.847533375525 0.973080231098976  257.494596411124 1.00344715302698  Z " stroke-width="8" stroke="#b8741a" fill="none" transform="matrix(1 0 0 1 702 4630 )" mask="url(#clip113)" />
  </g>
</svg>