<?xml version="1.0" encoding="utf-8"?>
<svg version="1.1" xmlns:xlink="http://www.w3.org/1999/xlink" width="117px" height="145px" xmlns="http://www.w3.org/2000/svg">
  <g transform="matrix(1 0 0 1 -269 -246 )">
    <path d="M 30.4334277620397 143.518413597734  C 30.4334277620397 143.518413597734  19.3852691218131 136.436260623229  26.4674220963173 128.220963172805  C 33.5495750708216 120.00566572238  37.5155807365439 115.473087818697  37.5155807365439 115.473087818697  C 37.5155807365439 115.473087818697  40.6317280453258 108.390934844193  35.5325779036828 103.008498583569  C 30.4334277620397 97.6260623229462  8.66990291262135 89.1132686084143  2.52103559870551 66.4595469255664  C -3.62783171521033 43.8058252427185  9.31715210355992 21.7993527508091  16.1132686084143 17.2686084142395  C 22.9093851132686 12.7378640776699  40.8705501618123 -8.13592233009712  76.7928802588997 5.13268608414239  C 112.715210355987 18.4012944983819  105.757281553398 65.326860841424  105.757281553398 65.326860841424  L 115.466019417476 64.032362459547  " stroke-width="1" stroke="#555555" fill="none" transform="matrix(1 0 0 1 269 246 )" />
  </g>
</svg>