<?xml version="1.0" encoding="utf-8"?>
<svg version="1.1" xmlns:xlink="http://www.w3.org/1999/xlink" width="198px" height="236px" xmlns="http://www.w3.org/2000/svg">
  <defs>
    <mask fill="white" id="clip676">
      <path d="M 163.5 155  C 152.877394227424 155  143.506338514736 150.410983113741  137.221853107315 143.067969866885  C 122.741863031119 156.13192833874  110.647058934608 164  89.2032085561497 164  C 88.6697904966003 164  88.0267379679144 164  88.0267379679144 164  C 88.0267379679144 164  82.2513368983957 155.577540106952  72.4117647058824 153.866310160428  C 69.2018617308655 153.308066164773  53.6951871657754 155.149732620321  45.7807486631016 162.850267379679  C 37.8663101604278 170.550802139037  28.24064171123 188.304812834225  45.7807486631016 218.893048128342  C 46.1005960329698 219.450830736771  46.6671435313948 220.508531618754  46.6671435313948 220.508531618754  C 46.6671435313948 220.508531618754  35.8315431391551 236.400228828632  35.2 235.9  C 32.7374458417264 233.949475157496  26.8 232.6  13.7 233.5  C 13.4710356463222 233.515730375444  13.2453304239071 233.528320401277  13.0228785200831 233.537783997022  L 1.9 217.6  C 1.9 217.6  1.52485831387334 216.501541608389  2.51242915693667 215.950770804194  C 3.5 215.4  11.6 214.7  17 200.7  C 19.1612736924901 195.096697834285  14.1138467704055 188.296813726304  13.0228785200831 181.1  C 11.3880334815973 170.315382565095  12.9983975974785 159.052758674449  15.9 152.9  C 25.0891370140096 133.414717514532  48.6798236776525 132.886629356177  48.6798236776525 132.886629356177  C 48.6798236776525 132.886629356177  47.8960071724923 132.396685233909  47.4919786096257 132.155080213904  C 26.2085561497326 119.427807486631  23.3208556149733 94.6149732620321  23.3208556149733 94.6149732620321  C 23.3208556149733 94.6149732620321  16.3333333333333 99.463458110517  13.1604278074866 101.887700534759  C 9.88057040998216 102.885918003565  3.96256684491979 104.882352941176  3.96256684491979 104.882352941176  C 3.96256684491979 104.882352941176  3.12537446080391 104.838764483924  3 104.347593582888  C 1.29791719874218 97.6794608725193  0 89.2645647808534  0 82  C 0 36.08  36.08 0  82 0  C 127.92 0  164 36.08  164 82  C 164 83.342718825751  163.969151579929 84.677024446028  163.908110869642 86.0022608476332  C 183.033343013209 86.2143038032269  198 101.316244130687  198 120.5  C 198 139.82  182.82 155  163.5 155  Z " fill-rule="evenodd" />
    </mask>
  </defs>
  <g transform="matrix(1 0 0 1 -57 -101 )">
    <path d="M 163.5 155  C 152.877394227424 155  143.506338514736 150.410983113741  137.221853107315 143.067969866885  C 122.741863031119 156.13192833874  110.647058934608 164  89.2032085561497 164  C 88.6697904966003 164  88.0267379679144 164  88.0267379679144 164  C 88.0267379679144 164  82.2513368983957 155.577540106952  72.4117647058824 153.866310160428  C 69.2018617308655 153.308066164773  53.6951871657754 155.149732620321  45.7807486631016 162.850267379679  C 37.8663101604278 170.550802139037  28.24064171123 188.304812834225  45.7807486631016 218.893048128342  C 46.1005960329698 219.450830736771  46.6671435313948 220.508531618754  46.6671435313948 220.508531618754  C 46.6671435313948 220.508531618754  35.8315431391551 236.400228828632  35.2 235.9  C 32.7374458417264 233.949475157496  26.8 232.6  13.7 233.5  C 13.4710356463222 233.515730375444  13.2453304239071 233.528320401277  13.0228785200831 233.537783997022  L 1.9 217.6  C 1.9 217.6  1.52485831387334 216.501541608389  2.51242915693667 215.950770804194  C 3.5 215.4  11.6 214.7  17 200.7  C 19.1612736924901 195.096697834285  14.1138467704055 188.296813726304  13.0228785200831 181.1  C 11.3880334815973 170.315382565095  12.9983975974785 159.052758674449  15.9 152.9  C 25.0891370140096 133.414717514532  48.6798236776525 132.886629356177  48.6798236776525 132.886629356177  C 48.6798236776525 132.886629356177  47.8960071724923 132.396685233909  47.4919786096257 132.155080213904  C 26.2085561497326 119.427807486631  23.3208556149733 94.6149732620321  23.3208556149733 94.6149732620321  C 23.3208556149733 94.6149732620321  16.3333333333333 99.463458110517  13.1604278074866 101.887700534759  C 9.88057040998216 102.885918003565  3.96256684491979 104.882352941176  3.96256684491979 104.882352941176  C 3.96256684491979 104.882352941176  3.12537446080391 104.838764483924  3 104.347593582888  C 1.29791719874218 97.6794608725193  0 89.2645647808534  0 82  C 0 36.08  36.08 0  82 0  C 127.92 0  164 36.08  164 82  C 164 83.342718825751  163.969151579929 84.677024446028  163.908110869642 86.0022608476332  C 183.033343013209 86.2143038032269  198 101.316244130687  198 120.5  C 198 139.82  182.82 155  163.5 155  Z " fill-rule="nonzero" fill="#ffffff" stroke="none" fill-opacity="0" transform="matrix(1 0 0 1 57 101 )" />
    <path d="M 163.5 155  C 152.877394227424 155  143.506338514736 150.410983113741  137.221853107315 143.067969866885  C 122.741863031119 156.13192833874  110.647058934608 164  89.2032085561497 164  C 88.6697904966003 164  88.0267379679144 164  88.0267379679144 164  C 88.0267379679144 164  82.2513368983957 155.577540106952  72.4117647058824 153.866310160428  C 69.2018617308655 153.308066164773  53.6951871657754 155.149732620321  45.7807486631016 162.850267379679  C 37.8663101604278 170.550802139037  28.24064171123 188.304812834225  45.7807486631016 218.893048128342  C 46.1005960329698 219.450830736771  46.6671435313948 220.508531618754  46.6671435313948 220.508531618754  C 46.6671435313948 220.508531618754  35.8315431391551 236.400228828632  35.2 235.9  C 32.7374458417264 233.949475157496  26.8 232.6  13.7 233.5  C 13.4710356463222 233.515730375444  13.2453304239071 233.528320401277  13.0228785200831 233.537783997022  L 1.9 217.6  C 1.9 217.6  1.52485831387334 216.501541608389  2.51242915693667 215.950770804194  C 3.5 215.4  11.6 214.7  17 200.7  C 19.1612736924901 195.096697834285  14.1138467704055 188.296813726304  13.0228785200831 181.1  C 11.3880334815973 170.315382565095  12.9983975974785 159.052758674449  15.9 152.9  C 25.0891370140096 133.414717514532  48.6798236776525 132.886629356177  48.6798236776525 132.886629356177  C 48.6798236776525 132.886629356177  47.8960071724923 132.396685233909  47.4919786096257 132.155080213904  C 26.2085561497326 119.427807486631  23.3208556149733 94.6149732620321  23.3208556149733 94.6149732620321  C 23.3208556149733 94.6149732620321  16.3333333333333 99.463458110517  13.1604278074866 101.887700534759  C 9.88057040998216 102.885918003565  3.96256684491979 104.882352941176  3.96256684491979 104.882352941176  C 3.96256684491979 104.882352941176  3.12537446080391 104.838764483924  3 104.347593582888  C 1.29791719874218 97.6794608725193  0 89.2645647808534  0 82  C 0 36.08  36.08 0  82 0  C 127.92 0  164 36.08  164 82  C 164 83.342718825751  163.969151579929 84.677024446028  163.908110869642 86.0022608476332  C 183.033343013209 86.2143038032269  198 101.316244130687  198 120.5  C 198 139.82  182.82 155  163.5 155  Z " stroke-width="2" stroke="#555555" fill="none" transform="matrix(1 0 0 1 57 101 )" mask="url(#clip676)" />
  </g>
</svg>