<?xml version="1.0" encoding="utf-8"?>
<svg version="1.1" xmlns:xlink="http://www.w3.org/1999/xlink" width="252px" height="250px" xmlns="http://www.w3.org/2000/svg">
  <defs>
    <mask fill="white" id="clip678">
      <path d="M 251.731677661978 0.633667442438035  C 249.590119508553 0.936801168094317  247.988622377232 249.437152251796  247.988622377232 249.437152251796  L 0.373511970146549 249.437719416536  C 0.371991851915656 249.07070708539  0.371231060123361 248.703484761577  0.371231060123445 248.336053917725  C 0.371231060123242 109.597663824846  108.840796277514 0.588928751870013  246.892970190557 0.58892875187011  C 248.50997358358 0.588928751870457  250.122918417904 0.603884104678321  251.731677661978 0.633667442438035  Z " fill-rule="evenodd" />
    </mask>
  </defs>
  <g transform="matrix(1 0 0 1 -826 -7408 )">
    <path d="M 251.731677661978 0.633667442438035  C 249.590119508553 0.936801168094317  247.988622377232 249.437152251796  247.988622377232 249.437152251796  L 0.373511970146549 249.437719416536  C 0.371991851915656 249.07070708539  0.371231060123361 248.703484761577  0.371231060123445 248.336053917725  C 0.371231060123242 109.597663824846  108.840796277514 0.588928751870013  246.892970190557 0.58892875187011  C 248.50997358358 0.588928751870457  250.122918417904 0.603884104678321  251.731677661978 0.633667442438035  Z " fill-rule="nonzero" fill="#81d3f8" stroke="none" transform="matrix(1 0 0 1 826 7408 )" />
    <path d="M 251.731677661978 0.633667442438035  C 249.590119508553 0.936801168094317  247.988622377232 249.437152251796  247.988622377232 249.437152251796  L 0.373511970146549 249.437719416536  C 0.371991851915656 249.07070708539  0.371231060123361 248.703484761577  0.371231060123445 248.336053917725  C 0.371231060123242 109.597663824846  108.840796277514 0.588928751870013  246.892970190557 0.58892875187011  C 248.50997358358 0.588928751870457  250.122918417904 0.603884104678321  251.731677661978 0.633667442438035  Z " stroke-width="6" stroke="#80ffff" fill="none" transform="matrix(1 0 0 1 826 7408 )" mask="url(#clip678)" />
  </g>
</svg>