<?xml version="1.0" encoding="utf-8"?>
<svg version="1.1" xmlns:xlink="http://www.w3.org/1999/xlink" width="6px" height="6px" xmlns="http://www.w3.org/2000/svg">
  <g transform="matrix(1 0 0 1 -103 -47 )">
    <path d="M 106 47  C 107.68 47  109 48.32  109 50  C 109 51.68  107.68 53  106 53  C 104.32 53  103 51.68  103 50  C 103 48.32  104.32 47  106 47  Z " fill-rule="nonzero" fill="#ffffff" stroke="none" fill-opacity="0" />
    <path d="M 106 47.5  C 107.4 47.5  108.5 48.6  108.5 50  C 108.5 51.4  107.4 52.5  106 52.5  C 104.6 52.5  103.5 51.4  103.5 50  C 103.5 48.6  104.6 47.5  106 47.5  Z " stroke-width="1" stroke="#555555" fill="none" />
  </g>
</svg>