<?xml version="1.0" encoding="utf-8"?>
<svg version="1.1" xmlns:xlink="http://www.w3.org/1999/xlink" width="25px" height="25px" xmlns="http://www.w3.org/2000/svg">
  <g transform="matrix(1 0 0 1 -207 -7 )">
    <path d="M 219.5 7  C 226.5 7  232 12.5  232 19.5  C 232 26.5  226.5 32  219.5 32  C 212.5 32  207 26.5  207 19.5  C 207 12.5  212.5 7  219.5 7  Z " fill-rule="nonzero" fill="#ffffff" stroke="none" fill-opacity="0" />
    <path d="M 219.5 7.5  C 226.22 7.5  231.5 12.78  231.5 19.5  C 231.5 26.22  226.22 31.5  219.5 31.5  C 212.78 31.5  207.5 26.22  207.5 19.5  C 207.5 12.78  212.78 7.5  219.5 7.5  Z " stroke-width="1" stroke="#555555" fill="none" />
  </g>
</svg>