<?xml version="1.0" encoding="utf-8"?>
<svg version="1.1" xmlns:xlink="http://www.w3.org/1999/xlink" width="80px" height="80px" xmlns="http://www.w3.org/2000/svg">
  <g transform="matrix(1 0 0 1 -223 -105 )">
    <path d="M 263 105  C 285.4 105  303 122.6  303 145  C 303 167.4  285.4 185  263 185  C 240.6 185  223 167.4  223 145  C 223 122.6  240.6 105  263 105  Z " fill-rule="nonzero" fill="#ffffff" stroke="none" fill-opacity="0" />
    <path d="M 263 105.5  C 285.12 105.5  302.5 122.88  302.5 145  C 302.5 167.12  285.12 184.5  263 184.5  C 240.88 184.5  223.5 167.12  223.5 145  C 223.5 122.88  240.88 105.5  263 105.5  Z " stroke-width="1" stroke="#555555" fill="none" />
  </g>
</svg>