<?xml version="1.0" encoding="utf-8"?>
<svg version="1.1" xmlns:xlink="http://www.w3.org/1999/xlink" width="120px" height="120px" xmlns="http://www.w3.org/2000/svg">
  <g transform="matrix(1 0 0 1 -79 -124 )">
    <path d="M 139 124  C 172.6 124  199 150.4  199 184  C 199 217.6  172.6 244  139 244  C 105.4 244  79 217.6  79 184  C 79 150.4  105.4 124  139 124  Z " fill-rule="nonzero" fill="#ffffff" stroke="none" fill-opacity="0" />
    <path d="M 139 124.5  C 172.32 124.5  198.5 150.68  198.5 184  C 198.5 217.32  172.32 243.5  139 243.5  C 105.68 243.5  79.5 217.32  79.5 184  C 79.5 150.68  105.68 124.5  139 124.5  Z " stroke-width="1" stroke="#555555" fill="none" />
  </g>
</svg>