<?xml version="1.0" encoding="utf-8"?>
<svg version="1.1" xmlns:xlink="http://www.w3.org/1999/xlink" width="373px" height="373px" xmlns="http://www.w3.org/2000/svg">
  <defs>
    <mask fill="white" id="clip217">
      <path d="M 46 300  C 42.9620839064017 300  40.0459429824692 300.446508955442  37.3123211880132 301.278774370767  C 18.1188369738354 276.181107989882  5.20693122491103 245.915932781663  0.736951270683562 212.643596011594  C 9.88645058488153 207.814795343757  16 198.241063501213  16 187  C 16 175.708505859714  9.83147326213342 166.099337193391  0.613627481387091 161.291698522034  C 4.93990595631887 127.850710787082  17.7855776182341 97.4168635167806  36.9683377695927 72.1724613948656  C 39.2133737444113 72.7137607109543  41.5676542418812 73  44 73  C 60.24 73  73 60.24  73 44  C 73 41.5676542418812  72.7137607109543 39.2133737444113  72.1724614046875 36.9683377864896  C 97.4513205087861 17.7593943840629  127.93380095549 4.90485072713643  161.42864972969 0.595959825589972  C 166.521311592365 8.7051213954379  175.53862689556 14  186 14  C 196.511587674533 14  205.565221327611 8.65416858799513  210.644413023229 0.478993698772577  C 244.133260468627 4.62257671468181  274.640868679203 17.3007132399215  299.987982700193 36.3341482485656  C 299.342958081963 38.768637112894  299 41.3375515452703  299 44  C 299 60.24  311.76 73  328 73  C 330.736316243758 73  333.373836394283 72.6377476581439  335.868170259784 71.9576338773267  C 354.990642011274 97.0462882889929  367.845468463624 127.278674526285  372.282966778974 160.505109750307  C 364.242215463595 165.61125829923  359 174.590781586397  359 185  C 359 195.55986325547  364.395046761596 204.648350121413  372.633821161341 209.714141475697  C 368.622468016241 243.475774013956  355.94494309968 274.237750949369  336.823228484481 299.778090067941  C 334.641052363633 299.268822437813  332.357183786973 299  330 299  C 313.76 299  301 311.76  301 328  C 301 330.503755251452  301.303292988876 332.92479423321  301.875872172265 335.2291101682  C 276.765473666858 354.595491670567  246.430967289236 367.649803709166  213.057396629543 372.207002552789  C 208.065803745039 363.646171385303  198.802834334152 358  188 358  C 177.046172974697 358  167.675557505959 363.805109040741  162.735804849079 372.567668341929  C 129.462076335065 368.517619182332  99.1193260539398 356.045504431212  73.8407724072829 337.284543950754  C 74.5961751276254 334.667994706209  75 331.889064381156  75 329  C 75 312.76  62.24 300  46 300  Z " fill-rule="evenodd" />
    </mask>
  </defs>
  <g transform="matrix(1 0 0 1 -33 -34 )">
    <path d="M 46 300  C 42.9620839064017 300  40.0459429824692 300.446508955442  37.3123211880132 301.278774370767  C 18.1188369738354 276.181107989882  5.20693122491103 245.915932781663  0.736951270683562 212.643596011594  C 9.88645058488153 207.814795343757  16 198.241063501213  16 187  C 16 175.708505859714  9.83147326213342 166.099337193391  0.613627481387091 161.291698522034  C 4.93990595631887 127.850710787082  17.7855776182341 97.4168635167806  36.9683377695927 72.1724613948656  C 39.2133737444113 72.7137607109543  41.5676542418812 73  44 73  C 60.24 73  73 60.24  73 44  C 73 41.5676542418812  72.7137607109543 39.2133737444113  72.1724614046875 36.9683377864896  C 97.4513205087861 17.7593943840629  127.93380095549 4.90485072713643  161.42864972969 0.595959825589972  C 166.521311592365 8.7051213954379  175.53862689556 14  186 14  C 196.511587674533 14  205.565221327611 8.65416858799513  210.644413023229 0.478993698772577  C 244.133260468627 4.62257671468181  274.640868679203 17.3007132399215  299.987982700193 36.3341482485656  C 299.342958081963 38.768637112894  299 41.3375515452703  299 44  C 299 60.24  311.76 73  328 73  C 330.736316243758 73  333.373836394283 72.6377476581439  335.868170259784 71.9576338773267  C 354.990642011274 97.0462882889929  367.845468463624 127.278674526285  372.282966778974 160.505109750307  C 364.242215463595 165.61125829923  359 174.590781586397  359 185  C 359 195.55986325547  364.395046761596 204.648350121413  372.633821161341 209.714141475697  C 368.622468016241 243.475774013956  355.94494309968 274.237750949369  336.823228484481 299.778090067941  C 334.641052363633 299.268822437813  332.357183786973 299  330 299  C 313.76 299  301 311.76  301 328  C 301 330.503755251452  301.303292988876 332.92479423321  301.875872172265 335.2291101682  C 276.765473666858 354.595491670567  246.430967289236 367.649803709166  213.057396629543 372.207002552789  C 208.065803745039 363.646171385303  198.802834334152 358  188 358  C 177.046172974697 358  167.675557505959 363.805109040741  162.735804849079 372.567668341929  C 129.462076335065 368.517619182332  99.1193260539398 356.045504431212  73.8407724072829 337.284543950754  C 74.5961751276254 334.667994706209  75 331.889064381156  75 329  C 75 312.76  62.24 300  46 300  Z " fill-rule="nonzero" fill="#ffffff" stroke="none" fill-opacity="0" transform="matrix(1 0 0 1 33 34 )" />
    <path d="M 46 300  C 42.9620839064017 300  40.0459429824692 300.446508955442  37.3123211880132 301.278774370767  C 18.1188369738354 276.181107989882  5.20693122491103 245.915932781663  0.736951270683562 212.643596011594  C 9.88645058488153 207.814795343757  16 198.241063501213  16 187  C 16 175.708505859714  9.83147326213342 166.099337193391  0.613627481387091 161.291698522034  C 4.93990595631887 127.850710787082  17.7855776182341 97.4168635167806  36.9683377695927 72.1724613948656  C 39.2133737444113 72.7137607109543  41.5676542418812 73  44 73  C 60.24 73  73 60.24  73 44  C 73 41.5676542418812  72.7137607109543 39.2133737444113  72.1724614046875 36.9683377864896  C 97.4513205087861 17.7593943840629  127.93380095549 4.90485072713643  161.42864972969 0.595959825589972  C 166.521311592365 8.7051213954379  175.53862689556 14  186 14  C 196.511587674533 14  205.565221327611 8.65416858799513  210.644413023229 0.478993698772577  C 244.133260468627 4.62257671468181  274.640868679203 17.3007132399215  299.987982700193 36.3341482485656  C 299.342958081963 38.768637112894  299 41.3375515452703  299 44  C 299 60.24  311.76 73  328 73  C 330.736316243758 73  333.373836394283 72.6377476581439  335.868170259784 71.9576338773267  C 354.990642011274 97.0462882889929  367.845468463624 127.278674526285  372.282966778974 160.505109750307  C 364.242215463595 165.61125829923  359 174.590781586397  359 185  C 359 195.55986325547  364.395046761596 204.648350121413  372.633821161341 209.714141475697  C 368.622468016241 243.475774013956  355.94494309968 274.237750949369  336.823228484481 299.778090067941  C 334.641052363633 299.268822437813  332.357183786973 299  330 299  C 313.76 299  301 311.76  301 328  C 301 330.503755251452  301.303292988876 332.92479423321  301.875872172265 335.2291101682  C 276.765473666858 354.595491670567  246.430967289236 367.649803709166  213.057396629543 372.207002552789  C 208.065803745039 363.646171385303  198.802834334152 358  188 358  C 177.046172974697 358  167.675557505959 363.805109040741  162.735804849079 372.567668341929  C 129.462076335065 368.517619182332  99.1193260539398 356.045504431212  73.8407724072829 337.284543950754  C 74.5961751276254 334.667994706209  75 331.889064381156  75 329  C 75 312.76  62.24 300  46 300  Z " stroke-width="2" stroke="#555555" fill="none" transform="matrix(1 0 0 1 33 34 )" mask="url(#clip217)" />
  </g>
</svg>