<?xml version="1.0" encoding="utf-8"?>
<svg version="1.1" xmlns:xlink="http://www.w3.org/1999/xlink" width="47px" height="47px" xmlns="http://www.w3.org/2000/svg">
  <g transform="matrix(1 0 0 1 -197 -197 )">
    <path d="M 220.5 197  C 233.66 197  244 207.34  244 220.5  C 244 233.66  233.66 244  220.5 244  C 207.34 244  197 233.66  197 220.5  C 197 207.34  207.34 197  220.5 197  Z " fill-rule="nonzero" fill="#ffffff" stroke="none" fill-opacity="0" />
    <path d="M 220.5 197.5  C 233.38 197.5  243.5 207.62  243.5 220.5  C 243.5 233.38  233.38 243.5  220.5 243.5  C 207.62 243.5  197.5 233.38  197.5 220.5  C 197.5 207.62  207.62 197.5  220.5 197.5  Z " stroke-width="1" stroke="#555555" fill="none" />
  </g>
</svg>