<?xml version="1.0" encoding="utf-8"?>
<svg version="1.1" xmlns:xlink="http://www.w3.org/1999/xlink" width="107px" height="107px" xmlns="http://www.w3.org/2000/svg">
  <g transform="matrix(1 0 0 1 -897 -6587 )">
    <path d="M 950.5 6589  C 979.34 6589  1002 6611.66  1002 6640.5  C 1002 6669.34  979.34 6692  950.5 6692  C 921.66 6692  899 6669.34  899 6640.5  C 899 6611.66  921.66 6589  950.5 6589  Z " fill-rule="nonzero" fill="#81d3f8" stroke="none" />
    <path d="M 950.5 6588.5  C 979.62 6588.5  1002.5 6611.38  1002.5 6640.5  C 1002.5 6669.62  979.62 6692.5  950.5 6692.5  C 921.38 6692.5  898.5 6669.62  898.5 6640.5  C 898.5 6611.38  921.38 6588.5  950.5 6588.5  Z " stroke-width="3" stroke="#80ffff" fill="none" />
  </g>
</svg>