<?xml version="1.0" encoding="utf-8"?>
<svg version="1.1" xmlns:xlink="http://www.w3.org/1999/xlink" width="460px" height="325px" xmlns="http://www.w3.org/2000/svg">
  <defs>
    <mask fill="white" id="clip117">
      <path d="M 459.838699310263 94.605384779522  L 230.109209088083 324.335039261643  L 0.269854981770322 94.4956853102312  C 58.3099156041865 35.8748622864787  139.262931126664 0  230 0  C 320.79365383746 0  401.791047561365 35.9196204163718  459.838699310263 94.605384779522  Z " fill-rule="evenodd" />
    </mask>
  </defs>
  <g transform="matrix(1 0 0 1 -732 -4617 )">
    <path d="M 459.838699310263 94.605384779522  L 230.109209088083 324.335039261643  L 0.269854981770322 94.4956853102312  C 58.3099156041865 35.8748622864787  139.262931126664 0  230 0  C 320.79365383746 0  401.791047561365 35.9196204163718  459.838699310263 94.605384779522  Z " fill-rule="nonzero" fill="#ff6611" stroke="none" transform="matrix(1 0 0 1 732 4617 )" />
    <path d="M 459.838699310263 94.605384779522  L 230.109209088083 324.335039261643  L 0.269854981770322 94.4956853102312  C 58.3099156041865 35.8748622864787  139.262931126664 0  230 0  C 320.79365383746 0  401.791047561365 35.9196204163718  459.838699310263 94.605384779522  Z " stroke-width="4" stroke="#ffff80" fill="none" transform="matrix(1 0 0 1 732 4617 )" mask="url(#clip117)" />
  </g>
</svg>