<?xml version="1.0" encoding="utf-8"?>
<svg version="1.1" xmlns:xlink="http://www.w3.org/1999/xlink" width="29px" height="10px" xmlns="http://www.w3.org/2000/svg">
  <g transform="matrix(1 0 0 1 -936 -6594 )">
    <path d="M 28.7094188376754 1.03092783505155  C 28.9031396125585 1.14547537227949  29 1.27720504009164  29 1.42611683848797  C 29 1.57502863688431  28.9031396125585 1.70675830469645  28.7094188376754 1.8213058419244  L 15.1683366733467 9.82817869415807  C 14.9746158984636 9.94272623138602  14.751837007348 10  14.5 10  C 14.248162992652 10  14.0253841015364 9.94272623138602  13.8316633266533 9.82817869415807  L 0.290581162324649 1.8213058419244  C 0.0968603874415501 1.70675830469645  0 1.57502863688431  0 1.42611683848797  C 0 1.27720504009164  0.0968603874415501 1.14547537227949  0.290581162324649 1.03092783505155  L 1.7434869739479 0.171821305841925  C 1.937207748831 0.0572737686139735  2.15998663994656 0  2.41182364729459 0  C 2.66366065464262 0  2.88643954575818 0.0572737686139735  3.08016032064128 0.171821305841925  L 14.5 6.92439862542955  L 25.9198396793587 0.171821305841925  C 26.1135604542418 0.0572737686139735  26.3363393453574 0  26.5881763527054 0  C 26.8400133600534 0  27.062792251169 0.0572737686139735  27.2565130260521 0.171821305841925  L 28.7094188376754 1.03092783505155  Z " fill-rule="nonzero" fill="#f92e47" stroke="none" transform="matrix(1 0 0 1 936 6594 )" />
  </g>
</svg>