<?xml version="1.0" encoding="utf-8"?>
<svg version="1.1" xmlns:xlink="http://www.w3.org/1999/xlink" width="54px" height="66px" xmlns="http://www.w3.org/2000/svg">
  <g transform="matrix(1 0 0 1 -123 -112 )">
    <path d="M 13.9049282016216 64.782617248977  C 13.9049282016216 64.782617248977  8.85706261600079 61.5858120868744  12.0928738888346 57.8775180988354  C 15.3286851616685 54.1692241107963  17.1407394744554 52.1232688070507  17.1407394744554 52.1232688070507  C 17.1407394744554 52.1232688070507  18.5644964345023 48.9264636449481  16.2347123180619 46.4968917217501  C 13.9049282016216 44.0673197985521  3.96124874455976 40.2247393024092  1.15185247182234 29.9991010427904  C -1.65754380091507 19.7734627831715  4.25697466800583 9.83998561668465  7.36209686418928 7.79485796476089  C 10.4672190603727 5.74973031283713  18.6736134360004 -3.67246494066884  35.0864021872559 2.3168374685365  C 51.4991909385113 8.30613987774183  48.3201372614664 29.4878191298094  48.3201372614664 29.4878191298094  L 52.756026113157 28.9034969435455  " stroke-width="1" stroke="#555555" fill="none" transform="matrix(1 0 0 1 123 112 )" />
  </g>
</svg>