<?xml version="1.0" encoding="utf-8"?>
<svg version="1.1" xmlns:xlink="http://www.w3.org/1999/xlink" width="11px" height="11px" xmlns="http://www.w3.org/2000/svg">
  <g transform="matrix(1 0 0 1 -94 -3 )">
    <path d="M 99.5 3  C 102.58 3  105 5.42  105 8.5  C 105 11.58  102.58 14  99.5 14  C 96.42 14  94 11.58  94 8.5  C 94 5.42  96.42 3  99.5 3  Z " fill-rule="nonzero" fill="#ffffff" stroke="none" fill-opacity="0" />
    <path d="M 99.5 3.5  C 102.3 3.5  104.5 5.7  104.5 8.5  C 104.5 11.3  102.3 13.5  99.5 13.5  C 96.7 13.5  94.5 11.3  94.5 8.5  C 94.5 5.7  96.7 3.5  99.5 3.5  Z " stroke-width="1" stroke="#555555" fill="none" />
  </g>
</svg>