<?xml version="1.0" encoding="utf-8"?>
<svg version="1.1" xmlns:xlink="http://www.w3.org/1999/xlink" width="3px" height="3px" xmlns="http://www.w3.org/2000/svg">
  <g transform="matrix(1 0 0 1 -47 -21 )">
    <path d="M 48.5 21  C 49.34 21  50 21.66  50 22.5  C 50 23.34  49.34 24  48.5 24  C 47.66 24  47 23.34  47 22.5  C 47 21.66  47.66 21  48.5 21  Z " fill-rule="nonzero" fill="#ffffff" stroke="none" fill-opacity="0" />
    <path d="M 48.5 21.5  C 49.06 21.5  49.5 21.94  49.5 22.5  C 49.5 23.06  49.06 23.5  48.5 23.5  C 47.94 23.5  47.5 23.06  47.5 22.5  C 47.5 21.94  47.94 21.5  48.5 21.5  Z " stroke-width="1" stroke="#555555" fill="none" />
  </g>
</svg>