<?xml version="1.0" encoding="utf-8"?>
<svg version="1.1" xmlns:xlink="http://www.w3.org/1999/xlink" width="55px" height="55px" xmlns="http://www.w3.org/2000/svg">
  <g transform="matrix(1 0 0 1 -36 -56 )">
    <path d="M 63.5 56  C 78.9 56  91 68.1  91 83.5  C 91 98.9  78.9 111  63.5 111  C 48.1 111  36 98.9  36 83.5  C 36 68.1  48.1 56  63.5 56  Z " fill-rule="nonzero" fill="#ffffff" stroke="none" fill-opacity="0" />
    <path d="M 63.5 56.5  C 78.62 56.5  90.5 68.38  90.5 83.5  C 90.5 98.62  78.62 110.5  63.5 110.5  C 48.38 110.5  36.5 98.62  36.5 83.5  C 36.5 68.38  48.38 56.5  63.5 56.5  Z " stroke-width="1" stroke="#555555" fill="none" />
  </g>
</svg>