<?xml version="1.0" encoding="utf-8"?>
<svg version="1.1" xmlns:xlink="http://www.w3.org/1999/xlink" width="170px" height="170px" xmlns="http://www.w3.org/2000/svg">
  <defs>
    <mask fill="white" id="clip153">
      <path d="M 20.9651474530831 136.729222520107  C 19.580574434553 136.729222520107  18.2515021635919 136.932725261193  17.0056155548586 137.312041938419  C 8.25791497467027 125.873427233995  2.37313219365918 112.079647648479  0.335875914252562 96.9153118551501  C 4.50588900651437 94.7145179850905  7.29222520107239 90.3511549469335  7.29222520107239 85.2278820375335  C 7.29222520107239 80.0816246545612  4.48083231786242 75.7021107851915  0.279669361490095 73.5109617928841  C 2.25143166909975 58.2697609485358  8.10602733270721 44.399106696656  16.8488402703237 32.8936151129414  C 17.8720470148791 33.140319895073  18.9450434882569 33.2707774798928  20.0536193029491 33.2707774798928  C 27.4552278820375 33.2707774798928  33.2707774798928 27.4552278820375  33.2707774798928 20.0536193029491  C 33.2707774798928 18.9450434882569  33.140319895073 17.8720470148791  32.8936151174179 16.8488402780247  C 44.414810955747 8.09409395520292  58.3076304622879 2.23545475499515  73.5733792333707 0.271617078687119  C 75.8944315568419 3.96748160113792  80.0041999255905 6.38069705093834  84.7721179624665 6.38069705093834  C 89.5629219964361 6.38069705093834  93.6892429643267 3.94425914198169  96.0041560695683 0.218308120084016  C 111.26716965058 2.10680440079332  125.171441489181 7.88504356779265  136.723745466576 16.5597994698556  C 136.429766418053 17.6693520353672  136.27345844504 18.8401709455655  136.27345844504 20.0536193029491  C 136.27345844504 27.4552278820375  142.089008042895 33.2707774798928  149.490616621984 33.2707774798928  C 150.737731263911 33.2707774798928  151.939818195786 33.1056758763659  153.076645962904 32.7957044481114  C 161.791981613717 44.2302118207206  167.65074970192 58.0090473712292  169.673202017227 73.1524628888799  C 166.008516431129 75.4796619594344  163.619302949062 79.5722060849532  163.619302949062 84.3163538873995  C 163.619302949062 89.1291601968629  166.078171446304 93.2713660070785  169.83310884029 95.580171718146  C 168.004878184346 110.967510944699  162.22691776661 124.9877149099  153.511927191319 136.628083945174  C 152.517369709967 136.395978054767  151.476464460551 136.27345844504  150.402144772118 136.27345844504  C 143.000536193029 136.27345844504  137.184986595174 142.089008042895  137.184986595174 149.490616621984  C 137.184986595174 150.631738318356  137.323216643724 151.735160910578  137.584177665643 152.785385331351  C 126.139760116262 161.611886284173  112.314381874451 167.561572736081  97.1039073110517 169.638580251941  C 94.8289185969347 165.736860953087  90.6071899110075 163.163538873995  85.6836461126005 163.163538873995  C 80.691285269969 163.163538873995  76.4204953780511 165.809299026611  74.1691335773281 169.802958761737  C 59.0041634771072 167.957091852537  45.1750279602406 162.272750008863  33.6539713384399 153.722178208118  C 33.9982567605799 152.529649061811  34.1823056300268 151.263112452537  34.1823056300268 149.946380697051  C 34.1823056300268 142.544772117962  28.3667560321716 136.729222520107  20.9651474530831 136.729222520107  Z " fill-rule="evenodd" />
    </mask>
  </defs>
  <g transform="matrix(1 0 0 1 -15 -15 )">
    <path d="M 20.9651474530831 136.729222520107  C 19.580574434553 136.729222520107  18.2515021635919 136.932725261193  17.0056155548586 137.312041938419  C 8.25791497467027 125.873427233995  2.37313219365918 112.079647648479  0.335875914252562 96.9153118551501  C 4.50588900651437 94.7145179850905  7.29222520107239 90.3511549469335  7.29222520107239 85.2278820375335  C 7.29222520107239 80.0816246545612  4.48083231786242 75.7021107851915  0.279669361490095 73.5109617928841  C 2.25143166909975 58.2697609485358  8.10602733270721 44.399106696656  16.8488402703237 32.8936151129414  C 17.8720470148791 33.140319895073  18.9450434882569 33.2707774798928  20.0536193029491 33.2707774798928  C 27.4552278820375 33.2707774798928  33.2707774798928 27.4552278820375  33.2707774798928 20.0536193029491  C 33.2707774798928 18.9450434882569  33.140319895073 17.8720470148791  32.8936151174179 16.8488402780247  C 44.414810955747 8.09409395520292  58.3076304622879 2.23545475499515  73.5733792333707 0.271617078687119  C 75.8944315568419 3.96748160113792  80.0041999255905 6.38069705093834  84.7721179624665 6.38069705093834  C 89.5629219964361 6.38069705093834  93.6892429643267 3.94425914198169  96.0041560695683 0.218308120084016  C 111.26716965058 2.10680440079332  125.171441489181 7.88504356779265  136.723745466576 16.5597994698556  C 136.429766418053 17.6693520353672  136.27345844504 18.8401709455655  136.27345844504 20.0536193029491  C 136.27345844504 27.4552278820375  142.089008042895 33.2707774798928  149.490616621984 33.2707774798928  C 150.737731263911 33.2707774798928  151.939818195786 33.1056758763659  153.076645962904 32.7957044481114  C 161.791981613717 44.2302118207206  167.65074970192 58.0090473712292  169.673202017227 73.1524628888799  C 166.008516431129 75.4796619594344  163.619302949062 79.5722060849532  163.619302949062 84.3163538873995  C 163.619302949062 89.1291601968629  166.078171446304 93.2713660070785  169.83310884029 95.580171718146  C 168.004878184346 110.967510944699  162.22691776661 124.9877149099  153.511927191319 136.628083945174  C 152.517369709967 136.395978054767  151.476464460551 136.27345844504  150.402144772118 136.27345844504  C 143.000536193029 136.27345844504  137.184986595174 142.089008042895  137.184986595174 149.490616621984  C 137.184986595174 150.631738318356  137.323216643724 151.735160910578  137.584177665643 152.785385331351  C 126.139760116262 161.611886284173  112.314381874451 167.561572736081  97.1039073110517 169.638580251941  C 94.8289185969347 165.736860953087  90.6071899110075 163.163538873995  85.6836461126005 163.163538873995  C 80.691285269969 163.163538873995  76.4204953780511 165.809299026611  74.1691335773281 169.802958761737  C 59.0041634771072 167.957091852537  45.1750279602406 162.272750008863  33.6539713384399 153.722178208118  C 33.9982567605799 152.529649061811  34.1823056300268 151.263112452537  34.1823056300268 149.946380697051  C 34.1823056300268 142.544772117962  28.3667560321716 136.729222520107  20.9651474530831 136.729222520107  Z " fill-rule="nonzero" fill="#ffffff" stroke="none" fill-opacity="0" transform="matrix(1 0 0 1 15 15 )" />
    <path d="M 20.9651474530831 136.729222520107  C 19.580574434553 136.729222520107  18.2515021635919 136.932725261193  17.0056155548586 137.312041938419  C 8.25791497467027 125.873427233995  2.37313219365918 112.079647648479  0.335875914252562 96.9153118551501  C 4.50588900651437 94.7145179850905  7.29222520107239 90.3511549469335  7.29222520107239 85.2278820375335  C 7.29222520107239 80.0816246545612  4.48083231786242 75.7021107851915  0.279669361490095 73.5109617928841  C 2.25143166909975 58.2697609485358  8.10602733270721 44.399106696656  16.8488402703237 32.8936151129414  C 17.8720470148791 33.140319895073  18.9450434882569 33.2707774798928  20.0536193029491 33.2707774798928  C 27.4552278820375 33.2707774798928  33.2707774798928 27.4552278820375  33.2707774798928 20.0536193029491  C 33.2707774798928 18.9450434882569  33.140319895073 17.8720470148791  32.8936151174179 16.8488402780247  C 44.414810955747 8.09409395520292  58.3076304622879 2.23545475499515  73.5733792333707 0.271617078687119  C 75.8944315568419 3.96748160113792  80.0041999255905 6.38069705093834  84.7721179624665 6.38069705093834  C 89.5629219964361 6.38069705093834  93.6892429643267 3.94425914198169  96.0041560695683 0.218308120084016  C 111.26716965058 2.10680440079332  125.171441489181 7.88504356779265  136.723745466576 16.5597994698556  C 136.429766418053 17.6693520353672  136.27345844504 18.8401709455655  136.27345844504 20.0536193029491  C 136.27345844504 27.4552278820375  142.089008042895 33.2707774798928  149.490616621984 33.2707774798928  C 150.737731263911 33.2707774798928  151.939818195786 33.1056758763659  153.076645962904 32.7957044481114  C 161.791981613717 44.2302118207206  167.65074970192 58.0090473712292  169.673202017227 73.1524628888799  C 166.008516431129 75.4796619594344  163.619302949062 79.5722060849532  163.619302949062 84.3163538873995  C 163.619302949062 89.1291601968629  166.078171446304 93.2713660070785  169.83310884029 95.580171718146  C 168.004878184346 110.967510944699  162.22691776661 124.9877149099  153.511927191319 136.628083945174  C 152.517369709967 136.395978054767  151.476464460551 136.27345844504  150.402144772118 136.27345844504  C 143.000536193029 136.27345844504  137.184986595174 142.089008042895  137.184986595174 149.490616621984  C 137.184986595174 150.631738318356  137.323216643724 151.735160910578  137.584177665643 152.785385331351  C 126.139760116262 161.611886284173  112.314381874451 167.561572736081  97.1039073110517 169.638580251941  C 94.8289185969347 165.736860953087  90.6071899110075 163.163538873995  85.6836461126005 163.163538873995  C 80.691285269969 163.163538873995  76.4204953780511 165.809299026611  74.1691335773281 169.802958761737  C 59.0041634771072 167.957091852537  45.1750279602406 162.272750008863  33.6539713384399 153.722178208118  C 33.9982567605799 152.529649061811  34.1823056300268 151.263112452537  34.1823056300268 149.946380697051  C 34.1823056300268 142.544772117962  28.3667560321716 136.729222520107  20.9651474530831 136.729222520107  Z " stroke-width="2" stroke="#555555" fill="none" transform="matrix(1 0 0 1 15 15 )" mask="url(#clip153)" />
  </g>
</svg>