<?xml version="1.0" encoding="utf-8"?>
<svg version="1.1" xmlns:xlink="http://www.w3.org/1999/xlink" width="26px" height="26px" xmlns="http://www.w3.org/2000/svg">
  <g transform="matrix(1 0 0 1 -107 -53 )">
    <path d="M 120 53  C 127.28 53  133 58.72  133 66  C 133 73.28  127.28 79  120 79  C 112.72 79  107 73.28  107 66  C 107 58.72  112.72 53  120 53  Z " fill-rule="nonzero" fill="#ffffff" stroke="none" fill-opacity="0" />
    <path d="M 120 53.5  C 127 53.5  132.5 59  132.5 66  C 132.5 73  127 78.5  120 78.5  C 113 78.5  107.5 73  107.5 66  C 107.5 59  113 53.5  120 53.5  Z " stroke-width="1" stroke="#555555" fill="none" />
  </g>
</svg>