<?xml version="1.0" encoding="utf-8"?>
<svg version="1.1" xmlns:xlink="http://www.w3.org/1999/xlink" width="90px" height="108px" xmlns="http://www.w3.org/2000/svg">
  <defs>
    <mask fill="white" id="clip161">
      <path d="M 74.3181818181818 70.9322033898305  C 69.4897246488289 70.9322033898305  65.2301538703345 68.8321448147629  62.3735695942343 65.4717828204391  C 55.791755923236 71.4502044939996  50.2941176975493 75.0508474576271  40.5469129800681 75.0508474576271  C 40.3044502257274 75.0508474576271  40.0121536217793 75.0508474576271  40.0121536217793 75.0508474576271  C 40.0121536217793 75.0508474576271  37.3869713174526 71.1965014048763  32.9144385026738 70.413396175111  C 31.4553916958479 70.157928583879  24.4069032571706 71.000725097435  20.8094312105007 74.5246986313786  C 17.2119591638308 78.0486721653222  12.8366553232863 86.1733889241367  20.8094312105007 100.171394906191  C 20.9548163786226 100.426651354116  21.2123379688158 100.910683961125  21.2123379688158 100.910683961125  C 21.2123379688158 100.910683961125  16.2870650632523 108.183155565645  16 107.954237288136  C 14.8806572007847 107.061624224617  12.1818181818182 106.44406779661  6.22727272727272 106.85593220339  C 6.12319802105555 106.863130849779  6.02060473813958 106.868892387025  5.91949023640141 106.873223185078  L 0.863636363636363 99.5796610169492  C 0.863636363636363 99.5796610169492  0.693117415396972 99.0769766682457  1.14201325315303 98.824929012089  C 1.59090909090909 98.5728813559322  5.27272727272727 98.2525423728814  7.72727272727273 91.8457627118644  C 8.70966986022275 89.2815396868762  6.41538489563886 86.1697283154273  5.91949023640141 82.8762711864407  C 5.17637885527151 77.9409377840265  5.90836254430839 72.7868556645781  7.22727272727272 69.971186440678  C 11.4041531881862 61.0541927608877  22.1271925807511 60.8125252985894  22.1271925807511 60.8125252985894  C 22.1271925807511 60.8125252985894  21.7709123511329 60.5883135816196  21.5872630043753 60.4777485724644  C 11.9129800680603 54.6534034260854  10.6003889158969 43.2983775944892  10.6003889158969 43.2983775944892  C 10.6003889158969 43.2983775944892  7.42424242424242 45.5171757454908  5.98201263976664 46.6265748209916  C 4.49116836817371 47.0833862050213  1.80116674769081 47.9970089730808  1.80116674769081 47.9970089730808  C 1.80116674769081 47.9970089730808  1.42062475491087 47.977061712982  1.36363636363636 47.7522885887791  C 0.589962363064629 44.700770229797  0 40.8498855776787  0 37.5254237288136  C 0 16.511186440678  16.4 0  37.2727272727273 0  C 58.1454545454545 0  74.5454545454545 16.511186440678  74.5454545454545 37.5254237288136  C 74.5454545454545 38.1398882761911  74.5314325363313 38.7505027125891  74.503686758928 39.3569668285779  C 83.1969740969132 39.454003435375  90 46.3650608733654  90 55.1440677966102  C 90 63.9854237288136  83.1 70.9322033898305  74.3181818181818 70.9322033898305  Z " fill-rule="evenodd" />
    </mask>
  </defs>
  <g transform="matrix(1 0 0 1 -26 -46 )">
    <path d="M 74.3181818181818 70.9322033898305  C 69.4897246488289 70.9322033898305  65.2301538703345 68.8321448147629  62.3735695942343 65.4717828204391  C 55.791755923236 71.4502044939996  50.2941176975493 75.0508474576271  40.5469129800681 75.0508474576271  C 40.3044502257274 75.0508474576271  40.0121536217793 75.0508474576271  40.0121536217793 75.0508474576271  C 40.0121536217793 75.0508474576271  37.3869713174526 71.1965014048763  32.9144385026738 70.413396175111  C 31.4553916958479 70.157928583879  24.4069032571706 71.000725097435  20.8094312105007 74.5246986313786  C 17.2119591638308 78.0486721653222  12.8366553232863 86.1733889241367  20.8094312105007 100.171394906191  C 20.9548163786226 100.426651354116  21.2123379688158 100.910683961125  21.2123379688158 100.910683961125  C 21.2123379688158 100.910683961125  16.2870650632523 108.183155565645  16 107.954237288136  C 14.8806572007847 107.061624224617  12.1818181818182 106.44406779661  6.22727272727272 106.85593220339  C 6.12319802105555 106.863130849779  6.02060473813958 106.868892387025  5.91949023640141 106.873223185078  L 0.863636363636363 99.5796610169492  C 0.863636363636363 99.5796610169492  0.693117415396972 99.0769766682457  1.14201325315303 98.824929012089  C 1.59090909090909 98.5728813559322  5.27272727272727 98.2525423728814  7.72727272727273 91.8457627118644  C 8.70966986022275 89.2815396868762  6.41538489563886 86.1697283154273  5.91949023640141 82.8762711864407  C 5.17637885527151 77.9409377840265  5.90836254430839 72.7868556645781  7.22727272727272 69.971186440678  C 11.4041531881862 61.0541927608877  22.1271925807511 60.8125252985894  22.1271925807511 60.8125252985894  C 22.1271925807511 60.8125252985894  21.7709123511329 60.5883135816196  21.5872630043753 60.4777485724644  C 11.9129800680603 54.6534034260854  10.6003889158969 43.2983775944892  10.6003889158969 43.2983775944892  C 10.6003889158969 43.2983775944892  7.42424242424242 45.5171757454908  5.98201263976664 46.6265748209916  C 4.49116836817371 47.0833862050213  1.80116674769081 47.9970089730808  1.80116674769081 47.9970089730808  C 1.80116674769081 47.9970089730808  1.42062475491087 47.977061712982  1.36363636363636 47.7522885887791  C 0.589962363064629 44.700770229797  0 40.8498855776787  0 37.5254237288136  C 0 16.511186440678  16.4 0  37.2727272727273 0  C 58.1454545454545 0  74.5454545454545 16.511186440678  74.5454545454545 37.5254237288136  C 74.5454545454545 38.1398882761911  74.5314325363313 38.7505027125891  74.503686758928 39.3569668285779  C 83.1969740969132 39.454003435375  90 46.3650608733654  90 55.1440677966102  C 90 63.9854237288136  83.1 70.9322033898305  74.3181818181818 70.9322033898305  Z " fill-rule="nonzero" fill="#ffffff" stroke="none" fill-opacity="0" transform="matrix(1 0 0 1 26 46 )" />
    <path d="M 74.3181818181818 70.9322033898305  C 69.4897246488289 70.9322033898305  65.2301538703345 68.8321448147629  62.3735695942343 65.4717828204391  C 55.791755923236 71.4502044939996  50.2941176975493 75.0508474576271  40.5469129800681 75.0508474576271  C 40.3044502257274 75.0508474576271  40.0121536217793 75.0508474576271  40.0121536217793 75.0508474576271  C 40.0121536217793 75.0508474576271  37.3869713174526 71.1965014048763  32.9144385026738 70.413396175111  C 31.4553916958479 70.157928583879  24.4069032571706 71.000725097435  20.8094312105007 74.5246986313786  C 17.2119591638308 78.0486721653222  12.8366553232863 86.1733889241367  20.8094312105007 100.171394906191  C 20.9548163786226 100.426651354116  21.2123379688158 100.910683961125  21.2123379688158 100.910683961125  C 21.2123379688158 100.910683961125  16.2870650632523 108.183155565645  16 107.954237288136  C 14.8806572007847 107.061624224617  12.1818181818182 106.44406779661  6.22727272727272 106.85593220339  C 6.12319802105555 106.863130849779  6.02060473813958 106.868892387025  5.91949023640141 106.873223185078  L 0.863636363636363 99.5796610169492  C 0.863636363636363 99.5796610169492  0.693117415396972 99.0769766682457  1.14201325315303 98.824929012089  C 1.59090909090909 98.5728813559322  5.27272727272727 98.2525423728814  7.72727272727273 91.8457627118644  C 8.70966986022275 89.2815396868762  6.41538489563886 86.1697283154273  5.91949023640141 82.8762711864407  C 5.17637885527151 77.9409377840265  5.90836254430839 72.7868556645781  7.22727272727272 69.971186440678  C 11.4041531881862 61.0541927608877  22.1271925807511 60.8125252985894  22.1271925807511 60.8125252985894  C 22.1271925807511 60.8125252985894  21.7709123511329 60.5883135816196  21.5872630043753 60.4777485724644  C 11.9129800680603 54.6534034260854  10.6003889158969 43.2983775944892  10.6003889158969 43.2983775944892  C 10.6003889158969 43.2983775944892  7.42424242424242 45.5171757454908  5.98201263976664 46.6265748209916  C 4.49116836817371 47.0833862050213  1.80116674769081 47.9970089730808  1.80116674769081 47.9970089730808  C 1.80116674769081 47.9970089730808  1.42062475491087 47.977061712982  1.36363636363636 47.7522885887791  C 0.589962363064629 44.700770229797  0 40.8498855776787  0 37.5254237288136  C 0 16.511186440678  16.4 0  37.2727272727273 0  C 58.1454545454545 0  74.5454545454545 16.511186440678  74.5454545454545 37.5254237288136  C 74.5454545454545 38.1398882761911  74.5314325363313 38.7505027125891  74.503686758928 39.3569668285779  C 83.1969740969132 39.454003435375  90 46.3650608733654  90 55.1440677966102  C 90 63.9854237288136  83.1 70.9322033898305  74.3181818181818 70.9322033898305  Z " stroke-width="2" stroke="#555555" fill="none" transform="matrix(1 0 0 1 26 46 )" mask="url(#clip161)" />
  </g>
</svg>