<?xml version="1.0" encoding="utf-8"?>
<svg version="1.1" xmlns:xlink="http://www.w3.org/1999/xlink" width="36px" height="36px" xmlns="http://www.w3.org/2000/svg">
  <g transform="matrix(1 0 0 1 -102 -48 )">
    <path d="M 120 48  C 130.08 48  138 55.92  138 66  C 138 76.08  130.08 84  120 84  C 109.92 84  102 76.08  102 66  C 102 55.92  109.92 48  120 48  Z " fill-rule="nonzero" fill="#ffffff" stroke="none" fill-opacity="0" />
    <path d="M 120 48.5  C 129.8 48.5  137.5 56.2  137.5 66  C 137.5 75.8  129.8 83.5  120 83.5  C 110.2 83.5  102.5 75.8  102.5 66  C 102.5 56.2  110.2 48.5  120 48.5  Z " stroke-width="1" stroke="#555555" fill="none" />
  </g>
</svg>