<?xml version="1.0" encoding="utf-8"?>
<svg version="1.1" xmlns:xlink="http://www.w3.org/1999/xlink" width="35px" height="75px" xmlns="http://www.w3.org/2000/svg">
  <defs>
    <mask fill="white" id="clip248">
      <path d="M 16.3407707910751 0.985801217038897  L 14.7180527383371 10.9249492900617  L 14 41.5537525354976  L 0.316430020284315 65.6916835699794  L 6.80730223123737 72.9939148073026  L 17.3549695740367 74.4137931034493  L 24.4543610547671 74.4137931034493  L 29.9310344827586 70.7626774847868  L 34.7991886409736 65.6916835699794  L 20.194726166329 41.5537525354976  L 19.1805273833675 8.89655172413768  L 16.3407707910751 0.985801217038897  Z " fill-rule="evenodd" />
    </mask>
  </defs>
  <g>
    <path d="M 16.3407707910751 0.985801217038897  L 14.7180527383371 10.9249492900617  L 14 41.5537525354976  L 0.316430020284315 65.6916835699794  L 6.80730223123737 72.9939148073026  L 17.3549695740367 74.4137931034493  L 24.4543610547671 74.4137931034493  L 29.9310344827586 70.7626774847868  L 34.7991886409736 65.6916835699794  L 20.194726166329 41.5537525354976  L 19.1805273833675 8.89655172413768  L 16.3407707910751 0.985801217038897  Z " fill-rule="nonzero" fill="#ffffff" stroke="none" fill-opacity="0" />
    <path d="M 16.3407707910751 0.985801217038897  L 14.7180527383371 10.9249492900617  L 14 41.5537525354976  L 0.316430020284315 65.6916835699794  L 6.80730223123737 72.9939148073026  L 17.3549695740367 74.4137931034493  L 24.4543610547671 74.4137931034493  L 29.9310344827586 70.7626774847868  L 34.7991886409736 65.6916835699794  L 20.194726166329 41.5537525354976  L 19.1805273833675 8.89655172413768  L 16.3407707910751 0.985801217038897  Z " stroke-width="2" stroke="#f2f2f2" fill="none" mask="url(#clip248)" />
  </g>
</svg>