<?xml version="1.0" encoding="utf-8"?>
<svg version="1.1" xmlns:xlink="http://www.w3.org/1999/xlink" width="126px" height="41px" xmlns="http://www.w3.org/2000/svg">
  <defs>
    <mask fill="white" id="clip156">
      <path d="M 0 36  L 0 5  C 0 2.19999999999982  1.93846153846158 0  4.40559440559441 0  L 86.3496503496503 0  C 88.8167832167832 0  90.7552447552448 2.19999999999982  90 5  L 90 25.0524017467251  L 125.36513268391 27.6724890829692  L 90.7552447552448 34.0043668122271  L 90.7552447552448 36  C 90.7552447552448 38.8000000000002  88.8167832167832 41  86.3496503496503 41  L 4.40559440559441 41  C 1.93846153846158 41  0 38.8000000000002  0 36  Z " fill-rule="evenodd" />
    </mask>
  </defs>
  <g transform="matrix(1 0 0 1 -709 -6047 )">
    <path d="M 0 36  L 0 5  C 0 2.19999999999982  1.93846153846158 0  4.40559440559441 0  L 86.3496503496503 0  C 88.8167832167832 0  90.7552447552448 2.19999999999982  90 5  L 90 25.0524017467251  L 125.36513268391 27.6724890829692  L 90.7552447552448 34.0043668122271  L 90.7552447552448 36  C 90.7552447552448 38.8000000000002  88.8167832167832 41  86.3496503496503 41  L 4.40559440559441 41  C 1.93846153846158 41  0 38.8000000000002  0 36  Z " fill-rule="nonzero" fill="#555555" stroke="none" transform="matrix(1 0 0 1 709 6047 )" />
    <path d="M 0 36  L 0 5  C 0 2.19999999999982  1.93846153846158 0  4.40559440559441 0  L 86.3496503496503 0  C 88.8167832167832 0  90.7552447552448 2.19999999999982  90 5  L 90 25.0524017467251  L 125.36513268391 27.6724890829692  L 90.7552447552448 34.0043668122271  L 90.7552447552448 36  C 90.7552447552448 38.8000000000002  88.8167832167832 41  86.3496503496503 41  L 4.40559440559441 41  C 1.93846153846158 41  0 38.8000000000002  0 36  Z " stroke-width="2" stroke="#aaaaaa" fill="none" transform="matrix(1 0 0 1 709 6047 )" mask="url(#clip156)" />
  </g>
</svg>