<?xml version="1.0" encoding="utf-8"?>
<svg version="1.1" xmlns:xlink="http://www.w3.org/1999/xlink" width="56px" height="24px" xmlns="http://www.w3.org/2000/svg">
  <g transform="matrix(1 0 0 1 1 -88 )">
    <path d="M 27 89  C 42.12 89  54 93.84  54 100  C 54 106.16  42.12 111  27 111  C 11.88 111  0 106.16  0 100  C 0 93.84  11.88 89  27 89  Z " fill-rule="nonzero" fill="#7697ea" stroke="none" />
    <path d="M 27 89  C 42.12 89  54 93.84  54 100  C 54 106.16  42.12 111  27 111  C 11.88 111  0 106.16  0 100  C 0 93.84  11.88 89  27 89  Z " stroke-width="2" stroke="#977670" fill="none" />
  </g>
</svg>