<?xml version="1.0" encoding="utf-8"?>
<svg version="1.1" xmlns:xlink="http://www.w3.org/1999/xlink" width="15px" height="9px" xmlns="http://www.w3.org/2000/svg">
  <g transform="matrix(1 0 0 1 -14 -55 )">
    <path d="M 21.5 55  C 25.7 55  29 56.98  29 59.5  C 29 62.02  25.7 64  21.5 64  C 17.3 64  14 62.02  14 59.5  C 14 56.98  17.3 55  21.5 55  Z " fill-rule="nonzero" fill="#feffff" stroke="none" />
    <path d="M 21.5 55.5  C 25.42 55.5  28.5 57.26  28.5 59.5  C 28.5 61.74  25.42 63.5  21.5 63.5  C 17.58 63.5  14.5 61.74  14.5 59.5  C 14.5 57.26  17.58 55.5  21.5 55.5  Z " stroke-width="1" stroke="#977670" fill="none" />
  </g>
</svg>