<?xml version="1.0" encoding="utf-8"?>
<svg version="1.1" xmlns:xlink="http://www.w3.org/1999/xlink" width="25px" height="25px" xmlns="http://www.w3.org/2000/svg">
  <g transform="matrix(1 0 0 1 -903 -4192 )">
    <path d="M 915.5 4193  C 921.94 4193  927 4198.06  927 4204.5  C 927 4210.94  921.94 4216  915.5 4216  C 909.06 4216  904 4210.94  904 4204.5  C 904 4198.06  909.06 4193  915.5 4193  Z " fill-rule="nonzero" fill="#a30014" stroke="none" />
    <path d="M 915.5 4193  C 921.94 4193  927 4198.06  927 4204.5  C 927 4210.94  921.94 4216  915.5 4216  C 909.06 4216  904 4210.94  904 4204.5  C 904 4198.06  909.06 4193  915.5 4193  Z " stroke-width="2" stroke="#b8741a" fill="none" />
  </g>
</svg>