<?xml version="1.0" encoding="utf-8"?>
<svg version="1.1" xmlns:xlink="http://www.w3.org/1999/xlink" width="37px" height="32px" xmlns="http://www.w3.org/2000/svg">
  <defs>
    <mask fill="white" id="clip168">
      <path d="M 19.4084821428571 31.625  C 19.1607142857143 31.875  18.8578869047619 32  18.5 32  C 18.1421130952381 32  17.8392857142857 31.875  17.5915178571429 31.625  L 4.70758928571429 19.0833333333333  C 4.56994047619048 18.9722222222222  4.38067336309524 18.7916666666667  4.13978794642857 18.5416666666667  C 3.89890252976191 18.2916666666667  3.51692708333333 17.8368055555556  2.99386160714286 17.1770833333333  C 2.47079613095238 16.5173611111111  2.00279017857143 15.8402777777778  1.58984375 15.1458333333333  C 1.17689732142857 14.4513888888889  0.808686755952381 13.6111111111111  0.485212053571429 12.625  C 0.161737351190476 11.6388888888889  0 10.6805555555556  0 9.75  C 0 6.69444444444444  0.87406994047619 4.30555555555555  2.62220982142857 2.58333333333333  C 4.37034970238095 0.861111111111111  6.78608630952381 0  9.86941964285714 0  C 10.7228422619048 0  11.5934709821429 0.149305555555554  12.4813058035714 0.447916666666668  C 13.369140625 0.746527777777775  14.1950334821429 1.14930555555555  14.958984375 1.65625  C 15.7229352678571 2.16319444444444  16.3802083333333 2.63888888888889  16.9308035714286 3.08333333333333  C 17.4813988095238 3.52777777777778  18.0044642857143 4  18.5 4.5  C 18.9955357142857 4  19.5186011904762 3.52777777777778  20.0691964285714 3.08333333333333  C 20.6197916666667 2.63888888888889  21.2770647321429 2.16319444444444  22.041015625 1.65625  C 22.8049665178571 1.14930555555555  23.630859375 0.746527777777775  24.5186941964286 0.447916666666668  C 25.4065290178571 0.149305555555554  26.2771577380952 0  27.1305803571429 0  C 30.2139136904762 0  32.6296502976191 0.861111111111111  34.3777901785714 2.58333333333333  C 36.1259300595238 4.30555555555555  37 6.69444444444444  37 9.75  C 37 12.8194444444444  35.4239211309524 15.9444444444444  32.2717633928571 19.125  L 19.4084821428571 31.625  Z " fill-rule="evenodd" />
    </mask>
  </defs>
  <g>
    <path d="M 19.4084821428571 31.625  C 19.1607142857143 31.875  18.8578869047619 32  18.5 32  C 18.1421130952381 32  17.8392857142857 31.875  17.5915178571429 31.625  L 4.70758928571429 19.0833333333333  C 4.56994047619048 18.9722222222222  4.38067336309524 18.7916666666667  4.13978794642857 18.5416666666667  C 3.89890252976191 18.2916666666667  3.51692708333333 17.8368055555556  2.99386160714286 17.1770833333333  C 2.47079613095238 16.5173611111111  2.00279017857143 15.8402777777778  1.58984375 15.1458333333333  C 1.17689732142857 14.4513888888889  0.808686755952381 13.6111111111111  0.485212053571429 12.625  C 0.161737351190476 11.6388888888889  0 10.6805555555556  0 9.75  C 0 6.69444444444444  0.87406994047619 4.30555555555555  2.62220982142857 2.58333333333333  C 4.37034970238095 0.861111111111111  6.78608630952381 0  9.86941964285714 0  C 10.7228422619048 0  11.5934709821429 0.149305555555554  12.4813058035714 0.447916666666668  C 13.369140625 0.746527777777775  14.1950334821429 1.14930555555555  14.958984375 1.65625  C 15.7229352678571 2.16319444444444  16.3802083333333 2.63888888888889  16.9308035714286 3.08333333333333  C 17.4813988095238 3.52777777777778  18.0044642857143 4  18.5 4.5  C 18.9955357142857 4  19.5186011904762 3.52777777777778  20.0691964285714 3.08333333333333  C 20.6197916666667 2.63888888888889  21.2770647321429 2.16319444444444  22.041015625 1.65625  C 22.8049665178571 1.14930555555555  23.630859375 0.746527777777775  24.5186941964286 0.447916666666668  C 25.4065290178571 0.149305555555554  26.2771577380952 0  27.1305803571429 0  C 30.2139136904762 0  32.6296502976191 0.861111111111111  34.3777901785714 2.58333333333333  C 36.1259300595238 4.30555555555555  37 6.69444444444444  37 9.75  C 37 12.8194444444444  35.4239211309524 15.9444444444444  32.2717633928571 19.125  L 19.4084821428571 31.625  Z " fill-rule="nonzero" fill="#f99ca7" stroke="none" />
    <path d="M 19.4084821428571 31.625  C 19.1607142857143 31.875  18.8578869047619 32  18.5 32  C 18.1421130952381 32  17.8392857142857 31.875  17.5915178571429 31.625  L 4.70758928571429 19.0833333333333  C 4.56994047619048 18.9722222222222  4.38067336309524 18.7916666666667  4.13978794642857 18.5416666666667  C 3.89890252976191 18.2916666666667  3.51692708333333 17.8368055555556  2.99386160714286 17.1770833333333  C 2.47079613095238 16.5173611111111  2.00279017857143 15.8402777777778  1.58984375 15.1458333333333  C 1.17689732142857 14.4513888888889  0.808686755952381 13.6111111111111  0.485212053571429 12.625  C 0.161737351190476 11.6388888888889  0 10.6805555555556  0 9.75  C 0 6.69444444444444  0.87406994047619 4.30555555555555  2.62220982142857 2.58333333333333  C 4.37034970238095 0.861111111111111  6.78608630952381 0  9.86941964285714 0  C 10.7228422619048 0  11.5934709821429 0.149305555555554  12.4813058035714 0.447916666666668  C 13.369140625 0.746527777777775  14.1950334821429 1.14930555555555  14.958984375 1.65625  C 15.7229352678571 2.16319444444444  16.3802083333333 2.63888888888889  16.9308035714286 3.08333333333333  C 17.4813988095238 3.52777777777778  18.0044642857143 4  18.5 4.5  C 18.9955357142857 4  19.5186011904762 3.52777777777778  20.0691964285714 3.08333333333333  C 20.6197916666667 2.63888888888889  21.2770647321429 2.16319444444444  22.041015625 1.65625  C 22.8049665178571 1.14930555555555  23.630859375 0.746527777777775  24.5186941964286 0.447916666666668  C 25.4065290178571 0.149305555555554  26.2771577380952 0  27.1305803571429 0  C 30.2139136904762 0  32.6296502976191 0.861111111111111  34.3777901785714 2.58333333333333  C 36.1259300595238 4.30555555555555  37 6.69444444444444  37 9.75  C 37 12.8194444444444  35.4239211309524 15.9444444444444  32.2717633928571 19.125  L 19.4084821428571 31.625  Z " stroke-width="4" stroke="#f92e47" fill="none" mask="url(#clip168)" />
  </g>
</svg>