<?xml version="1.0" encoding="utf-8"?>
<svg version="1.1" xmlns:xlink="http://www.w3.org/1999/xlink" width="343px" height="431px" xmlns="http://www.w3.org/2000/svg">
  <defs>
    <mask fill="white" id="clip137">
      <path d="M 0.445819480979008 225.222199417614  C -6.10449230713069 138.265653286099  69.2342611983298 10.9841847989537  205.030651975952 0.599568688037084  C 212.080444305973 0.599568688036767  385.158041591921 74.6898751399428  332.237329220471 277.772811992127  C 277.555462792021 431.24693233502  137.422398192276 431.252040226954  136.903442450938 430.737841017231  C 73.9597709395492 403.050403131643  5.59759827588167 345.649502888691  0.445819480979008 225.222199417614  Z " fill-rule="evenodd" />
    </mask>
  </defs>
  <g transform="matrix(1 0 0 1 -774 -2815 )">
    <path d="M 0.445819480979008 225.222199417614  C -6.10449230713069 138.265653286099  69.2342611983298 10.9841847989537  205.030651975952 0.599568688037084  C 212.080444305973 0.599568688036767  385.158041591921 74.6898751399428  332.237329220471 277.772811992127  C 277.555462792021 431.24693233502  137.422398192276 431.252040226954  136.903442450938 430.737841017231  C 73.9597709395492 403.050403131643  5.59759827588167 345.649502888691  0.445819480979008 225.222199417614  Z " fill-rule="nonzero" fill="#ff0000" stroke="none" transform="matrix(1 0 0 1 774 2815 )" />
    <path d="M 0.445819480979008 225.222199417614  C -6.10449230713069 138.265653286099  69.2342611983298 10.9841847989537  205.030651975952 0.599568688037084  C 212.080444305973 0.599568688036767  385.158041591921 74.6898751399428  332.237329220471 277.772811992127  C 277.555462792021 431.24693233502  137.422398192276 431.252040226954  136.903442450938 430.737841017231  C 73.9597709395492 403.050403131643  5.59759827588167 345.649502888691  0.445819480979008 225.222199417614  Z " stroke-width="2" stroke="#ff0000" fill="none" transform="matrix(1 0 0 1 774 2815 )" mask="url(#clip137)" />
  </g>
</svg>