<?xml version="1.0" encoding="utf-8"?>
<svg version="1.1" xmlns:xlink="http://www.w3.org/1999/xlink" width="326px" height="413px" xmlns="http://www.w3.org/2000/svg">
  <defs>
    <mask fill="white" id="clip138">
      <path d="M 0.49300993408785 226.181894963065  C 0.493009934087832 100.181894963041  99.0755108647908 0.8458074894279  225.075510864792 0.845807489428723  C 232.125303194813 0.845807489427679  365.580625344197 93.2079427534561  313.416985747421 265.582403460424  C 255.59400233545 418.76775716416  100.09114871976 413.465169893946  99.5721929784225 412.950970684223  C 28.294762111424 363.307362344356  0.493009934115393 289.579309636952  0.49300993408785 226.181894963065  Z " fill-rule="evenodd" />
    </mask>
  </defs>
  <g transform="matrix(1 0 0 1 -749 -2174 )">
    <path d="M 0.49300993408785 226.181894963065  C 0.493009934087832 100.181894963041  99.0755108647908 0.8458074894279  225.075510864792 0.845807489428723  C 232.125303194813 0.845807489427679  365.580625344197 93.2079427534561  313.416985747421 265.582403460424  C 255.59400233545 418.76775716416  100.09114871976 413.465169893946  99.5721929784225 412.950970684223  C 28.294762111424 363.307362344356  0.493009934115393 289.579309636952  0.49300993408785 226.181894963065  Z " fill-rule="nonzero" fill="#ff0000" stroke="none" transform="matrix(1 0 0 1 749 2174 )" />
    <path d="M 0.49300993408785 226.181894963065  C 0.493009934087832 100.181894963041  99.0755108647908 0.8458074894279  225.075510864792 0.845807489428723  C 232.125303194813 0.845807489427679  365.580625344197 93.2079427534561  313.416985747421 265.582403460424  C 255.59400233545 418.76775716416  100.09114871976 413.465169893946  99.5721929784225 412.950970684223  C 28.294762111424 363.307362344356  0.493009934115393 289.579309636952  0.49300993408785 226.181894963065  Z " stroke-width="2" stroke="#ff0000" fill="none" transform="matrix(1 0 0 1 749 2174 )" mask="url(#clip138)" />
  </g>
</svg>