<?xml version="1.0" encoding="utf-8"?>
<svg version="1.1" xmlns:xlink="http://www.w3.org/1999/xlink" width="217px" height="217px" xmlns="http://www.w3.org/2000/svg">
  <g transform="matrix(1 0 0 1 -187 -3845 )">
    <path d="M 295.5 3845  C 356.26 3845  404 3892.74  404 3953.5  C 404 4014.26  356.26 4062  295.5 4062  C 234.74 4062  187 4014.26  187 3953.5  C 187 3892.74  234.74 3845  295.5 3845  Z " fill-rule="nonzero" fill="#ffffff" stroke="none" />
    <path d="M 295.5 3845.5  C 355.98 3845.5  403.5 3893.02  403.5 3953.5  C 403.5 4013.98  355.98 4061.5  295.5 4061.5  C 235.02 4061.5  187.5 4013.98  187.5 3953.5  C 187.5 3893.02  235.02 3845.5  295.5 3845.5  Z " stroke-width="1" stroke="#797979" fill="none" />
  </g>
</svg>