<?xml version="1.0" encoding="utf-8"?>
<svg version="1.1" xmlns:xlink="http://www.w3.org/1999/xlink" width="357px" height="357px" xmlns="http://www.w3.org/2000/svg">
  <g transform="matrix(1 0 0 1 -766 -1351 )">
    <path d="M 944.5 1355  C 1042.22 1355  1119 1431.78  1119 1529.5  C 1119 1627.22  1042.22 1704  944.5 1704  C 846.78 1704  770 1627.22  770 1529.5  C 770 1431.78  846.78 1355  944.5 1355  Z " fill-rule="nonzero" fill="#99ffff" stroke="none" />
    <path d="M 944.5 1353.5  C 1043.06 1353.5  1120.5 1430.94  1120.5 1529.5  C 1120.5 1628.06  1043.06 1705.5  944.5 1705.5  C 845.94 1705.5  768.5 1628.06  768.5 1529.5  C 768.5 1430.94  845.94 1353.5  944.5 1353.5  Z " stroke-width="5" stroke="#0099ff" fill="none" />
  </g>
</svg>