<?xml version="1.0" encoding="utf-8"?>
<svg version="1.1" xmlns:xlink="http://www.w3.org/1999/xlink" width="36px" height="36px" xmlns="http://www.w3.org/2000/svg">
  <g transform="matrix(1 0 0 1 -927 -681 )">
    <path d="M 945 682.5  C 954.24 682.5  961.5 689.76  961.5 699  C 961.5 708.24  954.24 715.5  945 715.5  C 935.76 715.5  928.5 708.24  928.5 699  C 928.5 689.76  935.76 682.5  945 682.5  Z " fill-rule="nonzero" fill="#ff9900" stroke="none" />
    <path d="M 945 682  C 954.52 682  962 689.48  962 699  C 962 708.52  954.52 716  945 716  C 935.48 716  928 708.52  928 699  C 928 689.48  935.48 682  945 682  Z " stroke-width="2" stroke-dasharray="18,8" stroke="#ff3300" fill="none" />
  </g>
</svg>