<?xml version="1.0" encoding="utf-8"?>
<svg version="1.1" xmlns:xlink="http://www.w3.org/1999/xlink" width="72px" height="72px" xmlns="http://www.w3.org/2000/svg">
  <g transform="matrix(1 0 0 1 -911 -2967 )">
    <path d="M 947 2968  C 966.6 2968  982 2983.4  982 3003  C 982 3022.6  966.6 3038  947 3038  C 927.4 3038  912 3022.6  912 3003  C 912 2983.4  927.4 2968  947 2968  Z " fill-rule="nonzero" fill="#ffffff" stroke="none" fill-opacity="0" />
    <path d="M 947 2968  C 966.6 2968  982 2983.4  982 3003  C 982 3022.6  966.6 3038  947 3038  C 927.4 3038  912 3022.6  912 3003  C 912 2983.4  927.4 2968  947 2968  Z " stroke-width="2" stroke="#ff6600" fill="none" />
  </g>
</svg>