<?xml version="1.0" encoding="utf-8"?>
<svg version="1.1" xmlns:xlink="http://www.w3.org/1999/xlink" width="72px" height="72px" xmlns="http://www.w3.org/2000/svg">
  <g transform="matrix(1 0 0 1 -911 -3222 )">
    <path d="M 947 3223  C 966.6 3223  982 3238.4  982 3258  C 982 3277.6  966.6 3293  947 3293  C 927.4 3293  912 3277.6  912 3258  C 912 3238.4  927.4 3223  947 3223  Z " fill-rule="nonzero" fill="#ffffff" stroke="none" fill-opacity="0" />
    <path d="M 947 3223  C 966.6 3223  982 3238.4  982 3258  C 982 3277.6  966.6 3293  947 3293  C 927.4 3293  912 3277.6  912 3258  C 912 3238.4  927.4 3223  947 3223  Z " stroke-width="2" stroke="#ff6600" fill="none" />
  </g>
</svg>