<?xml version="1.0" encoding="utf-8"?>
<svg version="1.1" xmlns:xlink="http://www.w3.org/1999/xlink" width="389px" height="389px" xmlns="http://www.w3.org/2000/svg">
  <g transform="matrix(1 0 0 1 -776 -3735 )">
    <path d="M 970.5 3735  C 1079.42 3735  1165 3820.58  1165 3929.5  C 1165 4038.42  1079.42 4124  970.5 4124  C 861.58 4124  776 4038.42  776 3929.5  C 776 3820.58  861.58 3735  970.5 3735  Z " fill-rule="nonzero" fill="#ffffff" stroke="none" />
    <path d="M 970.5 3735.5  C 1079.14 3735.5  1164.5 3820.86  1164.5 3929.5  C 1164.5 4038.14  1079.14 4123.5  970.5 4123.5  C 861.86 4123.5  776.5 4038.14  776.5 3929.5  C 776.5 3820.86  861.86 3735.5  970.5 3735.5  Z " stroke-width="1" stroke="#cccccc" fill="none" />
  </g>
</svg>