<?xml version="1.0" encoding="utf-8"?>
<svg version="1.1" xmlns:xlink="http://www.w3.org/1999/xlink" width="26px" height="26px" xmlns="http://www.w3.org/2000/svg">
  <g transform="matrix(1 0 0 1 -957 -3746 )">
    <path d="M 970 3746  C 977.28 3746  983 3751.72  983 3759  C 983 3766.28  977.28 3772  970 3772  C 962.72 3772  957 3766.28  957 3759  C 957 3751.72  962.72 3746  970 3746  Z " fill-rule="nonzero" fill="#ffffff" stroke="none" />
    <path d="M 970 3746.5  C 977 3746.5  982.5 3752  982.5 3759  C 982.5 3766  977 3771.5  970 3771.5  C 963 3771.5  957.5 3766  957.5 3759  C 957.5 3752  963 3746.5  970 3746.5  Z " stroke-width="1" stroke="#cccccc" fill="none" />
  </g>
</svg>