<?xml version="1.0" encoding="utf-8"?>
<svg version="1.1" xmlns:xlink="http://www.w3.org/1999/xlink" width="389px" height="389px" xmlns="http://www.w3.org/2000/svg">
  <g transform="matrix(1 0 0 1 -776 -4138 )">
    <path d="M 970.5 4138  C 1079.42 4138  1165 4223.58  1165 4332.5  C 1165 4441.42  1079.42 4527  970.5 4527  C 861.58 4527  776 4441.42  776 4332.5  C 776 4223.58  861.58 4138  970.5 4138  Z " fill-rule="nonzero" fill="#ffffff" stroke="none" />
    <path d="M 970.5 4138.5  C 1079.14 4138.5  1164.5 4223.86  1164.5 4332.5  C 1164.5 4441.14  1079.14 4526.5  970.5 4526.5  C 861.86 4526.5  776.5 4441.14  776.5 4332.5  C 776.5 4223.86  861.86 4138.5  970.5 4138.5  Z " stroke-width="1" stroke="#cccccc" fill="none" />
  </g>
</svg>