<?xml version="1.0" encoding="utf-8"?>
<svg version="1.1" xmlns:xlink="http://www.w3.org/1999/xlink" width="26px" height="26px" xmlns="http://www.w3.org/2000/svg">
  <g transform="matrix(1 0 0 1 -957 -4149 )">
    <path d="M 970 4149  C 977.28 4149  983 4154.72  983 4162  C 983 4169.28  977.28 4175  970 4175  C 962.72 4175  957 4169.28  957 4162  C 957 4154.72  962.72 4149  970 4149  Z " fill-rule="nonzero" fill="#ffffff" stroke="none" />
    <path d="M 970 4149.5  C 977 4149.5  982.5 4155  982.5 4162  C 982.5 4169  977 4174.5  970 4174.5  C 963 4174.5  957.5 4169  957.5 4162  C 957.5 4155  963 4149.5  970 4149.5  Z " stroke-width="1" stroke="#cccccc" fill="none" />
  </g>
</svg>